<svg version="1.1" viewBox="0.0 0.0 557.8582677165355 557.8582677165355" fill="none" stroke="none" stroke-linecap="square" stroke-miterlimit="10" xmlns:xlink="http://www.w3.org/1999/xlink" xmlns="http://www.w3.org/2000/svg"><clipPath id="p.0"><path d="m0 0l557.8583 0l0 557.8583l-557.8583 0l0 -557.8583z" clip-rule="nonzero"/></clipPath><g clip-path="url(#p.0)"><path fill="#000000" fill-opacity="0.0" d="m0 0l557.8583 0l0 557.8583l-557.8583 0z" fill-rule="evenodd"/><path fill="#ffffff" d="m166.61313 268.30933l83.433075 0l0 -21.212585l42.4252 42.4252l-42.4252 42.4252l0 -21.212616l-83.433075 0z" fill-rule="evenodd"/><path stroke="#000000" stroke-width="8.0" stroke-linejoin="round" stroke-linecap="butt" d="m166.61313 268.30933l83.433075 0l0 -21.212585l42.4252 42.4252l-42.4252 42.4252l0 -21.212616l-83.433075 0z" fill-rule="evenodd"/><path fill="#ffffff" d="m295.43347 150.21042c-1.2268066 -1.8485718 -2.8104858 -3.086441 -4.7315063 -3.3709412c-9.404297 -1.355072 -10.845306 6.6136627 -14.555176 1.0236511c-0.57559204 -0.8673096 -1.2109985 -2.0596771 -1.9284058 -3.6626892c-1.9668884 -4.412262 -0.21051025 -10.757385 2.6023865 -17.885696c-11.703339 -2.3005676 -22.670578 -6.010666 -27.895828 -9.655777c-2.938736 -2.0529633 -4.441284 -3.29908 -5.084091 -4.2676773c-1.7604065 -2.652565 2.8968048 -3.2172852 2.1743317 -12.540634c-0.14099121 -1.7393341 -0.73583984 -3.3142548 -1.6559448 -4.7006836c-5.760147 -8.679398 -24.405304 -9.929565 -25.586899 2.6453018c-0.41514587 4.242218 0.65878296 7.1132507 2.0242462 9.170731c1.4494934 2.1840897 3.2290497 3.456108 3.9096832 4.481682c0.8738861 1.3167877 -0.051727295 2.2319717 -5.7773285 4.162277c-7.933426 2.5838928 -23.202194 -4.8280563 -37.33374 -11.061493c3.0978394 13.920479 7.423462 28.503426 4.134445 34.37925c-5.7698975 10.476746 -4.4407806 -5.3602753 -15.724701 -5.4497375c-9.189621 -0.06587219 -15.018173 21.793686 -9.043762 30.79596c1.3570557 2.044815 3.3258362 3.4192352 6.001587 3.7317505c12.182434 1.4172668 10.988586 -10.547791 13.959 -6.0719757c0.5545807 0.83566284 1.2493286 2.2348633 2.2084656 4.3978424c3.1514893 7.136902 5.063553 20.458221 5.092743 33.187057c8.2265625 3.4041748 15.682465 5.6601562 20.704376 3.7135468c6.9564056 -2.7379913 7.1415253 -3.490036 5.9651184 -5.2626343c-0.21426392 -0.32286072 -0.4801941 -0.68440247 -0.75328064 -1.0959015c-1.1763916 -1.7725983 -2.5749512 -4.519394 -1.5827026 -9.719086c2.2809296 -11.362091 23.638474 -9.039505 29.23056 -0.613327c0.802475 1.2091675 1.2803345 2.542572 1.3314362 3.9767914c0.23495483 8.771469 -5.559662 9.853928 -3.5303802 12.911652c0.6134033 0.9242859 1.9544067 2.0314026 4.4007874 3.5904083c5.1173096 3.3519745 17.183289 1.7096405 29.746246 0.02015686c-3.7719421 -11.895538 -7.469879 -23.940521 -4.2846375 -30.768799c6.4349976 -13.963837 6.110138 4.717499 19.099335 4.3227386c10.667084 -0.3310089 12.551331 -21.843613 6.8836365 -30.383743z" fill-rule="evenodd"/><path stroke="#000000" stroke-width="8.0" stroke-linejoin="round" stroke-linecap="butt" d="m295.43347 150.21042c-1.2268066 -1.8485718 -2.8104858 -3.086441 -4.7315063 -3.3709412c-9.404297 -1.355072 -10.845306 6.6136627 -14.555176 1.0236511c-0.57559204 -0.8673096 -1.2109985 -2.0596771 -1.9284058 -3.6626892c-1.9668884 -4.412262 -0.21051025 -10.757385 2.6023865 -17.885696c-11.703339 -2.3005676 -22.670578 -6.010666 -27.895828 -9.655777c-2.938736 -2.0529633 -4.441284 -3.29908 -5.084091 -4.2676773c-1.7604065 -2.652565 2.8968048 -3.2172852 2.1743317 -12.540634c-0.14099121 -1.7393341 -0.73583984 -3.3142548 -1.6559448 -4.7006836c-5.760147 -8.679398 -24.405304 -9.929565 -25.586899 2.6453018c-0.41514587 4.242218 0.65878296 7.1132507 2.0242462 9.170731c1.4494934 2.1840897 3.2290497 3.456108 3.9096832 4.481682c0.8738861 1.3167877 -0.051727295 2.2319717 -5.7773285 4.162277c-7.933426 2.5838928 -23.202194 -4.8280563 -37.33374 -11.061493c3.0978394 13.920479 7.423462 28.503426 4.134445 34.37925c-5.7698975 10.476746 -4.4407806 -5.3602753 -15.724701 -5.4497375c-9.189621 -0.06587219 -15.018173 21.793686 -9.043762 30.79596c1.3570557 2.044815 3.3258362 3.4192352 6.001587 3.7317505c12.182434 1.4172668 10.988586 -10.547791 13.959 -6.0719757c0.5545807 0.83566284 1.2493286 2.2348633 2.2084656 4.3978424c3.1514893 7.136902 5.063553 20.458221 5.092743 33.187057c8.2265625 3.4041748 15.682465 5.6601562 20.704376 3.7135468c6.9564056 -2.7379913 7.1415253 -3.490036 5.9651184 -5.2626343c-0.21426392 -0.32286072 -0.4801941 -0.68440247 -0.75328064 -1.0959015c-1.1763916 -1.7725983 -2.5749512 -4.519394 -1.5827026 -9.719086c2.2809296 -11.362091 23.638474 -9.039505 29.23056 -0.613327c0.802475 1.2091675 1.2803345 2.542572 1.3314362 3.9767914c0.23495483 8.771469 -5.559662 9.853928 -3.5303802 12.911652c0.6134033 0.9242859 1.9544067 2.0314026 4.4007874 3.5904083c5.1173096 3.3519745 17.183289 1.7096405 29.746246 0.02015686c-3.7719421 -11.895538 -7.469879 -23.940521 -4.2846375 -30.768799c6.4349976 -13.963837 6.110138 4.717499 19.099335 4.3227386c10.667084 -0.3310089 12.551331 -21.843613 6.8836365 -30.383743z" fill-rule="evenodd"/><path fill="#ffffff" d="m252.04771 383.133c-6.140564 -1.0106506 -11.42482 -1.1417236 -14.935318 0.48919678c-14.197998 6.629608 2.0131378 2.9276428 2.1637573 17.169983c0.100738525 8.463715 -9.078186 11.736023 -17.00319 10.431671c-5.3533173 -0.881073 -10.133575 -3.8399658 -11.121689 -8.690582c-2.4582367 -12.106262 7.246231 -9.9166565 -4.885315 -15.840729c-3.1072235 -1.5206604 -8.000793 -2.8087769 -13.788971 -3.761444c-4.8209686 -0.79345703 -10.258194 -1.3519287 -15.810959 -1.6295776c-3.6119232 12.445587 -10.095673 27.226898 -6.1165314 36.175385c1.8787537 4.2585144 3.0770874 5.867279 4.2467194 6.059784c2.676651 0.44052124 5.1508026 -6.5901184 15.160477 -5.973877c0.35824585 0.022399902 0.7129822 0.06616211 1.0578766 0.122924805c13.488251 2.2200012 17.189636 28.901978 5.38591 30.85736c-2.176712 0.35845947 -4.1209717 0.2871399 -5.8829193 -0.0028686523c-4.1536865 -0.6836548 -7.273758 -2.5940552 -9.980408 -3.0395203c-2.5566864 -0.42080688 -4.745178 0.4769287 -7.0714874 4.972168c-2.6014404 4.903412 -3.78891 13.520813 -3.7625275 22.857239c2.1576843 0.31854248 4.3406677 0.6705322 6.5299683 1.0308533c3.2539825 0.5355835 6.5119324 1.0937195 9.683441 1.6157227c11.426392 1.8806458 21.682251 3.2468262 26.306671 1.0240173c10.951614 -5.3867188 -2.9403076 -2.487854 -1.7272186 -14.582275c0.7461853 -7.52713 12.063675 -11.581085 20.828415 -10.138519c5.2258453 0.8601074 9.551804 3.6784058 10.18306 8.872528c1.7589111 13.921936 -13.35231 10.9887085 0.34529114 17.316803c0.9301605 0.43099976 2.0048828 0.73220825 3.2045135 0.929657c9.094635 1.4968567 25.375214 -3.1882935 39.976685 -6.935791c-1.007721 -11.421387 -3.8959656 -22.786621 -7.6159973 -28.584198c-2.1609497 -3.3395996 -3.617981 -4.639862 -4.9300537 -4.855835c-2.9465637 -0.48495483 -5.1524963 4.542053 -12.994202 4.2753296c-0.3144226 -0.007873535 -0.632843 -0.038360596 -0.93273926 -0.08770752c-10.601669 -1.7449036 -12.528503 -27.65213 0.7710266 -29.712372c1.6190796 -0.2454834 3.0776062 -0.21749878 4.3971863 -3.3569336E-4c6.365509 1.047699 9.568207 6.5260925 12.297363 6.975281c1.5220032 0.25048828 2.900299 -1.0585022 4.5930786 -5.5410156c2.3456726 -6.20343 -0.50827026 -15.858978 -4.096039 -25.781555c-8.314331 -2.2606812 -17.023224 -4.7910767 -24.475876 -6.0177z" fill-rule="evenodd"/><path stroke="#000000" stroke-width="8.0" stroke-linejoin="round" stroke-linecap="butt" d="m252.04771 383.133c-6.140564 -1.0106506 -11.42482 -1.1417236 -14.935318 0.48919678c-14.197998 6.629608 2.0131378 2.9276428 2.1637573 17.169983c0.100738525 8.463715 -9.078186 11.736023 -17.00319 10.431671c-5.3533173 -0.881073 -10.133575 -3.8399658 -11.121689 -8.690582c-2.4582367 -12.106262 7.246231 -9.9166565 -4.885315 -15.840729c-3.1072235 -1.5206604 -8.000793 -2.8087769 -13.788971 -3.761444c-4.8209686 -0.79345703 -10.258194 -1.3519287 -15.810959 -1.6295776c-3.6119232 12.445587 -10.095673 27.226898 -6.1165314 36.175385c1.8787537 4.2585144 3.0770874 5.867279 4.2467194 6.059784c2.676651 0.44052124 5.1508026 -6.5901184 15.160477 -5.973877c0.35824585 0.022399902 0.7129822 0.06616211 1.0578766 0.122924805c13.488251 2.2200012 17.189636 28.901978 5.38591 30.85736c-2.176712 0.35845947 -4.1209717 0.2871399 -5.8829193 -0.0028686523c-4.1536865 -0.6836548 -7.273758 -2.5940552 -9.980408 -3.0395203c-2.5566864 -0.42080688 -4.745178 0.4769287 -7.0714874 4.972168c-2.6014404 4.903412 -3.78891 13.520813 -3.7625275 22.857239c2.1576843 0.31854248 4.3406677 0.6705322 6.5299683 1.0308533c3.2539825 0.5355835 6.5119324 1.0937195 9.683441 1.6157227c11.426392 1.8806458 21.682251 3.2468262 26.306671 1.0240173c10.951614 -5.3867188 -2.9403076 -2.487854 -1.7272186 -14.582275c0.7461853 -7.52713 12.063675 -11.581085 20.828415 -10.138519c5.2258453 0.8601074 9.551804 3.6784058 10.18306 8.872528c1.7589111 13.921936 -13.35231 10.9887085 0.34529114 17.316803c0.9301605 0.43099976 2.0048828 0.73220825 3.2045135 0.929657c9.094635 1.4968567 25.375214 -3.1882935 39.976685 -6.935791c-1.007721 -11.421387 -3.8959656 -22.786621 -7.6159973 -28.584198c-2.1609497 -3.3395996 -3.617981 -4.639862 -4.9300537 -4.855835c-2.9465637 -0.48495483 -5.1524963 4.542053 -12.994202 4.2753296c-0.3144226 -0.007873535 -0.632843 -0.038360596 -0.93273926 -0.08770752c-10.601669 -1.7449036 -12.528503 -27.65213 0.7710266 -29.712372c1.6190796 -0.2454834 3.0776062 -0.21749878 4.3971863 -3.3569336E-4c6.365509 1.047699 9.568207 6.5260925 12.297363 6.975281c1.5220032 0.25048828 2.900299 -1.0585022 4.5930786 -5.5410156c2.3456726 -6.20343 -0.50827026 -15.858978 -4.096039 -25.781555c-8.314331 -2.2606812 -17.023224 -4.7910767 -24.475876 -6.0177z" fill-rule="evenodd"/><path fill="#000000" d="m322.36707 247.93845c-4.1768494 15.252075 -8.754608 31.095032 -4.462097 38.79074c3.544281 6.276581 5.7917786 6.492737 8.46579 4.613922c1.8596191 -1.3065491 3.9204102 -3.6221924 6.764099 -5.620178c2.7351074 -1.9217224 6.190857 -3.5518494 10.880676 -3.7052612c14.679596 -0.53985596 13.124207 22.824066 2.6316833 30.196167c-1.3302307 0.93463135 -2.800476 1.6085815 -4.393341 1.9497986c-10.928467 2.3226013 -12.041199 -6.1710815 -15.013855 -4.0824585c-0.8958435 0.62942505 -1.9690247 2.2312012 -3.5291443 5.3919067c-2.6953125 5.4243774 -3.39328 15.718872 -2.7930298 27.006134c14.141937 -1.6481628 29.662567 -1.2429504 38.975677 1.7084656c16.823456 5.3542786 0.34420776 4.4058533 2.405243 20.022583c1.6440735 12.209534 24.240814 12.141083 34.156433 5.174286c2.6740417 -1.8787842 4.426361 -4.2669067 4.585785 -7.04187c0.75756836 -11.822418 -13.639862 -10.583221 -7.2262573 -15.089447c0.63797 -0.4482422 1.4840088 -0.9529114 2.572052 -1.5378418c7.741394 -4.12265 27.360962 -0.23422241 44.492584 0.8642273c-2.0809631 -15.911957 -6.4289246 -32.145996 -10.899841 -38.709015c-3.0877686 -4.423065 -5.054596 -4.696808 -6.995636 -3.3330078c-1.9682007 1.3828735 -3.9041138 4.438568 -6.951416 6.5796204c-1.9614258 1.3781128 -4.3878784 2.374817 -7.585144 2.2874146c-11.410095 -0.29119873 -14.079956 -25.723083 -3.465271 -33.18103c1.5066833 -1.0586243 3.2759094 -1.7531433 5.3372803 -1.9647217c11.261871 -1.220398 12.281311 5.1445923 13.6319275 4.1956787c0.63116455 -0.44348145 1.32724 -2.4485168 3.1436768 -7.5047913c2.7362976 -7.677307 4.254547 -21.570099 4.073944 -35.176865c-16.753204 4.6996155 -35.94586 13.237595 -44.405243 9.885803c-13.038483 -5.2808685 1.1289062 -11.804047 -0.77835083 -23.798706c-1.4369202 -8.734634 -16.621155 -9.436005 -25.023315 -3.5325928c-3.094818 2.1744385 -5.267151 5.236679 -5.4984436 9.119354c-0.69332886 12.295883 12.683716 12.591415 6.9691772 16.606506c-1.0316162 0.72480774 -2.6921692 1.5723724 -5.171417 2.6361084c-7.876587 3.4097595 -21.632904 0.3487091 -34.894226 -2.7509308z" fill-rule="evenodd"/></g></svg>