<svg version="1.1" viewBox="0.0 0.0 557.8582677165355 557.8582677165355" fill="none" stroke="none" stroke-linecap="square" stroke-miterlimit="10" xmlns:xlink="http://www.w3.org/1999/xlink" xmlns="http://www.w3.org/2000/svg"><clipPath id="p.0"><path d="m0 0l557.8583 0l0 557.8583l-557.8583 0l0 -557.8583z" clip-rule="nonzero"/></clipPath><g clip-path="url(#p.0)"><path fill="#000000" fill-opacity="0.0" d="m0 0l557.8583 0l0 557.8583l-557.8583 0z" fill-rule="evenodd"/><path fill="#00ffff" d="m235.36406 309.01248c-1.9618378 -8.919708 -3.4435272 -17.257172 -0.9374695 -21.131561c2.3628235 -3.6075134 3.9957733 -3.9087524 5.6648407 -3.013092c1.5664978 0.8406067 3.164856 2.7294312 5.4306946 3.9453125c1.1375732 0.61047363 2.4398499 1.0483398 3.9896088 1.1034546c7.416031 0.22433472 12.996597 -19.81543 5.7934875 -23.680756c-0.4615631 -0.24768066 -0.9815521 -0.4312439 -1.555954 -0.53582764c-7.177902 -1.3504028 -11.078461 4.417053 -14.2860565 2.6958008c-1.0117035 -0.5429077 -1.9488983 -1.8287048 -2.9029236 -4.313751c-1.6681061 -4.376709 0.8029938 -11.363174 3.980011 -18.74733c9.456314 1.0773163 19.547928 0.6242981 24.759598 -2.0591583c9.000732 -4.640915 -1.3734741 -2.9901886 0.15487671 -11.386337c1.1417542 -6.210434 12.834778 -8.572815 19.007538 -5.260391c2.223877 1.1933899 3.7311707 3.1287994 3.7681274 5.8791504c0.17825317 9.814789 -12.36615 9.422592 -5.3075867 13.210373c0.42892456 0.23017883 0.9384155 0.47810364 1.5284119 0.74380493c5.0949707 2.2885284 14.591309 -0.22154236 23.841705 -2.6089935c-3.0910034 8.58873 -5.9642944 17.230621 -4.5641785 22.431c0.93652344 3.468567 1.4154053 4.8139343 1.9189148 5.084137c1.10495 0.592926 2.3215027 -4.011627 8.759949 -2.771576c0.6430054 0.122283936 1.2402344 0.34091187 1.795044 0.63864136c7.4641724 4.005432 6.7476807 22.658234 -1.859436 23.500519c-2.3636475 0.25280762 -4.1617737 -0.27929688 -5.616394 -1.0598755c-1.9208374 -1.0307617 -3.253601 -2.4969788 -4.5310364 -3.182495c-1.5478516 -0.8305969 -3.0131226 -0.5285034 -5.316162 3.034729c-3.618744 5.600464 0.7590637 18.521698 2.8947449 29.724213c-8.342957 -0.9699707 -16.786469 -3.0950317 -21.677124 -5.719452c-0.4149475 -0.22265625 -0.8059082 -0.44519043 -1.1629639 -0.6749878c-8.857727 -5.5934143 2.6762695 -1.0143127 3.6018677 -11.923431c0.22583008 -2.7812195 -1.1783447 -4.718567 -3.420868 -5.921936c-6.583008 -3.5326233 -20.38919 -0.75753784 -21.547424 5.5395203c-1.6041718 8.425507 9.884674 8.6586 1.6237183 12.1562195c-4.6686096 2.0074158 -14.39032 -2.3120117 -23.82756 -5.695923z" fill-rule="evenodd"/><path stroke="#000000" stroke-width="4.0" stroke-linejoin="round" stroke-linecap="butt" d="m235.36406 309.01248c-1.9618378 -8.919708 -3.4435272 -17.257172 -0.9374695 -21.131561c2.3628235 -3.6075134 3.9957733 -3.9087524 5.6648407 -3.013092c1.5664978 0.8406067 3.164856 2.7294312 5.4306946 3.9453125c1.1375732 0.61047363 2.4398499 1.0483398 3.9896088 1.1034546c7.416031 0.22433472 12.996597 -19.81543 5.7934875 -23.680756c-0.4615631 -0.24768066 -0.9815521 -0.4312439 -1.555954 -0.53582764c-7.177902 -1.3504028 -11.078461 4.417053 -14.2860565 2.6958008c-1.0117035 -0.5429077 -1.9488983 -1.8287048 -2.9029236 -4.313751c-1.6681061 -4.376709 0.8029938 -11.363174 3.980011 -18.74733c9.456314 1.0773163 19.547928 0.6242981 24.759598 -2.0591583c9.000732 -4.640915 -1.3734741 -2.9901886 0.15487671 -11.386337c1.1417542 -6.210434 12.834778 -8.572815 19.007538 -5.260391c2.223877 1.1933899 3.7311707 3.1287994 3.7681274 5.8791504c0.17825317 9.814789 -12.36615 9.422592 -5.3075867 13.210373c0.42892456 0.23017883 0.9384155 0.47810364 1.5284119 0.74380493c5.0949707 2.2885284 14.591309 -0.22154236 23.841705 -2.6089935c-3.0910034 8.58873 -5.9642944 17.230621 -4.5641785 22.431c0.93652344 3.468567 1.4154053 4.8139343 1.9189148 5.084137c1.10495 0.592926 2.3215027 -4.011627 8.759949 -2.771576c0.6430054 0.122283936 1.2402344 0.34091187 1.795044 0.63864136c7.4641724 4.005432 6.7476807 22.658234 -1.859436 23.500519c-2.3636475 0.25280762 -4.1617737 -0.27929688 -5.616394 -1.0598755c-1.9208374 -1.0307617 -3.253601 -2.4969788 -4.5310364 -3.182495c-1.5478516 -0.8305969 -3.0131226 -0.5285034 -5.316162 3.034729c-3.618744 5.600464 0.7590637 18.521698 2.8947449 29.724213c-8.342957 -0.9699707 -16.786469 -3.0950317 -21.677124 -5.719452c-0.4149475 -0.22265625 -0.8059082 -0.44519043 -1.1629639 -0.6749878c-8.857727 -5.5934143 2.6762695 -1.0143127 3.6018677 -11.923431c0.22583008 -2.7812195 -1.1783447 -4.718567 -3.420868 -5.921936c-6.583008 -3.5326233 -20.38919 -0.75753784 -21.547424 5.5395203c-1.6041718 8.425507 9.884674 8.6586 1.6237183 12.1562195c-4.6686096 2.0074158 -14.39032 -2.3120117 -23.82756 -5.695923z" fill-rule="evenodd"/><path fill="#ffffff" d="m185.78307 310.10773c-11.074356 3.609558 -23.796997 9.747009 -29.653137 6.6168823c-9.227982 -4.893341 1.7235565 -6.7793274 0.07923889 -16.284668c-1.3511047 -7.8095093 -16.134094 -7.5836487 -21.990234 -1.7275085c-1.2758331 1.2758179 -2.131668 2.8210754 -2.325821 4.615967c-0.83206177 7.337982 4.679367 7.6034546 3.2371216 9.045715c-0.51112366 0.5111084 -1.8978882 1.1688538 -4.762558 2.3456116c-5.135025 2.084137 -14.08564 0.12283325 -22.909477 -2.0444946c-3.0905151 -9.271545 -6.022545 -18.218231 -3.7323914 -22.592499c0.6537628 -1.2401733 1.2203598 -2.0682678 1.7314835 -2.5793762c3.1301422 -3.1301575 4.2474823 5.65802 11.387375 5.3489685c1.192627 -0.0435791 2.242607 -0.58639526 3.1341019 -1.4779053c5.281624 -5.281616 4.9606857 -22.925323 -4.378235 -23.1987c-10.915871 -0.32095337 -7.5836563 9.025879 -12.877167 -1.2441406c-2.7299576 -5.297455 -4.334648 -13.479416 -4.615967 -21.384018c11.9579315 1.6007233 26.281303 4.9329376 33.06063 2.1633606c2.6507263 -1.0895996 4.001831 -1.751297 4.5288086 -2.2782745c1.6482697 -1.6482697 -4.7071075 -2.03656 -4.6476746 -10.36116c0.015853882 -2.2346802 0.78848267 -3.9503174 2.0246887 -5.1865234c4.83786 -4.837845 16.772018 -2.3178864 18.079544 5.0676575c1.6046906 9.30722 -6.7000885 7.421219 1.7671356 11.395309c4.814087 2.3258057 16.130142 4.1721954 26.843948 4.3703003c1.6443176 5.2578583 2.5239258 10.234375 1.0024261 14.006409c-1.0301666 2.512024 -1.8582611 3.9899292 -2.6586304 4.790283c-2.6625977 2.6626282 -5.012192 -2.2069397 -13.435837 -1.6205444c-2.0088348 0.15454102 -3.5858002 0.9311218 -4.754654 2.0999756c-5.202362 5.2023926 -2.4208984 18.20633 5.4401093 19.12558c9.711365 1.1213074 11.9579315 -9.628174 17.330688 -0.7211304c2.5714722 4.2514343 3.4154205 12.877167 3.0944824 21.708923z" fill-rule="evenodd"/><path stroke="#000000" stroke-width="4.0" stroke-linejoin="round" stroke-linecap="butt" d="m185.78307 310.10773c-11.074356 3.609558 -23.796997 9.747009 -29.653137 6.6168823c-9.227982 -4.893341 1.7235565 -6.7793274 0.07923889 -16.284668c-1.3511047 -7.8095093 -16.134094 -7.5836487 -21.990234 -1.7275085c-1.2758331 1.2758179 -2.131668 2.8210754 -2.325821 4.615967c-0.83206177 7.337982 4.679367 7.6034546 3.2371216 9.045715c-0.51112366 0.5111084 -1.8978882 1.1688538 -4.762558 2.3456116c-5.135025 2.084137 -14.08564 0.12283325 -22.909477 -2.0444946c-3.0905151 -9.271545 -6.022545 -18.218231 -3.7323914 -22.592499c0.6537628 -1.2401733 1.2203598 -2.0682678 1.7314835 -2.5793762c3.1301422 -3.1301575 4.2474823 5.65802 11.387375 5.3489685c1.192627 -0.0435791 2.242607 -0.58639526 3.1341019 -1.4779053c5.281624 -5.281616 4.9606857 -22.925323 -4.378235 -23.1987c-10.915871 -0.32095337 -7.5836563 9.025879 -12.877167 -1.2441406c-2.7299576 -5.297455 -4.334648 -13.479416 -4.615967 -21.384018c11.9579315 1.6007233 26.281303 4.9329376 33.06063 2.1633606c2.6507263 -1.0895996 4.001831 -1.751297 4.5288086 -2.2782745c1.6482697 -1.6482697 -4.7071075 -2.03656 -4.6476746 -10.36116c0.015853882 -2.2346802 0.78848267 -3.9503174 2.0246887 -5.1865234c4.83786 -4.837845 16.772018 -2.3178864 18.079544 5.0676575c1.6046906 9.30722 -6.7000885 7.421219 1.7671356 11.395309c4.814087 2.3258057 16.130142 4.1721954 26.843948 4.3703003c1.6443176 5.2578583 2.5239258 10.234375 1.0024261 14.006409c-1.0301666 2.512024 -1.8582611 3.9899292 -2.6586304 4.790283c-2.6625977 2.6626282 -5.012192 -2.2069397 -13.435837 -1.6205444c-2.0088348 0.15454102 -3.5858002 0.9311218 -4.754654 2.0999756c-5.202362 5.2023926 -2.4208984 18.20633 5.4401093 19.12558c9.711365 1.1213074 11.9579315 -9.628174 17.330688 -0.7211304c2.5714722 4.2514343 3.4154205 12.877167 3.0944824 21.708923z" fill-rule="evenodd"/><path fill="#ffffff" d="m188.48334 269.3914l29.149612 0l0 -7.4094543l14.818893 14.818909l-14.818893 14.818909l0 -7.4094543l-29.149612 0z" fill-rule="evenodd"/><path stroke="#000000" stroke-width="4.0" stroke-linejoin="round" stroke-linecap="butt" d="m188.48334 269.3914l29.149612 0l0 -7.4094543l14.818893 14.818909l-14.818893 14.818909l0 -7.4094543l-29.149612 0z" fill-rule="evenodd"/><path fill="#9900ff" d="m459.87244 310.10773c-11.074371 3.609558 -23.797028 9.747009 -29.653168 6.6168823c-9.227966 -4.893341 1.7235718 -6.7793274 0.07925415 -16.284668c-1.3511047 -7.8095093 -16.134094 -7.5836487 -21.990234 -1.7275085c-1.2758179 1.2758179 -2.1316528 2.8210754 -2.3258057 4.615967c-0.83206177 7.337982 4.679352 7.6034546 3.2371216 9.045715c-0.5111389 0.5111084 -1.8979187 1.1688538 -4.7625732 2.3456116c-5.13501 2.084137 -14.085632 0.12283325 -22.909485 -2.0444946c-3.0905151 -9.271545 -6.0225525 -18.218231 -3.7323914 -22.592499c0.6537781 -1.2401733 1.2203674 -2.0682678 1.7314758 -2.5793762c3.1301575 -3.1301575 4.2474976 5.65802 11.38739 5.3489685c1.192627 -0.0435791 2.2426147 -0.58639526 3.1340942 -1.4779053c5.281616 -5.281616 4.9606934 -22.925323 -4.378235 -23.1987c-10.915863 -0.32095337 -7.5836487 9.025879 -12.877167 -1.2441406c-2.72995 -5.297455 -4.334656 -13.479416 -4.615967 -21.384018c11.957947 1.6007233 26.281311 4.9329376 33.06064 2.1633606c2.6507263 -1.0895996 4.001831 -1.751297 4.5288086 -2.2782745c1.6482849 -1.6482697 -4.7070923 -2.03656 -4.6476746 -10.36116c0.01586914 -2.2346802 0.78848267 -3.9503174 2.0246887 -5.1865234c4.83786 -4.837845 16.772003 -2.3178864 18.07956 5.0676575c1.6046753 9.30722 -6.7001038 7.421219 1.7671204 11.395309c4.814087 2.3258057 16.130157 4.1721954 26.843933 4.3703003c1.6443176 5.2578583 2.5239258 10.234375 1.0024414 14.006409c-1.0301514 2.512024 -1.8582764 3.9899292 -2.6586304 4.790283c-2.6625977 2.6626282 -5.0121765 -2.2069397 -13.435822 -1.6205444c-2.00885 0.15454102 -3.5858154 0.9311218 -4.754669 2.0999756c-5.202362 5.2023926 -2.4208984 18.20633 5.4401245 19.12558c9.711365 1.1213074 11.957916 -9.628174 17.330688 -0.7211304c2.5714722 4.2514343 3.4154053 12.877167 3.0944824 21.708923z" fill-rule="evenodd"/><path stroke="#000000" stroke-width="4.0" stroke-linejoin="round" stroke-linecap="butt" d="m459.87244 310.10773c-11.074371 3.609558 -23.797028 9.747009 -29.653168 6.6168823c-9.227966 -4.893341 1.7235718 -6.7793274 0.07925415 -16.284668c-1.3511047 -7.8095093 -16.134094 -7.5836487 -21.990234 -1.7275085c-1.2758179 1.2758179 -2.1316528 2.8210754 -2.3258057 4.615967c-0.83206177 7.337982 4.679352 7.6034546 3.2371216 9.045715c-0.5111389 0.5111084 -1.8979187 1.1688538 -4.7625732 2.3456116c-5.13501 2.084137 -14.085632 0.12283325 -22.909485 -2.0444946c-3.0905151 -9.271545 -6.0225525 -18.218231 -3.7323914 -22.592499c0.6537781 -1.2401733 1.2203674 -2.0682678 1.7314758 -2.5793762c3.1301575 -3.1301575 4.2474976 5.65802 11.38739 5.3489685c1.192627 -0.0435791 2.2426147 -0.58639526 3.1340942 -1.4779053c5.281616 -5.281616 4.9606934 -22.925323 -4.378235 -23.1987c-10.915863 -0.32095337 -7.5836487 9.025879 -12.877167 -1.2441406c-2.72995 -5.297455 -4.334656 -13.479416 -4.615967 -21.384018c11.957947 1.6007233 26.281311 4.9329376 33.06064 2.1633606c2.6507263 -1.0895996 4.001831 -1.751297 4.5288086 -2.2782745c1.6482849 -1.6482697 -4.7070923 -2.03656 -4.6476746 -10.36116c0.01586914 -2.2346802 0.78848267 -3.9503174 2.0246887 -5.1865234c4.83786 -4.837845 16.772003 -2.3178864 18.07956 5.0676575c1.6046753 9.30722 -6.7001038 7.421219 1.7671204 11.395309c4.814087 2.3258057 16.130157 4.1721954 26.843933 4.3703003c1.6443176 5.2578583 2.5239258 10.234375 1.0024414 14.006409c-1.0301514 2.512024 -1.8582764 3.9899292 -2.6586304 4.790283c-2.6625977 2.6626282 -5.0121765 -2.2069397 -13.435822 -1.6205444c-2.00885 0.15454102 -3.5858154 0.9311218 -4.754669 2.0999756c-5.202362 5.2023926 -2.4208984 18.20633 5.4401245 19.12558c9.711365 1.1213074 11.957916 -9.628174 17.330688 -0.7211304c2.5714722 4.2514343 3.4154053 12.877167 3.0944824 21.708923z" fill-rule="evenodd"/><path fill="#ffffff" d="m328.66205 269.3914l29.149628 0l0 -7.4094543l14.818878 14.818909l-14.818878 14.818909l0 -7.4094543l-29.149628 0z" fill-rule="evenodd"/><path stroke="#000000" stroke-width="4.0" stroke-linejoin="round" stroke-linecap="butt" d="m328.66205 269.3914l29.149628 0l0 -7.4094543l14.818878 14.818909l-14.818878 14.818909l0 -7.4094543l-29.149628 0z" fill-rule="evenodd"/></g></svg>