<svg version="1.1" viewBox="0.0 0.0 32.0 32.0" fill="none" stroke="none" stroke-linecap="square" stroke-miterlimit="10" xmlns:xlink="http://www.w3.org/1999/xlink" xmlns="http://www.w3.org/2000/svg"><clipPath id="p.0"><path d="m0 0l32.0 0l0 32.0l-32.0 0l0 -32.0z" clip-rule="nonzero"/></clipPath><g clip-path="url(#p.0)"><path fill="#000000" fill-opacity="0.0" d="m0 0l32.0 0l0 32.0l-32.0 0z" fill-rule="evenodd"/><path fill="#000000" d="m16.014263 0l-1.6985922 2.9289289l-2.5997715 -2.5649977l-0.90118027 3.3449292l-2.9982934 -1.7157022l-0.034773827 3.2755651l-3.154316 -0.83200073l0.88406944 3.310339l-3.4663622 0.01729536l1.7850661 3.1544995l-3.240975 0.86640644l2.3743844 2.4437494l-2.9635189 1.6812954l2.9289289 1.715703l-2.5649977 2.5477028l3.3795192 0.93595314l-1.7329972 2.9464092l3.3101554 0.051883698l-0.84911156 3.1197262l3.3449287 -0.8665905l-0.017294884 3.448883l3.1889062 -1.8023605l0.8665905 3.310339l2.4437485 -2.4612274l1.733181 2.9637032l1.6984081 -2.9289284l2.5997715 2.5997715l0.90118027 -3.3797035l2.998293 1.6984062l0 -3.2755642l3.2063847 0.8665905l-0.88388634 -3.3449287l3.5009537 0.01729393l-1.8717251 -3.1716099l3.29286 -0.9013653l-2.35709 -2.3916798l2.8943367 -1.6811123l-2.9116325 -1.7158861l2.5477028 -2.5649977l-3.3795185 -0.90118027l1.7504749 -3.0157719l-3.310339 0l0.88388634 -3.154316l-3.3624077 0.90118074l-0.034589767 -3.4488833l-3.154316 1.7850661l-0.8665905 -3.2755651l-2.4610443 2.3916795z" fill-rule="evenodd"/><path fill="#000000" d="m6.4566927 9.385729l19.028873 0l0 14.136724l-19.028873 0z" fill-rule="evenodd"/><path stroke="#ffffff" stroke-width="1.0" stroke-linejoin="round" stroke-linecap="butt" d="m6.4566927 9.385729l19.028873 0l0 14.136724l-19.028873 0z" fill-rule="evenodd"/><path fill="#000000" d="m12.913385 9.385827l6.4409447 0l0 14.136483l-6.4409447 0z" fill-rule="evenodd"/><path stroke="#ffffff" stroke-width="1.0" stroke-linejoin="round" stroke-linecap="butt" d="m12.913385 9.385827l6.4409447 0l0 14.136483l-6.4409447 0z" fill-rule="evenodd"/><path fill="#000000" d="m9.16269 9.329583l0 0c0 -1.9830065 1.607544 -3.590551 3.5905504 -3.590551l0 0c0.95227337 0 1.8655443 0.37828922 2.5389032 1.0516481c0.6733589 0.6733589 1.0516481 1.5866294 1.0516481 2.5389028l0 0c0 1.9830074 -1.607544 3.5905514 -3.5905514 3.5905514l0 0c-1.9830065 0 -3.5905504 -1.607544 -3.5905504 -3.5905514z" fill-rule="evenodd"/><path stroke="#ffffff" stroke-width="1.0" stroke-linejoin="round" stroke-linecap="butt" d="m9.16269 9.329583l0 0c0 -1.9830065 1.607544 -3.590551 3.5905504 -3.590551l0 0c0.95227337 0 1.8655443 0.37828922 2.5389032 1.0516481c0.6733589 0.6733589 1.0516481 1.5866294 1.0516481 2.5389028l0 0c0 1.9830074 -1.607544 3.5905514 -3.5905514 3.5905514l0 0c-1.9830065 0 -3.5905504 -1.607544 -3.5905504 -3.5905514z" fill-rule="evenodd"/><path fill="#000000" d="m5.7952757 22.924673l20.40945 0l0 1.7322845l-20.40945 0z" fill-rule="evenodd"/></g></svg>