<svg version="1.1" viewBox="0.0 0.0 557.8582677165355 557.8582677165355" fill="none" stroke="none" stroke-linecap="square" stroke-miterlimit="10" xmlns:xlink="http://www.w3.org/1999/xlink" xmlns="http://www.w3.org/2000/svg"><clipPath id="p.0"><path d="m0 0l557.8583 0l0 557.8583l-557.8583 0l0 -557.8583z" clip-rule="nonzero"/></clipPath><g clip-path="url(#p.0)"><path fill="#000000" fill-opacity="0.0" d="m0 0l557.8583 0l0 557.8583l-557.8583 0z" fill-rule="evenodd"/><path fill="#000000" d="m334.36484 230.40945c54.980316 -140.18373 269.40353 0 0 180.2362c-269.40356 -180.2362 -54.980316 -320.41992 0 -180.2362z" fill-rule="evenodd"/><path fill="#000000" d="m70.461365 367.82794c28.134865 9.170258 60.457245 24.762726 75.33501 16.810455c23.444046 -12.431671 -4.378769 -17.223175 -0.20132446 -41.371826c3.4325562 -19.840393 40.989334 -19.266602 55.86708 -4.388855c3.2413025 3.2413025 5.4155884 7.1670837 5.9088287 11.727051c2.1138916 18.642517 -11.888107 19.316925 -8.22403 22.981018c1.298523 1.298523 4.8216705 2.969513 12.099503 5.959137c13.045715 5.2948 35.785126 0.31207275 58.202423 -5.1941223c7.851593 -23.55478 15.300537 -46.28412 9.4823 -57.397125c-1.6609192 -3.1507263 -3.1003723 -5.254547 -4.3988953 -6.55307c-7.95224 -7.95224 -10.790894 14.374451 -28.9301 13.589294c-3.0299072 -0.11071777 -5.6974335 -1.4897766 -7.962311 -3.7546692c-13.418167 -13.418182 -12.602814 -58.242706 11.123093 -58.937256c27.732208 -0.81536865 19.266602 22.930664 32.714966 -3.1607666c6.935547 -13.458435 11.01236 -34.245026 11.727051 -54.32698c-30.379639 4.0667267 -66.76872 12.532349 -83.9919 5.4961243c-6.734253 -2.7681885 -10.166794 -4.449234 -11.5056 -5.78804c-4.1875153 -4.1875153 11.958572 -5.173996 11.807587 -26.322952c-0.040267944 -5.677307 -2.0031586 -10.03595 -5.143799 -13.17659c-12.290756 -12.290756 -42.60997 -5.888687 -45.93181 12.874603c-4.076782 23.645355 17.02185 18.853882 -4.4894867 28.950226c-12.230377 5.9088135 -40.97927 10.59964 -68.19812 11.102951c-4.1774445 13.357773 -6.4121323 26.00084 -2.54673 35.5838c2.6171951 6.3819427 4.721016 10.136612 6.7543793 12.169968c6.76445 6.7644653 12.733673 -5.606842 34.134285 -4.117035c5.103531 0.39257812 9.109863 2.3655396 12.079376 5.3350525c13.216843 13.216827 6.150406 46.253906 -13.820816 48.589264c-24.672112 2.8487244 -30.379616 -24.460724 -44.029305 -1.8320312c-6.5329285 10.800964 -8.677017 32.714935 -7.861656 55.152374z" fill-rule="evenodd"/><path stroke="#ffffff" stroke-width="4.0" stroke-linejoin="round" stroke-linecap="butt" d="m70.461365 367.82794c28.134865 9.170258 60.457245 24.762726 75.33501 16.810455c23.444046 -12.431671 -4.378769 -17.223175 -0.20132446 -41.371826c3.4325562 -19.840393 40.989334 -19.266602 55.86708 -4.388855c3.2413025 3.2413025 5.4155884 7.1670837 5.9088287 11.727051c2.1138916 18.642517 -11.888107 19.316925 -8.22403 22.981018c1.298523 1.298523 4.8216705 2.969513 12.099503 5.959137c13.045715 5.2948 35.785126 0.31207275 58.202423 -5.1941223c7.851593 -23.55478 15.300537 -46.28412 9.4823 -57.397125c-1.6609192 -3.1507263 -3.1003723 -5.254547 -4.3988953 -6.55307c-7.95224 -7.95224 -10.790894 14.374451 -28.9301 13.589294c-3.0299072 -0.11071777 -5.6974335 -1.4897766 -7.962311 -3.7546692c-13.418167 -13.418182 -12.602814 -58.242706 11.123093 -58.937256c27.732208 -0.81536865 19.266602 22.930664 32.714966 -3.1607666c6.935547 -13.458435 11.01236 -34.245026 11.727051 -54.32698c-30.379639 4.0667267 -66.76872 12.532349 -83.9919 5.4961243c-6.734253 -2.7681885 -10.166794 -4.449234 -11.5056 -5.78804c-4.1875153 -4.1875153 11.958572 -5.173996 11.807587 -26.322952c-0.040267944 -5.677307 -2.0031586 -10.03595 -5.143799 -13.17659c-12.290756 -12.290756 -42.60997 -5.888687 -45.93181 12.874603c-4.076782 23.645355 17.02185 18.853882 -4.4894867 28.950226c-12.230377 5.9088135 -40.97927 10.59964 -68.19812 11.102951c-4.1774445 13.357773 -6.4121323 26.00084 -2.54673 35.5838c2.6171951 6.3819427 4.721016 10.136612 6.7543793 12.169968c6.76445 6.7644653 12.733673 -5.606842 34.134285 -4.117035c5.103531 0.39257812 9.109863 2.3655396 12.079376 5.3350525c13.216843 13.216827 6.150406 46.253906 -13.820816 48.589264c-24.672112 2.8487244 -30.379616 -24.460724 -44.029305 -1.8320312c-6.5329285 10.800964 -8.677017 32.714935 -7.861656 55.152374z" fill-rule="evenodd"/><path fill="#ffffff" d="m328.93683 307.56125c3.602356 -9.572174 17.65158 0 0 12.307098c-17.65158 -12.307098 -3.602356 -21.879272 0 -12.307098z" fill-rule="evenodd"/><path stroke="#000000" stroke-width="4.0" stroke-linejoin="round" stroke-linecap="butt" d="m328.93683 307.56125c3.602356 -9.572174 17.65158 0 0 12.307098c-17.65158 -12.307098 -3.602356 -21.879272 0 -12.307098z" fill-rule="evenodd"/><path fill="#ffffff" d="m322.38327 290.29172c5.216522 -14.165375 25.561035 0 0 18.212585c-25.561035 -18.212585 -5.216522 -32.37796 0 -18.212585z" fill-rule="evenodd"/><path stroke="#000000" stroke-width="4.0" stroke-linejoin="round" stroke-linecap="butt" d="m322.38327 290.29172c5.216522 -14.165375 25.561035 0 0 18.212585c-25.561035 -18.212585 -5.216522 -32.37796 0 -18.212585z" fill-rule="evenodd"/><path fill="#ffffff" d="m293.83463 314.27866c7.2440796 -19.181091 35.496063 0 0 24.661438c-35.496063 -24.661438 -7.24411 -43.84253 0 -24.661438z" fill-rule="evenodd"/><path stroke="#000000" stroke-width="4.0" stroke-linejoin="round" stroke-linecap="butt" d="m293.83463 314.27866c7.2440796 -19.181091 35.496063 0 0 24.661438c-35.496063 -24.661438 -7.24411 -43.84253 0 -24.661438z" fill-rule="evenodd"/><path fill="#ffffff" d="m337.61282 272.71655c7.19162 -19.419952 35.23886 0 0 24.968506c-35.23883 -24.968506 -7.1915894 -44.38846 0 -24.968506z" fill-rule="evenodd"/><path stroke="#000000" stroke-width="4.0" stroke-linejoin="round" stroke-linecap="butt" d="m337.61282 272.71655c7.19162 -19.419952 35.23886 0 0 24.968506c-35.23883 -24.968506 -7.1915894 -44.38846 0 -24.968506z" fill-rule="evenodd"/><path fill="#ffffff" d="m342.65756 325.64008c5.216522 -14.165344 25.561005 0 0 18.212616c-25.561035 -18.212616 -5.2165527 -32.37796 0 -18.212616z" fill-rule="evenodd"/><path stroke="#000000" stroke-width="4.0" stroke-linejoin="round" stroke-linecap="butt" d="m342.65756 325.64008c5.216522 -14.165344 25.561005 0 0 18.212616c-25.561035 -18.212616 -5.2165527 -32.37796 0 -18.212616z" fill-rule="evenodd"/><path fill="#ffffff" d="m318.35037 334.40027c7.1915894 -19.419952 35.23883 0 0 24.968506c-35.23886 -24.968506 -7.19162 -44.38846 0 -24.968506z" fill-rule="evenodd"/><path stroke="#000000" stroke-width="4.0" stroke-linejoin="round" stroke-linecap="butt" d="m318.35037 334.40027c7.1915894 -19.419952 35.23883 0 0 24.968506c-35.23886 -24.968506 -7.19162 -44.38846 0 -24.968506z" fill-rule="evenodd"/><path fill="#ffffff" d="m414.81628 299.06955c10.872711 -29.15747 53.276245 0 0 37.48819c-53.276245 -37.48819 -10.872711 -66.64566 0 -37.48819z" fill-rule="evenodd"/><path stroke="#000000" stroke-width="4.0" stroke-linejoin="round" stroke-linecap="butt" d="m414.81628 299.06955c10.872711 -29.15747 53.276245 0 0 37.48819c-53.276245 -37.48819 -10.872711 -66.64566 0 -37.48819z" fill-rule="evenodd"/><path fill="#ffffff" d="m365.5512 386.36877c10.872681 -29.157501 53.276245 0 0 37.48819c-53.276276 -37.48819 -10.872711 -66.64569 0 -37.48819z" fill-rule="evenodd"/><path stroke="#000000" stroke-width="4.0" stroke-linejoin="round" stroke-linecap="butt" d="m365.5512 386.36877c10.872681 -29.157501 53.276245 0 0 37.48819c-53.276276 -37.48819 -10.872711 -66.64569 0 -37.48819z" fill-rule="evenodd"/><path fill="#ffffff" d="m358.13385 227.50938c9.265106 -24.362213 45.398956 0 0 31.32283c-45.398926 -31.32283 -9.265076 -55.685043 0 -31.32283z" fill-rule="evenodd"/><path stroke="#000000" stroke-width="4.0" stroke-linejoin="round" stroke-linecap="butt" d="m358.13385 227.50938c9.265106 -24.362213 45.398956 0 0 31.32283c-45.398926 -31.32283 -9.265076 -55.685043 0 -31.32283z" fill-rule="evenodd"/><path fill="#ffffff" d="m298.3832 236.43588c9.265076 -24.362198 45.398956 0 0 31.322845c-45.398956 -31.322845 -9.265106 -55.685043 0 -31.322845z" fill-rule="evenodd"/><path stroke="#000000" stroke-width="4.0" stroke-linejoin="round" stroke-linecap="butt" d="m298.3832 236.43588c9.265076 -24.362198 45.398956 0 0 31.322845c-45.398956 -31.322845 -9.265106 -55.685043 0 -31.322845z" fill-rule="evenodd"/><path fill="#ffffff" d="m269.27875 184.5853c10.872681 -29.157486 53.276245 0 0 37.48819c-53.27626 -37.48819 -10.872711 -66.645676 0 -37.48819z" fill-rule="evenodd"/><path stroke="#000000" stroke-width="4.0" stroke-linejoin="round" stroke-linecap="butt" d="m269.27875 184.5853c10.872681 -29.157486 53.276245 0 0 37.48819c-53.27626 -37.48819 -10.872711 -66.645676 0 -37.48819z" fill-rule="evenodd"/><path fill="#ffffff" d="m264.77356 362.63538c9.330719 -24.54596 45.72049 0 0 31.559052c-45.72046 -31.559052 -9.330704 -56.10501 0 -31.559052z" fill-rule="evenodd"/><path stroke="#000000" stroke-width="4.0" stroke-linejoin="round" stroke-linecap="butt" d="m264.77356 362.63538c9.330719 -24.54596 45.72049 0 0 31.559052c-45.72046 -31.559052 -9.330704 -56.10501 0 -31.559052z" fill-rule="evenodd"/><path fill="#ffffff" d="m426.2126 194.81627c12.709991 -33.272964 62.27887 0 0 42.779526c-62.27887 -42.779526 -12.709961 -76.05249 0 -42.779526z" fill-rule="evenodd"/><path stroke="#000000" stroke-width="4.0" stroke-linejoin="round" stroke-linecap="butt" d="m426.2126 194.81627c12.709991 -33.272964 62.27887 0 0 42.779526c-62.27887 -42.779526 -12.709961 -76.05249 0 -42.779526z" fill-rule="evenodd"/><path fill="#ffffff" fill-opacity="0.5" d="m345.82108 118.603676c17.362183 -44.55381 85.0748 0 0 57.28347c-85.07483 -57.28347 -17.362213 -101.83728 0 -57.28347z" fill-rule="evenodd"/><path stroke="#000000" stroke-width="4.0" stroke-linejoin="round" stroke-linecap="butt" d="m345.82108 118.603676c17.362183 -44.55381 85.0748 0 0 57.28347c-85.07483 -57.28347 -17.362213 -101.83728 0 -57.28347z" fill-rule="evenodd"/></g></svg>