<svg version="1.1" viewBox="0.0 0.0 557.8582677165355 557.8582677165355" fill="none" stroke="none" stroke-linecap="square" stroke-miterlimit="10" xmlns:xlink="http://www.w3.org/1999/xlink" xmlns="http://www.w3.org/2000/svg"><clipPath id="p.0"><path d="m0 0l557.8583 0l0 557.8583l-557.8583 0l0 -557.8583z" clip-rule="nonzero"/></clipPath><g clip-path="url(#p.0)"><path fill="#000000" fill-opacity="0.0" d="m0 0l557.8583 0l0 557.8583l-557.8583 0z" fill-rule="evenodd"/><path fill="#ffffff" d="m407.11023 439.2756l-266.80316 0l0 -242.21811l78.47481 -78.474815l188.32834 0z" fill-rule="evenodd"/><path fill="#cbcbcb" d="m218.78189 118.58268l-15.694962 62.77984l-62.779846 15.694977z" fill-rule="evenodd"/><path fill="#000000" fill-opacity="0.0" d="m218.78189 118.58268l-15.694962 62.77984l-62.779846 15.694977l78.47481 -78.474815l188.32834 0l0 320.69293l-266.80316 0l0 -242.21811" fill-rule="evenodd"/><path stroke="#000000" stroke-width="4.0" stroke-linejoin="round" stroke-linecap="butt" d="m218.78189 118.58268l-15.694962 62.77984l-62.779846 15.694977l78.47481 -78.474815l188.32834 0l0 320.69293l-266.80316 0l0 -242.21811" fill-rule="evenodd"/><path fill="#000000" d="m393.10938 382.13962c-28.134857 9.170227 -60.457245 24.762695 -75.33499 16.810455c-23.444061 -12.431702 4.3787537 -17.223175 0.20132446 -41.371857c-3.4325562 -19.840363 -40.98935 -19.266602 -55.867096 -4.3888245c-3.2413025 3.241272 -5.4155884 7.1670837 -5.9088135 11.727051c-2.1139069 18.642487 11.888092 19.316925 8.22403 22.980988c-1.298523 1.298523 -4.821686 2.969513 -12.099503 5.9591675c-13.045731 5.2948 -35.78514 0.31204224 -58.20244 -5.1941223c-7.851593 -23.55478 -15.300537 -46.28412 -9.4823 -57.397156c1.6609039 -3.1506958 3.1003723 -5.2545166 4.3988953 -6.55307c7.9522552 -7.95224 10.790909 14.374451 28.9301 13.589294c3.0299072 -0.11071777 5.6974335 -1.4897766 7.962311 -3.7546692c13.418167 -13.418152 12.602814 -58.242676 -11.123077 -58.937256c-27.732224 -0.81533813 -19.266602 22.930664 -32.714966 -3.1607666c-6.9355774 -13.458435 -11.01236 -34.24501 -11.727051 -54.326965c30.379608 4.0667267 66.76871 12.532349 83.99188 5.496109c6.7342377 -2.7681885 10.166794 -4.449234 11.5056 -5.788025c4.1875305 -4.1875153 -11.958572 -5.173996 -11.807587 -26.322968c0.040267944 -5.677292 2.0031738 -10.035934 5.143799 -13.176575c12.2907715 -12.290756 42.609985 -5.888687 45.931793 12.874603c4.0768127 23.645355 -17.02182 18.853882 4.489502 28.95021c12.230377 5.9088287 40.97928 10.599655 68.19812 11.102966c4.1774597 13.357773 6.41214 26.000854 2.5467224 35.5838c-2.6171875 6.3819275 -4.7210083 10.136597 -6.754364 12.169983c-6.7644653 6.764435 -12.733673 -5.606842 -34.134277 -4.1170654c-5.103546 0.39257812 -9.109863 2.3655396 -12.079376 5.3350525c-13.216858 13.216858 -6.150421 46.253937 13.820801 48.589264c24.67212 2.8487244 30.379608 -24.460724 44.029297 -1.8320312c6.5329285 10.800964 8.677032 32.714966 7.861664 55.152405z" fill-rule="evenodd"/></g></svg>