<svg version="1.1" viewBox="0.0 0.0 557.8582677165355 557.8582677165355" fill="none" stroke="none" stroke-linecap="square" stroke-miterlimit="10" xmlns:xlink="http://www.w3.org/1999/xlink" xmlns="http://www.w3.org/2000/svg"><clipPath id="p.0"><path d="m0 0l557.8583 0l0 557.8583l-557.8583 0l0 -557.8583z" clip-rule="nonzero"/></clipPath><g clip-path="url(#p.0)"><path fill="#000000" fill-opacity="0.0" d="m0 0l557.8583 0l0 557.8583l-557.8583 0z" fill-rule="evenodd"/><path fill="#ffffff" d="m278.9305 217.06665c73.8714 -188.00787 361.96982 0 0 241.72443c-361.96982 -241.72443 -73.8714 -429.7323 0 -241.72443z" fill-rule="evenodd"/><path stroke="#000000" stroke-width="4.0" stroke-linejoin="round" stroke-linecap="butt" d="m278.9305 217.06665c73.8714 -188.00787 361.96982 0 0 241.72443c-361.96982 -241.72443 -73.8714 -429.7323 0 -241.72443z" fill-rule="evenodd"/><path fill="#000000" d="m380.50177 408.6732c-24.606293 8.020172 -52.874878 21.657043 -65.88672 14.702148c-20.503754 -10.872528 3.8296204 -15.06308 0.17608643 -36.183105c-3.0020447 -17.35205 -35.84857 -16.85022 -48.860413 -3.8384094c-2.8347778 2.8348083 -4.7363586 6.268219 -5.167755 10.256287c-1.8487549 16.304413 10.397156 16.894257 7.192627 20.098785c-1.1356812 1.1356812 -4.21698 2.597107 -10.582031 5.211792c-11.409561 4.6307373 -31.297058 0.2729187 -50.902847 -4.542694c-6.866867 -20.600616 -13.381577 -40.47931 -8.29306 -50.198547c1.4526062 -2.7555542 2.7115326 -4.59552 3.8472137 -5.731201c6.954895 -6.954895 9.4375305 12.571655 25.301758 11.884949c2.6499023 -0.096832275 4.9828796 -1.302948 6.9636993 -3.2837524c11.735306 -11.735321 11.022202 -50.93808 -9.728058 -51.545532c-24.25412 -0.71310425 -16.850235 20.05478 -28.611938 -2.7643433c-6.065735 -11.770508 -9.631226 -29.950104 -10.256287 -47.513428c26.569489 3.5566711 58.394775 10.960571 73.45787 4.806793c5.8896484 -2.42099 8.891693 -3.8912048 10.062592 -5.0621033c3.662323 -3.662323 -10.458771 -4.5250854 -10.326721 -23.021606c0.035217285 -4.965271 1.7519531 -8.777267 4.4986877 -11.524017c10.749298 -10.749283 37.26596 -5.1501465 40.171173 11.259903c3.5654907 20.679825 -14.887024 16.489273 3.926422 25.319382c10.696472 5.167755 35.839783 9.270264 59.644897 9.710449c3.653534 11.682465 5.6079407 22.739868 2.2273254 31.120972c-2.2889404 5.581543 -4.1289062 8.865295 -5.907257 10.643646c-5.9160767 5.9160767 -11.136658 -4.903656 -29.853241 -3.600708c-4.4634705 0.34335327 -7.967346 2.0688782 -10.564423 4.6659546c-11.559235 11.559235 -5.379059 40.45288 12.087433 42.49533c21.57782 2.491455 26.569489 -21.392914 38.507294 -1.6022644c5.713562 9.44635 7.588745 28.611938 6.8756714 48.23532z" fill-rule="evenodd"/><path fill="#ffffff" d="m260.40155 312.9819l15.97403 0l0 -15.97403l10.225189 0l0 15.97403l15.97403 0l0 9.154327l-15.97403 0l0 15.97403l-10.225189 0l0 -15.97403l-15.97403 0z" fill-rule="evenodd"/></g></svg>