<svg version="1.1" viewBox="0.0 0.0 557.8582677165355 557.8582677165355" fill="none" stroke="none" stroke-linecap="square" stroke-miterlimit="10" xmlns:xlink="http://www.w3.org/1999/xlink" xmlns="http://www.w3.org/2000/svg"><clipPath id="p.0"><path d="m0 0l557.8583 0l0 557.8583l-557.8583 0l0 -557.8583z" clip-rule="nonzero"/></clipPath><g clip-path="url(#p.0)"><path fill="#000000" fill-opacity="0.0" d="m0 0l557.8583 0l0 557.8583l-557.8583 0z" fill-rule="evenodd"/><path fill="#000000" fill-opacity="0.0" d="m437.49686 177.50574l-281.71844 -0.7633972l0 204.3497l281.71844 0" fill-rule="evenodd"/><path stroke="#000000" stroke-width="8.0" stroke-linejoin="round" stroke-linecap="butt" d="m437.49686 177.50574l-281.71844 -0.7633972l0 204.3497l281.71844 0" fill-rule="evenodd"/><path fill="#000000" d="m155.94295 224.66347l0 0c-29.97123 0 -54.267715 24.296494 -54.267715 54.267715l0 0c0 14.3927 5.717476 28.195892 15.894646 38.373077c10.17717 10.177155 23.98037 15.894653 38.37307 15.894653l0 0c29.971237 0 54.267715 -24.296509 54.267715 -54.26773l0 0c0 -29.971222 -24.296478 -54.267715 -54.267715 -54.267715z" fill-rule="evenodd"/><path fill="#000000" d="m456.4253 381.20084l-7.4028015 -4.3000183l6.482971 -6.58136l-8.454224 -2.281372l4.3363953 -7.59021l-8.278931 -0.08804321l2.1028748 -7.985199l-8.366821 2.238037l-0.043701172 -8.7751465l-7.972931 4.518921l-2.1898193 -8.20459l-6.176544 6.010803l-4.24942 -7.5021973l-4.3363953 7.4146423l-6.43927 -6.493347l-2.3656006 8.555328l-7.446991 -4.3871155l-0.13113403 8.3797l-7.8850403 -2.1495361l2.190277 8.467743l-8.71698 -0.043792725l4.5554504 8.072784l-8.366821 2.1937866l6.220703 6.186371l-7.490692 4.3875732l7.4028015 4.2995605l-6.570862 6.58136l8.542114 2.2813416l-4.292694 7.5902405l8.278931 0l-2.190277 8.117004l8.454224 -2.2375793l-0.043701172 8.862732l8.016174 -4.738312l2.2781677 8.3359375l6.044922 -5.9670105l4.2489624 7.327057l4.3368835 -7.3708496l6.482971 6.4495544l2.27771 -8.555298l7.622284 4.4313354l0 -8.380157l7.972473 2.2375793l-2.27771 -8.511993l8.71698 -0.08758545l-4.5117188 -7.985199l8.278931 -2.1937866l-6.044922 -6.2301636z" fill-rule="evenodd"/><path fill="#000000" d="m470.60995 331.20926l-3.1009521 -1.8050232l2.7156372 -2.7626953l-3.5413818 -0.9576416l1.8164673 -3.1861572l-3.467926 -0.036956787l0.8808594 -3.3519592l-3.5047607 0.9394531l-0.018310547 -3.6835327l-3.3397522 1.8969116l-0.91729736 -3.4440613l-2.5872803 2.5231628l-1.7800293 -3.1492004l-1.8164673 3.1124268l-2.6973267 -2.725708l-0.9909363 3.591278l-3.1194458 -1.8415833l-0.05493164 3.5175781l-3.302948 -0.90231323l0.91748047 3.5545044l-3.6514282 -0.018371582l1.9082031 3.3887024l-3.5047607 0.92089844l2.605774 2.5968628l-3.1377563 1.8417969l3.1009521 1.8048096l-2.752472 2.7626953l3.5782166 0.9576416l-1.7981567 3.1861572l3.467926 0l-0.91748047 3.4072876l3.5413818 -0.93927l-0.018310547 3.720337l3.3578796 -1.9890137l0.9543152 3.499176l2.532135 -2.5047607l1.7798462 3.0756836l1.8166504 -3.0940857l2.7156372 2.707367l0.95410156 -3.591278l3.1929016 1.8601379l0 -3.5177612l3.339569 0.93927l-0.95410156 -3.5730896l3.6514282 -0.036743164l-1.8898926 -3.3519897l3.467926 -0.9208679l-2.532135 -2.615265z" fill-rule="evenodd"/><path fill="#000000" d="m483.12546 361.4004l-2.2890625 -1.3308716l2.0046387 -2.0369568l-2.6141663 -0.7061157l1.3408813 -2.3492126l-2.559967 -0.027252197l0.65023804 -2.471466l-2.5871582 0.692688l-0.013519287 -2.7159424l-2.4653625 1.3986206l-0.677124 -2.5393677l-1.9098816 1.8603821l-1.3139648 -2.3219604l-1.3409119 2.2948608l-1.9911194 -2.009735l-0.73147583 2.6479187l-2.3027039 -1.3578186l-0.04055786 2.593567l-2.4381714 -0.6653137l0.6772766 2.620819l-2.6954346 -0.013549805l1.4085999 2.4985657l-2.5871277 0.6789856l1.923523 1.9147339l-2.3162537 1.3579712l2.2890625 1.3307495l-2.0317993 2.0369568l2.6413574 0.7060852l-1.3273621 2.3492432l2.559967 0l-0.6772766 2.5122375l2.6141968 -0.6925354l-0.013519287 2.7430725l2.4787292 -1.4665527l0.70443726 2.580017l1.8691711 -1.8468018l1.3138733 2.2677612l1.3410034 -2.281311l2.0046387 1.9961548l0.7043152 -2.6479187l2.3569336 1.3715515l0 -2.5937195l2.46521 0.6925354l-0.7043152 -2.634491l2.6954346 -0.027130127l-1.3950806 -2.471466l2.559967 -0.6789856l-1.8692017 -1.9282532z" fill-rule="evenodd"/><path fill="#000000" d="m484.5324 390.05994l-2.1368408 -1.2425842l1.8713379 -1.901825l-2.4403381 -0.65927124l1.251709 -2.1933594l-2.38974 -0.02545166l0.6069946 -2.307495l-2.4150696 0.6467285l-0.012634277 -2.535797l-2.3013916 1.3058472l-0.6321106 -2.3708801l-1.7828674 1.7369385l-1.226593 -2.1679382l-1.251709 2.1426392l-1.8587036 -1.8764038l-0.6828308 2.4722595l-2.1495972 -1.2677612l-0.037841797 2.4215088l-2.2760315 -0.6211548l0.63220215 2.4469604l-2.5161438 -0.012664795l1.3149109 2.3328247l-2.4151 0.63394165l1.7956238 1.7877197l-2.162201 1.2678833l2.1368408 1.2424622l-1.896698 1.901825l2.4656982 0.6592407l-1.2390747 2.19339l2.3897095 0l-0.63223267 2.345581l2.4403381 -0.6465759l-0.012634277 2.5610657l2.3139038 -1.3692322l0.6575928 2.4088745l1.744873 -1.7243042l1.226471 2.1173096l1.2518616 -2.1299744l1.8713074 1.863739l0.6574707 -2.4722595l2.2001953 1.2805481l0 -2.4216309l2.3012695 0.6465759l-0.6574707 -2.4597168l2.5161743 -0.025299072l-1.3023071 -2.3075256l2.3897095 -0.63394165l-1.744873 -1.800354z" fill-rule="evenodd"/><path fill="#000000" d="m471.19073 413.43744l-1.7478027 -1.0169373l1.5306396 -1.5565186l-1.9960632 -0.5395508l1.0238342 -1.795105l-1.9546509 -0.020812988l0.49645996 -1.8885193l-1.9754028 0.5292969l-0.010314941 -2.0753174l-1.8824158 1.0687256l-0.5170288 -1.9403992l-1.458252 1.4215698l-1.0032959 -1.774292l-1.0238342 1.7535706l-1.5203247 -1.535675l-0.5585022 2.023346l-1.7582397 -1.0375671l-0.030975342 1.9818115l-1.8616638 -0.5083618l0.51712036 2.0026245l-2.058075 -0.010345459l1.0755615 1.9092407l-1.9754333 0.51882935l1.4687195 1.4630737l-1.7685547 1.0376892l1.7478027 1.0168457l-1.5513916 1.556488l2.0168152 0.5395508l-1.0135193 1.795105l1.9546509 0l-0.51712036 1.9197083l1.9960632 -0.5292053l-0.010314941 2.0960388l1.8926086 -1.1206055l0.5378723 1.9714661l1.4272156 -1.4112244l1.0031738 1.7328796l1.0239563 -1.7432251l1.5306396 1.5253296l0.53775024 -2.023346l1.7996216 1.0480347l0 -1.9819336l1.8823242 0.5292053l-0.53778076 -2.0131226l2.058075 -0.020690918l-1.0652161 -1.8885193l1.9546509 -0.51882935l-1.427185 -1.4734497z" fill-rule="evenodd"/><path fill="#000000" d="m451.37784 426.4778l-1.4207764 -0.827301l1.2442627 -1.2662354l-1.6226196 -0.43893433l0.8322754 -1.4602966l-1.5889282 -0.016937256l0.40359497 -1.5363159l-1.605835 0.4305725l-0.008392334 -1.6882935l-1.5302124 0.8694153l-0.4202881 -1.5785217l-1.1854248 1.1564636l-0.8155823 -1.4433899l-0.8322754 1.4265137l-1.2358704 -1.2492676l-0.45404053 1.6459961l-1.4292603 -0.8440552l-0.025177002 1.6122131l-1.5133362 -0.41357422l0.42037964 1.6291809l-1.6730347 -0.008422852l0.8742981 1.5531616l-1.6058044 0.4220581l1.1939087 1.1902466l-1.4376526 0.8441467l1.4208069 0.8272095l-1.2611389 1.2662354l1.6394653 0.4389038l-0.82388306 1.4603271l1.5889587 0l-0.42037964 1.561676l1.6225891 -0.43051147l-0.008392334 1.7051697l1.5385132 -0.9116516l0.43725586 1.6038208l1.1601868 -1.1480408l0.8154907 1.4096985l0.83236694 -1.4181213l1.2442322 1.2408752l0.4371643 -1.6459961l1.4629211 0.8525696l0 -1.6123047l1.5301208 0.43048096l-0.4371338 -1.6376648l1.6730042 -0.016845703l-0.86590576 -1.5363159l1.5889587 -0.42208862l-1.1601868 -1.1986389z" fill-rule="evenodd"/><path fill="#000000" d="m456.4253 176.93279l-7.4028015 4.300003l6.482971 6.58136l-8.454224 2.2813568l4.3363953 7.590225l-8.278931 0.088027954l2.1028748 7.985214l-8.366821 -2.238037l-0.043701172 8.7751465l-7.972931 -4.518921l-2.1898193 8.204575l-6.176544 -6.010788l-4.24942 7.5021973l-4.3363953 -7.4146423l-6.43927 6.493332l-2.3656006 -8.555298l-7.446991 4.3871155l-0.13113403 -8.379715l-7.8850403 2.1495361l2.190277 -8.467743l-8.71698 0.043792725l4.5554504 -8.072769l-8.366821 -2.1937866l6.220703 -6.186386l-7.490692 -4.3875885l7.4028015 -4.29953l-6.570862 -6.581375l8.542114 -2.2813416l-4.292694 -7.590225l8.278931 0l-2.190277 -8.11702l8.454224 2.237564l-0.043701172 -8.862717l8.016174 4.738312l2.2781677 -8.3359375l6.044922 5.9670105l4.2489624 -7.327057l4.3368835 7.3708496l6.482971 -6.4495544l2.27771 8.555313l7.622284 -4.431366l0 8.380173l7.972473 -2.237564l-2.27771 8.511993l8.71698 0.08755493l-4.5117188 7.985199l8.278931 2.1937866l-6.044922 6.230179z" fill-rule="evenodd"/><path fill="#000000" d="m470.60995 226.92436l-3.1009521 1.8050232l2.7156372 2.7626648l-3.5413818 0.9576416l1.8164673 3.1861725l-3.467926 0.036956787l0.8808594 3.3519592l-3.5047607 -0.9394684l-0.018310547 3.6835632l-3.3397522 -1.8969116l-0.91729736 3.444046l-2.5872803 -2.5231628l-1.7800293 3.1492157l-1.8164673 -3.1124573l-2.6973267 2.7257233l-0.9909363 -3.591278l-3.1194458 1.8415833l-0.05493164 -3.5175629l-3.302948 0.90231323l0.91748047 -3.5545197l-3.6514282 0.018371582l1.9082031 -3.3887177l-3.5047607 -0.9208832l2.605774 -2.596878l-3.1377563 -1.8417816l3.1009521 -1.8048248l-2.752472 -2.7626648l3.5782166 -0.95765686l-1.7981567 -3.1861572l3.467926 0l-0.91748047 -3.4073029l3.5413818 0.93927l-0.018310547 -3.7203217l3.3578796 1.9890137l0.9543152 -3.4991913l2.532135 2.5047913l1.7798462 -3.0756989l1.8166504 3.0940704l2.7156372 -2.7073364l0.95410156 3.591278l3.1929016 -1.8601685l0 3.5177612l3.339569 -0.93925476l-0.95410156 3.5730896l3.6514282 0.036758423l-1.8898926 3.3519592l3.467926 0.9208832l-2.532135 2.6152496z" fill-rule="evenodd"/><path fill="#000000" d="m483.12546 196.7332l-2.2890625 1.3308868l2.0046387 2.036972l-2.6141663 0.7060852l1.3408813 2.3492126l-2.559967 0.027252197l0.65023804 2.471466l-2.5871582 -0.692688l-0.013519287 2.7159576l-2.4653625 -1.3986206l-0.677124 2.5393524l-1.9098816 -1.8603668l-1.3139648 2.3219757l-1.3409119 -2.294876l-1.9911194 2.0097198l-0.73147583 -2.6479187l-2.3027039 1.3578339l-0.04055786 -2.593567l-2.4381714 0.66529846l0.6772766 -2.620819l-2.6954346 0.0135650635l1.4085999 -2.498581l-2.5871277 -0.6789856l1.923523 -1.9147186l-2.3162537 -1.3579865l2.2890625 -1.3307343l-2.0317993 -2.0369568l2.6413574 -0.70610046l-1.3273621 -2.3492126l2.559967 0l-0.6772766 -2.512268l2.6141968 0.69255066l-0.013519287 -2.7430725l2.4787292 1.4665375l0.70443726 -2.580017l1.8691711 1.846817l1.3138733 -2.2677612l1.3410034 2.281311l2.0046387 -1.99617l0.7043152 2.6479187l2.3569336 -1.371521l0 2.5937042l2.46521 -0.6925354l-0.7043152 2.6345062l2.6954346 0.02709961l-1.3950806 2.471466l2.559967 0.6789856l-1.8692017 1.9282837z" fill-rule="evenodd"/><path fill="#000000" d="m484.5324 168.07365l-2.1368408 1.2425995l1.8713379 1.9018402l-2.4403381 0.6592407l1.251709 2.1933746l-2.38974 0.025436401l0.6069946 2.3075104l-2.4150696 -0.6467285l-0.012634277 2.5357819l-2.3013916 -1.3058472l-0.6321106 2.3709106l-1.7828674 -1.736969l-1.226593 2.1679382l-1.251709 -2.142624l-1.8587036 1.8763885l-0.6828308 -2.4722443l-2.1495972 1.267746l-0.037841797 -2.4215088l-2.2760315 0.62117004l0.63220215 -2.4469604l-2.5161438 0.012649536l1.3149109 -2.3328094l-2.4151 -0.63394165l1.7956238 -1.7877045l-2.162201 -1.2678986l2.1368408 -1.2424469l-1.896698 -1.9018402l2.4656982 -0.659256l-1.2390747 -2.1933746l2.3897095 0l-0.63223267 -2.3455963l2.4403381 0.64660645l-0.012634277 -2.5610962l2.3139038 1.3692474l0.6575928 -2.4088593l1.744873 1.7243042l1.226471 -2.1173248l1.2518616 2.1299744l1.8713074 -1.8637543l0.6574707 2.4722595l2.2001953 -1.2805481l0 2.421646l2.3012695 -0.6465912l-0.6574707 2.459732l2.5161743 0.025314331l-1.3023071 2.3075104l2.3897095 0.63394165l-1.744873 1.800354z" fill-rule="evenodd"/><path fill="#000000" d="m471.19073 144.69615l-1.7478027 1.0169678l1.5306396 1.5565033l-1.9960632 0.5395355l1.0238342 1.795105l-1.9546509 0.020812988l0.49645996 1.8885193l-1.9754028 -0.5292969l-0.010314941 2.0753326l-1.8824158 -1.0687256l-0.5170288 1.9403992l-1.458252 -1.4215698l-1.0032959 1.774292l-1.0238342 -1.7535858l-1.5203247 1.5356903l-0.5585022 -2.023346l-1.7582397 1.0375671l-0.030975342 -1.9818268l-1.8616638 0.5083771l0.51712036 -2.0026398l-2.058075 0.010360718l1.0755615 -1.9092255l-1.9754333 -0.5188446l1.4687195 -1.463089l-1.7685547 -1.037674l1.7478027 -1.0168457l-1.5513916 -1.5565033l2.0168152 -0.5395508l-1.0135193 -1.7950897l1.9546509 0l-0.51712036 -1.919693l1.9960632 0.52919006l-0.010314941 -2.096054l1.8926086 1.1206207l0.5378723 -1.9714661l1.4272156 1.4112091l1.0031738 -1.7328644l1.0239563 1.7432251l1.5306396 -1.5253296l0.53775024 2.023346l1.7996216 -1.0480347l0 1.9819336l1.8823242 -0.52919006l-0.53778076 2.0131073l2.058075 0.020706177l-1.0652161 1.888504l1.9546509 0.5188446l-1.427185 1.4734497z" fill-rule="evenodd"/><path fill="#000000" d="m451.37784 131.65579l-1.4207764 0.8273163l1.2442627 1.2662201l-1.6226196 0.43891907l0.8322754 1.4603271l-1.5889282 0.016937256l0.40359497 1.5363159l-1.605835 -0.43058777l-0.008392334 1.6882935l-1.5302124 -0.8694153l-0.4202881 1.5785217l-1.1854248 -1.1564484l-0.8155823 1.4433899l-0.8322754 -1.4265442l-1.2358704 1.2492828l-0.45404053 -1.6459961l-1.4292603 0.8440552l-0.025177002 -1.6122131l-1.5133362 0.41355896l0.42037964 -1.6291504l-1.6730347 0.008422852l0.8742981 -1.5531616l-1.6058044 -0.42207336l1.1939087 -1.1902313l-1.4376526 -0.844162l1.4208069 -0.8272095l-1.2611389 -1.2662201l1.6394653 -0.43891907l-0.82388306 -1.4603271l1.5889587 0l-0.42037964 -1.561676l1.6225891 0.43049622l-0.008392334 -1.7051468l1.5385132 0.9116287l0.43725586 -1.6037979l1.1601868 1.1480255l0.8154907 -1.4096909l0.83236694 1.4181213l1.2442322 -1.2408676l0.4371643 1.6460037l1.4629211 -0.8525772l0 1.6123123l1.5301208 -0.43050385l-0.4371338 1.6376724l1.6730042 0.016845703l-0.86590576 1.5363159l1.5889587 0.42207336l-1.1601868 1.1986542z" fill-rule="evenodd"/></g></svg>