<svg version="1.1" viewBox="0.0 0.0 557.8582677165355 557.8582677165355" fill="none" stroke="none" stroke-linecap="square" stroke-miterlimit="10" xmlns:xlink="http://www.w3.org/1999/xlink" xmlns="http://www.w3.org/2000/svg"><clipPath id="p.0"><path d="m0 0l557.8583 0l0 557.8583l-557.8583 0l0 -557.8583z" clip-rule="nonzero"/></clipPath><g clip-path="url(#p.0)"><path fill="#000000" fill-opacity="0.0" d="m0 0l557.8583 0l0 557.8583l-557.8583 0z" fill-rule="evenodd"/><path fill="#000000" fill-opacity="0.0" d="m437.49686 177.50574l-281.71844 -0.7633972l0 204.3497l281.71844 0" fill-rule="evenodd"/><path stroke="#000000" stroke-width="8.0" stroke-linejoin="round" stroke-linecap="butt" d="m437.49686 177.50574l-281.71844 -0.7633972l0 204.3497l281.71844 0" fill-rule="evenodd"/><path fill="#000000" d="m155.94295 224.66347l0 0c-29.97123 0 -54.267715 24.296494 -54.267715 54.267715l0 0c0 14.3927 5.717476 28.195892 15.894646 38.373077c10.17717 10.177155 23.98037 15.894653 38.37307 15.894653l0 0c29.971237 0 54.267715 -24.296509 54.267715 -54.26773l0 0c0 -29.971222 -24.296478 -54.267715 -54.267715 -54.267715z" fill-rule="evenodd"/><path fill="#ffffff" d="m418.24664 129.69498l0 0c-26.118286 0 -47.29135 21.17305 -47.29135 47.291336l0 0c0 12.542435 4.982483 24.571182 13.851318 33.440018c8.868835 8.868851 20.897583 13.851318 33.440033 13.851318l0 0c26.118286 0 47.29132 -21.17305 47.29132 -47.291336l0 0c0 -26.118286 -21.173035 -47.291336 -47.29132 -47.291336z" fill-rule="evenodd"/><path stroke="#000000" stroke-width="8.0" stroke-linejoin="round" stroke-linecap="butt" d="m418.24664 129.69498l0 0c-26.118286 0 -47.29135 21.17305 -47.29135 47.291336l0 0c0 12.542435 4.982483 24.571182 13.851318 33.440018c8.868835 8.868851 20.897583 13.851318 33.440033 13.851318l0 0c26.118286 0 47.29132 -21.17305 47.29132 -47.291336l0 0c0 -26.118286 -21.173035 -47.291336 -47.29132 -47.291336z" fill-rule="evenodd"/><path fill="#ffffff" d="m418.24664 334.72903l0 0c-26.118286 0 -47.29135 21.173035 -47.29135 47.29132l0 0c0 12.54245 4.982483 24.571198 13.851318 33.440033c8.868835 8.868866 20.897583 13.851318 33.440033 13.851318l0 0c26.118286 0 47.29132 -21.173065 47.29132 -47.29135l0 0c0 -26.118286 -21.173035 -47.29132 -47.29132 -47.29132z" fill-rule="evenodd"/><path stroke="#000000" stroke-width="8.0" stroke-linejoin="round" stroke-linecap="butt" d="m418.24664 334.72903l0 0c-26.118286 0 -47.29135 21.173035 -47.29135 47.29132l0 0c0 12.54245 4.982483 24.571198 13.851318 33.440033c8.868835 8.868866 20.897583 13.851318 33.440033 13.851318l0 0c26.118286 0 47.29132 -21.173065 47.29132 -47.29135l0 0c0 -26.118286 -21.173035 -47.29132 -47.29132 -47.29132z" fill-rule="evenodd"/></g></svg>