<svg version="1.1" viewBox="0.0 0.0 557.8582677165355 557.8582677165355" fill="none" stroke="none" stroke-linecap="square" stroke-miterlimit="10" xmlns:xlink="http://www.w3.org/1999/xlink" xmlns="http://www.w3.org/2000/svg"><clipPath id="p.0"><path d="m0 0l557.8583 0l0 557.8583l-557.8583 0l0 -557.8583z" clip-rule="nonzero"/></clipPath><g clip-path="url(#p.0)"><path fill="#000000" fill-opacity="0.0" d="m0 0l557.8583 0l0 557.8583l-557.8583 0z" fill-rule="evenodd"/><path fill="#ffffff" d="m278.9239 207.86877c86.916016 -235.57481 425.88843 0 0 302.8819c-425.88846 -302.8819 -86.916016 -538.4567 0 -302.8819z" fill-rule="evenodd"/><path stroke="#000000" stroke-width="4.0" stroke-linejoin="round" stroke-linecap="butt" d="m278.9239 207.86877c86.916016 -235.57481 425.88843 0 0 302.8819c-425.88846 -302.8819 -86.916016 -538.4567 0 -302.8819z" fill-rule="evenodd"/><path fill="#000000" d="m164.74889 223.71866c28.134872 -9.170242 60.457245 -24.762695 75.33501 -16.810455c23.44403 12.431686 -4.378769 17.223175 -0.20132446 41.37184c3.4325562 19.840378 40.98932 19.266586 55.867096 4.3888397c3.2413025 -3.2412872 5.4155884 -7.1670837 5.9088135 -11.727051c2.1138916 -18.642502 -11.888123 -19.316925 -8.22403 -22.981003c1.298523 -1.2985382 4.821686 -2.969513 12.099487 -5.959152c13.045746 -5.2948 35.785156 -0.3120575 58.202454 5.1941223c7.851593 23.55478 15.300537 46.28412 9.4823 57.397156c-1.6609192 3.1506958 -3.1003723 5.2545166 -4.3988953 6.5530396c-7.9522705 7.9522705 -10.790924 -14.374451 -28.930115 -13.589294c-3.0299072 0.11074829 -5.697418 1.4898071 -7.962311 3.7546692c-13.418152 13.418182 -12.602814 58.242706 11.123077 58.937286c27.732239 0.81533813 19.266602 -22.930695 32.714966 3.1607666c6.9355774 13.458405 11.01236 34.244995 11.727051 54.326965c-30.379608 -4.066742 -66.76871 -12.532349 -83.99188 -5.4961243c-6.734253 2.7681885 -10.166809 4.4492493 -11.505585 5.788025c-4.1875305 4.1875305 11.958557 5.174011 11.807587 26.322968c-0.040283203 5.677307 -2.0031738 10.03595 -5.143799 13.176575c-12.2907715 12.2907715 -42.609985 5.8887024 -45.93181 -12.874603c-4.0767975 -23.645355 17.021835 -18.853882 -4.489502 -28.950226c-12.230362 -5.9088135 -40.979263 -10.59964 -68.19812 -11.102936c-4.1774445 -13.357788 -6.4121246 -26.000854 -2.5467224 -35.5838c2.6171875 -6.381958 4.7210083 -10.136627 6.7543793 -12.169983c6.76445 -6.764435 12.733658 5.606842 34.134277 4.1170654c5.103546 -0.39257812 9.109863 -2.3655396 12.079376 -5.3350525c13.216843 -13.216858 6.150406 -46.253937 -13.820816 -48.589264c-24.672104 -2.8487244 -30.379608 24.460724 -44.029297 1.8320312c-6.5329285 -10.800964 -8.677017 -32.714966 -7.861664 -55.152405z" fill-rule="evenodd"/></g></svg>