<?xml version="1.0" encoding="UTF-8"?>
<!DOCTYPE svg PUBLIC "-//W3C//DTD SVG 1.1//EN" "http://www.w3.org/Graphics/SVG/1.1/DTD/svg11.dtd">
<svg version="1.2" width="147.6mm" height="147.6mm" viewBox="0 0 14760 14760" preserveAspectRatio="xMidYMid" fill-rule="evenodd" stroke-width="28.222" stroke-linejoin="round" xmlns="http://www.w3.org/2000/svg" xmlns:ooo="http://xml.openoffice.org/svg/export" xmlns:xlink="http://www.w3.org/1999/xlink" xmlns:presentation="http://sun.com/xmlns/staroffice/presentation" xmlns:smil="http://www.w3.org/2001/SMIL20/" xmlns:anim="urn:oasis:names:tc:opendocument:xmlns:animation:1.0" xml:space="preserve">
 <defs class="ClipPathGroup">
  <clipPath id="presentation_clip_path" clipPathUnits="userSpaceOnUse">
   <rect x="0" y="0" width="14760" height="14760"/>
  </clipPath>
  <clipPath id="presentation_clip_path_shrink" clipPathUnits="userSpaceOnUse">
   <rect x="14" y="14" width="14731" height="14731"/>
  </clipPath>
 </defs>
 <defs class="TextShapeIndex">
  <g ooo:slide="id1" ooo:id-list="id3 id4 id5 id6 id7 id8 id9 id10 id11 id12 id13 id14 id15 id16 id17 id18 id19 id20 id21 id22 id23 id24 id25 id26 id27 id28 id29 id30 id31 id32 id33 id34 id35 id36 id37"/>
 </defs>
 <defs class="EmbeddedBulletChars">
  <g id="bullet-char-template-57356" transform="scale(0.00048828125,-0.00048828125)">
   <path d="M 580,1141 L 1163,571 580,0 -4,571 580,1141 Z"/>
  </g>
  <g id="bullet-char-template-57354" transform="scale(0.00048828125,-0.00048828125)">
   <path d="M 8,1128 L 1137,1128 1137,0 8,0 8,1128 Z"/>
  </g>
  <g id="bullet-char-template-10146" transform="scale(0.00048828125,-0.00048828125)">
   <path d="M 174,0 L 602,739 174,1481 1456,739 174,0 Z M 1358,739 L 309,1346 659,739 1358,739 Z"/>
  </g>
  <g id="bullet-char-template-10132" transform="scale(0.00048828125,-0.00048828125)">
   <path d="M 2015,739 L 1276,0 717,0 1260,543 174,543 174,936 1260,936 717,1481 1274,1481 2015,739 Z"/>
  </g>
  <g id="bullet-char-template-10007" transform="scale(0.00048828125,-0.00048828125)">
   <path d="M 0,-2 C -7,14 -16,27 -25,37 L 356,567 C 262,823 215,952 215,954 215,979 228,992 255,992 264,992 276,990 289,987 310,991 331,999 354,1012 L 381,999 492,748 772,1049 836,1024 860,1049 C 881,1039 901,1025 922,1006 886,937 835,863 770,784 769,783 710,716 594,584 L 774,223 C 774,196 753,168 711,139 L 727,119 C 717,90 699,76 672,76 641,76 570,178 457,381 L 164,-76 C 142,-110 111,-127 72,-127 30,-127 9,-110 8,-76 1,-67 -2,-52 -2,-32 -2,-23 -1,-13 0,-2 Z"/>
  </g>
  <g id="bullet-char-template-10004" transform="scale(0.00048828125,-0.00048828125)">
   <path d="M 285,-33 C 182,-33 111,30 74,156 52,228 41,333 41,471 41,549 55,616 82,672 116,743 169,778 240,778 293,778 328,747 346,684 L 369,508 C 377,444 397,411 428,410 L 1163,1116 C 1174,1127 1196,1133 1229,1133 1271,1133 1292,1118 1292,1087 L 1292,965 C 1292,929 1282,901 1262,881 L 442,47 C 390,-6 338,-33 285,-33 Z"/>
  </g>
  <g id="bullet-char-template-9679" transform="scale(0.00048828125,-0.00048828125)">
   <path d="M 813,0 C 632,0 489,54 383,161 276,268 223,411 223,592 223,773 276,916 383,1023 489,1130 632,1184 813,1184 992,1184 1136,1130 1245,1023 1353,916 1407,772 1407,592 1407,412 1353,268 1245,161 1136,54 992,0 813,0 Z"/>
  </g>
  <g id="bullet-char-template-8226" transform="scale(0.00048828125,-0.00048828125)">
   <path d="M 346,457 C 273,457 209,483 155,535 101,586 74,649 74,723 74,796 101,859 155,911 209,963 273,989 346,989 419,989 480,963 531,910 582,859 608,796 608,723 608,648 583,586 532,535 482,483 420,457 346,457 Z"/>
  </g>
  <g id="bullet-char-template-8211" transform="scale(0.00048828125,-0.00048828125)">
   <path d="M -4,459 L 1135,459 1135,606 -4,606 -4,459 Z"/>
  </g>
  <g id="bullet-char-template-61548" transform="scale(0.00048828125,-0.00048828125)">
   <path d="M 173,740 C 173,903 231,1043 346,1159 462,1274 601,1332 765,1332 928,1332 1067,1274 1183,1159 1299,1043 1357,903 1357,740 1357,577 1299,437 1183,322 1067,206 928,148 765,148 601,148 462,206 346,322 231,437 173,577 173,740 Z"/>
  </g>
 </defs>
 <g>
  <g id="id2" class="Master_Slide">
   <g id="bg-id2" class="Background"/>
   <g id="bo-id2" class="BackgroundObjects"/>
  </g>
 </g>
 <g class="SlideGroup">
  <g>
   <g id="container-id1">
    <g id="id1" class="Slide" clip-path="url(#presentation_clip_path)">
     <g class="Page">
      <g class="Group">
       <g class="Group">
        <g class="com.sun.star.drawing.ClosedBezierShape">
         <g id="id3">
          <rect class="BoundingBox" stroke="none" fill="none" x="2962" y="4197" width="4609" height="1960"/>
          <path fill="rgb(0,0,0)" stroke="none" d="M 7499,4697 C 7417,4671 7315,5118 7027,5288 6739,5458 6241,5725 5769,5718 5298,5709 4638,5458 4197,5241 3756,5025 3318,4592 3125,4418 2932,4244 3068,4202 3042,4198 3015,4194 2941,4283 2968,4395 2994,4507 2875,4608 3199,4871 3523,5134 4381,5760 4909,5972 5438,6185 6019,6162 6370,6146 6722,6131 6827,5997 7018,5879 7209,5762 7437,5636 7517,5439 7597,5241 7580,4722 7499,4697 Z"/>
         </g>
        </g>
        <g class="com.sun.star.drawing.ClosedBezierShape">
         <g id="id4">
          <rect class="BoundingBox" stroke="none" fill="none" x="2935" y="4171" width="4662" height="2013"/>
          <path fill="none" stroke="rgb(255,255,255)" stroke-width="53" stroke-linejoin="round" d="M 7499,4697 C 7417,4671 7315,5118 7027,5288 6739,5458 6241,5725 5769,5718 5298,5709 4638,5458 4197,5241 3756,5025 3318,4592 3125,4418 2932,4244 3068,4202 3042,4198 3015,4194 2941,4283 2968,4395 2994,4507 2875,4608 3199,4871 3523,5134 4381,5760 4909,5972 5438,6185 6019,6162 6370,6146 6722,6131 6827,5997 7018,5879 7209,5762 7437,5636 7517,5439 7597,5241 7580,4722 7499,4697 Z"/>
         </g>
        </g>
        <g class="com.sun.star.drawing.ClosedBezierShape">
         <g id="id5">
          <rect class="BoundingBox" stroke="none" fill="none" x="7302" y="4180" width="4631" height="2026"/>
          <path fill="rgb(0,0,0)" stroke="none" d="M 7318,4687 C 7360,4611 7558,5012 7729,5161 7901,5309 8041,5494 8347,5578 8654,5663 9182,5733 9571,5669 9959,5603 10341,5374 10678,5187 11014,5001 11395,4715 11587,4549 11780,4381 11772,4211 11829,4184 11885,4158 11954,4274 11925,4389 11896,4504 11885,4662 11654,4872 11422,5082 10911,5441 10538,5649 10165,5856 9786,6033 9415,6118 9045,6202 8638,6242 8315,6157 7992,6073 7646,5858 7479,5613 7313,5367 7276,4762 7318,4687 Z"/>
         </g>
        </g>
        <g class="com.sun.star.drawing.ClosedBezierShape">
         <g id="id6">
          <rect class="BoundingBox" stroke="none" fill="none" x="7275" y="4153" width="4685" height="2079"/>
          <path fill="none" stroke="rgb(255,255,255)" stroke-width="53" stroke-linejoin="round" d="M 7318,4687 C 7360,4611 7558,5012 7729,5161 7901,5309 8041,5494 8347,5578 8654,5663 9182,5733 9571,5669 9959,5603 10341,5374 10678,5187 11014,5001 11395,4715 11587,4549 11780,4381 11772,4211 11829,4184 11885,4158 11954,4274 11925,4389 11896,4504 11885,4662 11654,4872 11422,5082 10911,5441 10538,5649 10165,5856 9786,6033 9415,6118 9045,6202 8638,6242 8315,6157 7992,6073 7646,5858 7479,5613 7313,5367 7276,4762 7318,4687 Z"/>
         </g>
        </g>
        <g class="com.sun.star.drawing.ClosedBezierShape">
         <g id="id7">
          <rect class="BoundingBox" stroke="none" fill="none" x="7327" y="5013" width="4937" height="2144"/>
          <path fill="rgb(0,0,0)" stroke="none" d="M 7408,5492 C 7529,5464 7883,6113 8174,6273 8466,6433 8852,6437 9157,6455 9462,6472 9728,6462 10003,6378 10278,6295 10544,6108 10808,5955 11071,5802 11375,5616 11583,5460 11791,5304 11950,5053 12059,5020 12168,4987 12327,5098 12235,5260 12142,5422 11925,5697 11507,5991 11089,6286 10268,6846 9725,7027 9183,7207 8632,7173 8252,7075 7872,6979 7586,6708 7446,6444 7305,6180 7286,5521 7408,5492 Z"/>
         </g>
        </g>
        <g class="com.sun.star.drawing.ClosedBezierShape">
         <g id="id8">
          <rect class="BoundingBox" stroke="none" fill="none" x="7300" y="4987" width="4990" height="2196"/>
          <path fill="none" stroke="rgb(255,255,255)" stroke-width="53" stroke-linejoin="round" d="M 7408,5492 C 7529,5464 7883,6113 8174,6273 8466,6433 8852,6437 9157,6455 9462,6472 9728,6462 10003,6378 10278,6295 10544,6108 10808,5955 11071,5802 11375,5616 11583,5460 11791,5304 11950,5053 12059,5020 12168,4987 12327,5098 12235,5260 12142,5422 11925,5697 11507,5991 11089,6286 10268,6846 9725,7027 9183,7207 8632,7173 8252,7075 7872,6979 7586,6708 7446,6444 7305,6180 7286,5521 7408,5492 Z"/>
         </g>
        </g>
        <g class="com.sun.star.drawing.ClosedBezierShape">
         <g id="id9">
          <rect class="BoundingBox" stroke="none" fill="none" x="7339" y="5693" width="4923" height="2492"/>
          <path fill="rgb(0,0,0)" stroke="none" d="M 7636,6439 C 7754,6534 7808,7079 8098,7255 8386,7430 9000,7496 9374,7491 9748,7488 10028,7381 10338,7230 10649,7080 10959,6808 11240,6589 11520,6370 11873,6069 12021,5919 12170,5770 12093,5681 12131,5695 12170,5710 12296,5883 12250,6005 12204,6127 12159,6163 11856,6427 11554,6692 10842,7312 10439,7591 10037,7871 9826,8022 9442,8106 9059,8189 8479,8231 8141,8096 7802,7961 7539,7532 7414,7298 7289,7062 7351,6828 7389,6685 7425,6541 7517,6344 7636,6439 Z"/>
         </g>
        </g>
        <g class="com.sun.star.drawing.ClosedBezierShape">
         <g id="id10">
          <rect class="BoundingBox" stroke="none" fill="none" x="7313" y="5666" width="4975" height="2545"/>
          <path fill="none" stroke="rgb(255,255,255)" stroke-width="53" stroke-linejoin="round" d="M 7636,6439 C 7754,6534 7808,7079 8098,7255 8386,7430 9000,7496 9374,7491 9748,7488 10028,7381 10338,7230 10649,7080 10959,6808 11240,6589 11520,6370 11873,6069 12021,5919 12170,5770 12093,5681 12131,5695 12170,5710 12296,5883 12250,6005 12204,6127 12159,6163 11856,6427 11554,6692 10842,7312 10439,7591 10037,7871 9826,8022 9442,8106 9059,8189 8479,8231 8141,8096 7802,7961 7539,7532 7414,7298 7289,7062 7351,6828 7389,6685 7425,6541 7517,6344 7636,6439 Z"/>
         </g>
        </g>
        <g class="com.sun.star.drawing.ClosedBezierShape">
         <g id="id11">
          <rect class="BoundingBox" stroke="none" fill="none" x="7343" y="6693" width="4868" height="2428"/>
          <path fill="rgb(0,0,0)" stroke="none" d="M 7644,7327 C 7740,7376 7741,8009 7929,8194 8118,8380 8423,8413 8773,8442 9123,8471 9695,8469 10031,8370 10366,8271 10546,8022 10786,7846 11026,7670 11273,7504 11471,7313 11669,7122 11853,6747 11975,6699 12098,6653 12233,6891 12207,7029 12179,7166 12036,7335 11815,7527 11595,7718 11193,7956 10881,8177 10567,8398 10288,8696 9937,8852 9585,9007 9107,9088 8772,9110 8437,9133 8143,9122 7926,8987 7710,8854 7570,8486 7473,8305 7377,8125 7323,8067 7351,7904 7379,7741 7547,7279 7644,7327 Z"/>
         </g>
        </g>
        <g class="com.sun.star.drawing.ClosedBezierShape">
         <g id="id12">
          <rect class="BoundingBox" stroke="none" fill="none" x="7316" y="6667" width="4922" height="2480"/>
          <path fill="none" stroke="rgb(255,255,255)" stroke-width="53" stroke-linejoin="round" d="M 7644,7327 C 7740,7376 7741,8009 7929,8194 8118,8380 8423,8413 8773,8442 9123,8471 9695,8469 10031,8370 10366,8271 10546,8022 10786,7846 11026,7670 11273,7504 11471,7313 11669,7122 11853,6747 11975,6699 12098,6653 12233,6891 12207,7029 12179,7166 12036,7335 11815,7527 11595,7718 11193,7956 10881,8177 10567,8398 10288,8696 9937,8852 9585,9007 9107,9088 8772,9110 8437,9133 8143,9122 7926,8987 7710,8854 7570,8486 7473,8305 7377,8125 7323,8067 7351,7904 7379,7741 7547,7279 7644,7327 Z"/>
         </g>
        </g>
        <g class="com.sun.star.drawing.ClosedBezierShape">
         <g id="id13">
          <rect class="BoundingBox" stroke="none" fill="none" x="7375" y="7750" width="4813" height="2426"/>
          <path fill="rgb(0,0,0)" stroke="none" d="M 7637,8454 C 7777,8606 7935,9139 8291,9308 8648,9477 9341,9551 9779,9467 10216,9383 10591,9015 10915,8802 11239,8588 11543,8357 11722,8183 11901,8009 11911,7792 11989,7756 12065,7719 12187,7867 12186,7964 12185,8062 12198,8095 11980,8341 11762,8589 11254,9148 10876,9445 10499,9741 10180,10025 9714,10122 9249,10221 8467,10173 8084,10031 7703,9887 7526,9539 7421,9266 7316,8992 7419,8524 7455,8388 7491,8254 7498,8300 7637,8454 Z"/>
         </g>
        </g>
        <g class="com.sun.star.drawing.ClosedBezierShape">
         <g id="id14">
          <rect class="BoundingBox" stroke="none" fill="none" x="7348" y="7723" width="4866" height="2479"/>
          <path fill="none" stroke="rgb(255,255,255)" stroke-width="53" stroke-linejoin="round" d="M 7637,8454 C 7777,8606 7935,9139 8291,9308 8648,9477 9341,9551 9779,9467 10216,9383 10591,9015 10915,8802 11239,8588 11543,8357 11722,8183 11901,8009 11911,7792 11989,7756 12065,7719 12187,7867 12186,7964 12185,8062 12198,8095 11980,8341 11762,8589 11254,9148 10876,9445 10499,9741 10180,10025 9714,10122 9249,10221 8467,10173 8084,10031 7703,9887 7526,9539 7421,9266 7316,8992 7419,8524 7455,8388 7491,8254 7498,8300 7637,8454 Z"/>
         </g>
        </g>
        <g class="com.sun.star.drawing.ClosedBezierShape">
         <g id="id15">
          <rect class="BoundingBox" stroke="none" fill="none" x="2569" y="4953" width="5002" height="2112"/>
          <path fill="rgb(0,0,0)" stroke="none" d="M 7381,5624 C 7252,5730 7140,6126 6780,6272 6419,6419 5716,6571 5216,6504 4717,6439 4189,6134 3782,5879 3375,5624 2966,5067 2773,4974 2580,4881 2511,5127 2625,5322 2739,5518 3077,5890 3458,6145 3839,6400 4477,6700 4910,6852 5344,7005 5739,7048 6058,7061 6375,7075 6581,7040 6817,6934 7052,6827 7350,6640 7473,6424 7597,6207 7572,5769 7557,5636 7541,5502 7511,5518 7381,5624 Z"/>
         </g>
        </g>
        <g class="com.sun.star.drawing.ClosedBezierShape">
         <g id="id16">
          <rect class="BoundingBox" stroke="none" fill="none" x="2543" y="4927" width="5055" height="2165"/>
          <path fill="none" stroke="rgb(255,255,255)" stroke-width="53" stroke-linejoin="round" d="M 7381,5624 C 7252,5730 7140,6126 6780,6272 6419,6419 5716,6571 5216,6504 4717,6439 4189,6134 3782,5879 3375,5624 2966,5067 2773,4974 2580,4881 2511,5127 2625,5322 2739,5518 3077,5890 3458,6145 3839,6400 4477,6700 4910,6852 5344,7005 5739,7048 6058,7061 6375,7075 6581,7040 6817,6934 7052,6827 7350,6640 7473,6424 7597,6207 7572,5769 7557,5636 7541,5502 7511,5518 7381,5624 Z"/>
         </g>
        </g>
        <g class="com.sun.star.drawing.ClosedBezierShape">
         <g id="id17">
          <rect class="BoundingBox" stroke="none" fill="none" x="2519" y="5681" width="5018" height="2458"/>
          <path fill="rgb(0,0,0)" stroke="none" d="M 7222,6575 C 7138,6674 7107,7014 6945,7167 6784,7319 6598,7455 6252,7492 5905,7528 5310,7551 4864,7387 4419,7223 3939,6784 3578,6505 3217,6227 2868,5816 2699,5717 2530,5618 2472,5742 2560,5914 2648,6086 2827,6423 3227,6749 3626,7076 4415,7644 4957,7874 5498,8104 6104,8161 6473,8130 6843,8098 7003,7856 7177,7689 7351,7521 7472,7306 7519,7120 7565,6935 7503,6666 7454,6575 7405,6485 7308,6476 7222,6575 Z"/>
         </g>
        </g>
        <g class="com.sun.star.drawing.ClosedBezierShape">
         <g id="id18">
          <rect class="BoundingBox" stroke="none" fill="none" x="2492" y="5655" width="5071" height="2511"/>
          <path fill="none" stroke="rgb(255,255,255)" stroke-width="53" stroke-linejoin="round" d="M 7222,6575 C 7138,6674 7107,7014 6945,7167 6784,7319 6598,7455 6252,7492 5905,7528 5310,7551 4864,7387 4419,7223 3939,6784 3578,6505 3217,6227 2868,5816 2699,5717 2530,5618 2472,5742 2560,5914 2648,6086 2827,6423 3227,6749 3626,7076 4415,7644 4957,7874 5498,8104 6104,8161 6473,8130 6843,8098 7003,7856 7177,7689 7351,7521 7472,7306 7519,7120 7565,6935 7503,6666 7454,6575 7405,6485 7308,6476 7222,6575 Z"/>
         </g>
        </g>
        <g class="com.sun.star.drawing.ClosedBezierShape">
         <g id="id19">
          <rect class="BoundingBox" stroke="none" fill="none" x="2498" y="6709" width="5060" height="2420"/>
          <path fill="rgb(0,0,0)" stroke="none" d="M 7232,7526 C 7130,7545 7184,8094 6945,8268 6706,8442 6229,8589 5797,8569 5366,8550 4783,8375 4354,8152 3925,7930 3492,7475 3226,7236 2960,6996 2863,6743 2754,6714 2644,6684 2370,6811 2570,7062 2768,7313 3566,7914 3947,8222 4328,8529 4445,8755 4854,8906 5263,9057 6020,9138 6399,9126 6779,9115 6937,8999 7130,8837 7322,8674 7539,8371 7555,8152 7572,7934 7334,7506 7232,7526 Z"/>
         </g>
        </g>
        <g class="com.sun.star.drawing.ClosedBezierShape">
         <g id="id20">
          <rect class="BoundingBox" stroke="none" fill="none" x="2472" y="6682" width="5112" height="2473"/>
          <path fill="none" stroke="rgb(255,255,255)" stroke-width="53" stroke-linejoin="round" d="M 7232,7526 C 7130,7545 7184,8094 6945,8268 6706,8442 6229,8589 5797,8569 5366,8550 4783,8375 4354,8152 3925,7930 3492,7475 3226,7236 2960,6996 2863,6743 2754,6714 2644,6684 2370,6811 2570,7062 2768,7313 3566,7914 3947,8222 4328,8529 4445,8755 4854,8906 5263,9057 6020,9138 6399,9126 6779,9115 6937,8999 7130,8837 7322,8674 7539,8371 7555,8152 7572,7934 7334,7506 7232,7526 Z"/>
         </g>
        </g>
        <g class="com.sun.star.drawing.ClosedBezierShape">
         <g id="id21">
          <rect class="BoundingBox" stroke="none" fill="none" x="2695" y="7747" width="4730" height="2496"/>
          <path fill="rgb(0,0,0)" stroke="none" d="M 7187,8558 C 7064,8558 6978,9227 6669,9392 6359,9559 5724,9588 5327,9555 4929,9522 4622,9397 4281,9196 3941,8995 3525,8589 3282,8349 3039,8109 2912,7810 2820,7758 2727,7705 2649,7860 2727,8036 2804,8211 2932,8490 3282,8813 3632,9136 4420,9735 4827,9973 5234,10210 5395,10226 5724,10239 6055,10253 6526,10195 6807,10054 7088,9913 7345,9642 7409,9392 7473,9143 7310,8558 7187,8558 Z"/>
         </g>
        </g>
        <g class="com.sun.star.drawing.ClosedBezierShape">
         <g id="id22">
          <rect class="BoundingBox" stroke="none" fill="none" x="2668" y="7720" width="4783" height="2549"/>
          <path fill="none" stroke="rgb(255,255,255)" stroke-width="53" stroke-linejoin="round" d="M 7187,8558 C 7064,8558 6978,9227 6669,9392 6359,9559 5724,9588 5327,9555 4929,9522 4622,9397 4281,9196 3941,8995 3525,8589 3282,8349 3039,8109 2912,7810 2820,7758 2727,7705 2649,7860 2727,8036 2804,8211 2932,8490 3282,8813 3632,9136 4420,9735 4827,9973 5234,10210 5395,10226 5724,10239 6055,10253 6526,10195 6807,10054 7088,9913 7345,9642 7409,9392 7473,9143 7310,8558 7187,8558 Z"/>
         </g>
        </g>
        <g class="com.sun.star.drawing.ClosedBezierShape">
         <g id="id23">
          <rect class="BoundingBox" stroke="none" fill="none" x="2817" y="8869" width="4760" height="2371"/>
          <path fill="rgb(0,0,0)" stroke="none" d="M 7224,9613 C 7108,9670 7087,10096 6881,10263 6676,10429 6316,10593 5993,10611 5671,10628 5348,10557 4948,10367 4546,10178 3908,9721 3587,9474 3267,9227 3151,8942 3023,8883 2895,8823 2804,8975 2820,9115 2835,9254 2777,9441 3115,9717 3455,9994 4323,10520 4855,10773 5388,11026 5913,11257 6307,11237 6702,11217 7012,10876 7224,10657 7435,10439 7575,10100 7575,9926 7575,9753 7340,9557 7224,9613 Z"/>
         </g>
        </g>
        <g class="com.sun.star.drawing.ClosedBezierShape">
         <g id="id24">
          <rect class="BoundingBox" stroke="none" fill="none" x="2791" y="8842" width="4812" height="2424"/>
          <path fill="none" stroke="rgb(255,255,255)" stroke-width="53" stroke-linejoin="round" d="M 7224,9613 C 7108,9670 7087,10096 6881,10263 6676,10429 6316,10593 5993,10611 5671,10628 5348,10557 4948,10367 4546,10178 3908,9721 3587,9474 3267,9227 3151,8942 3023,8883 2895,8823 2804,8975 2820,9115 2835,9254 2777,9441 3115,9717 3455,9994 4323,10520 4855,10773 5388,11026 5913,11257 6307,11237 6702,11217 7012,10876 7224,10657 7435,10439 7575,10100 7575,9926 7575,9753 7340,9557 7224,9613 Z"/>
         </g>
        </g>
        <g class="com.sun.star.drawing.ClosedBezierShape">
         <g id="id25">
          <rect class="BoundingBox" stroke="none" fill="none" x="2954" y="9820" width="4520" height="2361"/>
          <path fill="rgb(0,0,0)" stroke="none" d="M 7084,10762 C 6896,10855 6601,11380 6344,11514 6086,11650 5922,11688 5539,11572 5154,11457 4449,11108 4040,10820 3632,10532 3254,9950 3087,9846 2920,9741 2918,9988 3041,10193 3165,10398 3479,10783 3827,11074 4175,11366 4690,11760 5132,11944 5572,12127 6163,12197 6473,12176 6783,12154 6825,12020 6991,11817 7158,11613 7457,11134 7472,10959 7488,10783 7272,10669 7084,10762 Z"/>
         </g>
        </g>
        <g class="com.sun.star.drawing.ClosedBezierShape">
         <g id="id26">
          <rect class="BoundingBox" stroke="none" fill="none" x="2928" y="9794" width="4573" height="2414"/>
          <path fill="none" stroke="rgb(255,255,255)" stroke-width="53" stroke-linejoin="round" d="M 7084,10762 C 6896,10855 6601,11380 6344,11514 6086,11650 5922,11688 5539,11572 5154,11457 4449,11108 4040,10820 3632,10532 3254,9950 3087,9846 2920,9741 2918,9988 3041,10193 3165,10398 3479,10783 3827,11074 4175,11366 4690,11760 5132,11944 5572,12127 6163,12197 6473,12176 6783,12154 6825,12020 6991,11817 7158,11613 7457,11134 7472,10959 7488,10783 7272,10669 7084,10762 Z"/>
         </g>
        </g>
        <g class="com.sun.star.drawing.ClosedBezierShape">
         <g id="id27">
          <rect class="BoundingBox" stroke="none" fill="none" x="7302" y="8883" width="4717" height="2358"/>
          <path fill="rgb(0,0,0)" stroke="none" d="M 7559,9579 C 7693,9629 7866,10047 8105,10215 8343,10385 8639,10585 8990,10593 9341,10601 9831,10450 10208,10262 10584,10074 10999,9691 11252,9466 11504,9239 11599,8970 11724,8904 11850,8838 12008,8939 12006,9069 12004,9200 12110,9345 11713,9685 11317,10024 10217,10868 9629,11107 9040,11345 8535,11209 8182,11114 7831,11018 7665,10732 7518,10533 7371,10333 7295,10078 7303,9919 7309,9760 7425,9529 7559,9579 Z"/>
         </g>
        </g>
        <g class="com.sun.star.drawing.ClosedBezierShape">
         <g id="id28">
          <rect class="BoundingBox" stroke="none" fill="none" x="7275" y="8856" width="4770" height="2412"/>
          <path fill="none" stroke="rgb(255,255,255)" stroke-width="53" stroke-linejoin="round" d="M 7559,9579 C 7693,9629 7866,10047 8105,10215 8343,10385 8639,10585 8990,10593 9341,10601 9831,10450 10208,10262 10584,10074 10999,9691 11252,9466 11504,9239 11599,8970 11724,8904 11850,8838 12008,8939 12006,9069 12004,9200 12110,9345 11713,9685 11317,10024 10217,10868 9629,11107 9040,11345 8535,11209 8182,11114 7831,11018 7665,10732 7518,10533 7371,10333 7295,10078 7303,9919 7309,9760 7425,9529 7559,9579 Z"/>
         </g>
        </g>
        <g class="com.sun.star.drawing.ClosedBezierShape">
         <g id="id29">
          <rect class="BoundingBox" stroke="none" fill="none" x="7377" y="9933" width="4385" height="2207"/>
          <path fill="rgb(0,0,0)" stroke="none" d="M 7616,10696 C 7797,10757 8231,11320 8494,11471 8756,11622 8933,11636 9192,11599 9450,11562 9734,11422 10045,11250 10355,11079 10805,10781 11058,10570 11311,10359 11451,10076 11563,9984 11674,9891 11709,9939 11725,10017 11741,10095 11825,10248 11658,10452 11491,10655 11078,10994 10726,11240 10374,11485 9967,11785 9546,11926 9125,12066 8555,12223 8199,12086 7843,11949 7509,11336 7411,11104 7314,10873 7437,10635 7616,10696 Z"/>
         </g>
        </g>
        <g class="com.sun.star.drawing.ClosedBezierShape">
         <g id="id30">
          <rect class="BoundingBox" stroke="none" fill="none" x="7350" y="9906" width="4438" height="2261"/>
          <path fill="none" stroke="rgb(255,255,255)" stroke-width="53" stroke-linejoin="round" d="M 7616,10696 C 7797,10757 8231,11320 8494,11471 8756,11622 8933,11636 9192,11599 9450,11562 9734,11422 10045,11250 10355,11079 10805,10781 11058,10570 11311,10359 11451,10076 11563,9984 11674,9891 11709,9939 11725,10017 11741,10095 11825,10248 11658,10452 11491,10655 11078,10994 10726,11240 10374,11485 9967,11785 9546,11926 9125,12066 8555,12223 8199,12086 7843,11949 7509,11336 7411,11104 7314,10873 7437,10635 7616,10696 Z"/>
         </g>
        </g>
       </g>
       <g class="com.sun.star.drawing.CustomShape">
        <g id="id31">
         <rect class="BoundingBox" stroke="none" fill="none" x="6737" y="4389" width="1253" height="1020"/>
         <path fill="rgb(0,0,0)" stroke="none" d="M 7948,5211 L 7948,5211 C 7948,5238 7921,5265 7870,5289 7818,5313 7744,5332 7656,5346 7567,5360 7466,5367 7363,5367 L 7363,5367 C 7260,5367 7159,5360 7071,5346 6982,5332 6908,5313 6856,5289 6805,5265 6778,5238 6778,5211 L 6778,4430 6778,4430 C 6778,4457 6805,4484 6856,4508 6908,4532 6982,4552 7071,4565 7159,4579 7260,4586 7363,4586 L 7363,4586 C 7466,4586 7567,4579 7656,4565 7744,4552 7818,4532 7870,4508 7921,4484 7948,4457 7948,4430 L 7948,5211 Z"/>
         <path fill="none" stroke="rgb(255,255,255)" stroke-width="81" stroke-linejoin="round" d="M 7948,5211 L 7948,5211 C 7948,5238 7921,5265 7870,5289 7818,5313 7744,5332 7656,5346 7567,5360 7466,5367 7363,5367 L 7363,5367 C 7260,5367 7159,5360 7071,5346 6982,5332 6908,5313 6856,5289 6805,5265 6778,5238 6778,5211 L 6778,4430 6778,4430 C 6778,4457 6805,4484 6856,4508 6908,4532 6982,4552 7071,4565 7159,4579 7260,4586 7363,4586 L 7363,4586 C 7466,4586 7567,4579 7656,4565 7744,4552 7818,4532 7870,4508 7921,4484 7948,4457 7948,4430 L 7948,5211 Z"/>
        </g>
       </g>
       <g class="com.sun.star.drawing.CustomShape">
        <g id="id32">
         <rect class="BoundingBox" stroke="none" fill="none" x="6719" y="5303" width="1275" height="1038"/>
         <path fill="rgb(0,0,0)" stroke="none" d="M 7931,6125 L 7931,6125 C 7931,6152 7903,6180 7851,6205 7799,6230 7724,6252 7635,6268 7545,6285 7444,6295 7342,6298 L 7342,6298 C 7239,6301 7138,6296 7049,6285 6961,6274 6887,6257 6836,6234 6786,6212 6759,6186 6760,6159 L 6781,5378 6781,5378 C 6780,5405 6806,5432 6857,5454 6908,5476 6981,5494 7070,5505 7159,5516 7260,5520 7362,5517 L 7362,5517 C 7465,5514 7566,5504 7656,5488 7745,5472 7820,5450 7872,5425 7924,5399 7951,5372 7952,5344 L 7931,6125 Z"/>
         <path fill="none" stroke="rgb(255,255,255)" stroke-width="81" stroke-linejoin="round" d="M 7931,6125 L 7931,6125 C 7931,6152 7903,6180 7851,6205 7799,6230 7724,6252 7635,6268 7545,6285 7444,6295 7342,6298 L 7342,6298 C 7239,6301 7138,6296 7049,6285 6961,6274 6887,6257 6836,6234 6786,6212 6759,6186 6760,6159 L 6781,5378 6781,5378 C 6780,5405 6806,5432 6857,5454 6908,5476 6981,5494 7070,5505 7159,5516 7260,5520 7362,5517 L 7362,5517 C 7465,5514 7566,5504 7656,5488 7745,5472 7820,5450 7872,5425 7924,5399 7951,5372 7952,5344 L 7931,6125 Z"/>
        </g>
       </g>
       <g class="com.sun.star.drawing.CustomShape">
        <g id="id33">
         <rect class="BoundingBox" stroke="none" fill="none" x="6720" y="6257" width="1277" height="1167"/>
         <path fill="rgb(0,0,0)" stroke="none" d="M 7955,7222 L 7955,7221 C 7957,7252 7931,7282 7881,7308 7831,7333 7759,7353 7671,7366 7583,7379 7483,7385 7381,7382 L 7381,7382 C 7280,7379 7179,7367 7090,7349 7001,7331 6927,7306 6875,7278 6823,7249 6795,7218 6794,7187 L 6761,6298 6761,6298 C 6762,6329 6790,6361 6842,6389 6894,6418 6968,6442 7057,6461 7146,6479 7246,6490 7348,6493 L 7348,6493 C 7450,6496 7550,6491 7638,6478 7725,6465 7798,6445 7848,6419 7898,6394 7923,6364 7922,6333 L 7955,7222 Z"/>
         <path fill="none" stroke="rgb(255,255,255)" stroke-width="81" stroke-linejoin="round" d="M 7955,7222 L 7955,7221 C 7957,7252 7931,7282 7881,7308 7831,7333 7759,7353 7671,7366 7583,7379 7483,7385 7381,7382 L 7381,7382 C 7280,7379 7179,7367 7090,7349 7001,7331 6927,7306 6875,7278 6823,7249 6795,7218 6794,7187 L 6761,6298 6761,6298 C 6762,6329 6790,6361 6842,6389 6894,6418 6968,6442 7057,6461 7146,6479 7246,6490 7348,6493 L 7348,6493 C 7450,6496 7550,6491 7638,6478 7725,6465 7798,6445 7848,6419 7898,6394 7923,6364 7922,6333 L 7955,7222 Z"/>
        </g>
       </g>
       <g class="com.sun.star.drawing.CustomShape">
        <g id="id34">
         <rect class="BoundingBox" stroke="none" fill="none" x="6691" y="7283" width="1303" height="1129"/>
         <path fill="rgb(0,0,0)" stroke="none" d="M 7952,8234 L 7952,8233 C 7952,8262 7924,8290 7870,8312 7817,8334 7740,8351 7647,8361 7554,8370 7449,8372 7342,8366 L 7342,8366 C 7235,8360 7130,8346 7037,8326 6944,8306 6867,8281 6814,8252 6760,8224 6732,8193 6732,8164 L 6732,7325 6732,7324 C 6732,7354 6760,7384 6814,7413 6867,7442 6944,7467 7037,7487 7130,7507 7235,7521 7342,7527 L 7342,7527 C 7449,7533 7554,7531 7647,7522 7740,7512 7817,7495 7870,7473 7924,7450 7952,7423 7952,7394 L 7952,8234 Z"/>
         <path fill="none" stroke="rgb(255,255,255)" stroke-width="81" stroke-linejoin="round" d="M 7952,8234 L 7952,8233 C 7952,8262 7924,8290 7870,8312 7817,8334 7740,8351 7647,8361 7554,8370 7449,8372 7342,8366 L 7342,8366 C 7235,8360 7130,8346 7037,8326 6944,8306 6867,8281 6814,8252 6760,8224 6732,8193 6732,8164 L 6732,7325 6732,7324 C 6732,7354 6760,7384 6814,7413 6867,7442 6944,7467 7037,7487 7130,7507 7235,7521 7342,7527 L 7342,7527 C 7449,7533 7554,7531 7647,7522 7740,7512 7817,7495 7870,7473 7924,7450 7952,7423 7952,7394 L 7952,8234 Z"/>
        </g>
       </g>
       <g class="com.sun.star.drawing.CustomShape">
        <g id="id35">
         <rect class="BoundingBox" stroke="none" fill="none" x="6716" y="8269" width="1314" height="1177"/>
         <path fill="rgb(0,0,0)" stroke="none" d="M 7988,9215 L 7988,9214 C 7988,9246 7961,9277 7909,9306 7856,9334 7781,9358 7689,9375 7598,9392 7494,9402 7387,9404 L 7387,9404 C 7281,9405 7177,9399 7085,9384 6992,9370 6916,9348 6862,9321 6808,9295 6779,9264 6779,9232 L 6757,8328 6757,8328 C 6758,8360 6786,8391 6840,8417 6894,8444 6971,8466 7063,8480 7155,8495 7260,8502 7366,8500 L 7366,8500 C 7472,8498 7576,8488 7667,8471 7759,8454 7835,8430 7887,8402 7940,8374 7967,8342 7966,8310 L 7988,9215 Z"/>
         <path fill="none" stroke="rgb(255,255,255)" stroke-width="81" stroke-linejoin="round" d="M 7988,9215 L 7988,9214 C 7988,9246 7961,9277 7909,9306 7856,9334 7781,9358 7689,9375 7598,9392 7494,9402 7387,9404 L 7387,9404 C 7281,9405 7177,9399 7085,9384 6992,9370 6916,9348 6862,9321 6808,9295 6779,9264 6779,9232 L 6757,8328 6757,8328 C 6758,8360 6786,8391 6840,8417 6894,8444 6971,8466 7063,8480 7155,8495 7260,8502 7366,8500 L 7366,8500 C 7472,8498 7576,8488 7667,8471 7759,8454 7835,8430 7887,8402 7940,8374 7967,8342 7966,8310 L 7988,9215 Z"/>
        </g>
       </g>
       <g class="com.sun.star.drawing.CustomShape">
        <g id="id36">
         <rect class="BoundingBox" stroke="none" fill="none" x="6728" y="9351" width="1287" height="1112"/>
         <path fill="rgb(0,0,0)" stroke="none" d="M 7973,10237 L 7973,10237 C 7974,10267 7947,10297 7896,10324 7844,10351 7770,10374 7680,10391 7591,10408 7489,10418 7385,10421 L 7385,10421 C 7281,10423 7179,10418 7089,10405 6998,10393 6923,10373 6870,10349 6818,10324 6790,10296 6789,10266 L 6769,9421 6769,9421 C 6770,9450 6798,9479 6850,9503 6903,9528 6978,9547 7069,9560 7159,9573 7261,9578 7365,9575 L 7365,9575 C 7469,9573 7571,9562 7660,9545 7750,9528 7824,9505 7875,9478 7927,9451 7953,9421 7953,9392 L 7973,10237 Z"/>
         <path fill="none" stroke="rgb(255,255,255)" stroke-width="81" stroke-linejoin="round" d="M 7973,10237 L 7973,10237 C 7974,10267 7947,10297 7896,10324 7844,10351 7770,10374 7680,10391 7591,10408 7489,10418 7385,10421 L 7385,10421 C 7281,10423 7179,10418 7089,10405 6998,10393 6923,10373 6870,10349 6818,10324 6790,10296 6789,10266 L 6769,9421 6769,9421 C 6770,9450 6798,9479 6850,9503 6903,9528 6978,9547 7069,9560 7159,9573 7261,9578 7365,9575 L 7365,9575 C 7469,9573 7571,9562 7660,9545 7750,9528 7824,9505 7875,9478 7927,9451 7953,9421 7953,9392 L 7973,10237 Z"/>
        </g>
       </g>
       <g class="com.sun.star.drawing.CustomShape">
        <g id="id37">
         <rect class="BoundingBox" stroke="none" fill="none" x="6690" y="10299" width="1351" height="1106"/>
         <path fill="rgb(0,0,0)" stroke="none" d="M 7999,11212 L 7999,11212 C 8000,11241 7970,11269 7915,11293 7860,11317 7780,11336 7684,11348 7588,11360 7479,11365 7368,11362 L 7368,11362 C 7256,11359 7147,11348 7051,11331 6955,11314 6875,11290 6819,11264 6764,11237 6734,11207 6734,11178 L 6731,10340 6731,10340 C 6731,10369 6760,10399 6816,10426 6872,10453 6952,10476 7048,10494 7144,10511 7253,10522 7364,10525 L 7364,10525 C 7475,10528 7584,10523 7680,10511 7776,10498 7856,10479 7912,10455 7967,10432 7996,10403 7996,10374 L 7999,11212 Z"/>
         <path fill="none" stroke="rgb(255,255,255)" stroke-width="81" stroke-linejoin="round" d="M 7999,11212 L 7999,11212 C 8000,11241 7970,11269 7915,11293 7860,11317 7780,11336 7684,11348 7588,11360 7479,11365 7368,11362 L 7368,11362 C 7256,11359 7147,11348 7051,11331 6955,11314 6875,11290 6819,11264 6764,11237 6734,11207 6734,11178 L 6731,10340 6731,10340 C 6731,10369 6760,10399 6816,10426 6872,10453 6952,10476 7048,10494 7144,10511 7253,10522 7364,10525 L 7364,10525 C 7475,10528 7584,10523 7680,10511 7776,10498 7856,10479 7912,10455 7967,10432 7996,10403 7996,10374 L 7999,11212 Z"/>
        </g>
       </g>
      </g>
     </g>
    </g>
   </g>
  </g>
 </g>
</svg>