<svg version="1.1" viewBox="0.0 0.0 557.8582677165355 557.8582677165355" fill="none" stroke="none" stroke-linecap="square" stroke-miterlimit="10" xmlns:xlink="http://www.w3.org/1999/xlink" xmlns="http://www.w3.org/2000/svg"><clipPath id="p.0"><path d="m0 0l557.8583 0l0 557.8583l-557.8583 0l0 -557.8583z" clip-rule="nonzero"/></clipPath><g clip-path="url(#p.0)"><path fill="#000000" fill-opacity="0.0" d="m0 0l557.8583 0l0 557.8583l-557.8583 0z" fill-rule="evenodd"/><path fill="#000000" fill-opacity="0.0" d="m435.9777 169.32936l-290.49072 -0.81088257l0 217.05833l290.49072 0" fill-rule="evenodd"/><path stroke="#000000" stroke-width="8.0" stroke-linejoin="round" stroke-linecap="butt" d="m435.9777 169.32936l-290.49072 -0.81088257l0 217.05833l290.49072 0" fill-rule="evenodd"/><path fill="#000000" fill-opacity="0.0" d="m435.9777 241.71632l-290.49072 -0.26763916l0 71.64403l290.49072 0" fill-rule="evenodd"/><path stroke="#000000" stroke-width="8.0" stroke-linejoin="round" stroke-linecap="butt" d="m435.9777 241.71632l-290.49072 -0.26763916l0 71.64403l290.49072 0" fill-rule="evenodd"/><path fill="#000000" d="m93.392624 212.3358l4.0946045 -0.07673645l-1.931282 -3.8631744l4.9442215 0.46348572l-1.7771835 -4.55809l4.9442215 1.0043182l-1.3131027 -4.866867l4.5580826 1.4677887l-0.9269638 -4.944214l4.6354294 1.699234l-0.5408249 -4.7895355l4.480736 2.0859833l0 -4.944229l4.635437 2.780899l0.3861313 -4.7127686l3.939911 2.6268005l0.7728729 -4.55809l3.7078629 3.167633l1.2363586 -4.6354218l3.2449799 3.2449799l1.6219025 -4.249298l3.0902863 3.6311188l2.0086212 -4.249298l2.7815094 3.940506l2.3174133 -4.326645l2.472107 4.0172577l3.0902863 -4.55809l2.0086365 4.4807434l3.0902863 -3.7852173l1.7771912 4.635437l3.3990784 -3.4770203l1.2357483 4.635437l3.3996735 -2.935608l1.0043182 4.635437l3.939911 -2.7041473l0.5408325 4.8674774l4.0946045 -2.4721222l-0.0773468 4.32605l3.6311188 -1.9312744l-0.386734 4.944214l4.4039917 -1.7765808l-0.6955261 4.7895203l4.8674774 -1.3904419l-1.3910522 4.944214l4.7127686 -0.9269562l-1.6224823 4.4033813l4.7901306 -0.46347046l-2.0086365 4.4033813l4.8668823 0l-2.780899 5.021576l4.7121735 0.5408325l-2.6268005 3.7084656l4.4039917 0.7728729l-3.0902863 3.7078705l4.712784 1.1589966l-3.3996887 3.4764252l4.712784 1.7771912l-3.6311188 2.8582458l4.249298 2.0086212l-3.8631592 2.7809143l4.0946045 2.1633148l-4.4033966 2.5494537l4.712784 3.3990784l-4.1719513 2.0859833l3.7084656 2.9355927l-4.55809 1.6224976l3.2443848 3.4764252l-4.7895203 1.1589966l3.4764252 3.939911l-5.021576 0.6955261l3.0129395 4.0172424l-5.0215607 0.38613892l2.472107 4.1719666l-4.249298 -0.07736206l2.0086212 3.939911l-4.944214 -0.5408325l1.6998291 4.5581055l-4.867462 -0.92697144l1.3136902 4.635437l-4.4813385 -1.081665l0.8502197 4.867462l-4.6354218 -1.6998291l0.30877686 4.7127686l-4.2486877 -2.008606l0 4.7895203l-4.635437 -2.7041626l-0.5408325 4.635437l-3.6311188 -2.549469l-1.0043182 4.4039917l-3.6311188 -2.8588257l-1.3130951 4.635437l-3.244995 -3.3217468l-1.7765808 4.403412l-2.9355927 -3.708496l-2.1633148 4.249298l-2.549469 -3.9398804l-2.5494537 4.094574l-2.16333 -3.785797l-3.167038 4.3266296l-2.085968 -4.3266296l-3.0902863 3.553772l-1.6998444 -4.4807434l-3.4764252 3.4764404l-1.1590042 -4.5581055l-3.6311188 2.8582458l-0.92697144 -4.712158l-3.7852097 2.6268005l-0.46348572 -4.712799l-4.4039917 2.549469l0.1546936 -4.32666l-3.6311188 1.467804l0.386734 -4.558075l-4.6354294 1.6224976l0.9269638 -4.635437l-4.7901306 1.3136902l1.3137054 -4.867462l-4.712776 0.77285767l1.6224899 -4.4033813l-4.712784 0.38613892l2.0086288 -4.1719666l-4.9442215 -0.07733154l2.9355927 -5.021576l-4.6354294 -0.38613892l2.7041473 -3.939911l-4.6354294 -0.6955261l2.9355927 -3.6311035l-4.712181 -1.1584167l3.6305237 -3.6311188l-4.6348343 -1.6998444l3.630516 -3.0129395l-4.094002 -1.8539276l3.7078629 -2.7041626l-4.01725 -2.3947601l4.249298 -2.3947601l-4.7901306 -3.3996735l4.249298 -2.0086365l-3.4764252 -3.0129395l4.403389 -1.6224976l-3.3217316 -3.3990784l4.712181 -1.2357483l-3.2443771 -3.940506l4.8668747 -0.69493103l-2.7809067 -3.8631592l4.789528 -0.38613892z" fill-rule="evenodd"/><path fill="#000000" d="m461.67572 388.85904l-3.908783 -2.2702942l3.4230957 -3.4747925l-4.463928 -1.2044983l2.2896729 -4.007416l-4.371399 -0.04647827l1.1103516 -4.215973l-4.4177856 1.1816101l-0.023071289 -4.633026l-4.2098083 2.3858643l-1.15625 -4.3318176l-3.2612915 3.1735535l-2.243744 -3.960968l-2.2896729 3.914734l-3.4000244 -3.4283142l-1.249054 4.516968l-3.9320984 -2.3162537l-0.069244385 4.4242554l-4.1634216 -1.1348877l1.1565247 4.4707336l-4.6026917 -0.023132324l2.4053345 4.262207l-4.4177856 1.1582642l3.284607 3.2662659l-3.9551697 2.3164978l3.9087524 2.27005l-3.4694824 3.4747925l4.5103455 1.2044983l-2.2666016 4.007416l4.3713684 0l-1.1564941 4.2855835l4.4639587 -1.181366l-0.023101807 4.6792603l4.232666 -2.501709l1.2028809 4.4011536l3.191803 -3.1504211l2.2434998 3.8684998l2.289917 -3.8916016l3.4230957 3.405182l1.2026672 -4.516968l4.024658 2.3396301l0 -4.4244995l4.209564 1.181366l-1.2026367 -4.49411l4.602661 -0.046203613l-2.3822327 -4.215973l4.3713684 -1.1582642l-3.191803 -3.2893677z" fill-rule="evenodd"/><path fill="#000000" d="m469.16537 362.4648l-1.6373291 -0.9530029l1.4338989 -1.4586182l-1.8699036 -0.50561523l0.95913696 -1.68219l-1.8311157 -0.01953125l0.4650879 -1.7697449l-1.8505554 0.4960327l-0.009643555 -1.9448242l-1.7634583 1.0015259l-0.48434448 -1.8183899l-1.3660889 1.3321838l-0.9399109 -1.6627197l-0.95910645 1.6433105l-1.4242249 -1.4391174l-0.5232239 1.8960876l-1.6470947 -0.97229004l-0.029022217 1.8571777l-1.743988 -0.4764099l0.48443604 1.876709l-1.928009 -0.00970459l1.0075684 1.789154l-1.8505554 0.48620605l1.375885 1.3710632l-1.6567688 0.9724121l1.6373291 0.9529114l-1.4533386 1.4586182l1.8893433 0.50561523l-0.9494629 1.68219l1.8311157 0l-0.48443604 1.7989807l1.8699036 -0.49591064l-0.009674072 1.9642334l1.7730103 -1.0501709l0.50387573 1.8475037l1.3370056 -1.3224792l0.9397888 1.6239014l0.959198 -1.633606l1.4338989 1.4294128l0.5037842 -1.8960876l1.6858826 0.9821167l0 -1.8572998l1.7633362 0.49591064l-0.5037842 -1.8865051l1.928009 -0.01940918l-0.9978943 -1.7697449l1.8311157 -0.48620605l-1.3370056 -1.3807678z" fill-rule="evenodd"/><path fill="#000000" d="m475.77374 378.40494l-1.2086487 -0.70266724l1.0584717 -1.07547l-1.3803406 -0.37280273l0.7080078 -1.2403259l-1.3516846 -0.014373779l0.34332275 -1.3048706l-1.3660278 0.36572266l-0.0071411133 -1.43396l-1.3017578 0.73843384l-0.35751343 -1.3406982l-1.0084534 0.98223877l-0.6937866 -1.2259521l-0.7080078 1.2116394l-1.0513306 -1.0610962l-0.38623047 1.3980408l-1.2158813 -0.71691895l-0.021392822 1.3693542l-1.2874146 -0.35125732l0.3576355 1.3836975l-1.4232178 -0.0071411133l0.7437439 1.3191833l-1.3660278 0.35849l1.015625 1.0109253l-1.222992 0.71698l1.2086487 0.7025757l-1.072815 1.07547l1.3946838 0.37280273l-0.7008667 1.2403259l1.3516846 0l-0.35760498 1.3263855l1.38031 -0.3656311l-0.0071411133 1.4482727l1.3088074 -0.774292l0.37194824 1.3621826l0.986969 -0.97506714l0.6937256 1.1972961l0.70806885 -1.2044678l1.0584717 1.0539246l0.3718872 -1.3980408l1.2444763 0.7241516l0 -1.3694153l1.3016663 0.3656311l-0.3718567 -1.3909302l1.4232178 -0.014312744l-0.7366333 -1.3048706l1.3516846 -0.35849l-0.9869385 -1.0180664z" fill-rule="evenodd"/><path fill="#000000" d="m476.51663 393.5364l-1.1282959 -0.6560364l0.98809814 -1.0041199l-1.2885437 -0.3480835l0.6609192 -1.15802l-1.2617798 -0.013458252l0.3204956 -1.2182922l-1.2752075 0.34146118l-0.006652832 -1.3388367l-1.2151794 0.6894531l-0.33374023 -1.25177l-0.94137573 0.91708374l-0.64767456 -1.1446228l-0.6609192 1.1312561l-0.9814148 -0.99069214l-0.3605652 1.3052979l-1.1350098 -0.66934204l-0.019989014 1.2784729l-1.2017517 -0.3279419l0.3338318 1.2919312l-1.3285828 -0.0066833496l0.6943054 1.2316589l-1.2752075 0.3347168l0.9481201 0.94384766l-1.1416931 0.6694031l1.1282959 0.65597534l-1.0014954 1.0041199l1.3019409 0.3480835l-0.65426636 1.1580505l1.2618103 0l-0.3338318 1.2384033l1.2885132 -0.34140015l-0.006652832 1.3522034l1.2217712 -0.7229309l0.3471985 1.2718201l0.9213257 -0.9104004l0.6476135 1.1178894l0.6609802 -1.1245728l0.9880676 0.9840088l0.34716797 -1.3052673l1.1617126 0.6760864l0 -1.2785645l1.2151184 0.34140015l-0.34716797 -1.2986755l1.3285828 -0.013366699l-0.6876526 -1.2183228l1.2618103 -0.33468628l-0.9213257 -0.950531z" fill-rule="evenodd"/><path fill="#000000" d="m469.47205 405.87912l-0.92285156 -0.53692627l0.808197 -0.82180786l-1.0539551 -0.28485107l0.5405884 -0.9477539l-1.032074 -0.011016846l0.262146 -0.9970703l-1.0430298 0.27944946l-0.0054626465 -1.0957336l-0.993927 0.56427l-0.27297974 -1.0244751l-0.77001953 0.7505493l-0.5297241 -0.9367676l-0.5406189 0.9258423l-0.8027344 -0.81082153l-0.29489136 1.0682983l-0.92837524 -0.54782104l-0.016357422 1.0463562l-0.9829712 -0.2684021l0.27304077 1.0573425l-1.0867004 -0.005493164l0.5679016 1.0080261l-1.0430298 0.27392578l0.7754822 0.77249146l-0.9338074 0.54785156l0.92285156 0.53686523l-0.81915283 0.82180786l1.0649109 0.28485107l-0.53515625 0.9477844l1.0321045 0l-0.2730713 1.0135193l1.0539551 -0.27938843l-0.0054626465 1.1066589l0.9993286 -0.5916443l0.2840271 1.040863l0.75357056 -0.74508667l0.5296936 0.914917l0.5406494 -0.92037964l0.808197 0.80532837l0.28393555 -1.0682678l0.95022583 0.5533447l0 -1.0464172l0.9938965 0.27941895l-0.28396606 -1.0628662l1.0867004 -0.010955811l-0.56243896 -0.9970703l1.032074 -0.27392578l-0.75357056 -0.7779541z" fill-rule="evenodd"/><path fill="#000000" d="m459.0106 412.76407l-0.7501831 -0.4367981l0.6569824 -0.66851807l-0.8567505 -0.23175049l0.43945312 -0.7709961l-0.83898926 -0.00894165l0.21310425 -0.8111267l-0.8479004 0.22732544l-0.004425049 -0.89138794l-0.8079834 0.4590454l-0.22189331 -0.83343506l-0.62594604 0.6105957l-0.43063354 -0.76208496l-0.43945312 0.7531738l-0.6525574 -0.6595764l-0.23971558 0.8690491l-0.7546692 -0.4456482l-0.013305664 0.8511963l-0.79907227 -0.21835327l0.22198486 0.86016846l-0.88339233 -0.0044555664l0.4616394 0.82003784l-0.8478699 0.22283936l0.6304016 0.62841797l-0.75912476 0.4456787l0.7502136 0.43673706l-0.66589355 0.6685486l0.8656616 0.23171997l-0.43502808 0.7710266l0.83898926 0l-0.22195435 0.8245239l0.8567505 -0.22729492l-0.004425049 0.90026855l0.8123474 -0.48132324l0.23086548 0.84677124l0.61257935 -0.60614014l0.43060303 0.7442932l0.43948364 -0.74871826l0.6569824 0.65512085l0.23083496 -0.86901855l0.7724304 0.45013428l0 -0.8512573l0.8079529 0.22729492l-0.23083496 -0.86465454l0.88339233 -0.008911133l-0.45724487 -0.8111267l0.83898926 -0.22283936l-0.61257935 -0.632843z" fill-rule="evenodd"/><path fill="#000000" d="m461.67572 160.73062l-3.908783 2.2702942l3.4230957 3.4747925l-4.463928 1.204483l2.2896729 4.0074463l-4.371399 0.04647827l1.1103516 4.215973l-4.4177856 -1.1816254l-0.023071289 4.6330414l-4.2098083 -2.3858643l-1.15625 4.331787l-3.2612915 -3.1735382l-2.243744 3.960968l-2.2896729 -3.914734l-3.4000244 3.4283142l-1.249054 -4.516983l-3.9320984 2.3162842l-0.069244385 -4.4242706l-4.1634216 1.134903l1.1565247 -4.4707336l-4.6026917 0.023117065l2.4053345 -4.262207l-4.4177856 -1.1582642l3.284607 -3.2662506l-3.9551697 -2.3165283l3.9087524 -2.2700348l-3.4694824 -3.4747925l4.5103455 -1.204483l-2.2666016 -4.0074463l4.3713684 0l-1.1564941 -4.285568l4.4639587 1.1813812l-0.023101807 -4.6792755l4.232666 2.5016937l1.2028809 -4.4011383l3.191803 3.1504211l2.2434998 -3.8684998l2.289917 3.8916168l3.4230957 -3.4051971l1.2026672 4.516968l4.024658 -2.3396301l0 4.424515l4.209564 -1.1813812l-1.2026367 4.494095l4.602661 0.04623413l-2.3822327 4.215973l4.3713684 1.1582642l-3.191803 3.2893677z" fill-rule="evenodd"/><path fill="#000000" d="m469.16537 187.12485l-1.6373291 0.9530029l1.4338989 1.4586182l-1.8699036 0.50561523l0.95913696 1.6822052l-1.8311157 0.019500732l0.4650879 1.7697601l-1.8505554 -0.49601746l-0.009643555 1.9448242l-1.7634583 -1.0015259l-0.48434448 1.8183746l-1.3660889 -1.3321686l-0.9399109 1.6627045l-0.95910645 -1.6432953l-1.4242249 1.4391022l-0.5232239 -1.8961029l-1.6470947 0.97232056l-0.029022217 -1.857193l-1.743988 0.4764099l0.48443604 -1.8766937l-1.928009 0.00970459l1.0075684 -1.789154l-1.8505554 -0.48620605l1.375885 -1.3710785l-1.6567688 -0.9724121l1.6373291 -0.9528961l-1.4533386 -1.4586182l1.8893433 -0.50561523l-0.9494629 -1.6822052l1.8311157 0l-0.48443604 -1.7989655l1.8699036 0.49591064l-0.009674072 -1.9642334l1.7730103 1.0501404l0.50387573 -1.8474731l1.3370056 1.322464l0.9397888 -1.6238861l0.959198 1.6335754l1.4338989 -1.4293976l0.5037842 1.8961029l1.6858826 -0.9821167l0 1.8572845l1.7633362 -0.49591064l-0.5037842 1.8865051l1.928009 0.01939392l-0.9978943 1.7697601l1.8311157 0.48620605l-1.3370056 1.3807831z" fill-rule="evenodd"/><path fill="#000000" d="m475.77374 171.18472l-1.2086487 0.70266724l1.0584717 1.07547l-1.3803406 0.37278748l0.7080078 1.2403259l-1.3516846 0.014389038l0.34332275 1.3048706l-1.3660278 -0.36572266l-0.0071411133 1.43396l-1.3017578 -0.7384491l-0.35751343 1.3407135l-1.0084534 -0.9822235l-0.6937866 1.2259369l-0.7080078 -1.2116241l-1.0513306 1.0610809l-0.38623047 -1.3980255l-1.2158813 0.7168884l-0.021392822 -1.3693237l-1.2874146 0.35125732l0.3576355 -1.383728l-1.4232178 0.007156372l0.7437439 -1.3191681l-1.3660278 -0.35849l1.015625 -1.0109253l-1.222992 -0.71698l1.2086487 -0.70259094l-1.072815 -1.07547l1.3946838 -0.37278748l-0.7008667 -1.2403259l1.3516846 0l-0.35760498 -1.326416l1.38031 0.36564636l-0.0071411133 -1.4482574l1.3088074 0.774292l0.37194824 -1.3621826l0.986969 0.97506714l0.6937256 -1.1973114l0.70806885 1.2044678l1.0584717 -1.0539246l0.3718872 1.3980255l1.2444763 -0.7241211l0 1.3694l1.3016663 -0.36564636l-0.3718567 1.3909607l1.4232178 0.014312744l-0.7366333 1.3048553l1.3516846 0.35849l-0.9869385 1.0180817z" fill-rule="evenodd"/><path fill="#000000" d="m476.51663 156.05325l-1.1282959 0.65605164l0.98809814 1.0041199l-1.2885437 0.34806824l0.6609192 1.1580353l-1.2617798 0.013427734l0.3204956 1.2183075l-1.2752075 -0.34146118l-0.006652832 1.3388367l-1.2151794 -0.6894531l-0.33374023 1.25177l-0.94137573 -0.9170685l-0.64767456 1.1446075l-0.6609192 -1.1312408l-0.9814148 0.9906769l-0.3605652 -1.3052826l-1.1350098 0.66934204l-0.019989014 -1.2784882l-1.2017517 0.32795715l0.3338318 -1.2919312l-1.3285828 0.0066833496l0.6943054 -1.2316589l-1.2752075 -0.3347168l0.9481201 -0.9438629l-1.1416931 -0.6694031l1.1282959 -0.6559906l-1.0014954 -1.0041199l1.3019409 -0.34806824l-0.65426636 -1.1580353l1.2618103 0l-0.3338318 -1.2384186l1.2885132 0.3413849l-0.006652832 -1.3521881l1.2217712 0.7229309l0.3471985 -1.2718201l0.9213257 0.9104004l0.6476135 -1.1179047l0.6609802 1.1245728l0.9880676 -0.9840088l0.34716797 1.3052826l1.1617126 -0.6760864l0 1.2785645l1.2151184 -0.3413849l-0.34716797 1.2986755l1.3285828 0.013366699l-0.6876526 1.2182922l1.2618103 0.3347168l-0.9213257 0.950531z" fill-rule="evenodd"/><path fill="#000000" d="m469.47205 143.71054l-0.92285156 0.53692627l0.808197 0.8217926l-1.0539551 0.28486633l0.5405884 0.94776917l-1.032074 0.011001587l0.262146 0.9970856l-1.0430298 -0.27946472l-0.0054626465 1.0957336l-0.993927 -0.56427l-0.27297974 1.0244751l-0.77001953 -0.7505493l-0.5297241 0.93678284l-0.5406189 -0.9258423l-0.8027344 0.8108063l-0.29489136 -1.0682831l-0.92837524 0.5478058l-0.016357422 -1.046341l-0.9829712 0.2684021l0.27304077 -1.0573425l-1.0867004 0.0054626465l0.5679016 -1.0080109l-1.0430298 -0.27392578l0.7754822 -0.7724762l-0.9338074 -0.5478668l0.92285156 -0.53686523l-0.81915283 -0.8217926l1.0649109 -0.28486633l-0.53515625 -0.94776917l1.0321045 0l-0.2730713 -1.0135498l1.0539551 0.2794037l-0.0054626465 -1.1066589l0.9993286 0.59165955l0.2840271 -1.0408783l0.75357056 0.7450714l0.5296936 -0.91490173l0.5406494 0.92037964l0.808197 -0.8053436l0.28393555 1.0682831l0.95022583 -0.55332947l0 1.046402l0.9938965 -0.2794037l-0.28396606 1.0628662l1.0867004 0.010940552l-0.56243896 0.9970856l1.032074 0.27392578l-0.75357056 0.77793884z" fill-rule="evenodd"/><path fill="#000000" d="m459.0106 136.82559l-0.7501831 0.43678284l0.6569824 0.6685333l-0.8567505 0.23175049l0.43945312 0.77101135l-0.83898926 0.00894165l0.21310425 0.8111267l-0.8479004 -0.2273407l-0.004425049 0.89138794l-0.8079834 -0.45903015l-0.22189331 0.83340454l-0.62594604 -0.6105652l-0.43063354 0.7620697l-0.43945312 -0.7531738l-0.6525574 0.6595917l-0.23971558 -0.8690491l-0.7546692 0.4456482l-0.013305664 -0.85121155l-0.79907227 0.21833801l0.22198486 -0.86013794l-0.88339233 0.0044403076l0.4616394 -0.8200226l-0.8478699 -0.22285461l0.6304016 -0.6284027l-0.75912476 -0.44569397l0.7502136 -0.43673706l-0.66589355 -0.6685333l0.8656616 -0.23175049l-0.43502808 -0.77101135l0.83898926 0l-0.22195435 -0.8245239l0.8567505 0.22729492l-0.004425049 -0.90026855l0.8123474 0.48130798l0.23086548 -0.846756l0.61257935 0.6061249l0.43060303 -0.74427795l0.43948364 0.7487335l0.6569824 -0.65515137l0.23083496 0.8690491l0.7724304 -0.45013428l0 0.8512573l0.8079529 -0.22729492l-0.23083496 0.8646393l0.88339233 0.008895874l-0.45724487 0.81114197l0.83898926 0.22283936l-0.61257935 0.6328583z" fill-rule="evenodd"/><path fill="#000000" d="m461.67572 307.90924l-3.908783 2.2702942l3.4230957 3.4747925l-4.463928 1.2044678l2.2896729 4.0074463l-4.371399 0.04647827l1.1103516 4.215973l-4.4177856 -1.1816101l-0.023071289 4.633026l-4.2098083 -2.3858643l-1.15625 4.331787l-3.2612915 -3.173523l-2.243744 3.960968l-2.2896729 -3.914734l-3.4000244 3.4283142l-1.249054 -4.5169983l-3.9320984 2.3162842l-0.069244385 -4.4242554l-4.1634216 1.1348877l1.1565247 -4.4707336l-4.6026917 0.023132324l2.4053345 -4.262207l-4.4177856 -1.1582642l3.284607 -3.2662659l-3.9551697 -2.3164978l3.9087524 -2.27005l-3.4694824 -3.4747925l4.5103455 -1.2044983l-2.2666016 -4.0074463l4.3713684 0l-1.1564941 -4.285553l4.4639587 1.181366l-0.023101807 -4.6792603l4.232666 2.5016785l1.2028809 -4.401123l3.191803 3.1504211l2.2434998 -3.8684998l2.289917 3.8916016l3.4230957 -3.405182l1.2026672 4.516968l4.024658 -2.3396301l0 4.4244995l4.209564 -1.181366l-1.2026367 4.4940796l4.602661 0.04623413l-2.3822327 4.215973l4.3713684 1.1582642l-3.191803 3.2893677z" fill-rule="evenodd"/><path fill="#000000" d="m469.16537 334.30347l-1.6373291 0.9530029l1.4338989 1.4586182l-1.8699036 0.50561523l0.95913696 1.68219l-1.8311157 0.01953125l0.4650879 1.7697449l-1.8505554 -0.4960327l-0.009643555 1.9448242l-1.7634583 -1.0015259l-0.48434448 1.8183899l-1.3660889 -1.3321838l-0.9399109 1.6627197l-0.95910645 -1.6433105l-1.4242249 1.4391174l-0.5232239 -1.8960876l-1.6470947 0.97229004l-0.029022217 -1.8571777l-1.743988 0.4764099l0.48443604 -1.876709l-1.928009 0.00970459l1.0075684 -1.789154l-1.8505554 -0.48620605l1.375885 -1.3710632l-1.6567688 -0.9724121l1.6373291 -0.9529114l-1.4533386 -1.4586182l1.8893433 -0.50561523l-0.9494629 -1.68219l1.8311157 0l-0.48443604 -1.7989807l1.8699036 0.49591064l-0.009674072 -1.9642334l1.7730103 1.0501404l0.50387573 -1.8474731l1.3370056 1.3224792l0.9397888 -1.6239014l0.959198 1.633606l1.4338989 -1.4294128l0.5037842 1.8960876l1.6858826 -0.9821167l0 1.8572998l1.7633362 -0.49591064l-0.5037842 1.8865051l1.928009 0.01940918l-0.9978943 1.7697449l1.8311157 0.48620605l-1.3370056 1.3807678z" fill-rule="evenodd"/><path fill="#000000" d="m475.77374 318.36334l-1.2086487 0.70266724l1.0584717 1.07547l-1.3803406 0.37280273l0.7080078 1.2402954l-1.3516846 0.014404297l0.34332275 1.3048706l-1.3660278 -0.36572266l-0.0071411133 1.43396l-1.3017578 -0.73846436l-0.35751343 1.3407288l-1.0084534 -0.98223877l-0.6937866 1.2259521l-0.7080078 -1.2116394l-1.0513306 1.0610962l-0.38623047 -1.3980408l-1.2158813 0.71691895l-0.021392822 -1.3693542l-1.2874146 0.35125732l0.3576355 -1.383728l-1.4232178 0.007171631l0.7437439 -1.3191833l-1.3660278 -0.35849l1.015625 -1.0109253l-1.222992 -0.71698l1.2086487 -0.7025757l-1.072815 -1.07547l1.3946838 -0.37280273l-0.7008667 -1.2403259l1.3516846 0l-0.35760498 -1.3263855l1.38031 0.3656311l-0.0071411133 -1.4482727l1.3088074 0.774292l0.37194824 -1.3621826l0.986969 0.97506714l0.6937256 -1.1972961l0.70806885 1.2044678l1.0584717 -1.0539246l0.3718872 1.3980103l1.2444763 -0.7241211l0 1.3694153l1.3016663 -0.3656311l-0.3718567 1.3909302l1.4232178 0.014312744l-0.7366333 1.3048706l1.3516846 0.35849l-0.9869385 1.0180664z" fill-rule="evenodd"/><path fill="#000000" d="m476.51663 303.23187l-1.1282959 0.6560364l0.98809814 1.0041199l-1.2885437 0.3480835l0.6609192 1.15802l-1.2617798 0.013427734l0.3204956 1.2183228l-1.2752075 -0.34146118l-0.006652832 1.3388367l-1.2151794 -0.6894531l-0.33374023 1.25177l-0.94137573 -0.91708374l-0.64767456 1.1446228l-0.6609192 -1.1312561l-0.9814148 0.99069214l-0.3605652 -1.3052979l-1.1350098 0.66934204l-0.019989014 -1.2784729l-1.2017517 0.3279419l0.3338318 -1.2919312l-1.3285828 0.0066833496l0.6943054 -1.2316589l-1.2752075 -0.3347168l0.9481201 -0.94384766l-1.1416931 -0.6694031l1.1282959 -0.65600586l-1.0014954 -1.0041199l1.3019409 -0.34805298l-0.65426636 -1.1580505l1.2618103 0l-0.3338318 -1.2384033l1.2885132 0.34136963l-0.006652832 -1.3521729l1.2217712 0.7229309l0.3471985 -1.2718201l0.9213257 0.9104004l0.6476135 -1.1179199l0.6609802 1.1245728l0.9880676 -0.9840088l0.34716797 1.3052979l1.1617126 -0.6760864l0 1.2785645l1.2151184 -0.34140015l-0.34716797 1.2986755l1.3285828 0.013366699l-0.6876526 1.2182922l1.2618103 0.3347168l-0.9213257 0.950531z" fill-rule="evenodd"/><path fill="#000000" d="m469.47205 290.88916l-0.92285156 0.53692627l0.808197 0.82180786l-1.0539551 0.28485107l0.5405884 0.9477539l-1.032074 0.011016846l0.262146 0.9970703l-1.0430298 -0.27944946l-0.0054626465 1.0957336l-0.993927 -0.56427l-0.27297974 1.0244751l-0.77001953 -0.7505493l-0.5297241 0.9367676l-0.5406189 -0.9258423l-0.8027344 0.81082153l-0.29489136 -1.0682983l-0.92837524 0.54782104l-0.016357422 -1.0463562l-0.9829712 0.2684021l0.27304077 -1.0573425l-1.0867004 0.005493164l0.5679016 -1.0080261l-1.0430298 -0.27392578l0.7754822 -0.77249146l-0.9338074 -0.54785156l0.92285156 -0.53686523l-0.81915283 -0.82180786l1.0649109 -0.28485107l-0.53515625 -0.9477844l1.0321045 0l-0.2730713 -1.0135498l1.0539551 0.27941895l-0.0054626465 -1.1066589l0.9993286 0.5916443l0.2840271 -1.040863l0.75357056 0.74505615l0.5296936 -0.9148865l0.5406494 0.92037964l0.808197 -0.8053589l0.28393555 1.0682983l0.95022583 -0.5533447l0 1.0464172l0.9938965 -0.27941895l-0.28396606 1.0628662l1.0867004 0.010955811l-0.56243896 0.9970703l1.032074 0.27392578l-0.75357056 0.7779541z" fill-rule="evenodd"/><path fill="#000000" d="m459.0106 284.0042l-0.7501831 0.4367981l0.6569824 0.66851807l-0.8567505 0.23175049l0.43945312 0.7709961l-0.83898926 0.00894165l0.21310425 0.8111267l-0.8479004 -0.22732544l-0.004425049 0.89138794l-0.8079834 -0.4590454l-0.22189331 0.83343506l-0.62594604 -0.6105957l-0.43063354 0.76208496l-0.43945312 -0.7531738l-0.6525574 0.6595764l-0.23971558 -0.8690491l-0.7546692 0.4456482l-0.013305664 -0.8511963l-0.79907227 0.21835327l0.22198486 -0.86016846l-0.88339233 0.0044555664l0.4616394 -0.82003784l-0.8478699 -0.22283936l0.6304016 -0.62841797l-0.75912476 -0.4456787l0.7502136 -0.43673706l-0.66589355 -0.6685486l0.8656616 -0.23171997l-0.43502808 -0.7710266l0.83898926 0l-0.22195435 -0.8245239l0.8567505 0.22729492l-0.004425049 -0.90026855l0.8123474 0.48132324l0.23086548 -0.84677124l0.61257935 0.6061096l0.43060303 -0.7442627l0.43948364 0.74871826l0.6569824 -0.65515137l0.23083496 0.8690491l0.7724304 -0.45013428l0 0.8512573l0.8079529 -0.22729492l-0.23083496 0.86465454l0.88339233 0.008880615l-0.45724487 0.8111572l0.83898926 0.22283936l-0.61257935 0.632843z" fill-rule="evenodd"/><path fill="#000000" d="m461.67572 241.68042l-3.908783 -2.2702942l3.4230957 -3.4747772l-4.463928 -1.2044983l2.2896729 -4.007431l-4.371399 -0.04647827l1.1103516 -4.215973l-4.4177856 1.1816254l-0.023071289 -4.6330414l-4.2098083 2.3858643l-1.15625 -4.3318024l-3.2612915 3.1735382l-2.243744 -3.9609528l-2.2896729 3.9147186l-3.4000244 -3.428299l-1.249054 4.516968l-3.9320984 -2.316269l-0.069244385 4.4242554l-4.1634216 -1.134903l1.1565247 4.470749l-4.6026917 -0.023117065l2.4053345 4.262207l-4.4177856 1.1582642l3.284607 3.2662506l-3.9551697 2.316513l3.9087524 2.27005l-3.4694824 3.4747772l4.5103455 1.2044983l-2.2666016 4.007431l4.3713684 0l-1.1564941 4.285568l4.4639587 -1.1813812l-0.023101807 4.6792755l4.232666 -2.5016785l1.2028809 4.401123l3.191803 -3.1504211l2.2434998 3.8684998l2.289917 -3.8916016l3.4230957 3.405182l1.2026672 -4.516968l4.024658 2.3396301l0 -4.4244995l4.209564 1.181366l-1.2026367 -4.494095l4.602661 -0.04623413l-2.3822327 -4.215973l4.3713684 -1.1582489l-3.191803 -3.2893677z" fill-rule="evenodd"/><path fill="#000000" d="m469.16537 215.28621l-1.6373291 -0.9530029l1.4338989 -1.4586182l-1.8699036 -0.50561523l0.95913696 -1.6822052l-1.8311157 -0.019515991l0.4650879 -1.7697449l-1.8505554 0.49601746l-0.009643555 -1.9448242l-1.7634583 1.0015259l-0.48434448 -1.8183746l-1.3660889 1.3321686l-0.9399109 -1.6627045l-0.95910645 1.6432953l-1.4242249 -1.4391174l-0.5232239 1.8961029l-1.6470947 -0.9723053l-0.029022217 1.8571777l-1.743988 -0.47639465l0.48443604 1.8766937l-1.928009 -0.00970459l1.0075684 1.789154l-1.8505554 0.48620605l1.375885 1.3710785l-1.6567688 0.9724121l1.6373291 0.9528961l-1.4533386 1.4586182l1.8893433 0.50561523l-0.9494629 1.6822052l1.8311157 0l-0.48443604 1.7989655l1.8699036 -0.49591064l-0.009674072 1.9642181l1.7730103 -1.0501404l0.50387573 1.8474884l1.3370056 -1.322464l0.9397888 1.6238861l0.959198 -1.6335907l1.4338989 1.4293976l0.5037842 -1.8960876l1.6858826 0.9821167l0 -1.8572845l1.7633362 0.49591064l-0.5037842 -1.8865051l1.928009 -0.01940918l-0.9978943 -1.7697449l1.8311157 -0.48620605l-1.3370056 -1.3807831z" fill-rule="evenodd"/><path fill="#000000" d="m475.77374 231.22633l-1.2086487 -0.70266724l1.0584717 -1.07547l-1.3803406 -0.37280273l0.7080078 -1.2403259l-1.3516846 -0.014373779l0.34332275 -1.3048706l-1.3660278 0.3657074l-0.0071411133 -1.4339447l-1.3017578 0.73843384l-0.35751343 -1.3407135l-1.0084534 0.9822235l-0.6937866 -1.2259369l-0.7080078 1.2116394l-1.0513306 -1.0610809l-0.38623047 1.3980255l-1.2158813 -0.7169037l-0.021392822 1.369339l-1.2874146 -0.35125732l0.3576355 1.3837128l-1.4232178 -0.007156372l0.7437439 1.3191833l-1.3660278 0.35849l1.015625 1.0109253l-1.222992 0.7169647l1.2086487 0.7026062l-1.072815 1.0754547l1.3946838 0.37280273l-0.7008667 1.2403259l1.3516846 0l-0.35760498 1.3264008l1.38031 -0.36564636l-0.0071411133 1.4482727l1.3088074 -0.774292l0.37194824 1.3621826l0.986969 -0.9750824l0.6937256 1.1973267l0.70806885 -1.2044678l1.0584717 1.0539246l0.3718872 -1.3980408l1.2444763 0.72413635l0 -1.3694153l1.3016663 0.36564636l-0.3718567 -1.3909454l1.4232178 -0.014312744l-0.7366333 -1.3048706l1.3516846 -0.35849l-0.9869385 -1.0180664z" fill-rule="evenodd"/><path fill="#000000" d="m476.51663 246.3578l-1.1282959 -0.65605164l0.98809814 -1.0041199l-1.2885437 -0.34806824l0.6609192 -1.1580353l-1.2617798 -0.013442993l0.3204956 -1.2182922l-1.2752075 0.34144592l-0.006652832 -1.3388214l-1.2151794 0.6894531l-0.33374023 -1.25177l-0.94137573 0.9170685l-0.64767456 -1.1446228l-0.6609192 1.1312561l-0.9814148 -0.99069214l-0.3605652 1.3052826l-1.1350098 -0.66934204l-0.019989014 1.2785034l-1.2017517 -0.32795715l0.3338318 1.2919312l-1.3285828 -0.0066833496l0.6943054 1.2316589l-1.2752075 0.33470154l0.9481201 0.9438629l-1.1416931 0.66941833l1.1282959 0.65597534l-1.0014954 1.0041199l1.3019409 0.34806824l-0.65426636 1.1580505l1.2618103 0l-0.3338318 1.2384033l1.2885132 -0.3413849l-0.006652832 1.3521881l1.2217712 -0.72291565l0.3471985 1.2718048l0.9213257 -0.91038513l0.6476135 1.1178894l0.6609802 -1.1245728l0.9880676 0.9840088l0.34716797 -1.3052826l1.1617126 0.6761017l0 -1.2785645l1.2151184 0.3413849l-0.34716797 -1.2986755l1.3285828 -0.013366699l-0.6876526 -1.2183075l1.2618103 -0.33470154l-0.9213257 -0.95054626z" fill-rule="evenodd"/><path fill="#000000" d="m469.47205 258.7005l-0.92285156 -0.53692627l0.808197 -0.82177734l-1.0539551 -0.2848816l0.5405884 -0.9477539l-1.032074 -0.010986328l0.262146 -0.99710083l-1.0430298 0.27944946l-0.0054626465 -1.0957184l-0.993927 0.56427l-0.27297974 -1.0244904l-0.77001953 0.7505493l-0.5297241 -0.9367676l-0.5406189 0.9258423l-0.8027344 -0.8108063l-0.29489136 1.0682678l-0.92837524 -0.5477905l-0.016357422 1.046341l-0.9829712 -0.2684021l0.27304077 1.0573425l-1.0867004 -0.0054626465l0.5679016 1.0079956l-1.0430298 0.2739563l0.7754822 0.77246094l-0.9338074 0.54785156l0.92285156 0.53686523l-0.81915283 0.82180786l1.0649109 0.28485107l-0.53515625 0.9477844l1.0321045 0l-0.2730713 1.0135498l1.0539551 -0.27941895l-0.0054626465 1.1066589l0.9993286 -0.5916443l0.2840271 1.040863l0.75357056 -0.74505615l0.5296936 0.9148865l0.5406494 -0.9203491l0.808197 0.80532837l0.28393555 -1.0682678l0.95022583 0.5533142l0 -1.0464172l0.9938965 0.27941895l-0.28396606 -1.0628662l1.0867004 -0.010925293l-0.56243896 -0.99710083l1.032074 -0.27392578l-0.75357056 -0.7779541z" fill-rule="evenodd"/><path fill="#000000" d="m459.0106 265.58545l-0.7501831 -0.43676758l0.6569824 -0.6685486l-0.8567505 -0.23175049l0.43945312 -0.7709961l-0.83898926 -0.00894165l0.21310425 -0.8111267l-0.8479004 0.22732544l-0.004425049 -0.8913574l-0.8079834 0.4590149l-0.22189331 -0.83340454l-0.62594604 0.6105652l-0.43063354 -0.76208496l-0.43945312 0.7531738l-0.6525574 -0.6595764l-0.23971558 0.8690491l-0.7546692 -0.4456482l-0.013305664 0.8511963l-0.79907227 -0.21832275l0.22198486 0.86013794l-0.88339233 -0.0044555664l0.4616394 0.82003784l-0.8478699 0.22283936l0.6304016 0.62841797l-0.75912476 0.4456787l0.7502136 0.43673706l-0.66589355 0.6685486l0.8656616 0.23175049l-0.43502808 0.7709961l0.83898926 0l-0.22195435 0.8245239l0.8567505 -0.22729492l-0.004425049 0.90026855l0.8123474 -0.48129272l0.23086548 0.8467407l0.61257935 -0.6061096l0.43060303 0.7442627l0.43948364 -0.74871826l0.6569824 0.65515137l0.23083496 -0.8690491l0.7724304 0.45013428l0 -0.8512573l0.8079529 0.22729492l-0.23083496 -0.86465454l0.88339233 -0.008880615l-0.45724487 -0.8111572l0.83898926 -0.22283936l-0.61257935 -0.632843z" fill-rule="evenodd"/></g></svg>