<svg version="1.1" viewBox="0.0 0.0 557.8582677165355 557.8582677165355" fill="none" stroke="none" stroke-linecap="square" stroke-miterlimit="10" xmlns:xlink="http://www.w3.org/1999/xlink" xmlns="http://www.w3.org/2000/svg"><clipPath id="p.0"><path d="m0 0l557.8583 0l0 557.8583l-557.8583 0l0 -557.8583z" clip-rule="nonzero"/></clipPath><g clip-path="url(#p.0)"><path fill="#000000" fill-opacity="0.0" d="m0 0l557.8583 0l0 557.8583l-557.8583 0z" fill-rule="evenodd"/><path fill="#000000" fill-opacity="0.0" d="m435.9777 169.32936l-290.49072 -0.81088257l0 217.05833l290.49072 0" fill-rule="evenodd"/><path stroke="#000000" stroke-width="8.0" stroke-linejoin="round" stroke-linecap="butt" d="m435.9777 169.32936l-290.49072 -0.81088257l0 217.05833l290.49072 0" fill-rule="evenodd"/><path fill="#000000" fill-opacity="0.0" d="m435.9777 241.71632l-290.49072 -0.26763916l0 71.64403l290.49072 0" fill-rule="evenodd"/><path stroke="#000000" stroke-width="8.0" stroke-linejoin="round" stroke-linecap="butt" d="m435.9777 241.71632l-290.49072 -0.26763916l0 71.64403l290.49072 0" fill-rule="evenodd"/><path fill="#000000" d="m93.392624 212.3358l4.0946045 -0.07673645l-1.931282 -3.8631744l4.9442215 0.46348572l-1.7771835 -4.55809l4.9442215 1.0043182l-1.3131027 -4.866867l4.5580826 1.4677887l-0.9269638 -4.944214l4.6354294 1.699234l-0.5408249 -4.7895355l4.480736 2.0859833l0 -4.944229l4.635437 2.780899l0.3861313 -4.7127686l3.939911 2.6268005l0.7728729 -4.55809l3.7078629 3.167633l1.2363586 -4.6354218l3.2449799 3.2449799l1.6219025 -4.249298l3.0902863 3.6311188l2.0086212 -4.249298l2.7815094 3.940506l2.3174133 -4.326645l2.472107 4.0172577l3.0902863 -4.55809l2.0086365 4.4807434l3.0902863 -3.7852173l1.7771912 4.635437l3.3990784 -3.4770203l1.2357483 4.635437l3.3996735 -2.935608l1.0043182 4.635437l3.939911 -2.7041473l0.5408325 4.8674774l4.0946045 -2.4721222l-0.0773468 4.32605l3.6311188 -1.9312744l-0.386734 4.944214l4.4039917 -1.7765808l-0.6955261 4.7895203l4.8674774 -1.3904419l-1.3910522 4.944214l4.7127686 -0.9269562l-1.6224823 4.4033813l4.7901306 -0.46347046l-2.0086365 4.4033813l4.8668823 0l-2.780899 5.021576l4.7121735 0.5408325l-2.6268005 3.7084656l4.4039917 0.7728729l-3.0902863 3.7078705l4.712784 1.1589966l-3.3996887 3.4764252l4.712784 1.7771912l-3.6311188 2.8582458l4.249298 2.0086212l-3.8631592 2.7809143l4.0946045 2.1633148l-4.4033966 2.5494537l4.712784 3.3990784l-4.1719513 2.0859833l3.7084656 2.9355927l-4.55809 1.6224976l3.2443848 3.4764252l-4.7895203 1.1589966l3.4764252 3.939911l-5.021576 0.6955261l3.0129395 4.0172424l-5.0215607 0.38613892l2.472107 4.1719666l-4.249298 -0.07736206l2.0086212 3.939911l-4.944214 -0.5408325l1.6998291 4.5581055l-4.867462 -0.92697144l1.3136902 4.635437l-4.4813385 -1.081665l0.8502197 4.867462l-4.6354218 -1.6998291l0.30877686 4.7127686l-4.2486877 -2.008606l0 4.7895203l-4.635437 -2.7041626l-0.5408325 4.635437l-3.6311188 -2.549469l-1.0043182 4.4039917l-3.6311188 -2.8588257l-1.3130951 4.635437l-3.244995 -3.3217468l-1.7765808 4.403412l-2.9355927 -3.708496l-2.1633148 4.249298l-2.549469 -3.9398804l-2.5494537 4.094574l-2.16333 -3.785797l-3.167038 4.3266296l-2.085968 -4.3266296l-3.0902863 3.553772l-1.6998444 -4.4807434l-3.4764252 3.4764404l-1.1590042 -4.5581055l-3.6311188 2.8582458l-0.92697144 -4.712158l-3.7852097 2.6268005l-0.46348572 -4.712799l-4.4039917 2.549469l0.1546936 -4.32666l-3.6311188 1.467804l0.386734 -4.558075l-4.6354294 1.6224976l0.9269638 -4.635437l-4.7901306 1.3136902l1.3137054 -4.867462l-4.712776 0.77285767l1.6224899 -4.4033813l-4.712784 0.38613892l2.0086288 -4.1719666l-4.9442215 -0.07733154l2.9355927 -5.021576l-4.6354294 -0.38613892l2.7041473 -3.939911l-4.6354294 -0.6955261l2.9355927 -3.6311035l-4.712181 -1.1584167l3.6305237 -3.6311188l-4.6348343 -1.6998444l3.630516 -3.0129395l-4.094002 -1.8539276l3.7078629 -2.7041626l-4.01725 -2.3947601l4.249298 -2.3947601l-4.7901306 -3.3996735l4.249298 -2.0086365l-3.4764252 -3.0129395l4.403389 -1.6224976l-3.3217316 -3.3990784l4.712181 -1.2357483l-3.2443771 -3.940506l4.8668747 -0.69493103l-2.7809067 -3.8631592l4.789528 -0.38613892z" fill-rule="evenodd"/><path fill="#000000" d="m394.73737 153.08162l2.2118225 -0.04145813l-1.0432434 -2.0867767l2.6707764 0.25035095l-0.960022 -2.4621582l2.6707764 0.5424957l-0.70932007 -2.6289673l2.4621582 0.79286194l-0.5007019 -2.6707458l2.5039368 0.91789246l-0.29214478 -2.5871887l2.4204102 1.1267853l0 -2.6707458l2.5039368 1.502182l0.20858765 -2.5457306l2.1282349 1.41893l0.41748047 -2.4621735l2.0028992 1.7110901l0.6678772 -2.503952l1.7528381 1.7528534l0.87612915 -2.2953644l1.669281 1.961441l1.085022 -2.2953644l1.5025024 2.1285706l1.2518005 -2.3371582l1.3353882 2.1700287l1.6693115 -2.4621735l1.0849915 2.420395l1.6693115 -2.0446777l0.95999146 2.503952l1.8360901 -1.8782043l0.6675415 2.5039368l1.8364258 -1.5857239l0.542511 2.5039368l2.1282349 -1.4607086l0.29214478 2.6292877l2.2118225 -1.3353729l-0.041809082 2.3368225l1.9614563 -1.0432281l-0.20889282 2.6707458l2.3789368 -0.95965576l-0.37573242 2.5871887l2.629303 -0.75109863l-0.7514038 2.670761l2.5457153 -0.5007324l-0.8764343 2.3786163l2.5875244 -0.2503662l-1.085022 2.378601l2.6289978 0l-1.5021973 2.7125397l2.5454102 0.29214478l-1.4189453 2.0032196l2.3789368 0.41749573l-1.669281 2.0028992l2.5457153 0.6260681l-1.8364258 1.8778839l2.5457458 0.95999146l-1.9614563 1.5439606l2.2953796 1.0850067l-2.086792 1.502182l2.211792 1.1685638l-2.378601 1.3771667l2.5457458 1.8360901l-2.253601 1.1268005l2.0032349 1.5857391l-2.4621887 0.8764343l1.7525635 1.8778839l-2.5871887 0.6260681l1.8778687 2.1282349l-2.7125244 0.37571716l1.6275024 2.1700287l-2.7125244 0.20857239l1.3353882 2.2535858l-2.2953796 -0.041778564l1.085022 2.1282501l-2.6707458 -0.29214478l0.9182129 2.4621735l-2.629303 -0.5007324l0.70962524 2.503952l-2.4207153 -0.58428955l0.45925903 2.629303l-2.5039368 -0.9182129l0.16680908 2.5457306l-2.295044 -1.085022l0 2.5871887l-2.5039673 -1.4607086l-0.29214478 2.503952l-1.9614258 -1.3771667l-0.542511 2.3789368l-1.9614563 -1.544281l-0.70932007 2.503952l-1.7528381 -1.7943268l-0.9596863 2.3786163l-1.5857239 -2.0032349l-1.1685791 2.2953796l-1.3771667 -2.1282501l-1.3771667 2.2118073l-1.1685486 -2.0449982l-1.7107849 2.337143l-1.12677 -2.337143l-1.6693115 1.9196625l-0.9182129 -2.420395l-1.8778687 1.8778839l-0.6260681 -2.4621735l-1.9614563 1.5439606l-0.5007324 -2.5454102l-2.0446777 1.4189453l-0.2503662 -2.5457458l-2.3789368 1.3771667l0.08355713 -2.3371582l-1.9614258 0.7928772l0.20889282 -2.4621735l-2.5039368 0.8764343l0.5007324 -2.503952l-2.5875244 0.70962524l0.70962524 -2.6292877l-2.5457153 0.41748047l0.8764038 -2.378601l-2.5457153 0.20857239l1.085022 -2.2535858l-2.6707764 -0.041778564l1.5857544 -2.7125397l-2.5039673 -0.20857239l1.4607239 -2.1282501l-2.5039368 -0.3757019l1.5857239 -1.961441l-2.5454102 -0.6257477l1.9611206 -1.961441l-2.5036316 -0.9182129l1.9611206 -1.6275177l-2.2114563 -1.0014648l2.0028992 -1.4607086l-2.170044 -1.2935944l2.2953796 -1.2935944l-2.5875244 -1.8364258l2.2953796 -1.085022l-1.8778687 -1.6275177l2.378601 -0.8764343l-1.794342 -1.8360901l2.5454102 -0.66752625l-1.752533 -2.1285706l2.6289673 -0.37538147l-1.5021667 -2.086792l2.5871887 -0.20858765z" fill-rule="evenodd"/><path fill="#ffffff" d="m400.75473 156.63008l1.7278442 -0.03239441l-0.8149719 -1.630188l2.0863953 0.1955719l-0.74993896 -1.9234467l2.0863953 0.42381287l-0.55410767 -2.0537567l1.9234314 0.6194l-0.39117432 -2.0863953l1.9560852 0.7170563l-0.22821045 -2.0211182l1.8908081 0.880249l0 -2.08638l1.9560852 1.1734924l0.16293335 -1.9887238l1.6625977 1.1084747l0.32614136 -1.9234467l1.5646667 1.3367004l0.5217285 -1.9560852l1.3693237 1.369339l0.6844177 -1.7931519l1.3040466 1.5322876l0.84762573 -1.7931366l1.1737366 1.6628265l0.9779358 -1.8257751l1.0431824 1.695221l1.3040466 -1.9234467l0.84762573 1.8908081l1.3040466 -1.5973053l0.74993896 1.9560852l1.4343872 -1.4672546l0.52145386 1.9560852l1.4346313 -1.2387848l0.4237976 1.9560852l1.6625671 -1.141098l0.22824097 2.0540009l1.7278442 -1.0431976l-0.03262329 1.825531l1.5322876 -0.8149719l-0.16320801 2.08638l1.858429 -0.7496948l-0.29351807 2.0211182l2.054016 -0.5867462l-0.5870056 2.08638l1.9887085 -0.39115906l-0.68466187 1.8581696l2.0213623 -0.19558716l-0.8475952 1.8581696l2.0537415 0l-1.1734924 2.1190186l1.9884644 0.22822571l-1.1084595 1.5649261l1.8583984 0.32614136l-1.3040466 1.5646667l1.9887085 0.4890747l-1.4346008 1.4670105l1.988739 0.74993896l-1.5322876 1.2061462l1.7931213 0.8476105l-1.630188 1.1734924l1.7278748 0.9128876l-1.8581848 1.0758362l1.988739 1.4343567l-1.760498 0.880249l1.5649109 1.2387848l-1.9234314 0.68466187l1.3690796 1.4670105l-2.0211182 0.4890747l1.4670105 1.6625824l-2.119049 0.2935028l1.2714233 1.6952362l-2.1190186 0.16293335l1.0431824 1.760498l-1.7931519 -0.03263855l0.84762573 1.6625977l-2.0863953 -0.22822571l0.7173157 1.9234467l-2.054016 -0.39117432l0.5543823 1.9560852l-1.8910828 -0.45643616l0.35879517 2.0540009l-1.9560852 -0.7173157l0.13031006 1.9887238l-1.7929077 -0.8476105l0 2.0211182l-1.9560852 -1.1411133l-0.22821045 1.9560852l-1.5322876 -1.0758362l-0.4237976 1.8584137l-1.5322876 -1.2063904l-0.55410767 1.9560852l-1.3693237 -1.4017181l-0.7496948 1.8581696l-1.2387695 -1.5649261l-0.91290283 1.7931519l-1.0758362 -1.6625824l-1.0758362 1.7278595l-0.9128723 -1.5975647l-1.3364563 1.8257904l-0.880249 -1.8257904l-1.3040466 1.499649l-0.7173157 -1.8908081l-1.4670105 1.4669952l-0.4890747 -1.9234467l-1.5322876 1.2061462l-0.39117432 -1.9884796l-1.59729 1.1084747l-0.19558716 -1.9887238l-1.858429 1.0758362l0.0652771 -1.8257751l-1.5322571 0.61938477l0.16317749 -1.9234467l-1.9560852 0.68466187l0.39117432 -1.9560852l-2.0213623 0.55436707l0.5543518 -2.0540009l-1.9887085 0.32614136l0.68466187 -1.8581696l-1.9887085 0.16294861l0.8475952 -1.7605133l-2.0863953 -0.03263855l1.2388 -2.1190186l-1.9560852 -0.16294861l1.1411133 -1.6625824l-1.9560852 -0.2935028l1.2387695 -1.5322723l-1.9884644 -0.48884583l1.5320129 -1.5322723l-1.9558411 -0.7173004l1.5320435 -1.2714233l-1.7276306 -0.7823334l1.5646667 -1.1411133l-1.695221 -1.0105591l1.7931519 -1.0105438l-2.0213623 -1.4346161l1.7931519 -0.8476105l-1.4670105 -1.2714233l1.8581543 -0.68466187l-1.4017029 -1.434372l1.9884644 -0.5214691l-1.3690796 -1.6628265l2.0537415 -0.29325867l-1.1734924 -1.630188l2.0211182 -0.16294861z" fill-rule="evenodd"/><path fill="#000000" d="m394.73737 225.08162l2.2118225 -0.04145813l-1.0432434 -2.0867767l2.6707764 0.25035095l-0.960022 -2.4621582l2.6707764 0.5424957l-0.70932007 -2.6289673l2.4621582 0.79286194l-0.5007019 -2.6707458l2.5039368 0.91789246l-0.29214478 -2.5871887l2.4204102 1.1267853l0 -2.6707458l2.5039368 1.502182l0.20858765 -2.5457306l2.1282349 1.41893l0.41748047 -2.4621735l2.0028992 1.7110901l0.6678772 -2.503952l1.7528381 1.7528534l0.87612915 -2.2953644l1.669281 1.961441l1.085022 -2.2953644l1.5025024 2.1285706l1.2518005 -2.3371582l1.3353882 2.1700287l1.6693115 -2.4621735l1.0849915 2.420395l1.6693115 -2.0446777l0.95999146 2.503952l1.8360901 -1.8782043l0.6675415 2.5039368l1.8364258 -1.5857239l0.542511 2.5039368l2.1282349 -1.4607086l0.29214478 2.6292877l2.2118225 -1.3353729l-0.041809082 2.3368225l1.9614563 -1.0432281l-0.20889282 2.6707458l2.3789368 -0.95965576l-0.37573242 2.5871887l2.629303 -0.75109863l-0.7514038 2.670761l2.5457153 -0.5007324l-0.8764343 2.3786163l2.5875244 -0.2503662l-1.085022 2.378601l2.6289978 0l-1.5021973 2.7125397l2.5454102 0.29214478l-1.4189453 2.0032196l2.3789368 0.41749573l-1.669281 2.0028992l2.5457153 0.6260681l-1.8364258 1.8778839l2.5457458 0.95999146l-1.9614563 1.5439606l2.2953796 1.0850067l-2.086792 1.502182l2.211792 1.1685638l-2.378601 1.3771667l2.5457458 1.8360901l-2.253601 1.1268005l2.0032349 1.5857391l-2.4621887 0.8764343l1.7525635 1.8778839l-2.5871887 0.6260681l1.8778687 2.1282349l-2.7125244 0.37571716l1.6275024 2.1700287l-2.7125244 0.20857239l1.3353882 2.253601l-2.2953796 -0.041778564l1.085022 2.1282349l-2.6707458 -0.29214478l0.9182129 2.4621582l-2.629303 -0.5007019l0.70962524 2.5039368l-2.4207153 -0.58428955l0.45925903 2.629303l-2.5039368 -0.9182129l0.16680908 2.5457153l-2.295044 -1.0849915l0 2.5871887l-2.5039673 -1.4607239l-0.29214478 2.5039368l-1.9614258 -1.3771362l-0.542511 2.3789368l-1.9614563 -1.5443115l-0.70932007 2.5039673l-1.7528381 -1.7943115l-0.9596863 2.378601l-1.5857239 -2.0032349l-1.1685791 2.2953796l-1.3771667 -2.1282349l-1.3771667 2.211792l-1.1685486 -2.0450134l-1.7107849 2.3371582l-1.12677 -2.3371582l-1.6693115 1.9196777l-0.9182129 -2.4204102l-1.8778687 1.8778992l-0.6260681 -2.4621582l-1.9614563 1.5439453l-0.5007324 -2.5454102l-2.0446777 1.4189453l-0.2503662 -2.5457458l-2.3789368 1.3771667l0.08355713 -2.3371582l-1.9614258 0.7928772l0.20889282 -2.4621887l-2.5039368 0.8764343l0.5007324 -2.5039368l-2.5875244 0.70962524l0.70962524 -2.629303l-2.5457153 0.417511l0.8764038 -2.3786316l-2.5457153 0.20858765l1.085022 -2.2535706l-2.6707764 -0.041778564l1.5857544 -2.712555l-2.5039673 -0.20857239l1.4607239 -2.1282501l-2.5039368 -0.3757019l1.5857239 -1.961441l-2.5454102 -0.6257477l1.9611206 -1.961441l-2.5036316 -0.9182129l1.9611206 -1.6275177l-2.2114563 -1.0014648l2.0028992 -1.4607086l-2.170044 -1.2935944l2.2953796 -1.2935944l-2.5875244 -1.8364258l2.2953796 -1.085022l-1.8778687 -1.6275177l2.378601 -0.8764343l-1.794342 -1.8360901l2.5454102 -0.66752625l-1.752533 -2.1285706l2.6289673 -0.37538147l-1.5021667 -2.086792l2.5871887 -0.20858765z" fill-rule="evenodd"/><path fill="#ffffff" d="m400.75473 228.63008l1.7278442 -0.03239441l-0.8149719 -1.630188l2.0863953 0.1955719l-0.74993896 -1.9234467l2.0863953 0.42381287l-0.55410767 -2.0537567l1.9234314 0.6194l-0.39117432 -2.0863953l1.9560852 0.7170563l-0.22821045 -2.0211182l1.8908081 0.880249l0 -2.08638l1.9560852 1.1734924l0.16293335 -1.9887238l1.6625977 1.1084747l0.32614136 -1.9234467l1.5646667 1.3367004l0.5217285 -1.9560852l1.3693237 1.369339l0.6844177 -1.7931519l1.3040466 1.5322876l0.84762573 -1.7931366l1.1737366 1.6628265l0.9779358 -1.8257751l1.0431824 1.695221l1.3040466 -1.9234467l0.84762573 1.8908081l1.3040466 -1.5973053l0.74993896 1.9560852l1.4343872 -1.4672546l0.52145386 1.9560852l1.4346313 -1.2387848l0.4237976 1.9560852l1.6625671 -1.141098l0.22824097 2.0540009l1.7278442 -1.0431976l-0.03262329 1.825531l1.5322876 -0.8149719l-0.16320801 2.08638l1.858429 -0.7496948l-0.29351807 2.0211182l2.054016 -0.5867462l-0.5870056 2.08638l1.9887085 -0.39115906l-0.68466187 1.8581696l2.0213623 -0.19558716l-0.8475952 1.8581696l2.0537415 0l-1.1734924 2.1190186l1.9884644 0.22822571l-1.1084595 1.5649261l1.8583984 0.32614136l-1.3040466 1.5646667l1.9887085 0.4890747l-1.4346008 1.4670105l1.988739 0.74993896l-1.5322876 1.2061462l1.7931213 0.8476105l-1.630188 1.1734924l1.7278748 0.9128876l-1.8581848 1.0758362l1.988739 1.4343567l-1.760498 0.880249l1.5649109 1.2387848l-1.9234314 0.68466187l1.3690796 1.4670105l-2.0211182 0.4890747l1.4670105 1.6625824l-2.119049 0.2935028l1.2714233 1.6952362l-2.1190186 0.16293335l1.0431824 1.760498l-1.7931519 -0.03263855l0.84762573 1.6625977l-2.0863953 -0.22822571l0.7173157 1.9234467l-2.054016 -0.39117432l0.5543823 1.9560852l-1.8910828 -0.45645142l0.35879517 2.054016l-1.9560852 -0.7173157l0.13031006 1.988739l-1.7929077 -0.84762573l0 2.0211182l-1.9560852 -1.1411133l-0.22821045 1.9560852l-1.5322876 -1.0758362l-0.4237976 1.858429l-1.5322876 -1.2063904l-0.55410767 1.9560852l-1.3693237 -1.4017334l-0.7496948 1.8581543l-1.2387695 -1.5649109l-0.91290283 1.7931519l-1.0758362 -1.6625977l-1.0758362 1.7278748l-0.9128723 -1.5975647l-1.3364563 1.8257751l-0.880249 -1.8257751l-1.3040466 1.4996338l-0.7173157 -1.8908081l-1.4670105 1.4670105l-0.4890747 -1.9234314l-1.5322876 1.2061157l-0.39117432 -1.9884644l-1.59729 1.10849l-0.19558716 -1.988739l-1.858429 1.0758362l0.0652771 -1.8257751l-1.5322571 0.61938477l0.16317749 -1.9234619l-1.9560852 0.6846924l0.39117432 -1.9560852l-2.0213623 0.5543518l0.5543518 -2.054016l-1.9887085 0.32614136l0.68466187 -1.8581543l-1.9887085 0.16294861l0.8475952 -1.7605133l-2.0863953 -0.03263855l1.2388 -2.1190186l-1.9560852 -0.16294861l1.1411133 -1.6625824l-1.9560852 -0.2935028l1.2387695 -1.5322723l-1.9884644 -0.48884583l1.5320129 -1.5322723l-1.9558411 -0.7173004l1.5320435 -1.2714233l-1.7276306 -0.7823334l1.5646667 -1.1411133l-1.695221 -1.0105591l1.7931519 -1.0105438l-2.0213623 -1.4346161l1.7931519 -0.8476105l-1.4670105 -1.2714233l1.8581543 -0.68466187l-1.4017029 -1.434372l1.9884644 -0.5214691l-1.3690796 -1.6628265l2.0537415 -0.29325867l-1.1734924 -1.630188l2.0211182 -0.16294861z" fill-rule="evenodd"/><path fill="#000000" d="m394.73737 297.08163l2.2118225 -0.04147339l-1.0432434 -2.086792l2.6707764 0.2503662l-0.960022 -2.4621582l2.6707764 0.542511l-0.70932007 -2.6289673l2.4621582 0.7928467l-0.5007019 -2.6707458l2.5039368 0.9178772l-0.29214478 -2.5871887l2.4204102 1.1268005l0 -2.6707458l2.5039368 1.5021667l0.20858765 -2.5457153l2.1282349 1.4189453l0.41748047 -2.4621887l2.0028992 1.7110901l0.6678772 -2.5039673l1.7528381 1.7528687l0.87612915 -2.2953491l1.669281 1.9614258l1.085022 -2.2953796l1.5025024 2.1285706l1.2518005 -2.3371277l1.3353882 2.1700134l1.6693115 -2.4621582l1.0849915 2.4203796l1.6693115 -2.0446777l0.95999146 2.5039368l1.8360901 -1.8782043l0.6675415 2.5039673l1.8364258 -1.5857544l0.542511 2.5039673l2.1282349 -1.4607239l0.29214478 2.629303l2.2118225 -1.3353882l-0.041809082 2.3368225l1.9614563 -1.0432129l-0.20889282 2.6707458l2.3789368 -0.9596863l-0.37573242 2.5871887l2.629303 -0.7510681l-0.7514038 2.6707458l2.5457153 -0.5007324l-0.8764343 2.378601l2.5875244 -0.2503662l-1.085022 2.3786316l2.6289978 0l-1.5021973 2.7125244l2.5454102 0.29214478l-1.4189453 2.0032349l2.3789368 0.41748047l-1.669281 2.0028992l2.5457153 0.6260681l-1.8364258 1.8778687l2.5457458 0.95999146l-1.9614563 1.5439758l2.2953796 1.085022l-2.086792 1.5021667l2.211792 1.1685791l-2.378601 1.3771362l2.5457458 1.8361206l-2.253601 1.1268005l2.0032349 1.5857239l-2.4621887 0.8764343l1.7525635 1.8778687l-2.5871887 0.6260681l1.8778687 2.1282654l-2.7125244 0.3757019l1.6275024 2.1700134l-2.7125244 0.20858765l1.3353882 2.253601l-2.2953796 -0.041778564l1.085022 2.1282349l-2.6707458 -0.29214478l0.9182129 2.4621582l-2.629303 -0.5007019l0.70962524 2.5039368l-2.4207153 -0.58428955l0.45925903 2.629303l-2.5039368 -0.9182129l0.16680908 2.5457153l-2.295044 -1.0849915l0 2.5871887l-2.5039673 -1.4607239l-0.29214478 2.5039368l-1.9614258 -1.3771362l-0.542511 2.3789368l-1.9614563 -1.5443115l-0.70932007 2.5039673l-1.7528381 -1.7943115l-0.9596863 2.378601l-1.5857239 -2.0032349l-1.1685791 2.2953796l-1.3771667 -2.1282349l-1.3771667 2.211792l-1.1685486 -2.0450134l-1.7107849 2.3371582l-1.12677 -2.3371582l-1.6693115 1.9196777l-0.9182129 -2.4204102l-1.8778687 1.8778992l-0.6260681 -2.4621582l-1.9614563 1.5439453l-0.5007324 -2.5454102l-2.0446777 1.4189453l-0.2503662 -2.5457458l-2.3789368 1.3771667l0.08355713 -2.3371582l-1.9614258 0.7928772l0.20889282 -2.4621887l-2.5039368 0.8764343l0.5007324 -2.5039368l-2.5875244 0.70962524l0.70962524 -2.629303l-2.5457153 0.417511l0.8764038 -2.3786316l-2.5457153 0.20858765l1.085022 -2.2535706l-2.6707764 -0.041778564l1.5857544 -2.712555l-2.5039673 -0.20858765l1.4607239 -2.1282349l-2.5039368 -0.3757019l1.5857239 -1.9614563l-2.5454102 -0.6257324l1.9611206 -1.9614563l-2.5036316 -0.9182129l1.9611206 -1.6275024l-2.2114563 -1.0014648l2.0028992 -1.4607239l-2.170044 -1.2935791l2.2953796 -1.2936096l-2.5875244 -1.8364258l2.2953796 -1.0849915l-1.8778687 -1.627533l2.378601 -0.8764343l-1.794342 -1.8360901l2.5454102 -0.6675415l-1.752533 -2.1285706l2.6289673 -0.3753662l-1.5021667 -2.086792l2.5871887 -0.20858765z" fill-rule="evenodd"/><path fill="#ffffff" d="m400.75473 300.63007l1.7278442 -0.03237915l-0.8149719 -1.630188l2.0863953 0.19558716l-0.74993896 -1.9234619l2.0863953 0.4237976l-0.55410767 -2.0537415l1.9234314 0.61938477l-0.39117432 -2.0863647l1.9560852 0.717041l-0.22821045 -2.0211182l1.8908081 0.880249l0 -2.0863953l1.9560852 1.173523l0.16293335 -1.988739l1.6625977 1.10849l0.32614136 -1.9234619l1.5646667 1.3367004l0.5217285 -1.9560852l1.3693237 1.3693237l0.6844177 -1.7931213l1.3040466 1.5322571l0.84762573 -1.7931213l1.1737366 1.6628418l0.9779358 -1.8258057l1.0431824 1.6952515l1.3040466 -1.9234619l0.84762573 1.8908081l1.3040466 -1.5973206l0.74993896 1.9560852l1.4343872 -1.4672241l0.52145386 1.9560852l1.4346313 -1.2388l0.4237976 1.9560852l1.6625671 -1.1411133l0.22824097 2.054016l1.7278442 -1.0432129l-0.03262329 1.825531l1.5322876 -0.8149719l-0.16320801 2.0863953l1.858429 -0.7496948l-0.29351807 2.0211182l2.054016 -0.5867615l-0.5870056 2.0863953l1.9887085 -0.39117432l-0.68466187 1.8581848l2.0213623 -0.19558716l-0.8475952 1.8581543l2.0537415 0l-1.1734924 2.119049l1.9884644 0.22821045l-1.1084595 1.5649109l1.8583984 0.32614136l-1.3040466 1.5646667l1.9887085 0.48910522l-1.4346008 1.46698l1.988739 0.7499695l-1.5322876 1.2061157l1.7931213 0.84762573l-1.630188 1.1734924l1.7278748 0.91290283l-1.8581848 1.0758362l1.988739 1.4343567l-1.760498 0.880249l1.5649109 1.2387695l-1.9234314 0.68466187l1.3690796 1.4670105l-2.0211182 0.4890747l1.4670105 1.6625977l-2.119049 0.29348755l1.2714233 1.695221l-2.1190186 0.16296387l1.0431824 1.760498l-1.7931519 -0.03265381l0.84762573 1.6625977l-2.0863953 -0.22824097l0.7173157 1.9234619l-2.054016 -0.39117432l0.5543823 1.9560852l-1.8910828 -0.45645142l0.35879517 2.054016l-1.9560852 -0.7173157l0.13031006 1.988739l-1.7929077 -0.84762573l0 2.0211182l-1.9560852 -1.1411133l-0.22821045 1.9560852l-1.5322876 -1.0758362l-0.4237976 1.858429l-1.5322876 -1.2063904l-0.55410767 1.9560852l-1.3693237 -1.4017334l-0.7496948 1.8581543l-1.2387695 -1.5649109l-0.91290283 1.7931519l-1.0758362 -1.6625977l-1.0758362 1.7278748l-0.9128723 -1.5975647l-1.3364563 1.8257751l-0.880249 -1.8257751l-1.3040466 1.4996338l-0.7173157 -1.8908081l-1.4670105 1.4670105l-0.4890747 -1.9234314l-1.5322876 1.2061157l-0.39117432 -1.9884644l-1.59729 1.10849l-0.19558716 -1.988739l-1.858429 1.0758362l0.0652771 -1.8257751l-1.5322571 0.61938477l0.16317749 -1.9234619l-1.9560852 0.6846924l0.39117432 -1.9560852l-2.0213623 0.5543518l0.5543518 -2.054016l-1.9887085 0.32614136l0.68466187 -1.8581543l-1.9887085 0.16293335l0.8475952 -1.760498l-2.0863953 -0.03262329l1.2388 -2.119049l-1.9560852 -0.16293335l1.1411133 -1.6625977l-1.9560852 -0.29348755l1.2387695 -1.5322876l-1.9884644 -0.48883057l1.5320129 -1.5322571l-1.9558411 -0.7173157l1.5320435 -1.2714233l-1.7276306 -0.7823181l1.5646667 -1.1411133l-1.695221 -1.0105591l1.7931519 -1.0105591l-2.0213623 -1.4346313l1.7931519 -0.8475952l-1.4670105 -1.2714233l1.8581543 -0.68466187l-1.4017029 -1.4343567l1.9884644 -0.5214844l-1.3690796 -1.6628418l2.0537415 -0.2932434l-1.1734924 -1.630188l2.0211182 -0.16296387z" fill-rule="evenodd"/><path fill="#000000" d="m394.73737 369.08163l2.2118225 -0.04147339l-1.0432434 -2.086792l2.6707764 0.2503662l-0.960022 -2.4621582l2.6707764 0.542511l-0.70932007 -2.6289673l2.4621582 0.7928467l-0.5007019 -2.6707458l2.5039368 0.9178772l-0.29214478 -2.5871887l2.4204102 1.1268005l0 -2.6707458l2.5039368 1.5021667l0.20858765 -2.5457153l2.1282349 1.4189453l0.41748047 -2.4621887l2.0028992 1.7110901l0.6678772 -2.5039673l1.7528381 1.7528687l0.87612915 -2.2953491l1.669281 1.9614258l1.085022 -2.2953796l1.5025024 2.1285706l1.2518005 -2.3371277l1.3353882 2.1700134l1.6693115 -2.4621582l1.0849915 2.4203796l1.6693115 -2.0446777l0.95999146 2.5039368l1.8360901 -1.8782043l0.6675415 2.5039673l1.8364258 -1.5857544l0.542511 2.5039673l2.1282349 -1.4607239l0.29214478 2.629303l2.2118225 -1.3353882l-0.041809082 2.3368225l1.9614563 -1.0432129l-0.20889282 2.6707458l2.3789368 -0.9596863l-0.37573242 2.5871887l2.629303 -0.7510681l-0.7514038 2.6707458l2.5457153 -0.5007324l-0.8764343 2.378601l2.5875244 -0.2503662l-1.085022 2.3786316l2.6289978 0l-1.5021973 2.7125244l2.5454102 0.29214478l-1.4189453 2.0032349l2.3789368 0.41748047l-1.669281 2.0028992l2.5457153 0.6260681l-1.8364258 1.8778687l2.5457458 0.95999146l-1.9614563 1.5439758l2.2953796 1.085022l-2.086792 1.5021667l2.211792 1.1685791l-2.378601 1.3771362l2.5457458 1.8361206l-2.253601 1.1268005l2.0032349 1.5857239l-2.4621887 0.8764343l1.7525635 1.8778687l-2.5871887 0.6260681l1.8778687 2.1282654l-2.7125244 0.3757019l1.6275024 2.1700134l-2.7125244 0.20858765l1.3353882 2.253601l-2.2953796 -0.041778564l1.085022 2.1282349l-2.6707458 -0.29214478l0.9182129 2.4621582l-2.629303 -0.5007019l0.70962524 2.5039368l-2.4207153 -0.58428955l0.45925903 2.629303l-2.5039368 -0.9182129l0.16680908 2.5457153l-2.295044 -1.0849915l0 2.5871887l-2.5039673 -1.4607239l-0.29214478 2.5039368l-1.9614258 -1.3771362l-0.542511 2.3789368l-1.9614563 -1.5443115l-0.70932007 2.5039673l-1.7528381 -1.7943115l-0.9596863 2.378601l-1.5857239 -2.0032349l-1.1685791 2.2953796l-1.3771667 -2.1282349l-1.3771667 2.211792l-1.1685486 -2.0450134l-1.7107849 2.3371582l-1.12677 -2.3371582l-1.6693115 1.9196777l-0.9182129 -2.4204102l-1.8778687 1.8778992l-0.6260681 -2.4621582l-1.9614563 1.5439453l-0.5007324 -2.5454102l-2.0446777 1.4189453l-0.2503662 -2.5457458l-2.3789368 1.3771667l0.08355713 -2.3371582l-1.9614258 0.7928772l0.20889282 -2.4621887l-2.5039368 0.8764343l0.5007324 -2.5039368l-2.5875244 0.70962524l0.70962524 -2.629303l-2.5457153 0.417511l0.8764038 -2.3786316l-2.5457153 0.20858765l1.085022 -2.2535706l-2.6707764 -0.041778564l1.5857544 -2.712555l-2.5039673 -0.20858765l1.4607239 -2.1282349l-2.5039368 -0.3757019l1.5857239 -1.9614563l-2.5454102 -0.6257324l1.9611206 -1.9614563l-2.5036316 -0.9182129l1.9611206 -1.6275024l-2.2114563 -1.0014648l2.0028992 -1.4607239l-2.170044 -1.2935791l2.2953796 -1.2936096l-2.5875244 -1.8364258l2.2953796 -1.0849915l-1.8778687 -1.627533l2.378601 -0.8764343l-1.794342 -1.8360901l2.5454102 -0.6675415l-1.752533 -2.1285706l2.6289673 -0.3753662l-1.5021667 -2.086792l2.5871887 -0.20858765z" fill-rule="evenodd"/><path fill="#ffffff" d="m400.75473 372.63007l1.7278442 -0.03237915l-0.8149719 -1.630188l2.0863953 0.19558716l-0.74993896 -1.9234619l2.0863953 0.4237976l-0.55410767 -2.0537415l1.9234314 0.61938477l-0.39117432 -2.0863647l1.9560852 0.717041l-0.22821045 -2.0211182l1.8908081 0.880249l0 -2.0863953l1.9560852 1.173523l0.16293335 -1.988739l1.6625977 1.10849l0.32614136 -1.9234619l1.5646667 1.3367004l0.5217285 -1.9560852l1.3693237 1.3693237l0.6844177 -1.7931213l1.3040466 1.5322571l0.84762573 -1.7931213l1.1737366 1.6628418l0.9779358 -1.8258057l1.0431824 1.6952515l1.3040466 -1.9234619l0.84762573 1.8908081l1.3040466 -1.5973206l0.74993896 1.9560852l1.4343872 -1.4672241l0.52145386 1.9560852l1.4346313 -1.2388l0.4237976 1.9560852l1.6625671 -1.1411133l0.22824097 2.054016l1.7278442 -1.0432129l-0.03262329 1.825531l1.5322876 -0.8149719l-0.16320801 2.0863953l1.858429 -0.7496948l-0.29351807 2.0211182l2.054016 -0.5867615l-0.5870056 2.0863953l1.9887085 -0.39117432l-0.68466187 1.8581848l2.0213623 -0.19558716l-0.8475952 1.8581543l2.0537415 0l-1.1734924 2.119049l1.9884644 0.22821045l-1.1084595 1.5649109l1.8583984 0.32614136l-1.3040466 1.5646667l1.9887085 0.48910522l-1.4346008 1.46698l1.988739 0.7499695l-1.5322876 1.2061157l1.7931213 0.84762573l-1.630188 1.1734924l1.7278748 0.91290283l-1.8581848 1.0758362l1.988739 1.4343567l-1.760498 0.880249l1.5649109 1.2387695l-1.9234314 0.68466187l1.3690796 1.4670105l-2.0211182 0.4890747l1.4670105 1.6625977l-2.119049 0.29348755l1.2714233 1.695221l-2.1190186 0.16296387l1.0431824 1.760498l-1.7931519 -0.03265381l0.84762573 1.6625977l-2.0863953 -0.22824097l0.7173157 1.9234619l-2.054016 -0.39117432l0.5543823 1.9560852l-1.8910828 -0.45645142l0.35879517 2.054016l-1.9560852 -0.7173157l0.13031006 1.988739l-1.7929077 -0.84762573l0 2.0211182l-1.9560852 -1.1411133l-0.22821045 1.9560852l-1.5322876 -1.0758362l-0.4237976 1.858429l-1.5322876 -1.2063904l-0.55410767 1.9560852l-1.3693237 -1.4017334l-0.7496948 1.8581543l-1.2387695 -1.5649109l-0.91290283 1.7931519l-1.0758362 -1.6625977l-1.0758362 1.7278748l-0.9128723 -1.5975647l-1.3364563 1.8257751l-0.880249 -1.8257751l-1.3040466 1.4996338l-0.7173157 -1.8908081l-1.4670105 1.4670105l-0.4890747 -1.9234314l-1.5322876 1.2061157l-0.39117432 -1.9884644l-1.59729 1.10849l-0.19558716 -1.988739l-1.858429 1.0758362l0.0652771 -1.8257751l-1.5322571 0.61938477l0.16317749 -1.9234619l-1.9560852 0.6846924l0.39117432 -1.9560852l-2.0213623 0.5543518l0.5543518 -2.054016l-1.9887085 0.32614136l0.68466187 -1.8581543l-1.9887085 0.16293335l0.8475952 -1.760498l-2.0863953 -0.03262329l1.2388 -2.119049l-1.9560852 -0.16293335l1.1411133 -1.6625977l-1.9560852 -0.29348755l1.2387695 -1.5322876l-1.9884644 -0.48883057l1.5320129 -1.5322571l-1.9558411 -0.7173157l1.5320435 -1.2714233l-1.7276306 -0.7823181l1.5646667 -1.1411133l-1.695221 -1.0105591l1.7931519 -1.0105591l-2.0213623 -1.4346313l1.7931519 -0.8475952l-1.4670105 -1.2714233l1.8581543 -0.68466187l-1.4017029 -1.4343567l1.9884644 -0.5214844l-1.3690796 -1.6628418l2.0537415 -0.2932434l-1.1734924 -1.630188l2.0211182 -0.16296387z" fill-rule="evenodd"/></g></svg>