<svg version="1.1" viewBox="0.0 0.0 557.8582677165355 557.8582677165355" fill="none" stroke="none" stroke-linecap="square" stroke-miterlimit="10" xmlns:xlink="http://www.w3.org/1999/xlink" xmlns="http://www.w3.org/2000/svg"><clipPath id="p.0"><path d="m0 0l557.8583 0l0 557.8583l-557.8583 0l0 -557.8583z" clip-rule="nonzero"/></clipPath><g clip-path="url(#p.0)"><path fill="#000000" fill-opacity="0.0" d="m0 0l557.8583 0l0 557.8583l-557.8583 0z" fill-rule="evenodd"/><path fill="#ffffff" d="m164.7391 250.35722l170.30069 0l0 -40.901062l62.203247 76.14174l-62.203247 76.14172l0 -40.901062l-170.30069 0z" fill-rule="evenodd"/><path stroke="#000000" stroke-width="4.0" stroke-linejoin="round" stroke-linecap="butt" d="m164.7391 250.35722l170.30069 0l0 -40.901062l62.203247 76.14174l-62.203247 76.14172l0 -40.901062l-170.30069 0z" fill-rule="evenodd"/><path fill="#000000" d="m297.227 360.1435c-24.266602 7.909424 -52.145004 21.358093 -64.97722 14.499176c-20.220734 -10.722443 3.7767334 -14.855164 0.17362976 -35.683624c-2.9606018 -17.112518 -35.353714 -16.617645 -48.185944 -3.785431c-2.7956543 2.7956543 -4.67099 6.1817017 -5.0964203 10.114716c-1.8232574 16.079346 10.253616 16.661041 7.0933228 19.82135c-1.1199951 1.1199951 -4.1587524 2.5612488 -10.435944 5.1398315c-11.252075 4.566803 -30.865051 0.26913452 -50.20021 -4.4799805c-6.7720795 -20.316254 -13.196869 -39.920532 -8.178589 -49.505646c1.4325562 -2.7174988 2.6741028 -4.532074 3.7941055 -5.652069c6.8588943 -6.858917 9.307259 12.398102 24.952507 11.720886c2.613327 -0.0954895 4.914093 -1.2849426 6.867584 -3.2384338c11.573303 -11.573303 10.870041 -50.234924 -9.5937805 -50.833984c-23.919334 -0.7032776 -16.617645 19.777924 -28.217003 -2.7261963c-5.9820023 -11.6080475 -9.498268 -29.536697 -10.1147 -46.85759c26.202736 3.5075989 57.588707 10.80928 72.44387 4.7404633c5.808365 -2.3876038 8.768982 -3.8375244 9.923706 -4.9922485c3.6117706 -3.6117706 -10.314392 -4.462616 -10.184174 -22.703827c0.034729004 -4.8967285 1.7277527 -8.656097 4.4365845 -11.364929c10.600906 -10.600906 36.751556 -5.079056 39.61667 11.104462c3.5162659 20.394379 -14.681519 16.261673 3.8722382 24.96988c10.548813 5.0964203 35.34503 9.142303 58.821564 9.576416c3.603119 11.52121 5.530548 22.425995 2.1965942 30.691406c-2.2573547 5.504486 -4.07193 8.74292 -5.825714 10.496735c-5.8344116 5.834381 -10.982941 -4.835968 -29.441177 -3.5510254c-4.4018555 0.33862305 -7.857361 2.0403137 -10.418594 4.6015625c-11.399658 11.399658 -5.3047943 39.89447 11.920593 41.908752c21.279968 2.4570312 26.202728 -21.097656 37.97574 -1.5801697c5.6347046 9.3159485 7.484009 28.21701 6.7807617 47.56952z" fill-rule="evenodd"/><path fill="#000000" d="m380.74396 364.35248c-1.7275391 4.251343 -3.1590881 8.238068 -2.1619568 10.20813c0.9437561 1.8354492 1.7696533 2.0414734 2.709137 1.6687012c0.8817749 -0.34985352 1.8631592 -1.2066345 3.1385498 -1.712677c0.6403198 -0.25408936 1.3526917 -0.41845703 2.1635132 -0.3882141c3.876892 0.1638794 5.1932373 10.082397 1.1387024 11.691162c-0.25979614 0.10308838 -0.5449524 0.17297363 -0.85214233 0.20251465c-3.842163 0.39071655 -5.4150085 -2.5481873 -7.22052 -1.8317871c-0.569458 0.22595215 -1.1590271 0.8147278 -1.852356 1.9841614c-1.2147827 2.0601196 -0.48236084 5.537323 0.58587646 9.233246c5.0061646 -0.17456055 10.22168 0.4159851 12.7211 1.9082336c4.3160706 2.5803528 -0.9515991 1.3988647 -0.82147217 5.524719c0.102142334 3.052185 5.9997253 4.6271057 9.474274 3.2484436c1.2518005 -0.49667358 2.1894836 -1.3793945 2.4266052 -2.7111206c0.8703308 -4.7507324 -5.6885376 -5.021759 -1.715332 -6.5982666c0.24142456 -0.09579468 0.5261841 -0.1972351 0.85424805 -0.3043213c2.832611 -0.92196655 7.5753784 0.6437378 12.19989 2.1409912c-0.92800903 -4.2766113 -1.7385559 -8.571014 -0.59799194 -11.040192c0.762146 -1.6468201 1.1179199 -2.281311 1.4013367 -2.3937683c0.62194824 -0.24676514 0.8902283 2.0297852 4.338867 1.6654053c0.34429932 -0.035614014 0.6723938 -0.119659424 0.9846802 -0.24356079c4.2015076 -1.6670837 5.3063965 -10.734528 0.89419556 -11.4591675c-1.2099304 -0.20944214 -2.1878052 -0.017608643 -3.0065613 0.30725098c-1.0812073 0.4290161 -1.8909302 1.0906982 -2.6099854 1.3760071c-0.87124634 0.34570312 -1.6098022 0.14541626 -2.52594 -1.6663513c-1.4394226 -2.8475952 1.8623352 -8.9496765 3.861206 -14.301086c-4.4183044 0.16345215 -8.980438 0.8831177 -11.733337 1.9754028c-0.23355103 0.092681885 -0.45465088 0.18615723 -0.6586609 0.28442383c-5.0524597 2.3855286 1.3123169 0.59002686 0.929718 5.911743c-0.10284424 1.3563843 -0.9869995 2.243805 -2.249298 2.7446594c-3.7055054 1.4702759 -10.670013 -0.38232422 -10.773865 -3.4771423c-0.16723633 -4.1428223 5.829712 -3.833496 1.8080139 -5.832489c-2.2703857 -1.1446228 -7.671509 0.5916748 -12.850494 1.8849487z" fill-rule="evenodd"/><path fill="#000000" d="m426.09406 178.7056c-0.45584106 -0.6869354 -1.0442505 -1.1469421 -1.7579956 -1.2526703c-3.4942322 -0.5035553 -4.029663 2.4577026 -5.408081 0.3804016c-0.21386719 -0.3223114 -0.44995117 -0.7653961 -0.7165222 -1.3610992c-0.7307739 -1.6396484 -0.078186035 -3.9975586 0.96694946 -6.646515c-4.3484497 -0.85491943 -8.42337 -2.2336426 -10.364838 -3.5881958c-1.091919 -0.76290894 -1.6502075 -1.2259827 -1.8890381 -1.5859222c-0.65408325 -0.9857178 1.0763245 -1.1955872 0.80789185 -4.660248c-0.05239868 -0.64634705 -0.27340698 -1.2316132 -0.6152649 -1.7468109c-2.1402283 -3.2253723 -9.067932 -3.6899414 -9.506958 0.98301697c-0.15426636 1.5764618 0.2447815 2.6433563 0.7521057 3.4079437c0.5385742 0.81163025 1.1997681 1.2843323 1.4526672 1.665451c0.32470703 0.48931885 -0.019226074 0.829422 -2.1466064 1.5467377c-2.9476929 0.9602051 -8.620911 -1.7941589 -13.8715515 -4.110565c1.1510315 5.173004 2.7582397 10.592178 1.5361938 12.775711c-2.1438599 3.8932648 -1.6500244 -1.9919434 -5.842621 -2.0251923c-3.4144592 -0.024475098 -5.580078 8.098785 -3.36026 11.444122c0.50424194 0.75987244 1.2357483 1.2706299 2.2299194 1.3867645c4.5264587 0.52667236 4.0828857 -3.9196777 5.186554 -2.2564087c0.20605469 0.31053162 0.46420288 0.8304901 0.82055664 1.6342773c1.1709595 2.6521606 1.8814087 7.6025085 1.8922424 12.332687c3.0566406 1.2650299 5.8269043 2.1033783 7.6928406 1.3799896c2.5846863 -1.0174713 2.653473 -1.296936 2.2163696 -1.955658c-0.07962036 -0.11997986 -0.17843628 -0.2543335 -0.27990723 -0.40724182c-0.43707275 -0.6587219 -0.9567261 -1.6794586 -0.5880432 -3.6117249c0.84750366 -4.222275 8.78302 -3.3591766 10.860779 -0.22792053c0.29815674 0.44934082 0.475708 0.94485474 0.49468994 1.477829c0.08731079 3.2595673 -2.0657043 3.6618195 -1.3117371 4.798111c0.22793579 0.34347534 0.7261963 0.7548828 1.6351624 1.3342285c1.9013367 1.245636 6.3845215 0.6353302 11.052368 0.0074920654c-1.4014893 -4.420517 -2.7754822 -8.896561 -1.59198 -11.434021c2.3909607 -5.1891174 2.2702637 1.753067 7.096466 1.606369c3.9634094 -0.1230011 4.663513 -8.117325 2.5576477 -11.290939z" fill-rule="evenodd"/><path fill="#000000" d="m402.01 305.53204c-2.7789612 0.16012573 -5.423767 1.2258606 -5.698822 3.0280457c-0.6051941 3.9245605 4.427948 5.7835693 -0.42092896 7.612915c-0.32373047 0.123413086 -0.6845398 0.19256592 -1.0819397 0.2154541c-2.2829285 0.13153076 -5.6929626 -1.2864075 -9.326721 -2.906372l0 0c0.5939026 3.8286133 0.95166016 7.5338135 -0.36001587 9.65094c-0.78878784 1.2784424 -1.3372192 1.7720642 -1.81073 1.7993469c-1.324646 0.07632446 -2.0518494 -3.5135803 -5.876129 -3.5322876c-0.08203125 -6.4086914E-4 -0.16394043 0.001373291 -0.2456665 0.0061035156c-4.97171 0.2864685 -5.9511414 10.131561 -1.8751221 10.887939c0.52334595 0.10147095 0.9913025 0.12554932 1.4112549 0.10134888c1.6206055 -0.09338379 2.5488281 -0.9151306 3.321106 -0.95962524c0.6116028 -0.035247803 1.1269531 0.4185791 1.8100586 2.1145325c0.9645386 2.3110046 1.1847839 6.623169 0.7420044 10.863403c1.3389587 -0.122802734 2.638916 -0.23532104 3.8480225 -0.30499268c2.9283447 -0.16873169 5.322113 -0.094451904 6.4768677 0.60998535c3.8618774 2.3885193 -1.3777771 1.4117737 -1.3451538 5.9523315c0.023864746 3.0636292 4.240814 5.627777 7.36084 5.447998c1.5332336 -0.08834839 2.799286 -0.8382263 3.1747742 -2.517273c1.1087952 -5.097931 -4.775177 -5.3310547 0.82592773 -7.013031c0.4060669 -0.11743164 0.8600464 -0.1892395 1.3589172 -0.21798706c2.0715332 -0.11935425 4.888397 0.4758606 7.8678894 1.2927246c0.5098572 -3.5671692 1.551239 -6.8909607 2.9353027 -8.68454c0.8518982 -1.115509 1.4553833 -1.5371094 1.9937134 -1.5681458c1.257019 -0.07241821 2.1571045 2.0032349 5.068756 2.3297424c0.13369751 0.013763428 0.26678467 0.016845703 0.39926147 0.009216309c4.01062 -0.2310791 7.7845154 -10.016937 2.5457764 -10.977631c-0.70288086 -0.1260376 -1.3183594 -0.15774536 -1.8538513 -0.12689209c-1.9672546 0.1133728 -2.9118652 1.0435181 -3.582672 1.0821533c-0.5552368 0.031982422 -0.92755127 -0.54022217 -1.5341492 -2.6757507c-0.64889526 -2.329193 -0.7909546 -5.7755127 -0.53604126 -9.301117l0 0c-1.7819214 0.33636475 -3.5215454 0.62194824 -5.0744934 0.7114258c-1.8798828 0.1083374 -3.487732 -0.06765747 -4.58078 -0.78100586c-4.8156433 -3.040039 0.78652954 -3.7711487 0.7914429 -8.641602c0.018493652 -2.6228333 -3.4480286 -3.6963806 -6.7286987 -3.5073547z" fill-rule="evenodd"/><path fill="#000000" d="m409.97385 265.2622c-2.2815552 -0.37554932 -4.2449646 -0.42425537 -5.5493164 0.18179321c-5.2753296 2.4636536 0.74801636 1.0879517 0.8039551 6.380554c0.03744507 3.1452332 -3.3730469 4.361267 -6.317627 3.8765564c-1.9890442 -0.3274231 -3.7651672 -1.427002 -4.132324 -3.2295227c-0.9133606 -4.4988403 2.6923828 -3.6851501 -1.815155 -5.8865967c-1.1545105 -0.565094 -2.9727478 -1.0437927 -5.1233826 -1.3977966c-1.7912598 -0.29486084 -3.811493 -0.5024109 -5.874634 -0.6055603c-1.342041 4.6249084 -3.7510986 10.117798 -2.272644 13.443146c0.6980591 1.5825195 1.1433105 2.180359 1.5779114 2.251892c0.99450684 0.1637268 1.9137878 -2.448944 5.6329346 -2.2199402c0.13311768 0.008300781 0.2649231 0.02456665 0.3930664 0.045654297c5.011627 0.8249817 6.386902 10.740326 2.0011597 11.466949c-0.80874634 0.13320923 -1.5311584 0.10671997 -2.1858215 -0.0010681152c-1.543335 -0.25402832 -2.7026062 -0.96395874 -3.7082825 -1.1295166c-0.9499512 -0.15637207 -1.763092 0.1772461 -2.6274414 1.8477173c-0.96658325 1.8221741 -1.4078064 5.024475 -1.3979797 8.493988c0.8016968 0.118377686 1.612793 0.24917603 2.426239 0.38308716c1.2090454 0.19903564 2.4195557 0.4064331 3.597931 0.60043335c4.2455444 0.69885254 8.056152 1.206543 9.774384 0.38052368c4.069153 -2.00177 -1.0924683 -0.9244995 -0.64175415 -5.418915c0.2772522 -2.7971802 4.4823303 -4.3036804 7.738922 -3.7676086c1.9416809 0.3196411 3.5490112 1.3669434 3.7835693 3.2971191c0.65353394 5.1735535 -4.9611206 4.0835266 0.1282959 6.4351196c0.34561157 0.16018677 0.7449341 0.27212524 1.1906433 0.3454895c3.379181 0.5562439 9.428314 -1.1848145 14.853577 -2.577423c-0.37442017 -4.2443237 -1.4475708 -8.467773 -2.829773 -10.622223c-0.8029175 -1.2410278 -1.3442688 -1.7242126 -1.8317871 -1.8044739c-1.0948181 -0.1802063 -1.9144592 1.6878967 -4.828064 1.5887756c-0.11682129 -0.0029296875 -0.23513794 -0.014251709 -0.34655762 -0.032592773c-3.9391174 -0.6484375 -4.65506 -10.275848 0.2864685 -11.041443c0.6015625 -0.09121704 1.1434937 -0.080841064 1.6337891 -1.2207031E-4c2.3651428 0.38931274 3.5551453 2.4251404 4.569153 2.5920715c0.56552124 0.09310913 1.0776367 -0.39334106 1.7065735 -2.059082c0.8715515 -2.3052673 -0.18884277 -5.8933716 -1.5218811 -9.580719c-3.0892334 -0.8401184 -6.3250732 -1.780426 -9.094147 -2.236267z" fill-rule="evenodd"/><path fill="#000000" d="m381.16263 216.17407c-1.3967285 5.101059 -2.9275208 10.3997345 -1.4921265 12.973572c1.1852112 2.0991974 1.9367676 2.1714783 2.8309631 1.5431213c0.6218567 -0.4369812 1.3110046 -1.211441 2.2619324 -1.8796692c0.9146118 -0.64271545 2.070221 -1.187912 3.6384888 -1.2392273c4.908844 -0.18055725 4.388733 7.633499 0.8800354 10.099106c-0.44482422 0.31259155 -0.9364624 0.5379944 -1.4691467 0.65211487c-3.65448 0.77679443 -4.0265503 -2.063919 -5.02063 -1.365387c-0.29956055 0.21052551 -0.65841675 0.7462311 -1.1801453 1.8033295c-0.90130615 1.8141937 -1.1347046 5.2571716 -0.9339905 9.032196c4.729065 -0.55122375 9.919159 -0.41571045 13.033478 0.5713959c5.625763 1.790741 0.115112305 1.4735413 0.8043213 6.6965637c0.54977417 4.0834656 8.10611 4.0605774 11.4219055 1.7305298c0.89419556 -0.62835693 1.4801636 -1.427063 1.5334778 -2.3551483c0.25332642 -3.95401 -4.561157 -3.5395508 -2.4164429 -5.0466614c0.21331787 -0.1499176 0.49624634 -0.31869507 0.8600769 -0.514328c2.588745 -1.37883 9.149506 -0.07833862 14.878326 0.28903198c-0.6958618 -5.321747 -2.1498413 -10.751221 -3.6448975 -12.946228c-1.0325623 -1.4792938 -1.6902771 -1.5708466 -2.3393555 -1.1147308c-0.6581726 0.46250916 -1.305542 1.4844818 -2.3245544 2.2005615c-0.6558838 0.46090698 -1.4672852 0.7942505 -2.5364685 0.7650299c-3.8155212 -0.09739685 -4.7083435 -8.603088 -1.158783 -11.097397c0.5038452 -0.35404968 1.095459 -0.5863342 1.78479 -0.6571045c3.7659607 -0.40815735 4.1068726 1.7206116 4.558502 1.403244c0.21105957 -0.14831543 0.44384766 -0.8189087 1.0512695 -2.5099792c0.91500854 -2.5676727 1.422699 -7.2141113 1.3623047 -11.764893c-5.6022644 1.5717773 -12.020294 4.427307 -14.849091 3.306305c-4.360077 -1.7661896 0.37750244 -3.9478607 -0.26028442 -7.959488c-0.4805298 -2.9212952 -5.558136 -3.1558685 -8.367798 -1.1814728c-1.0349121 0.72724915 -1.7613525 1.7514038 -1.8386841 3.0499725c-0.23187256 4.1123505 4.2414246 4.211197 2.3304749 5.5540466c-0.3449707 0.24240112 -0.90023804 0.5258789 -1.7293091 0.8816376c-2.6339417 1.1403961 -7.2340393 0.11663818 -11.66864 -0.92004395z" fill-rule="evenodd"/></g></svg>