<svg version="1.1" viewBox="0.0 0.0 557.8582677165355 557.8582677165355" fill="none" stroke="none" stroke-linecap="square" stroke-miterlimit="10" xmlns:xlink="http://www.w3.org/1999/xlink" xmlns="http://www.w3.org/2000/svg"><clipPath id="p.0"><path d="m0 0l557.8583 0l0 557.8583l-557.8583 0l0 -557.8583z" clip-rule="nonzero"/></clipPath><g clip-path="url(#p.0)"><path fill="#000000" fill-opacity="0.0" d="m0 0l557.8583 0l0 557.8583l-557.8583 0z" fill-rule="evenodd"/><path fill="#000000" d="m280.3134 172.31412c-3.30542 -1.0169678 -7.421173 17.051727 -19.083588 23.934982c-11.66243 6.8832397 -31.8069 17.67723 -50.89096 17.364471c-19.084045 -0.31274414 -45.776794 -10.480347 -63.613327 -19.240997c-17.836533 -8.760651 -35.610085 -26.282852 -43.40587 -33.322906c-7.795784 -7.0400696 -2.3084183 -8.760956 -3.3688583 -8.91748c-1.0604324 -0.15652466 -4.0539474 3.4414825 -2.9937515 7.9783325c1.0602036 4.53685 -3.7420654 8.604721 9.35495 19.242783c13.097015 10.638062 47.835617 35.98146 69.22714 44.585587c21.391525 8.604126 44.90274 7.664978 59.12201 7.0391693c14.219254 -0.62579346 18.460052 -6.0227966 26.193573 -10.793991c7.73349 -4.7711945 16.964355 -9.854843 20.207458 -17.833176c3.243103 -7.9783173 2.55661 -29.019806 -0.7487793 -30.036774z" fill-rule="evenodd"/><path stroke="#ffffff" stroke-width="2.0" stroke-linejoin="round" stroke-linecap="butt" d="m280.3134 172.31412c-3.30542 -1.0169678 -7.421173 17.051727 -19.083588 23.934982c-11.66243 6.8832397 -31.8069 17.67723 -50.89096 17.364471c-19.084045 -0.31274414 -45.776794 -10.480347 -63.613327 -19.240997c-17.836533 -8.760651 -35.610085 -26.282852 -43.40587 -33.322906c-7.795784 -7.0400696 -2.3084183 -8.760956 -3.3688583 -8.91748c-1.0604324 -0.15652466 -4.0539474 3.4414825 -2.9937515 7.9783325c1.0602036 4.53685 -3.7420654 8.604721 9.35495 19.242783c13.097015 10.638062 47.835617 35.98146 69.22714 44.585587c21.391525 8.604126 44.90274 7.664978 59.12201 7.0391693c14.219254 -0.62579346 18.460052 -6.0227966 26.193573 -10.793991c7.73349 -4.7711945 16.964355 -9.854843 20.207458 -17.833176c3.243103 -7.9783173 2.55661 -29.019806 -0.7487793 -30.036774z" fill-rule="evenodd"/><path fill="#000000" d="m273.04428 171.92105c1.688385 -3.049942 9.686523 13.164185 16.629364 19.176071c6.9428406 6.011902 12.610321 13.4704895 25.02774 16.895279c12.417419 3.4247894 33.76712 6.2891235 49.476837 3.6534424c15.709717 -2.6356812 31.177551 -11.913727 44.781464 -19.467545c13.603882 -7.5538025 29.077484 -19.089447 36.84192 -25.855316c7.7644653 -6.765869 7.471039 -13.665604 9.744843 -14.739899c2.2737732 -1.074295 5.0787354 3.6535797 3.8978882 8.294113c-1.1808167 4.6405487 -1.6325073 11.048218 -10.98288 19.549164c-9.350372 8.500931 -30.025421 23.057556 -45.119354 31.456497c-15.093933 8.398941 -30.448364 15.512848 -45.444275 18.937119c-14.99588 3.4242706 -31.471985 5.0123444 -44.531097 1.6084747c-13.059113 -3.4038696 -27.103119 -12.1138 -33.823517 -22.031708c-6.720398 -9.917908 -8.187347 -34.42575 -6.498932 -37.475693z" fill-rule="evenodd"/><path stroke="#ffffff" stroke-width="2.0" stroke-linejoin="round" stroke-linecap="butt" d="m273.04428 171.92105c1.688385 -3.049942 9.686523 13.164185 16.629364 19.176071c6.9428406 6.011902 12.610321 13.4704895 25.02774 16.895279c12.417419 3.4247894 33.76712 6.2891235 49.476837 3.6534424c15.709717 -2.6356812 31.177551 -11.913727 44.781464 -19.467545c13.603882 -7.5538025 29.077484 -19.089447 36.84192 -25.855316c7.7644653 -6.765869 7.471039 -13.665604 9.744843 -14.739899c2.2737732 -1.074295 5.0787354 3.6535797 3.8978882 8.294113c-1.1808167 4.6405487 -1.6325073 11.048218 -10.98288 19.549164c-9.350372 8.500931 -30.025421 23.057556 -45.119354 31.456497c-15.093933 8.398941 -30.448364 15.512848 -45.444275 18.937119c-14.99588 3.4242706 -31.471985 5.0123444 -44.531097 1.6084747c-13.059113 -3.4038696 -27.103119 -12.1138 -33.823517 -22.031708c-6.720398 -9.917908 -8.187347 -34.42575 -6.498932 -37.475693z" fill-rule="evenodd"/><path fill="#000000" d="m276.66437 204.51617c4.910034 -1.1560669 19.192993 25.081589 30.990753 31.570404c11.79776 6.4888306 27.456055 6.6511536 39.795837 7.362549c12.339813 0.7114105 23.11267 0.27313232 34.24301 -3.094101c11.13031 -3.3672485 21.886719 -10.916977 32.53891 -17.109375c10.652161 -6.192398 22.93686 -13.736069 31.374084 -20.045013c8.437256 -6.30896 14.854889 -16.46022 19.24939 -17.808716c4.3945007 -1.3484802 10.837006 3.1666107 7.1176147 9.717789c-3.7193909 6.5511627 -12.511993 17.675491 -29.43396 29.589233c-16.921967 11.913727 -50.145386 34.578125 -72.09784 41.893158c-21.952484 7.315033 -44.2424 5.9251404 -59.616943 1.9969482c-15.374512 -3.9281616 -26.936768 -14.887222 -32.63025 -25.56604c-5.6934814 -10.678818 -6.440613 -37.35077 -1.5306091 -38.506836z" fill-rule="evenodd"/><path stroke="#ffffff" stroke-width="2.0" stroke-linejoin="round" stroke-linecap="butt" d="m276.66437 204.51617c4.910034 -1.1560669 19.192993 25.081589 30.990753 31.570404c11.79776 6.4888306 27.456055 6.6511536 39.795837 7.362549c12.339813 0.7114105 23.11267 0.27313232 34.24301 -3.094101c11.13031 -3.3672485 21.886719 -10.916977 32.53891 -17.109375c10.652161 -6.192398 22.93686 -13.736069 31.374084 -20.045013c8.437256 -6.30896 14.854889 -16.46022 19.24939 -17.808716c4.3945007 -1.3484802 10.837006 3.1666107 7.1176147 9.717789c-3.7193909 6.5511627 -12.511993 17.675491 -29.43396 29.589233c-16.921967 11.913727 -50.145386 34.578125 -72.09784 41.893158c-21.952484 7.315033 -44.2424 5.9251404 -59.616943 1.9969482c-15.374512 -3.9281616 -26.936768 -14.887222 -32.63025 -25.56604c-5.6934814 -10.678818 -6.440613 -37.35077 -1.5306091 -38.506836z" fill-rule="evenodd"/><path fill="#000000" d="m285.8588 242.86423c4.782257 3.8447723 6.977478 25.912506 18.709259 33.01346c11.7317505 7.1009216 36.565643 9.755676 51.681305 9.592163c15.115662 -0.16348267 26.433258 -4.4881287 39.012665 -10.573212c12.579437 -6.0851135 25.112427 -17.089905 36.463837 -25.937363c11.351379 -8.847473 25.629517 -21.11052 31.644562 -27.147415c6.0150757 -6.0368958 2.8995972 -9.651382 4.4458313 -9.073975c1.5462646 0.57740784 6.6861267 7.594452 4.831665 12.538406c-1.8544922 4.9439697 -3.7460632 6.418106 -15.958527 17.125366c-12.212463 10.707245 -41.03604 35.798172 -57.316315 47.11815c-16.280273 11.319977 -24.858643 17.402618 -40.365356 20.801727c-15.506714 3.3990784 -38.991486 5.0455933 -52.674988 -0.407135c-13.683502 -5.4527283 -24.34961 -22.791718 -29.425964 -32.309296c-5.0763855 -9.517578 -2.524292 -19.005981 -1.0322876 -24.796112c1.4920044 -5.790146 5.202057 -13.789551 9.984314 -9.944763z" fill-rule="evenodd"/><path stroke="#ffffff" stroke-width="2.0" stroke-linejoin="round" stroke-linecap="butt" d="m285.8588 242.86423c4.782257 3.8447723 6.977478 25.912506 18.709259 33.01346c11.7317505 7.1009216 36.565643 9.755676 51.681305 9.592163c15.115662 -0.16348267 26.433258 -4.4881287 39.012665 -10.573212c12.579437 -6.0851135 25.112427 -17.089905 36.463837 -25.937363c11.351379 -8.847473 25.629517 -21.11052 31.644562 -27.147415c6.0150757 -6.0368958 2.8995972 -9.651382 4.4458313 -9.073975c1.5462646 0.57740784 6.6861267 7.594452 4.831665 12.538406c-1.8544922 4.9439697 -3.7460632 6.418106 -15.958527 17.125366c-12.212463 10.707245 -41.03604 35.798172 -57.316315 47.11815c-16.280273 11.319977 -24.858643 17.402618 -40.365356 20.801727c-15.506714 3.3990784 -38.991486 5.0455933 -52.674988 -0.407135c-13.683502 -5.4527283 -24.34961 -22.791718 -29.425964 -32.309296c-5.0763855 -9.517578 -2.524292 -19.005981 -1.0322876 -24.796112c1.4920044 -5.790146 5.202057 -13.789551 9.984314 -9.944763z" fill-rule="evenodd"/><path fill="#000000" d="m286.19522 278.80136c3.9024963 1.9551086 3.9355774 27.542847 11.5503235 35.05945c7.6147156 7.5166016 19.968933 8.855316 34.13806 10.040192c14.169128 1.1848755 37.30368 1.0892029 50.87668 -2.9309082c13.572998 -4.020111 20.846954 -14.068298 30.56128 -21.189758c9.714355 -7.1214294 19.7016 -13.809845 27.724762 -21.53891c8.023193 -7.729065 15.454468 -22.914581 20.414307 -24.83551c4.959839 -1.9209442 10.425995 7.7345276 9.344696 13.309906c-1.0812683 5.5753784 -6.8895264 12.400757 -15.832367 20.142273c-8.942871 7.741516 -25.15863 17.369476 -37.8248 26.306793c-12.666168 8.937286 -23.954437 21.022827 -38.17221 27.317047c-14.217804 6.29422 -33.576813 9.530487 -47.13452 10.448334c-13.557739 0.9178467 -25.45285 0.48727417 -34.211792 -4.941284c-8.758972 -5.428589 -14.458801 -20.320312 -18.34195 -27.630096c-3.8831787 -7.3098145 -6.108368 -9.635773 -4.957123 -16.228699c1.1512756 -6.5928955 7.962158 -25.283936 11.864655 -23.328827z" fill-rule="evenodd"/><path stroke="#ffffff" stroke-width="2.0" stroke-linejoin="round" stroke-linecap="butt" d="m286.19522 278.80136c3.9024963 1.9551086 3.9355774 27.542847 11.5503235 35.05945c7.6147156 7.5166016 19.968933 8.855316 34.13806 10.040192c14.169128 1.1848755 37.30368 1.0892029 50.87668 -2.9309082c13.572998 -4.020111 20.846954 -14.068298 30.56128 -21.189758c9.714355 -7.1214294 19.7016 -13.809845 27.724762 -21.53891c8.023193 -7.729065 15.454468 -22.914581 20.414307 -24.83551c4.959839 -1.9209442 10.425995 7.7345276 9.344696 13.309906c-1.0812683 5.5753784 -6.8895264 12.400757 -15.832367 20.142273c-8.942871 7.741516 -25.15863 17.369476 -37.8248 26.306793c-12.666168 8.937286 -23.954437 21.022827 -38.17221 27.317047c-14.217804 6.29422 -33.576813 9.530487 -47.13452 10.448334c-13.557739 0.9178467 -25.45285 0.48727417 -34.211792 -4.941284c-8.758972 -5.428589 -14.458801 -20.320312 -18.34195 -27.630096c-3.8831787 -7.3098145 -6.108368 -9.635773 -4.957123 -16.228699c1.1512756 -6.5928955 7.962158 -25.283936 11.864655 -23.328827z" fill-rule="evenodd"/><path fill="#000000" d="m285.92365 324.36786c5.6412964 6.199341 12.016449 27.743195 26.457733 34.581482c14.441284 6.838318 42.49533 9.863739 60.190002 6.448303c17.694672 -3.4154663 32.872955 -18.282806 45.977966 -26.940979c13.105011 -8.658173 25.413422 -17.95752 32.65204 -25.008026c7.238617 -7.0505066 7.6497803 -15.817078 10.779663 -17.295013c3.1298523 -1.4779053 8.055023 4.4780884 7.999542 8.42746c-0.055480957 3.9493713 0.50201416 5.2855225 -8.332367 15.268768c-8.834381 9.983276 -29.391357 32.619507 -44.67386 44.630768c-15.282501 12.0112915 -28.196198 23.487701 -47.02118 27.43689c-18.824982 3.9491882 -50.46469 2.0332031 -65.92877 -3.7417603c-15.464081 -5.774933 -22.607239 -19.837463 -26.855713 -30.907867c-4.248474 -11.070404 -0.09429932 -30.031158 1.3648682 -35.514496c1.459137 -5.4833374 1.7487793 -3.5848389 7.3900757 2.6144714z" fill-rule="evenodd"/><path stroke="#ffffff" stroke-width="2.0" stroke-linejoin="round" stroke-linecap="butt" d="m285.92365 324.36786c5.6412964 6.199341 12.016449 27.743195 26.457733 34.581482c14.441284 6.838318 42.49533 9.863739 60.190002 6.448303c17.694672 -3.4154663 32.872955 -18.282806 45.977966 -26.940979c13.105011 -8.658173 25.413422 -17.95752 32.65204 -25.008026c7.238617 -7.0505066 7.6497803 -15.817078 10.779663 -17.295013c3.1298523 -1.4779053 8.055023 4.4780884 7.999542 8.42746c-0.055480957 3.9493713 0.50201416 5.2855225 -8.332367 15.268768c-8.834381 9.983276 -29.391357 32.619507 -44.67386 44.630768c-15.282501 12.0112915 -28.196198 23.487701 -47.02118 27.43689c-18.824982 3.9491882 -50.46469 2.0332031 -65.92877 -3.7417603c-15.464081 -5.774933 -22.607239 -19.837463 -26.855713 -30.907867c-4.248474 -11.070404 -0.09429932 -30.031158 1.3648682 -35.514496c1.459137 -5.4833374 1.7487793 -3.5848389 7.3900757 2.6144714z" fill-rule="evenodd"/><path fill="#000000" d="m275.55078 209.859c-5.241638 4.3022156 -9.734283 20.33728 -24.33583 26.281967c-14.601547 5.944687 -43.05565 12.045593 -63.273407 9.386154c-20.217773 -2.659439 -41.559357 -15.017792 -58.033203 -25.342804c-16.473854 -10.325012 -33.00979 -32.852448 -40.809906 -36.60727c-7.800125 -3.7548218 -10.60836 6.1781464 -5.990837 14.078354c4.617523 7.9002075 18.282906 22.997604 33.69597 33.322906c15.413063 10.325302 41.247765 22.449615 58.782402 28.628937c17.534637 6.1793213 33.571106 7.8996277 46.42543 8.4470215c12.854324 0.5473938 21.153214 -0.8607483 30.700546 -5.1626587c9.547333 -4.3019104 21.591309 -11.888184 26.583435 -20.648834c4.9921265 -8.760666 3.9934387 -26.517792 3.3693237 -31.915085c-0.624115 -5.397293 -1.8723145 -4.7708893 -7.113922 -0.46868896z" fill-rule="evenodd"/><path stroke="#ffffff" stroke-width="2.0" stroke-linejoin="round" stroke-linecap="butt" d="m275.55078 209.859c-5.241638 4.3022156 -9.734283 20.33728 -24.33583 26.281967c-14.601547 5.944687 -43.05565 12.045593 -63.273407 9.386154c-20.217773 -2.659439 -41.559357 -15.017792 -58.033203 -25.342804c-16.473854 -10.325012 -33.00979 -32.852448 -40.809906 -36.60727c-7.800125 -3.7548218 -10.60836 6.1781464 -5.990837 14.078354c4.617523 7.9002075 18.282906 22.997604 33.69597 33.322906c15.413063 10.325302 41.247765 22.449615 58.782402 28.628937c17.534637 6.1793213 33.571106 7.8996277 46.42543 8.4470215c12.854324 0.5473938 21.153214 -0.8607483 30.700546 -5.1626587c9.547333 -4.3019104 21.591309 -11.888184 26.583435 -20.648834c4.9921265 -8.760666 3.9934387 -26.517792 3.3693237 -31.915085c-0.624115 -5.397293 -1.8723145 -4.7708893 -7.113922 -0.46868896z" fill-rule="evenodd"/><path fill="#000000" d="m269.18594 248.34073c-3.4320984 3.989151 -4.680542 17.755646 -11.232483 23.934967c-6.551895 6.1793213 -14.039032 11.654724 -28.07901 13.140991c-14.039993 1.4862366 -38.127014 2.4250793 -56.16089 -4.2235107c-18.033875 -6.6486206 -37.440598 -24.404541 -52.042366 -35.66812c-14.601776 -11.263565 -28.704315 -27.924133 -35.568283 -31.9133c-6.863968 -3.9891663 -9.172256 1.0166779 -5.6155243 7.9783173c3.5567322 6.9616547 10.794365 20.57251 26.955925 33.791595c16.16156 13.219101 48.110794 36.21492 70.01346 45.522964c21.902664 9.308044 46.42636 11.57663 61.40251 10.325317c14.976135 -1.2513123 21.402954 -11.028046 28.454346 -17.83316c7.0513916 -6.8051453 11.981903 -15.488281 13.853973 -22.99762c1.8720703 -7.5093384 -0.62457275 -18.382034 -2.621521 -22.058441c-1.9969482 -3.6764069 -5.9280396 -3.9891663 -9.360138 0z" fill-rule="evenodd"/><path stroke="#ffffff" stroke-width="2.0" stroke-linejoin="round" stroke-linecap="butt" d="m269.18594 248.34073c-3.4320984 3.989151 -4.680542 17.755646 -11.232483 23.934967c-6.551895 6.1793213 -14.039032 11.654724 -28.07901 13.140991c-14.039993 1.4862366 -38.127014 2.4250793 -56.16089 -4.2235107c-18.033875 -6.6486206 -37.440598 -24.404541 -52.042366 -35.66812c-14.601776 -11.263565 -28.704315 -27.924133 -35.568283 -31.9133c-6.863968 -3.9891663 -9.172256 1.0166779 -5.6155243 7.9783173c3.5567322 6.9616547 10.794365 20.57251 26.955925 33.791595c16.16156 13.219101 48.110794 36.21492 70.01346 45.522964c21.902664 9.308044 46.42636 11.57663 61.40251 10.325317c14.976135 -1.2513123 21.402954 -11.028046 28.454346 -17.83316c7.0513916 -6.8051453 11.981903 -15.488281 13.853973 -22.99762c1.8720703 -7.5093384 -0.62457275 -18.382034 -2.621521 -22.058441c-1.9969482 -3.6764069 -5.9280396 -3.9891663 -9.360138 0z" fill-rule="evenodd"/><path fill="#000000" d="m269.5605 286.82285c-4.1184998 0.78204346 -1.9355469 22.99524 -11.607758 30.035004c-9.672211 7.0397644 -28.953339 12.985657 -46.42543 12.203613c-17.472092 -0.78204346 -41.059647 -7.9005127 -58.407104 -16.895782c-17.347443 -8.9953 -34.882324 -27.376465 -45.677628 -37.07596c-10.795303 -9.699524 -14.6638565 -19.947586 -19.094193 -21.121078c-4.430336 -1.1734924 -15.53746 3.9113312 -7.4878387 14.080124c8.049629 10.168793 40.372513 34.495514 55.785583 46.932556c15.413055 12.437073 20.156631 21.588593 36.692795 27.68982c16.536163 6.1011963 47.17369 9.386749 62.5242 8.91745c15.35051 -0.4692688 21.778732 -5.1626587 29.578873 -11.733124c7.80011 -6.5704956 16.535461 -18.851044 17.221863 -27.689789c0.6864319 -8.838776 -8.984833 -26.124847 -13.103363 -25.342834z" fill-rule="evenodd"/><path stroke="#ffffff" stroke-width="2.0" stroke-linejoin="round" stroke-linecap="butt" d="m269.5605 286.82285c-4.1184998 0.78204346 -1.9355469 22.99524 -11.607758 30.035004c-9.672211 7.0397644 -28.953339 12.985657 -46.42543 12.203613c-17.472092 -0.78204346 -41.059647 -7.9005127 -58.407104 -16.895782c-17.347443 -8.9953 -34.882324 -27.376465 -45.677628 -37.07596c-10.795303 -9.699524 -14.6638565 -19.947586 -19.094193 -21.121078c-4.430336 -1.1734924 -15.53746 3.9113312 -7.4878387 14.080124c8.049629 10.168793 40.372513 34.495514 55.785583 46.932556c15.413055 12.437073 20.156631 21.588593 36.692795 27.68982c16.536163 6.1011963 47.17369 9.386749 62.5242 8.91745c15.35051 -0.4692688 21.778732 -5.1626587 29.578873 -11.733124c7.80011 -6.5704956 16.535461 -18.851044 17.221863 -27.689789c0.6864319 -8.838776 -8.984833 -26.124847 -13.103363 -25.342834z" fill-rule="evenodd"/><path fill="#000000" d="m267.68887 328.5886c-4.9918823 0 -8.423981 27.064575 -20.966492 33.791595c-12.542511 6.7270203 -38.189087 7.9002075 -54.288574 6.5704956c-16.099487 -1.3297424 -28.517838 -6.413971 -42.30832 -14.548828c-13.790482 -8.134857 -30.575447 -24.561066 -40.434593 -34.260284c-9.859154 -9.699188 -14.976143 -21.822906 -18.720299 -23.934967c-3.744156 -2.1120605 -6.8646774 4.144806 -3.744629 11.262695c3.1200562 7.117859 8.300072 18.381744 22.464928 31.44461c14.164848 13.062866 46.05059 37.311462 62.524193 46.932556c16.473618 9.621094 22.9637 10.246307 36.31749 10.794006c13.353806 0.547699 32.44847 -1.797821 43.80533 -7.5078735c11.356857 -5.7100525 21.777328 -16.661743 24.33583 -26.75241c2.5584717 -10.090668 -3.9929504 -33.791595 -8.984863 -33.791595z" fill-rule="evenodd"/><path stroke="#ffffff" stroke-width="2.0" stroke-linejoin="round" stroke-linecap="butt" d="m267.68887 328.5886c-4.9918823 0 -8.423981 27.064575 -20.966492 33.791595c-12.542511 6.7270203 -38.189087 7.9002075 -54.288574 6.5704956c-16.099487 -1.3297424 -28.517838 -6.413971 -42.30832 -14.548828c-13.790482 -8.134857 -30.575447 -24.561066 -40.434593 -34.260284c-9.859154 -9.699188 -14.976143 -21.822906 -18.720299 -23.934967c-3.744156 -2.1120605 -6.8646774 4.144806 -3.744629 11.262695c3.1200562 7.117859 8.300072 18.381744 22.464928 31.44461c14.164848 13.062866 46.05059 37.311462 62.524193 46.932556c16.473618 9.621094 22.9637 10.246307 36.31749 10.794006c13.353806 0.547699 32.44847 -1.797821 43.80533 -7.5078735c11.356857 -5.7100525 21.777328 -16.661743 24.33583 -26.75241c2.5584717 -10.090668 -3.9929504 -33.791595 -8.984863 -33.791595z" fill-rule="evenodd"/><path fill="#000000" d="m269.1858 371.29422c-4.680084 2.2682495 -5.5534363 19.554932 -13.85257 26.281952c-8.299118 6.7269897 -22.900421 13.37619 -35.94217 14.080109c-13.041748 0.70391846 -26.08397 -2.19104 -42.308334 -9.856598c-16.22435 -7.6655884 -42.05858 -26.124573 -55.037773 -36.13681c-12.979202 -10.012268 -17.658333 -21.511963 -22.837402 -23.936768c-5.179077 -2.4248047 -8.860916 3.756012 -8.237045 9.387939c0.62387085 5.6319275 -1.7479172 13.218201 11.980255 24.403656c13.728165 11.185455 48.860466 32.46219 70.388756 42.709076c21.528305 10.246887 42.806625 19.554657 58.781006 18.772308c15.9743805 -0.7823181 28.516418 -14.627502 37.065277 -23.466278c8.548859 -8.838776 14.227875 -22.52655 14.227875 -29.566315c0 -7.0397644 -9.547791 -14.940552 -14.227875 -12.672272z" fill-rule="evenodd"/><path stroke="#ffffff" stroke-width="2.0" stroke-linejoin="round" stroke-linecap="butt" d="m269.1858 371.29422c-4.680084 2.2682495 -5.5534363 19.554932 -13.85257 26.281952c-8.299118 6.7269897 -22.900421 13.37619 -35.94217 14.080109c-13.041748 0.70391846 -26.08397 -2.19104 -42.308334 -9.856598c-16.22435 -7.6655884 -42.05858 -26.124573 -55.037773 -36.13681c-12.979202 -10.012268 -17.658333 -21.511963 -22.837402 -23.936768c-5.179077 -2.4248047 -8.860916 3.756012 -8.237045 9.387939c0.62387085 5.6319275 -1.7479172 13.218201 11.980255 24.403656c13.728165 11.185455 48.860466 32.46219 70.388756 42.709076c21.528305 10.246887 42.806625 19.554657 58.781006 18.772308c15.9743805 -0.7823181 28.516418 -14.627502 37.065277 -23.466278c8.548859 -8.838776 14.227875 -22.52655 14.227875 -29.566315c0 -7.0397644 -9.547791 -14.940552 -14.227875 -12.672272z" fill-rule="evenodd"/><path fill="#000000" d="m263.5703 417.7541c-7.6129456 3.7545166 -19.53183 25.031525 -29.952759 30.507233c-10.420944 5.475708 -17.035172 7.0403748 -32.57286 2.3469849c-15.537704 -4.6933594 -44.11714 -18.852203 -60.653305 -30.507233c-16.536171 -11.655029 -31.824364 -35.199127 -38.563698 -39.422943c-6.739334 -4.2237854 -6.864441 5.7887573 -1.8723145 14.080139c4.9921265 8.291382 17.722534 23.856842 31.825066 35.66812c14.102539 11.811249 34.94371 27.768494 52.79016 35.199432c17.84645 7.430908 41.746063 10.246582 54.288574 9.386139c12.542511 -0.8604431 14.227173 -6.335846 20.966507 -14.548798c6.7393494 -8.212982 18.845398 -27.61081 19.469513 -34.728973c0.6240845 -7.118164 -8.111938 -11.734619 -15.724884 -7.9801025z" fill-rule="evenodd"/><path stroke="#ffffff" stroke-width="2.0" stroke-linejoin="round" stroke-linecap="butt" d="m263.5703 417.7541c-7.6129456 3.7545166 -19.53183 25.031525 -29.952759 30.507233c-10.420944 5.475708 -17.035172 7.0403748 -32.57286 2.3469849c-15.537704 -4.6933594 -44.11714 -18.852203 -60.653305 -30.507233c-16.536171 -11.655029 -31.824364 -35.199127 -38.563698 -39.422943c-6.739334 -4.2237854 -6.864441 5.7887573 -1.8723145 14.080139c4.9921265 8.291382 17.722534 23.856842 31.825066 35.66812c14.102539 11.811249 34.94371 27.768494 52.79016 35.199432c17.84645 7.430908 41.746063 10.246582 54.288574 9.386139c12.542511 -0.8604431 14.227173 -6.335846 20.966507 -14.548798c6.7393494 -8.212982 18.845398 -27.61081 19.469513 -34.728973c0.6240845 -7.118164 -8.111938 -11.734619 -15.724884 -7.9801025z" fill-rule="evenodd"/><path fill="#000000" d="m282.77686 369.88934c5.418457 2.0011902 12.459442 18.9281 22.114471 25.769226c9.65506 6.841095 21.631836 14.961914 35.815735 15.277527c14.183899 0.31558228 34.03586 -5.7783203 49.28769 -13.384003c15.251831 -7.6056824 31.997437 -23.08905 42.223267 -32.250122c10.22583 -9.161041 14.045868 -20.046051 19.131744 -22.716217c5.085907 -2.6701965 11.457642 1.428833 11.383606 6.6951294c-0.07400513 5.266327 4.2018127 11.162262 -11.827698 24.902802c-16.029541 13.74054 -60.539795 47.905212 -84.34949 57.540436c-23.809662 9.635223 -44.26892 4.142578 -58.508575 0.27096558c-14.239685 -3.871643 -20.984955 -15.443481 -26.929443 -23.500763c-5.944519 -8.0572815 -9.014008 -18.408752 -8.737579 -24.842926c0.27645874 -6.4341736 4.9778137 -15.763245 10.396271 -13.762054z" fill-rule="evenodd"/><path stroke="#ffffff" stroke-width="2.0" stroke-linejoin="round" stroke-linecap="butt" d="m282.77686 369.88934c5.418457 2.0011902 12.459442 18.9281 22.114471 25.769226c9.65506 6.841095 21.631836 14.961914 35.815735 15.277527c14.183899 0.31558228 34.03586 -5.7783203 49.28769 -13.384003c15.251831 -7.6056824 31.997437 -23.08905 42.223267 -32.250122c10.22583 -9.161041 14.045868 -20.046051 19.131744 -22.716217c5.085907 -2.6701965 11.457642 1.428833 11.383606 6.6951294c-0.07400513 5.266327 4.2018127 11.162262 -11.827698 24.902802c-16.029541 13.74054 -60.539795 47.905212 -84.34949 57.540436c-23.809662 9.635223 -44.26892 4.142578 -58.508575 0.27096558c-14.239685 -3.871643 -20.984955 -15.443481 -26.929443 -23.500763c-5.944519 -8.0572815 -9.014008 -18.408752 -8.737579 -24.842926c0.27645874 -6.4341736 4.9778137 -15.763245 10.396271 -13.762054z" fill-rule="evenodd"/><path fill="#000000" d="m285.09567 415.1157c7.3002625 2.4740906 24.877777 25.266968 35.501434 31.353882c10.623657 6.0868835 17.77948 6.654999 28.240448 5.1674805c10.460968 -1.4874878 21.934448 -7.1558228 34.52536 -14.092529c12.590912 -6.9367065 30.778381 -18.985992 41.02008 -27.52774c10.24173 -8.541748 15.927948 -19.990875 20.430206 -23.722748c4.5022583 -3.731842 5.9428406 -1.821167 6.583313 1.3316345c0.6404724 3.1528015 4.0009766 9.339905 -2.7404785 17.585236c-6.741455 8.245361 -23.4617 21.946198 -37.708252 31.886871c-14.246582 9.940643 -30.723267 22.0466 -47.77118 27.75708c-17.047913 5.7105103 -40.119446 12.0442505 -54.516296 6.505951c-14.396851 -5.538269 -27.937378 -30.36148 -31.864807 -39.735687c-3.9274597 -9.374176 0.99990845 -18.98349 8.300171 -16.50943z" fill-rule="evenodd"/><path stroke="#ffffff" stroke-width="2.0" stroke-linejoin="round" stroke-linecap="butt" d="m285.09567 415.1157c7.3002625 2.4740906 24.877777 25.266968 35.501434 31.353882c10.623657 6.0868835 17.77948 6.654999 28.240448 5.1674805c10.460968 -1.4874878 21.934448 -7.1558228 34.52536 -14.092529c12.590912 -6.9367065 30.778381 -18.985992 41.02008 -27.52774c10.24173 -8.541748 15.927948 -19.990875 20.430206 -23.722748c4.5022583 -3.731842 5.9428406 -1.821167 6.583313 1.3316345c0.6404724 3.1528015 4.0009766 9.339905 -2.7404785 17.585236c-6.741455 8.245361 -23.4617 21.946198 -37.708252 31.886871c-14.246582 9.940643 -30.723267 22.0466 -47.77118 27.75708c-17.047913 5.7105103 -40.119446 12.0442505 -54.516296 6.505951c-14.396851 -5.538269 -27.937378 -30.36148 -31.864807 -39.735687c-3.9274597 -9.374176 0.99990845 -18.98349 8.300171 -16.50943z" fill-rule="evenodd"/></g></svg>