<svg version="1.1" viewBox="0.0 0.0 557.8582677165355 557.8582677165355" fill="none" stroke="none" stroke-linecap="square" stroke-miterlimit="10" xmlns:xlink="http://www.w3.org/1999/xlink" xmlns="http://www.w3.org/2000/svg"><clipPath id="p.0"><path d="m0 0l557.8583 0l0 557.8583l-557.8583 0l0 -557.8583z" clip-rule="nonzero"/></clipPath><g clip-path="url(#p.0)"><path fill="#000000" fill-opacity="0.0" d="m0 0l557.8583 0l0 557.8583l-557.8583 0z" fill-rule="evenodd"/><path fill="#ffffff" d="m418.82187 367.82794c-28.134888 9.170258 -60.457275 24.762726 -75.33502 16.810455c-23.44403 -12.431671 4.378784 -17.223175 0.20132446 -41.371826c-3.4325562 -19.840393 -40.98932 -19.266602 -55.867096 -4.388855c-3.241272 3.2413025 -5.415558 7.1670837 -5.9088135 11.727051c-2.1138916 18.642517 11.888123 19.316925 8.22403 22.981018c-1.298523 1.298523 -4.821686 2.969513 -12.099487 5.959137c-13.045715 5.2948 -35.78514 0.31207275 -58.20244 -5.1941223c-7.851593 -23.55478 -15.300537 -46.28412 -9.4823 -57.397125c1.6609039 -3.1507263 3.1003723 -5.254547 4.3988953 -6.55307c7.9522552 -7.95224 10.790909 14.374451 28.9301 13.589294c3.0299072 -0.11071777 5.6974335 -1.4897766 7.962311 -3.7546692c13.418182 -13.418182 12.602814 -58.242706 -11.123077 -58.937256c-27.732224 -0.81536865 -19.266602 22.930664 -32.714966 -3.1607666c-6.9355774 -13.458435 -11.01236 -34.245026 -11.727051 -54.32698c30.379608 4.0667267 66.76871 12.532349 83.99188 5.4961243c6.734253 -2.7681885 10.166809 -4.449234 11.505585 -5.78804c4.1875305 -4.1875153 -11.958557 -5.173996 -11.807556 -26.322952c0.040252686 -5.677307 2.0031433 -10.03595 5.1437683 -13.17659c12.2907715 -12.290756 42.609985 -5.888687 45.931824 12.874603c4.076782 23.645355 -17.02185 18.853882 4.489502 28.950226c12.230347 5.9088135 40.979248 10.59964 68.19809 11.102951c4.1774597 13.357773 6.41214 26.00084 2.546753 35.5838c-2.6171875 6.3819427 -4.721039 10.136612 -6.7543945 12.169968c-6.764435 6.7644653 -12.733673 -5.606842 -34.134277 -4.117035c-5.103546 0.39257812 -9.109863 2.3655396 -12.079376 5.3350525c-13.216827 13.216827 -6.150421 46.253906 13.820831 48.589264c24.672089 2.8487244 30.379608 -24.460724 44.029297 -1.8320312c6.5329285 10.800964 8.677002 32.714935 7.861664 55.152374z" fill-rule="evenodd"/><path stroke="#000000" stroke-width="4.0" stroke-linejoin="round" stroke-linecap="butt" d="m418.82187 367.82794c-28.134888 9.170258 -60.457275 24.762726 -75.33502 16.810455c-23.44403 -12.431671 4.378784 -17.223175 0.20132446 -41.371826c-3.4325562 -19.840393 -40.98932 -19.266602 -55.867096 -4.388855c-3.241272 3.2413025 -5.415558 7.1670837 -5.9088135 11.727051c-2.1138916 18.642517 11.888123 19.316925 8.22403 22.981018c-1.298523 1.298523 -4.821686 2.969513 -12.099487 5.959137c-13.045715 5.2948 -35.78514 0.31207275 -58.20244 -5.1941223c-7.851593 -23.55478 -15.300537 -46.28412 -9.4823 -57.397125c1.6609039 -3.1507263 3.1003723 -5.254547 4.3988953 -6.55307c7.9522552 -7.95224 10.790909 14.374451 28.9301 13.589294c3.0299072 -0.11071777 5.6974335 -1.4897766 7.962311 -3.7546692c13.418182 -13.418182 12.602814 -58.242706 -11.123077 -58.937256c-27.732224 -0.81536865 -19.266602 22.930664 -32.714966 -3.1607666c-6.9355774 -13.458435 -11.01236 -34.245026 -11.727051 -54.32698c30.379608 4.0667267 66.76871 12.532349 83.99188 5.4961243c6.734253 -2.7681885 10.166809 -4.449234 11.505585 -5.78804c4.1875305 -4.1875153 -11.958557 -5.173996 -11.807556 -26.322952c0.040252686 -5.677307 2.0031433 -10.03595 5.1437683 -13.17659c12.2907715 -12.290756 42.609985 -5.888687 45.931824 12.874603c4.076782 23.645355 -17.02185 18.853882 4.489502 28.950226c12.230347 5.9088135 40.979248 10.59964 68.19809 11.102951c4.1774597 13.357773 6.41214 26.00084 2.546753 35.5838c-2.6171875 6.3819427 -4.721039 10.136612 -6.7543945 12.169968c-6.764435 6.7644653 -12.733673 -5.606842 -34.134277 -4.117035c-5.103546 0.39257812 -9.109863 2.3655396 -12.079376 5.3350525c-13.216827 13.216827 -6.150421 46.253906 13.820831 48.589264c24.672089 2.8487244 30.379608 -24.460724 44.029297 -1.8320312c6.5329285 10.800964 8.677002 32.714935 7.861664 55.152374z" fill-rule="evenodd"/><path fill="#9900ff" d="m376.3256 325.48364c-2.5830383 6.3556824 -4.7235413 12.315826 -3.2325745 15.261047c1.4111023 2.7439575 2.6459656 3.052002 4.05072 2.49469c1.3184204 -0.5230408 2.785797 -1.803894 4.69281 -2.5604553c0.957428 -0.37982178 2.0225525 -0.6255493 3.2349243 -0.58032227c5.796753 0.2449646 7.764984 15.07309 1.7025757 17.47818c-0.38845825 0.15411377 -0.8147888 0.25854492 -1.2741089 0.3027649c-5.744873 0.5840759 -8.096588 -3.8095703 -10.796234 -2.738556c-0.85147095 0.33779907 -1.7330017 1.2180176 -2.7696533 2.966339c-1.8163757 3.079834 -0.72125244 8.278229 0.87597656 13.803619c7.4852905 -0.26098633 15.28363 0.6218567 19.020782 2.8527832c6.4534607 3.857605 -1.4228516 2.0913086 -1.2282715 8.259399c0.15270996 4.563019 8.970856 6.9174805 14.166107 4.856415c1.8716736 -0.7425537 3.2737122 -2.0621643 3.6282654 -4.053131c1.3013306 -7.102295 -8.505554 -7.507477 -2.5647888 -9.864319c0.36099243 -0.143219 0.78674316 -0.29486084 1.2772827 -0.45498657c4.2353516 -1.3783264 11.326843 0.96240234 18.241486 3.2008057c-1.3876038 -6.393524 -2.5995483 -12.813599 -0.8941345 -16.505005c1.1395569 -2.461975 1.6715088 -3.410553 2.0953064 -3.5786743c0.92996216 -0.368927 1.3310852 3.0345154 6.487549 2.4897766c0.5147705 -0.05328369 1.0053711 -0.17889404 1.47229 -0.36413574c6.2821655 -2.492279 7.934204 -16.048035 1.3370361 -17.131378c-1.8091125 -0.31311035 -3.2712402 -0.02633667 -4.495514 0.4593506c-1.6166382 0.6413574 -2.827301 1.6306152 -3.9024353 2.057129c-1.3027344 0.5168152 -2.4070435 0.21740723 -3.7768555 -2.491211c-2.1522522 -4.2571106 2.784607 -13.379669 5.7733154 -21.379974c-6.6062927 0.24435425 -13.427673 1.320221 -17.543823 2.953186c-0.34924316 0.1385498 -0.6798096 0.2783203 -0.98483276 0.42523193c-7.554535 3.5663452 1.9621887 0.8820801 1.3901062 8.838013c-0.15374756 2.027771 -1.475769 3.3544617 -3.3631592 4.103241c-5.5405273 2.1980286 -15.9539795 -0.57159424 -16.109253 -5.1982727c-0.25009155 -6.1935425 8.716644 -5.731079 2.7033691 -8.719543c-3.3947144 -1.7112122 -11.470581 0.8845215 -19.214264 2.8179932z" fill-rule="evenodd"/><path fill="#9900ff" d="m408.12292 237.54758c-4.155182 0.23937988 -8.109711 1.8326111 -8.520996 4.526886c-0.9048767 5.8671875 6.620758 8.646362 -0.6293335 11.381226c-0.48406982 0.18450928 -1.0235596 0.2878723 -1.6177368 0.32211304c-3.4134827 0.19664001 -8.512238 -1.923172 -13.945496 -4.345001l0 0c0.888031 5.7237244 1.4229736 11.2630005 -0.53829956 14.42807c-1.1794128 1.9112549 -1.9994202 2.649231 -2.7073975 2.690033c-1.9806824 0.114105225 -3.0679932 -5.252777 -8.786102 -5.2807617c-0.12265015 -9.765625E-4 -0.24511719 0.0020751953 -0.36730957 0.009094238c-7.4338074 0.4282837 -8.898254 15.146637 -2.803711 16.277405c0.7825012 0.15170288 1.4822083 0.1876831 2.110138 0.15151978c2.4231262 -0.13961792 3.8110352 -1.368103 4.9657288 -1.4346313c0.91448975 -0.052703857 1.6850586 0.62579346 2.706421 3.1612244c1.4422302 3.4549255 1.7715149 9.901581 1.1094666 16.240692c2.0020142 -0.18359375 3.9457397 -0.35180664 5.7536316 -0.45596313c4.3785095 -0.2522583 7.957733 -0.14117432 9.684326 0.91189575c5.774292 3.5708313 -2.060089 2.1105957 -2.011322 8.898682c0.03567505 4.5801086 6.340973 8.413483 11.006073 8.144745c2.292511 -0.13208008 4.1855164 -1.2531433 4.7469482 -3.7633057c1.6578674 -7.621338 -7.1398926 -7.969879 1.2349243 -10.484436c0.60720825 -0.17553711 1.2859802 -0.28289795 2.0318909 -0.3258667c3.097412 -0.1784668 7.309204 0.71139526 11.764221 1.9325867c0.7623291 -5.3328857 2.319397 -10.30191 4.388855 -12.983307c1.2738037 -1.6676941 2.1761475 -2.2979736 2.9810486 -2.3443298c1.8795166 -0.108306885 3.2253418 2.9947815 7.578888 3.4829102c0.19992065 0.020599365 0.39892578 0.02520752 0.59698486 0.013793945c5.996765 -0.3454895 11.639526 -14.97525 3.8065186 -16.411469c-1.0509949 -0.18844604 -1.9712524 -0.23583984 -2.7719421 -0.18969727c-2.9414978 0.16946411 -4.353882 1.5600281 -5.356842 1.6177979c-0.8302002 0.047821045 -1.3869019 -0.8076172 -2.2939148 -4.0002136c-0.97024536 -3.4821472 -1.1826477 -8.634369 -0.80148315 -13.905136l0 0c-2.6643677 0.5028839 -5.265442 0.9298248 -7.5874634 1.0636139c-2.810852 0.16192627 -5.2149353 -0.10116577 -6.8492737 -1.1676025c-7.2003784 -4.5448303 1.1760254 -5.6378326 1.1833801 -12.919113c0.027679443 -3.9211273 -5.1555176 -5.526062 -10.060822 -5.243454z" fill-rule="evenodd"/><path fill="#9900ff" d="m420.03055 177.3445c-3.411438 -0.56147766 -6.3471375 -0.6342926 -8.297394 0.2717743c-7.887787 3.6831055 1.1184082 1.6264648 1.2020874 9.538879c0.05596924 4.702057 -5.0434265 6.5200195 -9.446228 5.7953796c-2.97406 -0.4894867 -5.6297607 -2.133316 -6.178711 -4.8281097c-1.3656921 -6.725708 4.025696 -5.509247 -2.7140503 -8.8004c-1.7262268 -0.8448181 -4.4448853 -1.5604401 -7.660553 -2.0896912c-2.6783142 -0.44081116 -5.699005 -0.7510834 -8.7838745 -0.9053192c-2.0066223 6.914215 -5.6087036 15.126053 -3.3980713 20.097427c1.0437622 2.3658447 1.7095032 3.2595978 2.3592834 3.3665466c1.4870605 0.24475098 2.8615723 -3.6611786 8.422485 -3.3188171c0.19903564 0.012451172 0.39611816 0.036758423 0.5877075 0.06828308c7.4934998 1.2333374 9.549805 16.056671 2.9921875 17.14299c-1.2092896 0.19914246 -2.2894287 0.15951538 -3.26828 -0.0015869141c-2.3076172 -0.37980652 -4.040985 -1.4411469 -5.5446777 -1.6886292c-1.4203796 -0.2337799 -2.6362 0.2649536 -3.9286194 2.7623138c-1.445221 2.724121 -2.10495 7.511551 -2.090271 12.698456c1.1987 0.1769867 2.4114685 0.37252808 3.6277466 0.57270813c1.8077698 0.29753113 3.6177368 0.60762024 5.3796997 0.8976135c6.347992 1.0447998 12.045685 1.8038025 14.614807 0.5689087c6.0842285 -2.99263 -1.6334839 -1.3821411 -0.9595642 -8.101257c0.41455078 -4.1817474 6.702057 -6.4339447 11.57135 -5.6325226c2.9032593 0.47784424 5.306549 2.0435638 5.657257 4.929184c0.97717285 7.734421 -7.417938 6.104843 0.1918335 9.620453c0.51675415 0.23944092 1.1138306 0.40678406 1.7802734 0.5164795c5.052582 0.83158875 14.097351 -1.771286 22.209259 -3.8532104c-0.559845 -6.34523 -2.1644287 -12.659256 -4.2311096 -15.880127c-1.2005005 -1.8553314 -2.0099792 -2.5776978 -2.738922 -2.6976776c-1.6369629 -0.26942444 -2.8624878 2.5233612 -7.2189636 2.3751678c-0.17471313 -0.0043640137 -0.35159302 -0.02130127 -0.518219 -0.048721313c-5.889801 -0.96939087 -6.960266 -15.362289 0.42837524 -16.506866c0.8994751 -0.13638306 1.7097778 -0.12083435 2.442871 -1.8310547E-4c3.536377 0.5820465 5.315674 3.625595 6.831848 3.8751526c0.84558105 0.13916016 1.6112976 -0.5880585 2.5517273 -3.0783386c1.3031311 -3.44635 -0.28237915 -8.810547 -2.2755737 -14.32309c-4.6190796 -1.2559357 -9.457367 -2.661728 -13.597717 -3.3431702z" fill-rule="evenodd"/><path fill="#ffffff" d="m398.7238 353.95425l4.7861023 0l0 -4.7861023l3.0892334 0l0 4.7861023l4.7861023 0l0 2.7427673l-4.7861023 0l0 4.7861023l-3.0892334 0l0 -4.7861023l-4.7861023 0z" fill-rule="evenodd"/><path fill="#ffffff" d="m398.7238 273.95425l4.7861023 0l0 -4.7861023l3.0892334 0l0 4.7861023l4.7861023 0l0 2.7427673l-4.7861023 0l0 4.7861023l-3.0892334 0l0 -4.7861023l-4.7861023 0z" fill-rule="evenodd"/><path fill="#ffffff" d="m398.7238 204.41719l4.7861023 0l0 -4.786087l3.0892334 0l0 4.786087l4.7861023 0l0 2.7427979l-4.7861023 0l0 4.786072l-3.0892334 0l0 -4.786072l-4.7861023 0z" fill-rule="evenodd"/><path fill="#ffffff" d="m273.27594 352.49448c-13.601624 4.4332886 -29.22763 11.9713745 -36.42018 8.126892c-11.333862 -6.01001 2.1168823 -8.326416 0.097335815 -20.000916c-1.6594543 -9.591675 -19.81601 -9.314301 -27.008545 -2.1217346c-1.5669861 1.5669556 -2.6181335 3.4648743 -2.8565826 5.669342c-1.0219421 9.012573 5.747223 9.338623 3.9758453 11.110016c-0.62776184 0.6277466 -2.331009 1.4355774 -5.849411 2.88089c-6.3068695 2.5597534 -17.300064 0.1508789 -28.137558 -2.5110474c-3.7957916 -11.38739 -7.396927 -22.375732 -4.584152 -27.74823c0.80296326 -1.5231934 1.4988556 -2.5402832 2.1266174 -3.1680298c3.8444672 -3.8444824 5.216797 6.9492188 13.986053 6.569641c1.4647827 -0.053527832 2.7543793 -0.72024536 3.8493195 -1.8151855c6.486923 -6.486908 6.092743 -28.157013 -5.377365 -28.492798c-13.406952 -0.39416504 -9.314301 11.085693 -15.815826 -1.5280457c-3.352951 -6.506378 -5.3238373 -16.555511 -5.6693573 -26.263977c14.686813 1.9660339 32.27887 6.0586853 40.605286 2.6570435c3.2556152 -1.3382568 4.9150696 -2.15094 5.5623016 -2.7981567c2.024414 -2.0244446 -5.781296 -2.5013428 -5.7082977 -12.725647c0.019470215 -2.7446594 0.9684143 -4.851822 2.4867249 -6.3701324c5.9418793 -5.9418793 20.599503 -2.8468475 22.205414 6.2241364c1.9708862 11.431183 -8.229095 9.114777 2.1704102 13.995758c5.912689 2.856598 19.811127 5.1243286 32.96988 5.3676453c2.0195618 6.457733 3.0999146 12.569946 1.2312012 17.202759c-1.2652588 3.0852966 -2.2823486 4.9004517 -3.2653503 5.883484c-3.2702332 3.2702026 -6.156006 -2.7106018 -16.501968 -1.9903564c-2.46727 0.18978882 -4.4040985 1.1435852 -5.839691 2.579193c-6.3895874 6.3895874 -2.9733734 22.361115 6.6815796 23.490112c11.927536 1.3771973 14.686813 -11.825348 21.28566 -0.88568115c3.1582947 5.221649 4.194824 15.815826 3.8006592 26.663025z" fill-rule="evenodd"/><path stroke="#000000" stroke-width="1.0" stroke-linejoin="round" stroke-linecap="butt" d="m273.27594 352.49448c-13.601624 4.4332886 -29.22763 11.9713745 -36.42018 8.126892c-11.333862 -6.01001 2.1168823 -8.326416 0.097335815 -20.000916c-1.6594543 -9.591675 -19.81601 -9.314301 -27.008545 -2.1217346c-1.5669861 1.5669556 -2.6181335 3.4648743 -2.8565826 5.669342c-1.0219421 9.012573 5.747223 9.338623 3.9758453 11.110016c-0.62776184 0.6277466 -2.331009 1.4355774 -5.849411 2.88089c-6.3068695 2.5597534 -17.300064 0.1508789 -28.137558 -2.5110474c-3.7957916 -11.38739 -7.396927 -22.375732 -4.584152 -27.74823c0.80296326 -1.5231934 1.4988556 -2.5402832 2.1266174 -3.1680298c3.8444672 -3.8444824 5.216797 6.9492188 13.986053 6.569641c1.4647827 -0.053527832 2.7543793 -0.72024536 3.8493195 -1.8151855c6.486923 -6.486908 6.092743 -28.157013 -5.377365 -28.492798c-13.406952 -0.39416504 -9.314301 11.085693 -15.815826 -1.5280457c-3.352951 -6.506378 -5.3238373 -16.555511 -5.6693573 -26.263977c14.686813 1.9660339 32.27887 6.0586853 40.605286 2.6570435c3.2556152 -1.3382568 4.9150696 -2.15094 5.5623016 -2.7981567c2.024414 -2.0244446 -5.781296 -2.5013428 -5.7082977 -12.725647c0.019470215 -2.7446594 0.9684143 -4.851822 2.4867249 -6.3701324c5.9418793 -5.9418793 20.599503 -2.8468475 22.205414 6.2241364c1.9708862 11.431183 -8.229095 9.114777 2.1704102 13.995758c5.912689 2.856598 19.811127 5.1243286 32.96988 5.3676453c2.0195618 6.457733 3.0999146 12.569946 1.2312012 17.202759c-1.2652588 3.0852966 -2.2823486 4.9004517 -3.2653503 5.883484c-3.2702332 3.2702026 -6.156006 -2.7106018 -16.501968 -1.9903564c-2.46727 0.18978882 -4.4040985 1.1435852 -5.839691 2.579193c-6.3895874 6.3895874 -2.9733734 22.361115 6.6815796 23.490112c11.927536 1.3771973 14.686813 -11.825348 21.28566 -0.88568115c3.1582947 5.221649 4.194824 15.815826 3.8006592 26.663025z" fill-rule="evenodd"/><path fill="#ffffff" d="m209.23145 366.43475c-9.520615 3.1031494 -20.458237 8.379517 -25.492752 5.6885376c-7.933258 -4.206787 1.4817505 -5.828186 0.06813049 -13.999908c-1.1615448 -6.713806 -13.870453 -6.5196533 -18.904953 -1.4851379c-1.0968323 1.0968323 -1.8325958 2.425293 -1.9994965 3.9683533c-0.71533203 6.308441 4.022827 6.536682 2.7829437 7.776581c-0.4394226 0.4393921 -1.6316223 1.0048523 -4.0943756 2.01651c-4.414566 1.7917175 -12.10939 0.10559082 -19.69522 -1.7576294c-2.6569214 -7.970764 -5.177582 -15.66217 -3.2087402 -19.42273c0.56204224 -1.0661621 1.0491486 -1.7780762 1.4885559 -2.2174988c2.690979 -2.690979 3.6515503 4.864197 9.789703 4.5985107c1.0252991 -0.037475586 1.9279633 -0.5041504 2.6943817 -1.2705688c4.5406036 -4.5405884 4.264694 -19.708832 -3.7639618 -19.943878c-9.384354 -0.27590942 -6.5196533 7.759552 -11.070465 -1.0695801c-2.346939 -4.5542297 -3.7264862 -11.588226 -3.968338 -18.38379c10.280212 1.3761292 22.593979 4.2408447 28.422165 1.8598328c2.2788086 -0.93673706 3.4403534 -1.5055847 3.8933868 -1.9586182c1.4170227 -1.4170227 -4.0466766 -1.750824 -3.995575 -8.907471c0.01361084 -1.9211426 0.6778412 -3.3960876 1.7406158 -4.458832c4.159088 -4.1591187 14.418854 -1.9927063 15.542938 4.3566284c1.3795471 8.001404 -5.7600555 6.380005 1.5192108 9.796539c4.1386566 1.9994812 13.86705 3.5868225 23.077682 3.757141c1.4136047 4.520172 2.1697998 8.798462 0.8617859 12.04126c-0.8856354 2.159607 -1.5975494 3.4301453 -2.2856293 4.118225c-2.289032 2.289032 -4.30896 -1.8973083 -11.550751 -1.3931885c-1.727005 0.13284302 -3.0827026 0.8004761 -4.08757 1.8053589c-4.472458 4.472473 -2.0812378 15.651947 4.6768494 16.4422c8.348846 0.96398926 10.280212 -8.277313 14.899155 -0.6199646c2.2106934 3.6549683 2.9362335 11.070496 2.660324 18.663116z" fill-rule="evenodd"/><path stroke="#000000" stroke-width="1.0" stroke-linejoin="round" stroke-linecap="butt" d="m209.23145 366.43475c-9.520615 3.1031494 -20.458237 8.379517 -25.492752 5.6885376c-7.933258 -4.206787 1.4817505 -5.828186 0.06813049 -13.999908c-1.1615448 -6.713806 -13.870453 -6.5196533 -18.904953 -1.4851379c-1.0968323 1.0968323 -1.8325958 2.425293 -1.9994965 3.9683533c-0.71533203 6.308441 4.022827 6.536682 2.7829437 7.776581c-0.4394226 0.4393921 -1.6316223 1.0048523 -4.0943756 2.01651c-4.414566 1.7917175 -12.10939 0.10559082 -19.69522 -1.7576294c-2.6569214 -7.970764 -5.177582 -15.66217 -3.2087402 -19.42273c0.56204224 -1.0661621 1.0491486 -1.7780762 1.4885559 -2.2174988c2.690979 -2.690979 3.6515503 4.864197 9.789703 4.5985107c1.0252991 -0.037475586 1.9279633 -0.5041504 2.6943817 -1.2705688c4.5406036 -4.5405884 4.264694 -19.708832 -3.7639618 -19.943878c-9.384354 -0.27590942 -6.5196533 7.759552 -11.070465 -1.0695801c-2.346939 -4.5542297 -3.7264862 -11.588226 -3.968338 -18.38379c10.280212 1.3761292 22.593979 4.2408447 28.422165 1.8598328c2.2788086 -0.93673706 3.4403534 -1.5055847 3.8933868 -1.9586182c1.4170227 -1.4170227 -4.0466766 -1.750824 -3.995575 -8.907471c0.01361084 -1.9211426 0.6778412 -3.3960876 1.7406158 -4.458832c4.159088 -4.1591187 14.418854 -1.9927063 15.542938 4.3566284c1.3795471 8.001404 -5.7600555 6.380005 1.5192108 9.796539c4.1386566 1.9994812 13.86705 3.5868225 23.077682 3.757141c1.4136047 4.520172 2.1697998 8.798462 0.8617859 12.04126c-0.8856354 2.159607 -1.5975494 3.4301453 -2.2856293 4.118225c-2.289032 2.289032 -4.30896 -1.8973083 -11.550751 -1.3931885c-1.727005 0.13284302 -3.0827026 0.8004761 -4.08757 1.8053589c-4.472458 4.472473 -2.0812378 15.651947 4.6768494 16.4422c8.348846 0.96398926 10.280212 -8.277313 14.899155 -0.6199646c2.2106934 3.6549683 2.9362335 11.070496 2.660324 18.663116z" fill-rule="evenodd"/><path fill="#000000" d="m165.2906 374.299c-6.6647186 2.1720276 -14.321396 5.8652344 -17.845703 3.9816895c-5.553543 -2.9445496 1.037262 -4.079468 0.047683716 -9.799286c-0.81311035 -4.699341 -9.709747 -4.563446 -13.234055 -1.0395203c-0.767807 0.7677307 -1.2828674 1.6975708 -1.399704 2.777649c-0.5007477 4.415619 2.816101 4.5753784 1.9481506 5.4432373c-0.30760193 0.30758667 -1.1421967 0.70336914 -2.8661957 1.411499c-3.090332 1.2540894 -8.476944 0.07388306 -13.787262 -1.2302856c-1.8599167 -5.5791626 -3.6244583 -10.962799 -2.2462082 -13.595001c0.39344025 -0.74627686 0.7344284 -1.2445984 1.0420303 -1.5521545c1.8837662 -1.8835449 2.5561981 3.4047241 6.853096 3.21875c0.7177353 -0.026245117 1.3496323 -0.35287476 1.8861465 -0.88934326c3.1785583 -3.1781921 2.9854126 -13.795288 -2.6348877 -13.959778c-6.569336 -0.19314575 -4.563957 5.431305 -7.749672 -0.7486572c-1.6429291 -3.1877441 -2.6086578 -8.111237 -2.777954 -12.867828c7.1964645 0.96325684 15.816475 2.9684143 19.896385 1.3018188c1.5952454 -0.65567017 2.4083557 -1.053833 2.7254944 -1.3709412c0.9919586 -0.9918518 -2.8327942 -1.2255249 -2.7970276 -6.234833c0.009536743 -1.3447266 0.47451782 -2.3771057 1.2184906 -3.1209717c2.9114838 -2.9111938 10.093643 -1.3948059 10.880539 3.0494385c0.96572876 5.6006165 -4.0322266 4.4657288 1.0634918 6.8571167c2.8971863 1.3995667 9.707352 2.51062 16.155075 2.6298218c0.98957825 3.16391 1.5189362 6.158539 0.60328674 8.428345c-0.6199646 1.5116272 -1.1183319 2.40094 -1.6000061 2.8825684c-1.6024017 1.6022034 -3.0164185 -1.3280334 -8.085892 -0.9751587c-1.2089539 0.09298706 -2.1579895 0.56030273 -2.8614197 1.2636414c-3.1308594 3.1305237 -1.4569397 10.955627 3.273941 11.508789c5.844452 0.67474365 7.196472 -5.7937317 10.429871 -0.43392944c1.5475464 2.5582886 2.0554504 7.74881 1.8623047 13.063324z" fill-rule="evenodd"/><path fill="#ffffff" d="m131.04773 350.87097l4.786087 0l0 -4.7861023l3.0892487 0l0 4.7861023l4.786087 0l0 2.7427673l-4.786087 0l0 4.7861023l-3.0892487 0l0 -4.7861023l-4.786087 0z" fill-rule="evenodd"/><path fill="#000000" fill-opacity="0.0" d="m266.19794 197.26212l68.031494 0l0 129.29132l-68.031494 0z" fill-rule="evenodd"/><path fill="#9900ff" d="m285.4792 258.20834q0.46875 -1.828125 2.0625 -4.6249847q1.84375 -2.59375 3.4375 -4.5625q4.203125 -3.375 8.046875 -3.375q6.484375 0 6.484375 6.015625q0.671875 5.4374847 2.40625 12.718735q0.640625 2.15625 1.375 2.15625q0.359375 0 1.015625 -1.09375q4.78125 -4.40625 9.71875 -9.359375q7.71875 -7.3593597 10.484375 -10.812485q3.625 -4.34375 9.75 -10.125q6.140625 -5.40625 9.453125 -7.625q3.453125 -2.15625 6.28125 -1.6875q3.890625 0.65625 3.328125 5.265625q-0.328125 2.609375 0 5.171875q0.484375 3.015625 -0.453125 4.0q-7.140625 8.546875 -11.390625 12.4375q-10.3125 12.10936 -13.90625 14.98436q-13.421875 13.03125 -23.34375 22.625q-4.015625 3.609375 -7.828125 4.03125q-5.09375 0.4375 -9.5625 -3.640625q-5.1875 -4.375 -5.59375 -10.5q-0.34375 -5.859375 -1.015625 -8.546875q-1.125 -5.21875 -0.75 -13.453125z" fill-rule="nonzero"/></g></svg>