<svg version="1.1" viewBox="0.0 0.0 557.8582677165355 557.8582677165355" fill="none" stroke="none" stroke-linecap="square" stroke-miterlimit="10" xmlns:xlink="http://www.w3.org/1999/xlink" xmlns="http://www.w3.org/2000/svg"><clipPath id="p.0"><path d="m0 0l557.8583 0l0 557.8583l-557.8583 0l0 -557.8583z" clip-rule="nonzero"/></clipPath><g clip-path="url(#p.0)"><path fill="#000000" fill-opacity="0.0" d="m0 0l557.8583 0l0 557.8583l-557.8583 0z" fill-rule="evenodd"/><path fill="#ffffff" d="m345.25772 142.21042c-1.2268372 -1.8485718 -2.8105164 -3.086441 -4.7315063 -3.3709412c-9.404297 -1.355072 -10.845306 6.6136627 -14.555176 1.0236511c-0.57559204 -0.8673096 -1.2109985 -2.0596771 -1.9284363 -3.6626892c-1.9668579 -4.412262 -0.21047974 -10.757378 2.602417 -17.885696c-11.703369 -2.3005676 -22.670593 -6.010666 -27.895813 -9.655777c-2.9387512 -2.0529633 -4.4413147 -3.29908 -5.0841064 -4.2676773c-1.7604065 -2.652565 2.8967896 -3.2172852 2.1743164 -12.540634c-0.14099121 -1.7393341 -0.73583984 -3.3142548 -1.6559448 -4.7006836c-5.760132 -8.679398 -24.405304 -9.929565 -25.586884 2.6453018c-0.41516113 4.242218 0.65878296 7.1132507 2.024231 9.170731c1.4494934 2.1840897 3.229065 3.456108 3.9096985 4.481682c0.87387085 1.3167877 -0.051727295 2.2319717 -5.7773438 4.162277c-7.9334106 2.5838928 -23.202194 -4.8280563 -37.33374 -11.061493c3.0978394 13.920479 7.423477 28.503418 4.1344604 34.37925c-5.7698975 10.476746 -4.440796 -5.3602676 -15.724701 -5.449745c-9.189636 -0.06586456 -15.018188 21.793694 -9.043762 30.795967c1.3570557 2.044815 3.325821 3.4192352 6.001587 3.7317505c12.182434 1.4172668 10.988586 -10.547791 13.958984 -6.0719757c0.55459595 0.83566284 1.2493286 2.2348633 2.2084656 4.3978424c3.1515045 7.136902 5.063568 20.458221 5.092743 33.187057c8.226578 3.4041748 15.682465 5.6601562 20.704376 3.7135468c6.956421 -2.7379913 7.1415405 -3.490036 5.9651184 -5.2626343c-0.21426392 -0.32286072 -0.4801941 -0.68440247 -0.7532654 -1.0959015c-1.1763916 -1.7725983 -2.5749512 -4.519394 -1.5827026 -9.719086c2.2809143 -11.362091 23.638489 -9.039505 29.23056 -0.613327c0.8024597 1.2091675 1.2803345 2.542572 1.3314209 3.9767914c0.23498535 8.771469 -5.559662 9.853928 -3.530365 12.911652c0.6134033 0.9242859 1.9544067 2.0314026 4.4007874 3.5904083c5.1173096 3.3519745 17.183258 1.7096405 29.746246 0.02015686c-3.7719421 -11.895538 -7.469879 -23.940521 -4.2846375 -30.768799c6.4349976 -13.963837 6.110138 4.717499 19.099335 4.3227386c10.667084 -0.3310089 12.551331 -21.843613 6.8836365 -30.383743z" fill-rule="evenodd"/><path stroke="#000000" stroke-width="8.0" stroke-linejoin="round" stroke-linecap="butt" d="m345.25772 142.21042c-1.2268372 -1.8485718 -2.8105164 -3.086441 -4.7315063 -3.3709412c-9.404297 -1.355072 -10.845306 6.6136627 -14.555176 1.0236511c-0.57559204 -0.8673096 -1.2109985 -2.0596771 -1.9284363 -3.6626892c-1.9668579 -4.412262 -0.21047974 -10.757378 2.602417 -17.885696c-11.703369 -2.3005676 -22.670593 -6.010666 -27.895813 -9.655777c-2.9387512 -2.0529633 -4.4413147 -3.29908 -5.0841064 -4.2676773c-1.7604065 -2.652565 2.8967896 -3.2172852 2.1743164 -12.540634c-0.14099121 -1.7393341 -0.73583984 -3.3142548 -1.6559448 -4.7006836c-5.760132 -8.679398 -24.405304 -9.929565 -25.586884 2.6453018c-0.41516113 4.242218 0.65878296 7.1132507 2.024231 9.170731c1.4494934 2.1840897 3.229065 3.456108 3.9096985 4.481682c0.87387085 1.3167877 -0.051727295 2.2319717 -5.7773438 4.162277c-7.9334106 2.5838928 -23.202194 -4.8280563 -37.33374 -11.061493c3.0978394 13.920479 7.423477 28.503418 4.1344604 34.37925c-5.7698975 10.476746 -4.440796 -5.3602676 -15.724701 -5.449745c-9.189636 -0.06586456 -15.018188 21.793694 -9.043762 30.795967c1.3570557 2.044815 3.325821 3.4192352 6.001587 3.7317505c12.182434 1.4172668 10.988586 -10.547791 13.958984 -6.0719757c0.55459595 0.83566284 1.2493286 2.2348633 2.2084656 4.3978424c3.1515045 7.136902 5.063568 20.458221 5.092743 33.187057c8.226578 3.4041748 15.682465 5.6601562 20.704376 3.7135468c6.956421 -2.7379913 7.1415405 -3.490036 5.9651184 -5.2626343c-0.21426392 -0.32286072 -0.4801941 -0.68440247 -0.7532654 -1.0959015c-1.1763916 -1.7725983 -2.5749512 -4.519394 -1.5827026 -9.719086c2.2809143 -11.362091 23.638489 -9.039505 29.23056 -0.613327c0.8024597 1.2091675 1.2803345 2.542572 1.3314209 3.9767914c0.23498535 8.771469 -5.559662 9.853928 -3.530365 12.911652c0.6134033 0.9242859 1.9544067 2.0314026 4.4007874 3.5904083c5.1173096 3.3519745 17.183258 1.7096405 29.746246 0.02015686c-3.7719421 -11.895538 -7.469879 -23.940521 -4.2846375 -30.768799c6.4349976 -13.963837 6.110138 4.717499 19.099335 4.3227386c10.667084 -0.3310089 12.551331 -21.843613 6.8836365 -30.383743z" fill-rule="evenodd"/><path fill="#ffffff" d="m303.9613 387.66913c-6.140564 -1.0106506 -11.424805 -1.1416931 -14.935303 0.48919678c-14.197998 6.629608 2.0131226 2.9276428 2.1637573 17.169983c0.100738525 8.463715 -9.078186 11.736053 -17.003204 10.431702c-5.353302 -0.8811035 -10.133575 -3.8399963 -11.121674 -8.690613c-2.458252 -12.106262 7.246216 -9.916626 -4.885315 -15.840698c-3.1072235 -1.5206909 -8.000793 -2.8088074 -13.788971 -3.7614746c-4.820984 -0.79345703 -10.258194 -1.3519287 -15.810959 -1.6295776c-3.6119232 12.445587 -10.095673 27.226898 -6.1165314 36.175385c1.8787537 4.258545 3.0770874 5.867279 4.2467194 6.059784c2.676651 0.44055176 5.1508026 -6.5901184 15.160477 -5.973877c0.35824585 0.022399902 0.7129822 0.06616211 1.0578613 0.122924805c13.488251 2.2200012 17.189636 28.901978 5.3859253 30.85736c-2.1767273 0.35849 -4.1209717 0.2871399 -5.8829193 -0.0028686523c-4.1536865 -0.68362427 -7.273758 -2.5940552 -9.980408 -3.0395203c-2.5567017 -0.42080688 -4.745178 0.4769287 -7.0715027 4.9721985c-2.6014252 4.903412 -3.78891 13.520782 -3.7625122 22.857208c2.1576843 0.318573 4.3406677 0.6705322 6.5299683 1.0308838c3.2539825 0.535553 6.5119324 1.0937195 9.683441 1.6156921c11.426392 1.8806458 21.682266 3.2468262 26.306686 1.0240173c10.951599 -5.3867188 -2.9403076 -2.487854 -1.7272339 -14.582245c0.7461853 -7.5271606 12.06366 -11.581116 20.8284 -10.13855c5.2258606 0.8601074 9.551819 3.6784058 10.183075 8.872528c1.7589111 13.921967 -13.352295 10.9887085 0.3453064 17.316803c0.93014526 0.43099976 2.0048828 0.73223877 3.2044983 0.929657c9.094635 1.4968872 25.375214 -3.1882935 39.976685 -6.9357605c-1.007721 -11.421417 -3.8959656 -22.786652 -7.6159973 -28.584229c-2.1609497 -3.3395996 -3.617981 -4.639862 -4.9300537 -4.8558044c-2.9465637 -0.48498535 -5.152527 4.5420227 -12.994202 4.275299c-0.3144226 -0.007873535 -0.632843 -0.038330078 -0.93273926 -0.08770752c-10.601654 -1.7449036 -12.528503 -27.65213 0.7710266 -29.712372c1.6190796 -0.24545288 3.0776062 -0.21749878 4.3971863 -3.0517578E-4c6.365509 1.0476685 9.568207 6.526062 12.297363 6.9752502c1.5220032 0.2505188 2.900299 -1.0585022 4.593048 -5.5410156c2.3457031 -6.20343 -0.50823975 -15.858948 -4.0960083 -25.781555c-8.314362 -2.2606812 -17.023224 -4.7910767 -24.475891 -6.0177z" fill-rule="evenodd"/><path stroke="#000000" stroke-width="8.0" stroke-linejoin="round" stroke-linecap="butt" d="m303.9613 387.66913c-6.140564 -1.0106506 -11.424805 -1.1416931 -14.935303 0.48919678c-14.197998 6.629608 2.0131226 2.9276428 2.1637573 17.169983c0.100738525 8.463715 -9.078186 11.736053 -17.003204 10.431702c-5.353302 -0.8811035 -10.133575 -3.8399963 -11.121674 -8.690613c-2.458252 -12.106262 7.246216 -9.916626 -4.885315 -15.840698c-3.1072235 -1.5206909 -8.000793 -2.8088074 -13.788971 -3.7614746c-4.820984 -0.79345703 -10.258194 -1.3519287 -15.810959 -1.6295776c-3.6119232 12.445587 -10.095673 27.226898 -6.1165314 36.175385c1.8787537 4.258545 3.0770874 5.867279 4.2467194 6.059784c2.676651 0.44055176 5.1508026 -6.5901184 15.160477 -5.973877c0.35824585 0.022399902 0.7129822 0.06616211 1.0578613 0.122924805c13.488251 2.2200012 17.189636 28.901978 5.3859253 30.85736c-2.1767273 0.35849 -4.1209717 0.2871399 -5.8829193 -0.0028686523c-4.1536865 -0.68362427 -7.273758 -2.5940552 -9.980408 -3.0395203c-2.5567017 -0.42080688 -4.745178 0.4769287 -7.0715027 4.9721985c-2.6014252 4.903412 -3.78891 13.520782 -3.7625122 22.857208c2.1576843 0.318573 4.3406677 0.6705322 6.5299683 1.0308838c3.2539825 0.535553 6.5119324 1.0937195 9.683441 1.6156921c11.426392 1.8806458 21.682266 3.2468262 26.306686 1.0240173c10.951599 -5.3867188 -2.9403076 -2.487854 -1.7272339 -14.582245c0.7461853 -7.5271606 12.06366 -11.581116 20.8284 -10.13855c5.2258606 0.8601074 9.551819 3.6784058 10.183075 8.872528c1.7589111 13.921967 -13.352295 10.9887085 0.3453064 17.316803c0.93014526 0.43099976 2.0048828 0.73223877 3.2044983 0.929657c9.094635 1.4968872 25.375214 -3.1882935 39.976685 -6.9357605c-1.007721 -11.421417 -3.8959656 -22.786652 -7.6159973 -28.584229c-2.1609497 -3.3395996 -3.617981 -4.639862 -4.9300537 -4.8558044c-2.9465637 -0.48498535 -5.152527 4.5420227 -12.994202 4.275299c-0.3144226 -0.007873535 -0.632843 -0.038330078 -0.93273926 -0.08770752c-10.601654 -1.7449036 -12.528503 -27.65213 0.7710266 -29.712372c1.6190796 -0.24545288 3.0776062 -0.21749878 4.3971863 -3.0517578E-4c6.365509 1.0476685 9.568207 6.526062 12.297363 6.9752502c1.5220032 0.2505188 2.900299 -1.0585022 4.593048 -5.5410156c2.3457031 -6.20343 -0.50823975 -15.858948 -4.0960083 -25.781555c-8.314362 -2.2606812 -17.023224 -4.7910767 -24.475891 -6.0177z" fill-rule="evenodd"/><path fill="#ffffff" d="m220.1913 239.93845c-4.1768494 15.25209 -8.754593 31.095032 -4.462082 38.79074c3.544281 6.276581 5.7917633 6.492737 8.46579 4.613922c1.8596039 -1.3065491 3.920395 -3.6221924 6.764099 -5.620178c2.7351074 -1.9217224 6.1908417 -3.5518494 10.880676 -3.7052612c14.679596 -0.53985596 13.124191 22.824066 2.6316833 30.196167c-1.3302307 0.93463135 -2.800476 1.6085815 -4.393341 1.9497986c-10.928482 2.3226013 -12.041199 -6.1710815 -15.01384 -4.0824585c-0.895874 0.62942505 -1.9690247 2.2312012 -3.5291748 5.3919067c-2.6952972 5.4243774 -3.39328 15.718872 -2.7930145 27.006134c14.141937 -1.6481628 29.662552 -1.2429504 38.975677 1.7084656c16.823425 5.3542786 0.34420776 4.4058533 2.405243 20.022583c1.6440735 12.209534 24.240814 12.141083 34.156433 5.174286c2.6740417 -1.8787842 4.4263306 -4.2669067 4.585785 -7.04187c0.75756836 -11.822418 -13.639862 -10.583221 -7.2262573 -15.089447c0.63797 -0.4482422 1.4840088 -0.9529114 2.572052 -1.5378418c7.741394 -4.12265 27.360931 -0.23422241 44.492554 0.8642273c-2.0809326 -15.911957 -6.428894 -32.145996 -10.899811 -38.709015c-3.087799 -4.423065 -5.054596 -4.696808 -6.995636 -3.3330078c-1.9682007 1.3828735 -3.9041138 4.438568 -6.9514465 6.5796204c-1.9613953 1.3781128 -4.387848 2.374817 -7.5851135 2.2874146c-11.410095 -0.29119873 -14.079956 -25.723083 -3.465271 -33.18103c1.5066833 -1.0586243 3.2759094 -1.7531433 5.3372803 -1.9647217c11.261871 -1.220398 12.281311 5.1445923 13.631897 4.1956787c0.63119507 -0.44348145 1.3272705 -2.4485168 3.1437073 -7.5047913c2.7362976 -7.677307 4.254547 -21.570099 4.073944 -35.176865c-16.753204 4.6996155 -35.94586 13.237595 -44.405243 9.885803c-13.038483 -5.2808685 1.1289062 -11.804047 -0.77835083 -23.798706c-1.4369202 -8.734634 -16.621155 -9.436005 -25.023315 -3.5325928c-3.094818 2.1744385 -5.267166 5.236679 -5.498459 9.119354c-0.69332886 12.295883 12.683731 12.591415 6.9691925 16.606506c-1.0316162 0.72480774 -2.6921692 1.5723724 -5.171417 2.6361084c-7.876602 3.4097595 -21.632904 0.3487091 -34.89424 -2.7509308z" fill-rule="evenodd"/><path stroke="#000000" stroke-width="8.0" stroke-linejoin="round" stroke-linecap="butt" d="m220.1913 239.93845c-4.1768494 15.25209 -8.754593 31.095032 -4.462082 38.79074c3.544281 6.276581 5.7917633 6.492737 8.46579 4.613922c1.8596039 -1.3065491 3.920395 -3.6221924 6.764099 -5.620178c2.7351074 -1.9217224 6.1908417 -3.5518494 10.880676 -3.7052612c14.679596 -0.53985596 13.124191 22.824066 2.6316833 30.196167c-1.3302307 0.93463135 -2.800476 1.6085815 -4.393341 1.9497986c-10.928482 2.3226013 -12.041199 -6.1710815 -15.01384 -4.0824585c-0.895874 0.62942505 -1.9690247 2.2312012 -3.5291748 5.3919067c-2.6952972 5.4243774 -3.39328 15.718872 -2.7930145 27.006134c14.141937 -1.6481628 29.662552 -1.2429504 38.975677 1.7084656c16.823425 5.3542786 0.34420776 4.4058533 2.405243 20.022583c1.6440735 12.209534 24.240814 12.141083 34.156433 5.174286c2.6740417 -1.8787842 4.4263306 -4.2669067 4.585785 -7.04187c0.75756836 -11.822418 -13.639862 -10.583221 -7.2262573 -15.089447c0.63797 -0.4482422 1.4840088 -0.9529114 2.572052 -1.5378418c7.741394 -4.12265 27.360931 -0.23422241 44.492554 0.8642273c-2.0809326 -15.911957 -6.428894 -32.145996 -10.899811 -38.709015c-3.087799 -4.423065 -5.054596 -4.696808 -6.995636 -3.3330078c-1.9682007 1.3828735 -3.9041138 4.438568 -6.9514465 6.5796204c-1.9613953 1.3781128 -4.387848 2.374817 -7.5851135 2.2874146c-11.410095 -0.29119873 -14.079956 -25.723083 -3.465271 -33.18103c1.5066833 -1.0586243 3.2759094 -1.7531433 5.3372803 -1.9647217c11.261871 -1.220398 12.281311 5.1445923 13.631897 4.1956787c0.63119507 -0.44348145 1.3272705 -2.4485168 3.1437073 -7.5047913c2.7362976 -7.677307 4.254547 -21.570099 4.073944 -35.176865c-16.753204 4.6996155 -35.94586 13.237595 -44.405243 9.885803c-13.038483 -5.2808685 1.1289062 -11.804047 -0.77835083 -23.798706c-1.4369202 -8.734634 -16.621155 -9.436005 -25.023315 -3.5325928c-3.094818 2.1744385 -5.267166 5.236679 -5.498459 9.119354c-0.69332886 12.295883 12.683731 12.591415 6.9691925 16.606506c-1.0316162 0.72480774 -2.6921692 1.5723724 -5.171417 2.6361084c-7.876602 3.4097595 -21.632904 0.3487091 -34.89424 -2.7509308z" fill-rule="evenodd"/></g></svg>