<svg version="1.1" viewBox="0.0 0.0 557.8582677165355 557.8582677165355" fill="none" stroke="none" stroke-linecap="square" stroke-miterlimit="10" xmlns:xlink="http://www.w3.org/1999/xlink" xmlns="http://www.w3.org/2000/svg"><clipPath id="p.0"><path d="m0 0l557.8583 0l0 557.8583l-557.8583 0l0 -557.8583z" clip-rule="nonzero"/></clipPath><g clip-path="url(#p.0)"><path fill="#000000" fill-opacity="0.0" d="m0 0l557.8583 0l0 557.8583l-557.8583 0z" fill-rule="evenodd"/><path fill="#000000" fill-opacity="0.0" d="m182.39655 428.31497l0 0c-27.75418 0 -50.253387 -22.499207 -50.253387 -50.253418l0 -48.87903c0 -27.75418 -22.499214 -50.253387 -50.253395 -50.253387l0 0c27.75418 0 50.253395 -22.499207 50.253395 -50.253403l0 -48.879044l0 0c0 -27.75418 22.499207 -50.253387 50.253387 -50.253387l193.06519 0c13.328003 0 26.110168 5.2945404 35.534515 14.718887c9.424316 9.424332 14.718872 22.206482 14.718872 35.5345l0 48.879044l0 0c0 27.754196 22.499207 50.253403 50.253387 50.253403c-27.75418 0 -50.253387 22.499207 -50.253387 50.253387l0 48.87903c0 27.754211 -22.499207 50.253418 -50.253387 50.253418z" fill-rule="evenodd"/><path fill="#000000" fill-opacity="0.0" d="m182.39655 428.31497l0 0c-27.75418 0 -50.253387 -22.499207 -50.253387 -50.253418l0 -48.87903c0 -27.75418 -22.499214 -50.253387 -50.253395 -50.253387l0 0c27.75418 0 50.253395 -22.499207 50.253395 -50.253403l0 -48.879044l0 0c0 -27.75418 22.499207 -50.253387 50.253387 -50.253387m193.06519 0c13.328003 0 26.110168 5.2945404 35.534515 14.718887c9.424316 9.424332 14.718872 22.206482 14.718872 35.5345l0 48.879044l0 0c0 27.754196 22.499207 50.253403 50.253387 50.253403c-27.75418 0 -50.253387 22.499207 -50.253387 50.253387l0 48.87903c0 27.754211 -22.499207 50.253418 -50.253387 50.253418" fill-rule="evenodd"/><path stroke="#000000" stroke-width="16.0" stroke-linejoin="round" stroke-linecap="butt" d="m182.39655 428.31497l0 0c-27.75418 0 -50.253387 -22.499207 -50.253387 -50.253418l0 -48.87903c0 -27.75418 -22.499214 -50.253387 -50.253395 -50.253387l0 0c27.75418 0 50.253395 -22.499207 50.253395 -50.253403l0 -48.879044l0 0c0 -27.75418 22.499207 -50.253387 50.253387 -50.253387m193.06519 0c13.328003 0 26.110168 5.2945404 35.534515 14.718887c9.424316 9.424332 14.718872 22.206482 14.718872 35.5345l0 48.879044l0 0c0 27.754196 22.499207 50.253403 50.253387 50.253403c-27.75418 0 -50.253387 22.499207 -50.253387 50.253387l0 48.87903c0 27.754211 -22.499207 50.253418 -50.253387 50.253418" fill-rule="evenodd"/><path fill="#ffffff" d="m192.14279 356.85287c21.993027 7.168396 47.25943 19.357025 58.889374 13.140747c18.326202 -9.717865 -3.422882 -13.463348 -0.15737915 -32.340363c2.6832275 -15.509216 32.04135 -15.060699 43.671295 -3.4307556c2.533722 2.533722 4.233368 5.6025085 4.618927 9.167023c1.6524353 14.572845 -9.292938 15.100037 -6.428711 17.964264c1.0150452 1.0150452 3.769104 2.3212585 9.45816 4.658264c10.197845 4.1389465 27.973236 0.243927 45.496857 -4.0602417c6.1375732 -18.41278 11.960419 -36.180298 7.412323 -44.86734c-1.2983398 -2.4629211 -2.423584 -4.107483 -3.4386292 -5.122528c-6.216278 -6.216278 -8.435242 11.236481 -22.614655 10.622742c-2.3684692 -0.08654785 -4.4536743 -1.1645813 -6.2241516 -2.935028c-10.488983 -10.488983 -9.851624 -45.52832 8.694916 -46.07126c21.678284 -0.6373596 15.060699 17.924896 25.573303 -2.4707642c5.4215393 -10.520477 8.608337 -26.769333 9.167023 -42.467392c-23.747742 3.178955 -52.193115 9.796524 -65.65646 4.2963104c-5.26416 -2.1638947 -7.9473877 -3.4779663 -8.993927 -4.5245056c-3.2733765 -3.2733917 9.348022 -4.044525 9.230011 -20.57666c-0.03149414 -4.437958 -1.5658875 -7.845093 -4.0209045 -10.30014c-9.607697 -9.607681 -33.308228 -4.60318 -35.904907 10.064072c-3.1868286 18.483582 13.305969 14.738083 -3.50943 22.630402c-9.560486 4.618927 -32.03351 8.285736 -53.31047 8.679169c-3.2655182 10.441772 -5.0123596 20.324875 -1.9907837 27.815872c2.045868 4.9887695 3.6904144 7.923767 5.279892 9.513245c5.287781 5.287781 9.953918 -4.382843 26.682785 -3.2182922c3.9894257 0.30688477 7.12117 1.8491516 9.442444 4.17041c10.331604 10.331604 4.80777 36.156708 -10.803741 37.98224c-19.286179 2.2268372 -23.747742 -19.120941 -34.417694 -1.4320984c-5.1067963 8.443115 -6.782837 25.573273 -6.145462 43.11261z" fill-rule="evenodd"/><path fill="#000000" d="m253.281 203.68587l0 0c0 -13.0672 12.588226 -23.660263 28.116577 -23.660263l0 0c15.528351 0 28.116577 10.593063 28.116577 23.660263l0 0c0 13.067215 -12.588226 23.660278 -28.116577 23.660278l0 0c-15.528351 0 -28.116577 -10.593063 -28.116577 -23.660278z" fill-rule="evenodd"/><path fill="#000000" d="m246.3715 239.26689l69.13429 3.5453491l-4.234741 82.77403l-69.13428 -3.5453491z" fill-rule="evenodd"/><path fill="#000000" d="m344.3777 299.79434l10.512939 68.06329l-68.07559 -10.525269z" fill-rule="evenodd"/><path fill="#000000" d="m260.8975 368.86993l-68.46951 -7.447693l27.747269 -62.991486z" fill-rule="evenodd"/><path fill="#000000" d="m235.7862 234.59349l3.2006683 31.809647l-45.991043 4.628662l-3.2006683 -31.809662z" fill-rule="evenodd"/><path fill="#000000" d="m322.75732 232.46567l45.954132 8.764893l-22.195374 41.165436z" fill-rule="evenodd"/></g></svg>