<svg version="1.1" viewBox="0.0 0.0 557.8582677165355 557.8582677165355" fill="none" stroke="none" stroke-linecap="square" stroke-miterlimit="10" xmlns:xlink="http://www.w3.org/1999/xlink" xmlns="http://www.w3.org/2000/svg"><clipPath id="p.0"><path d="m0 0l557.8583 0l0 557.8583l-557.8583 0l0 -557.8583z" clip-rule="nonzero"/></clipPath><g clip-path="url(#p.0)"><path fill="#000000" fill-opacity="0.0" d="m0 0l557.8583 0l0 557.8583l-557.8583 0z" fill-rule="evenodd"/><path fill="#000000" d="m334.36484 230.40945c54.980316 -140.18373 269.40353 0 0 180.2362c-269.40356 -180.2362 -54.980316 -320.41992 0 -180.2362z" fill-rule="evenodd"/><path fill="#000000" d="m298.82187 367.82794c-28.134888 9.170258 -60.45726 24.762726 -75.33502 16.810455c-23.444046 -12.431671 4.378769 -17.223175 0.20132446 -41.371826c-3.4325562 -19.840393 -40.989334 -19.266602 -55.86708 -4.388855c-3.2413025 3.2413025 -5.4155884 7.1670837 -5.9088287 11.727051c-2.1138916 18.642517 11.888107 19.316925 8.224045 22.981018c-1.2985382 1.298523 -4.821686 2.969513 -12.099503 5.959137c-13.045731 5.2948 -35.78514 0.31207275 -58.20244 -5.1941223c-7.851593 -23.55478 -15.300537 -46.28412 -9.482307 -57.397125c1.6609116 -3.1507263 3.1003723 -5.254547 4.398903 -6.55307c7.9522552 -7.95224 10.790909 14.374451 28.930092 13.589294c3.0299072 -0.11071777 5.697441 -1.4897766 7.9623184 -3.7546692c13.418167 -13.418182 12.602814 -58.242706 -11.123085 -58.937256c-27.732224 -0.81536865 -19.266594 22.930664 -32.71496 -3.1607666c-6.9355774 -13.458435 -11.01236 -34.245026 -11.727058 -54.32698c30.379616 4.0667267 66.768715 12.532349 83.99189 5.4961243c6.734253 -2.7681885 10.166794 -4.449234 11.5056 -5.78804c4.1875153 -4.1875153 -11.958572 -5.173996 -11.807587 -26.322952c0.040267944 -5.677307 2.0031586 -10.03595 5.143799 -13.17659c12.290756 -12.290756 42.609985 -5.888687 45.93181 12.874603c4.076782 23.645355 -17.02185 18.853882 4.489502 28.950226c12.230362 5.9088135 40.979248 10.59964 68.19809 11.102951c4.1774597 13.357773 6.41214 26.00084 2.546753 35.5838c-2.6171875 6.3819427 -4.721039 10.136612 -6.7543945 12.169968c-6.764435 6.7644653 -12.733673 -5.606842 -34.134277 -4.117035c-5.103531 0.39257812 -9.109863 2.3655396 -12.079376 5.3350525c-13.216843 13.216827 -6.150406 46.253906 13.820816 48.589264c24.672104 2.8487244 30.379623 -24.460724 44.029312 -1.8320312c6.5329285 10.800964 8.677002 32.714935 7.861664 55.152374z" fill-rule="evenodd"/><path stroke="#ffffff" stroke-width="4.0" stroke-linejoin="round" stroke-linecap="butt" d="m298.82187 367.82794c-28.134888 9.170258 -60.45726 24.762726 -75.33502 16.810455c-23.444046 -12.431671 4.378769 -17.223175 0.20132446 -41.371826c-3.4325562 -19.840393 -40.989334 -19.266602 -55.86708 -4.388855c-3.2413025 3.2413025 -5.4155884 7.1670837 -5.9088287 11.727051c-2.1138916 18.642517 11.888107 19.316925 8.224045 22.981018c-1.2985382 1.298523 -4.821686 2.969513 -12.099503 5.959137c-13.045731 5.2948 -35.78514 0.31207275 -58.20244 -5.1941223c-7.851593 -23.55478 -15.300537 -46.28412 -9.482307 -57.397125c1.6609116 -3.1507263 3.1003723 -5.254547 4.398903 -6.55307c7.9522552 -7.95224 10.790909 14.374451 28.930092 13.589294c3.0299072 -0.11071777 5.697441 -1.4897766 7.9623184 -3.7546692c13.418167 -13.418182 12.602814 -58.242706 -11.123085 -58.937256c-27.732224 -0.81536865 -19.266594 22.930664 -32.71496 -3.1607666c-6.9355774 -13.458435 -11.01236 -34.245026 -11.727058 -54.32698c30.379616 4.0667267 66.768715 12.532349 83.99189 5.4961243c6.734253 -2.7681885 10.166794 -4.449234 11.5056 -5.78804c4.1875153 -4.1875153 -11.958572 -5.173996 -11.807587 -26.322952c0.040267944 -5.677307 2.0031586 -10.03595 5.143799 -13.17659c12.290756 -12.290756 42.609985 -5.888687 45.93181 12.874603c4.076782 23.645355 -17.02185 18.853882 4.489502 28.950226c12.230362 5.9088135 40.979248 10.59964 68.19809 11.102951c4.1774597 13.357773 6.41214 26.00084 2.546753 35.5838c-2.6171875 6.3819427 -4.721039 10.136612 -6.7543945 12.169968c-6.764435 6.7644653 -12.733673 -5.606842 -34.134277 -4.117035c-5.103531 0.39257812 -9.109863 2.3655396 -12.079376 5.3350525c-13.216843 13.216827 -6.150406 46.253906 13.820816 48.589264c24.672104 2.8487244 30.379623 -24.460724 44.029312 -1.8320312c6.5329285 10.800964 8.677002 32.714935 7.861664 55.152374z" fill-rule="evenodd"/><path fill="#ffffff" d="m185.08235 246.85254c9.849075 -26.364838 48.260498 0 0 33.897644c-48.260498 -33.897644 -9.849091 -60.26248 0 -33.897644z" fill-rule="evenodd"/><path fill="#ffffff" d="m393.08234 246.85254c9.849091 -26.364838 48.260498 0 0 33.897644c-48.260498 -33.897644 -9.84906 -60.26248 0 -33.897644z" fill-rule="evenodd"/></g></svg>