<svg version="1.1" viewBox="0.0 0.0 557.8582677165355 557.8582677165355" fill="none" stroke="none" stroke-linecap="square" stroke-miterlimit="10" xmlns:xlink="http://www.w3.org/1999/xlink" xmlns="http://www.w3.org/2000/svg"><clipPath id="p.0"><path d="m0 0l557.8583 0l0 557.8583l-557.8583 0l0 -557.8583z" clip-rule="nonzero"/></clipPath><g clip-path="url(#p.0)"><path fill="#000000" fill-opacity="0.0" d="m0 0l557.8583 0l0 557.8583l-557.8583 0z" fill-rule="evenodd"/><path fill="#ffffff" d="m300.20465 77.384384l-5.338867 77.985916l-11.9841 4.844757l4.0448303 70.13051l-12.657135 6.600769l-5.0374146 112.89177l-27.124817 -98.39229l14.863678 -6.518509l-16.288742 -62.607895l18.406265 -10.360168l-17.326096 -65.769775z" fill-rule="evenodd"/><path stroke="#000000" stroke-width="8.0" stroke-linejoin="round" stroke-linecap="butt" d="m300.20465 77.384384l-5.338867 77.985916l-11.9841 4.844757l4.0448303 70.13051l-12.657135 6.600769l-5.0374146 112.89177l-27.124817 -98.39229l14.863678 -6.518509l-16.288742 -62.607895l18.406265 -10.360168l-17.326096 -65.769775z" fill-rule="evenodd"/><path fill="#ffffff" d="m414.39557 424.54782c1.8381042 -1.2198486 3.0689392 -2.7945557 3.3518372 -4.704651c1.3473816 -9.351044 -6.576172 -10.7838745 -1.0178528 -14.472717c0.86239624 -0.57232666 2.0480042 -1.2041626 3.6419373 -1.917511c4.387268 -1.955719 10.696411 -0.20928955 17.784332 2.587677c2.2875366 -11.637054 5.9766235 -22.542114 9.601074 -27.737762c2.0413208 -2.9220886 3.280365 -4.416107 4.2434998 -5.055298c2.6375122 -1.7503967 3.1990356 2.8804016 12.469574 2.1620178c1.7294617 -0.14019775 3.2954712 -0.73165894 4.6740417 -1.6465454c8.6302185 -5.7275085 9.873291 -24.266998 -2.63031 -25.441925c-4.2182007 -0.41278076 -7.072937 0.6550598 -9.118774 2.0127869c-2.1717224 1.4412842 -3.4365234 3.2107544 -4.456299 3.8875122c-1.3092957 0.8689575 -2.2192993 -0.05142212 -4.138672 -5.744568c-2.5692444 -7.888489 4.8006897 -23.07074 10.99881 -37.122192c-13.841583 3.0802917 -28.341888 7.3814087 -34.18445 4.111023c-10.417358 -5.737213 5.329895 -4.415619 5.4188843 -15.63559c0.06549072 -9.137543 -21.670197 -14.933075 -30.62146 -8.992523c-2.0332336 1.3493652 -3.3998718 3.3069763 -3.7106018 5.9675903c-1.4092407 12.113403 10.488007 10.9263 6.037567 13.879883c-0.8309326 0.55145264 -2.2221985 1.2422485 -4.372925 2.1959534c-7.096466 3.1336365 -20.342285 5.034851 -32.998993 5.0638733c-3.3848877 8.179962 -5.6280823 15.593597 -3.692505 20.587067c2.7224731 6.916992 3.4702454 7.1010437 5.2328186 5.931305c0.3210144 -0.21304321 0.6805115 -0.4774475 1.0896912 -0.7489929c1.7625427 -1.1697388 4.4937744 -2.5603638 9.664001 -1.573761c11.297699 2.268036 8.988281 23.504547 0.60983276 29.064941c-1.202301 0.7979126 -2.5281372 1.2730713 -3.9542542 1.323883c-8.721741 0.23364258 -9.798065 -5.528137 -12.83847 -3.510376c-0.91903687 0.60995483 -2.0198975 1.9433594 -3.5700684 4.3758545c-3.3329773 5.088318 -1.6999512 17.085907 -0.020050049 29.577698c11.8281555 -3.7505798 23.80487 -7.4275513 30.594452 -4.260376c13.884705 6.3985596 -4.6907654 6.075531 -4.2982483 18.99112c0.32913208 10.606628 21.719849 12.480194 30.211578 6.8446045z" fill-rule="evenodd"/><path stroke="#000000" stroke-width="8.0" stroke-linejoin="round" stroke-linecap="butt" d="m414.39557 424.54782c1.8381042 -1.2198486 3.0689392 -2.7945557 3.3518372 -4.704651c1.3473816 -9.351044 -6.576172 -10.7838745 -1.0178528 -14.472717c0.86239624 -0.57232666 2.0480042 -1.2041626 3.6419373 -1.917511c4.387268 -1.955719 10.696411 -0.20928955 17.784332 2.587677c2.2875366 -11.637054 5.9766235 -22.542114 9.601074 -27.737762c2.0413208 -2.9220886 3.280365 -4.416107 4.2434998 -5.055298c2.6375122 -1.7503967 3.1990356 2.8804016 12.469574 2.1620178c1.7294617 -0.14019775 3.2954712 -0.73165894 4.6740417 -1.6465454c8.6302185 -5.7275085 9.873291 -24.266998 -2.63031 -25.441925c-4.2182007 -0.41278076 -7.072937 0.6550598 -9.118774 2.0127869c-2.1717224 1.4412842 -3.4365234 3.2107544 -4.456299 3.8875122c-1.3092957 0.8689575 -2.2192993 -0.05142212 -4.138672 -5.744568c-2.5692444 -7.888489 4.8006897 -23.07074 10.99881 -37.122192c-13.841583 3.0802917 -28.341888 7.3814087 -34.18445 4.111023c-10.417358 -5.737213 5.329895 -4.415619 5.4188843 -15.63559c0.06549072 -9.137543 -21.670197 -14.933075 -30.62146 -8.992523c-2.0332336 1.3493652 -3.3998718 3.3069763 -3.7106018 5.9675903c-1.4092407 12.113403 10.488007 10.9263 6.037567 13.879883c-0.8309326 0.55145264 -2.2221985 1.2422485 -4.372925 2.1959534c-7.096466 3.1336365 -20.342285 5.034851 -32.998993 5.0638733c-3.3848877 8.179962 -5.6280823 15.593597 -3.692505 20.587067c2.7224731 6.916992 3.4702454 7.1010437 5.2328186 5.931305c0.3210144 -0.21304321 0.6805115 -0.4774475 1.0896912 -0.7489929c1.7625427 -1.1697388 4.4937744 -2.5603638 9.664001 -1.573761c11.297699 2.268036 8.988281 23.504547 0.60983276 29.064941c-1.202301 0.7979126 -2.5281372 1.2730713 -3.9542542 1.323883c-8.721741 0.23364258 -9.798065 -5.528137 -12.83847 -3.510376c-0.91903687 0.60995483 -2.0198975 1.9433594 -3.5700684 4.3758545c-3.3329773 5.088318 -1.6999512 17.085907 -0.020050049 29.577698c11.8281555 -3.7505798 23.80487 -7.4275513 30.594452 -4.260376c13.884705 6.3985596 -4.6907654 6.075531 -4.2982483 18.99112c0.32913208 10.606628 21.719849 12.480194 30.211578 6.8446045z" fill-rule="evenodd"/><path fill="#ffffff" d="m182.7929 381.40793c1.0049286 -6.105774 1.1352386 -11.360077 -0.48643494 -14.8506775c-6.5920258 -14.117554 -2.9110565 2.0017395 -17.072662 2.1514893c-8.4157715 0.10015869 -11.669556 -9.026733 -10.372589 -16.90683c0.87609863 -5.3229675 3.818222 -10.076141 8.641342 -11.058685c12.037674 -2.4443054 9.860443 7.2052 15.750946 -4.857605c1.5120697 -3.0896301 2.7928772 -7.955475 3.7401428 -13.710846c0.78897095 -4.79364 1.344284 -10.200073 1.6203461 -15.721344c-12.375046 -3.5914612 -27.072601 -10.038483 -35.970367 -6.0818787c-4.2344055 1.868103 -5.83403 3.0596313 -6.0254517 4.2226562c-0.43804932 2.6614685 6.55278 5.1216125 5.9400177 15.074554c-0.022277832 0.3562317 -0.06578064 0.70895386 -0.1222229 1.0518799c-2.2074127 13.411804 -28.738213 17.092224 -30.68251 5.3554077c-0.35643768 -2.1643982 -0.2855072 -4.0976257 0.0028457642 -5.849579c0.6797714 -4.1301575 2.5793533 -7.232544 3.0223083 -9.923859c0.41841888 -2.5422058 -0.4742279 -4.718292 -4.944008 -7.031433c-4.8756256 -2.5867004 -13.444176 -3.7674255 -22.7277 -3.741211c-0.31674957 2.1454773 -0.6667404 4.3160706 -1.0250244 6.492981c-0.53253174 3.2355347 -1.0875244 6.4750366 -1.6065598 9.628571c-1.8699799 11.361633 -3.228424 21.559387 -1.018219 26.157593c5.356201 10.889557 2.473755 -2.923645 14.499634 -1.7174377c7.4845047 0.7419739 11.515472 11.995331 10.081085 20.710388c-0.85523224 5.1962585 -3.6575623 9.497681 -8.82225 10.125366c-13.843056 1.7489319 -10.926437 -13.276642 -17.218681 0.34332275c-0.42855835 0.92489624 -0.7280731 1.9935303 -0.9243927 3.1863708c-1.4883804 9.043091 3.1702347 25.231415 6.8964767 39.750122c11.356689 -1.0019836 22.657524 -3.8738708 28.422241 -7.572815c3.320671 -2.1487122 4.613571 -3.5974731 4.8283005 -4.90213c0.4822235 -2.9298706 -4.516304 -5.123291 -4.2510757 -12.920532c0.007827759 -0.3126831 0.038124084 -0.62927246 0.08720398 -0.92749023c1.7350082 -10.541595 27.495438 -12.457489 29.543991 0.7666626c0.24407959 1.6098938 0.21627808 3.0601807 3.2043457E-4 4.372284c-1.0417328 6.3294373 -6.48909 9.513977 -6.93573 12.227661c-0.24908447 1.5133972 1.0524902 2.8838806 5.509598 4.567047c6.168289 2.3323975 15.769119 -0.5054016 25.635468 -4.072815c2.247879 -8.267242 4.7639465 -16.926758 5.983612 -24.337189z" fill-rule="evenodd"/><path stroke="#000000" stroke-width="8.0" stroke-linejoin="round" stroke-linecap="butt" d="m182.7929 381.40793c1.0049286 -6.105774 1.1352386 -11.360077 -0.48643494 -14.8506775c-6.5920258 -14.117554 -2.9110565 2.0017395 -17.072662 2.1514893c-8.4157715 0.10015869 -11.669556 -9.026733 -10.372589 -16.90683c0.87609863 -5.3229675 3.818222 -10.076141 8.641342 -11.058685c12.037674 -2.4443054 9.860443 7.2052 15.750946 -4.857605c1.5120697 -3.0896301 2.7928772 -7.955475 3.7401428 -13.710846c0.78897095 -4.79364 1.344284 -10.200073 1.6203461 -15.721344c-12.375046 -3.5914612 -27.072601 -10.038483 -35.970367 -6.0818787c-4.2344055 1.868103 -5.83403 3.0596313 -6.0254517 4.2226562c-0.43804932 2.6614685 6.55278 5.1216125 5.9400177 15.074554c-0.022277832 0.3562317 -0.06578064 0.70895386 -0.1222229 1.0518799c-2.2074127 13.411804 -28.738213 17.092224 -30.68251 5.3554077c-0.35643768 -2.1643982 -0.2855072 -4.0976257 0.0028457642 -5.849579c0.6797714 -4.1301575 2.5793533 -7.232544 3.0223083 -9.923859c0.41841888 -2.5422058 -0.4742279 -4.718292 -4.944008 -7.031433c-4.8756256 -2.5867004 -13.444176 -3.7674255 -22.7277 -3.741211c-0.31674957 2.1454773 -0.6667404 4.3160706 -1.0250244 6.492981c-0.53253174 3.2355347 -1.0875244 6.4750366 -1.6065598 9.628571c-1.8699799 11.361633 -3.228424 21.559387 -1.018219 26.157593c5.356201 10.889557 2.473755 -2.923645 14.499634 -1.7174377c7.4845047 0.7419739 11.515472 11.995331 10.081085 20.710388c-0.85523224 5.1962585 -3.6575623 9.497681 -8.82225 10.125366c-13.843056 1.7489319 -10.926437 -13.276642 -17.218681 0.34332275c-0.42855835 0.92489624 -0.7280731 1.9935303 -0.9243927 3.1863708c-1.4883804 9.043091 3.1702347 25.231415 6.8964767 39.750122c11.356689 -1.0019836 22.657524 -3.8738708 28.422241 -7.572815c3.320671 -2.1487122 4.613571 -3.5974731 4.8283005 -4.90213c0.4822235 -2.9298706 -4.516304 -5.123291 -4.2510757 -12.920532c0.007827759 -0.3126831 0.038124084 -0.62927246 0.08720398 -0.92749023c1.7350082 -10.541595 27.495438 -12.457489 29.543991 0.7666626c0.24407959 1.6098938 0.21627808 3.0601807 3.2043457E-4 4.372284c-1.0417328 6.3294373 -6.48909 9.513977 -6.93573 12.227661c-0.24908447 1.5133972 1.0524902 2.8838806 5.509598 4.567047c6.168289 2.3323975 15.769119 -0.5054016 25.635468 -4.072815c2.247879 -8.267242 4.7639465 -16.926758 5.983612 -24.337189z" fill-rule="evenodd"/><path fill="#000000" fill-opacity="0.0" d="m301.1106 314.76102l-20.745972 24.172058" fill-rule="evenodd"/><path stroke="#000000" stroke-width="4.0" stroke-linejoin="round" stroke-linecap="butt" d="m301.1106 314.76102l-20.745972 24.172058" fill-rule="evenodd"/><path fill="#000000" fill-opacity="0.0" d="m206.56259 336.02197l46.35582 8.686066" fill-rule="evenodd"/><path stroke="#000000" stroke-width="4.0" stroke-linejoin="round" stroke-linecap="butt" d="m206.56259 336.02197l46.35582 8.686066" fill-rule="evenodd"/><path fill="#000000" fill-opacity="0.0" d="m217.6845 405.97293l36.18135 -33.801178" fill-rule="evenodd"/><path stroke="#000000" stroke-width="4.0" stroke-linejoin="round" stroke-linecap="butt" d="m217.6845 405.97293l36.18135 -33.801178" fill-rule="evenodd"/><path fill="#000000" fill-opacity="0.0" d="m283.0331 367.9652l33.600525 17.6203" fill-rule="evenodd"/><path stroke="#000000" stroke-width="4.0" stroke-linejoin="round" stroke-linecap="butt" d="m283.0331 367.9652l33.600525 17.6203" fill-rule="evenodd"/><path fill="#000000" fill-opacity="0.0" d="m226.39865 315.733l25.2128 17.471405" fill-rule="evenodd"/><path stroke="#000000" stroke-width="4.0" stroke-linejoin="round" stroke-linecap="butt" d="m226.39865 315.733l25.2128 17.471405" fill-rule="evenodd"/><path fill="#000000" fill-opacity="0.0" d="m310.3966 347.6729l-30.027039 3.9211426" fill-rule="evenodd"/><path stroke="#000000" stroke-width="4.0" stroke-linejoin="round" stroke-linecap="butt" d="m310.3966 347.6729l-30.027039 3.9211426" fill-rule="evenodd"/><path fill="#000000" fill-opacity="0.0" d="m274.91342 413.73663l-4.863861 -44.62155" fill-rule="evenodd"/><path stroke="#000000" stroke-width="4.0" stroke-linejoin="round" stroke-linecap="butt" d="m274.91342 413.73663l-4.863861 -44.62155" fill-rule="evenodd"/><path fill="#000000" fill-opacity="0.0" d="m215.30266 369.99857l35.883575 -11.664154" fill-rule="evenodd"/><path stroke="#000000" stroke-width="4.0" stroke-linejoin="round" stroke-linecap="butt" d="m215.30266 369.99857l35.883575 -11.664154" fill-rule="evenodd"/><path fill="#000000" fill-opacity="0.0" d="m256.0005 395.39896l-3.1268005 27.348694" fill-rule="evenodd"/><path stroke="#000000" stroke-width="4.0" stroke-linejoin="round" stroke-linecap="butt" d="m256.0005 395.39896l-3.1268005 27.348694" fill-rule="evenodd"/><path fill="#000000" fill-opacity="0.0" d="m293.72604 396.42517l7.6850586 8.126007" fill-rule="evenodd"/><path stroke="#000000" stroke-width="4.0" stroke-linejoin="round" stroke-linecap="butt" d="m293.72604 396.42517l7.6850586 8.126007" fill-rule="evenodd"/></g></svg>