<svg version="1.1" viewBox="0.0 0.0 557.8582677165355 557.8582677165355" fill="none" stroke="none" stroke-linecap="square" stroke-miterlimit="10" xmlns:xlink="http://www.w3.org/1999/xlink" xmlns="http://www.w3.org/2000/svg"><clipPath id="p.0"><path d="m0 0l557.8583 0l0 557.8583l-557.8583 0l0 -557.8583z" clip-rule="nonzero"/></clipPath><g clip-path="url(#p.0)"><path fill="#000000" fill-opacity="0.0" d="m0 0l557.8583 0l0 557.8583l-557.8583 0z" fill-rule="evenodd"/><path fill="#000000" fill-opacity="0.0" d="m366.6255 287.4084l-11.59079 13.505615" fill-rule="evenodd"/><path stroke="#000000" stroke-width="2.0" stroke-linejoin="round" stroke-linecap="butt" d="m366.6255 287.4084l-11.59079 13.505615" fill-rule="evenodd"/><path fill="#000000" fill-opacity="0.0" d="m313.80148 299.28748l25.899017 4.8531494" fill-rule="evenodd"/><path stroke="#000000" stroke-width="2.0" stroke-linejoin="round" stroke-linecap="butt" d="m313.80148 299.28748l25.899017 4.8531494" fill-rule="evenodd"/><path fill="#000000" fill-opacity="0.0" d="m324.34317 338.37106l15.916534 -15.807404" fill-rule="evenodd"/><path stroke="#000000" stroke-width="2.0" stroke-linejoin="round" stroke-linecap="butt" d="m324.34317 338.37106l15.916534 -15.807404" fill-rule="evenodd"/><path fill="#000000" fill-opacity="0.0" d="m356.5256 317.13507l18.772614 9.844971" fill-rule="evenodd"/><path stroke="#000000" stroke-width="2.0" stroke-linejoin="round" stroke-linecap="butt" d="m356.5256 317.13507l18.772614 9.844971" fill-rule="evenodd"/><path fill="#000000" fill-opacity="0.0" d="m324.8839 287.95148l14.086395 9.761749" fill-rule="evenodd"/><path stroke="#000000" stroke-width="2.0" stroke-linejoin="round" stroke-linecap="butt" d="m324.8839 287.95148l14.086395 9.761749" fill-rule="evenodd"/><path fill="#000000" fill-opacity="0.0" d="m351.20853 279.77045l-3.2165833 21.159729" fill-rule="evenodd"/><path stroke="#000000" stroke-width="2.0" stroke-linejoin="round" stroke-linecap="butt" d="m351.20853 279.77045l-3.2165833 21.159729" fill-rule="evenodd"/><path fill="#000000" fill-opacity="0.0" d="m371.8136 305.7972l-16.776123 2.1908264" fill-rule="evenodd"/><path stroke="#000000" stroke-width="2.0" stroke-linejoin="round" stroke-linecap="butt" d="m371.8136 305.7972l-16.776123 2.1908264" fill-rule="evenodd"/><path fill="#000000" fill-opacity="0.0" d="m351.98914 342.70886l-2.7174683 -24.931305" fill-rule="evenodd"/><path stroke="#000000" stroke-width="2.0" stroke-linejoin="round" stroke-linecap="butt" d="m351.98914 342.70886l-2.7174683 -24.931305" fill-rule="evenodd"/><path fill="#000000" fill-opacity="0.0" d="m318.68457 318.27118l20.048157 -6.51709" fill-rule="evenodd"/><path stroke="#000000" stroke-width="2.0" stroke-linejoin="round" stroke-linecap="butt" d="m318.68457 318.27118l20.048157 -6.51709" fill-rule="evenodd"/><path fill="#ffffff" d="m366.11646 154.77654l-2.982605 43.570786l-6.6957703 2.7068787l2.2602234 39.181885l-7.071808 3.687973l-2.8140259 63.072678l-15.15564 -54.971497l8.304626 -3.642044l-9.101135 -34.97888l10.283936 -5.7884064l-9.680756 -36.745407z" fill-rule="evenodd"/><path stroke="#000000" stroke-width="4.0" stroke-linejoin="round" stroke-linecap="butt" d="m366.11646 154.77654l-2.982605 43.570786l-6.6957703 2.7068787l2.2602234 39.181885l-7.071808 3.687973l-2.8140259 63.072678l-15.15564 -54.971497l8.304626 -3.642044l-9.101135 -34.97888l10.283936 -5.7884064l-9.680756 -36.745407z" fill-rule="evenodd"/><path fill="#ffffff" d="m152.37463 280.93423c-6.3556824 -2.5830688 -12.315842 -4.7235413 -15.261047 -3.232605c-2.743988 1.4111023 -3.052002 2.6459656 -2.4947052 4.05072c0.52305603 1.3184509 1.8039093 2.7858276 2.5604706 4.69281c0.37982178 0.957428 0.6255493 2.022583 0.58032227 3.2349243c-0.24497986 5.7967834 -15.07309 7.7650146 -17.47818 1.7026062c-0.15411377 -0.38845825 -0.25855255 -0.81481934 -0.30275726 -1.2741394c-0.5840912 -5.744873 3.8095474 -8.096588 2.7385483 -10.796204c-0.3378067 -0.85150146 -1.2180328 -1.7330017 -2.9663467 -2.7696838c-3.0798264 -1.8163452 -8.278229 -0.72125244 -13.803604 0.87597656c0.2609787 7.485321 -0.6218796 15.28363 -2.852806 19.020813c-3.8575897 6.4534607 -2.091301 -1.4228821 -8.259407 -1.228302c-4.563011 0.15270996 -6.917465 8.970886 -4.8563995 14.166107c0.74253845 1.8717041 2.062172 3.2737427 4.053131 3.6282654c7.102295 1.3013306 7.5074844 -8.505554 9.864319 -2.5647888c0.14321136 0.36099243 0.2948761 0.7867737 0.45497894 1.2773132c1.3783417 4.2353516 -0.96240234 11.326843 -3.2007904 18.241455c6.393524 -1.3876038 12.813606 -2.5995483 16.505005 -0.8941345c2.461975 1.1395569 3.4105453 1.6715393 3.5786667 2.0953064c0.36893463 0.92996216 -3.0345078 1.3310852 -2.4897614 6.487549c0.053260803 0.5147705 0.17887878 1.0053711 0.3641281 1.4723206c2.4922638 6.282135 16.04802 7.9341736 17.131363 1.3370056c0.31311035 -1.8091125 0.02633667 -3.2712402 -0.4593506 -4.4954834c-0.6413574 -1.6166382 -1.6306 -2.827301 -2.057129 -3.9024658c-0.51683044 -1.3027344 -0.21739197 -2.407013 2.491211 -3.7768555c4.257126 -2.1522217 13.379669 2.784607 21.37999 5.773346c-0.2443695 -6.6062927 -1.3202362 -13.427704 -2.9532013 -17.543854c-0.1385498 -0.34921265 -0.2783203 -0.67977905 -0.42521667 -0.98483276c-3.5663605 -7.5545044 -0.8820801 1.9621887 -8.838028 1.3901062c-2.0277557 -0.15374756 -3.3544617 -1.475769 -4.1032257 -3.3631592c-2.1980438 -5.5405273 0.57159424 -15.9539795 5.1982727 -16.109253c6.1935425 -0.25009155 5.731079 8.716644 8.719543 2.7033691c1.7111816 -3.3947144 -0.88453674 -11.470551 -2.8179932 -19.214233z" fill-rule="evenodd"/><path stroke="#000000" stroke-width="4.0" stroke-linejoin="round" stroke-linecap="butt" d="m152.37463 280.93423c-6.3556824 -2.5830688 -12.315842 -4.7235413 -15.261047 -3.232605c-2.743988 1.4111023 -3.052002 2.6459656 -2.4947052 4.05072c0.52305603 1.3184509 1.8039093 2.7858276 2.5604706 4.69281c0.37982178 0.957428 0.6255493 2.022583 0.58032227 3.2349243c-0.24497986 5.7967834 -15.07309 7.7650146 -17.47818 1.7026062c-0.15411377 -0.38845825 -0.25855255 -0.81481934 -0.30275726 -1.2741394c-0.5840912 -5.744873 3.8095474 -8.096588 2.7385483 -10.796204c-0.3378067 -0.85150146 -1.2180328 -1.7330017 -2.9663467 -2.7696838c-3.0798264 -1.8163452 -8.278229 -0.72125244 -13.803604 0.87597656c0.2609787 7.485321 -0.6218796 15.28363 -2.852806 19.020813c-3.8575897 6.4534607 -2.091301 -1.4228821 -8.259407 -1.228302c-4.563011 0.15270996 -6.917465 8.970886 -4.8563995 14.166107c0.74253845 1.8717041 2.062172 3.2737427 4.053131 3.6282654c7.102295 1.3013306 7.5074844 -8.505554 9.864319 -2.5647888c0.14321136 0.36099243 0.2948761 0.7867737 0.45497894 1.2773132c1.3783417 4.2353516 -0.96240234 11.326843 -3.2007904 18.241455c6.393524 -1.3876038 12.813606 -2.5995483 16.505005 -0.8941345c2.461975 1.1395569 3.4105453 1.6715393 3.5786667 2.0953064c0.36893463 0.92996216 -3.0345078 1.3310852 -2.4897614 6.487549c0.053260803 0.5147705 0.17887878 1.0053711 0.3641281 1.4723206c2.4922638 6.282135 16.04802 7.9341736 17.131363 1.3370056c0.31311035 -1.8091125 0.02633667 -3.2712402 -0.4593506 -4.4954834c-0.6413574 -1.6166382 -1.6306 -2.827301 -2.057129 -3.9024658c-0.51683044 -1.3027344 -0.21739197 -2.407013 2.491211 -3.7768555c4.257126 -2.1522217 13.379669 2.784607 21.37999 5.773346c-0.2443695 -6.6062927 -1.3202362 -13.427704 -2.9532013 -17.543854c-0.1385498 -0.34921265 -0.2783203 -0.67977905 -0.42521667 -0.98483276c-3.5663605 -7.5545044 -0.8820801 1.9621887 -8.838028 1.3901062c-2.0277557 -0.15374756 -3.3544617 -1.475769 -4.1032257 -3.3631592c-2.1980438 -5.5405273 0.57159424 -15.9539795 5.1982727 -16.109253c6.1935425 -0.25009155 5.731079 8.716644 8.719543 2.7033691c1.7111816 -3.3947144 -0.88453674 -11.470551 -2.8179932 -19.214233z" fill-rule="evenodd"/><path fill="#ffffff" d="m429.9152 348.74237c1.0269775 -0.6815796 1.7146912 -1.5614014 1.8727417 -2.628601c0.75283813 -5.2246094 -3.6742554 -6.025177 -0.56866455 -8.086212c0.48181152 -0.31976318 1.1442566 -0.6727905 2.0348206 -1.0713501c2.451233 -1.0927124 5.9763184 -0.11694336 9.936493 1.4457703c1.2780762 -6.5018616 3.339264 -12.594757 5.364319 -15.497681c1.1405334 -1.6326294 1.8328247 -2.4673767 2.3709412 -2.8244934c1.4736328 -0.9779968 1.7873535 1.6093445 6.9670105 1.2079468c0.9662781 -0.078308105 1.8412476 -0.40878296 2.6114807 -0.9199524c4.8218994 -3.2000732 5.5164185 -13.558502 -1.4696045 -14.214935c-2.356781 -0.23065186 -3.9518127 0.3659973 -5.0948486 1.1245728c-1.2133789 0.80526733 -1.9200745 1.7939148 -2.4898376 2.172058c-0.73153687 0.48547363 -1.2399597 -0.028747559 -2.312378 -3.2096252c-1.4354858 -4.4074707 2.682251 -12.890137 6.145294 -20.740997c-7.733612 1.7210388 -15.835236 4.124176 -19.099579 2.296936c-5.8204346 -3.2055054 2.9779053 -2.467102 3.0276184 -8.735962c0.036590576 -5.1053467 -12.107605 -8.343414 -17.108856 -5.024292c-1.1360168 0.75390625 -1.8995972 1.8476868 -2.0732117 3.334198c-0.7873535 6.768036 5.859894 6.104767 3.3733215 7.755005c-0.4642334 0.30810547 -1.2415771 0.6940613 -2.4432373 1.2269287c-3.9649353 1.750824 -11.365692 2.8130798 -18.437256 2.8292847c-1.8912048 4.570343 -3.1445312 8.712494 -2.0630798 11.502441c1.5211182 3.864685 1.9389038 3.9675293 2.9236755 3.3139648c0.17938232 -0.11904907 0.38024902 -0.26678467 0.6088562 -0.41848755c0.9847717 -0.65356445 2.5107727 -1.430542 5.399475 -0.87927246c6.3122864 1.2671814 5.021942 13.132477 0.34072876 16.239197c-0.6717529 0.44580078 -1.4125366 0.7112732 -2.20932 0.73968506c-4.873047 0.13052368 -5.4743958 -3.0887146 -7.173126 -1.9613342c-0.51348877 0.3407898 -1.1285706 1.0857849 -1.99469 2.4448853c-1.8622131 2.8429565 -0.9497986 9.546265 -0.011199951 16.525696c6.6086426 -2.09552 13.300293 -4.149933 17.09378 -2.380371c7.7576904 3.5750122 -2.620819 3.3945312 -2.4015198 10.610748c0.18389893 5.926178 12.135345 6.9729614 16.879852 3.8242493z" fill-rule="evenodd"/><path stroke="#000000" stroke-width="4.0" stroke-linejoin="round" stroke-linecap="butt" d="m429.9152 348.74237c1.0269775 -0.6815796 1.7146912 -1.5614014 1.8727417 -2.628601c0.75283813 -5.2246094 -3.6742554 -6.025177 -0.56866455 -8.086212c0.48181152 -0.31976318 1.1442566 -0.6727905 2.0348206 -1.0713501c2.451233 -1.0927124 5.9763184 -0.11694336 9.936493 1.4457703c1.2780762 -6.5018616 3.339264 -12.594757 5.364319 -15.497681c1.1405334 -1.6326294 1.8328247 -2.4673767 2.3709412 -2.8244934c1.4736328 -0.9779968 1.7873535 1.6093445 6.9670105 1.2079468c0.9662781 -0.078308105 1.8412476 -0.40878296 2.6114807 -0.9199524c4.8218994 -3.2000732 5.5164185 -13.558502 -1.4696045 -14.214935c-2.356781 -0.23065186 -3.9518127 0.3659973 -5.0948486 1.1245728c-1.2133789 0.80526733 -1.9200745 1.7939148 -2.4898376 2.172058c-0.73153687 0.48547363 -1.2399597 -0.028747559 -2.312378 -3.2096252c-1.4354858 -4.4074707 2.682251 -12.890137 6.145294 -20.740997c-7.733612 1.7210388 -15.835236 4.124176 -19.099579 2.296936c-5.8204346 -3.2055054 2.9779053 -2.467102 3.0276184 -8.735962c0.036590576 -5.1053467 -12.107605 -8.343414 -17.108856 -5.024292c-1.1360168 0.75390625 -1.8995972 1.8476868 -2.0732117 3.334198c-0.7873535 6.768036 5.859894 6.104767 3.3733215 7.755005c-0.4642334 0.30810547 -1.2415771 0.6940613 -2.4432373 1.2269287c-3.9649353 1.750824 -11.365692 2.8130798 -18.437256 2.8292847c-1.8912048 4.570343 -3.1445312 8.712494 -2.0630798 11.502441c1.5211182 3.864685 1.9389038 3.9675293 2.9236755 3.3139648c0.17938232 -0.11904907 0.38024902 -0.26678467 0.6088562 -0.41848755c0.9847717 -0.65356445 2.5107727 -1.430542 5.399475 -0.87927246c6.3122864 1.2671814 5.021942 13.132477 0.34072876 16.239197c-0.6717529 0.44580078 -1.4125366 0.7112732 -2.20932 0.73968506c-4.873047 0.13052368 -5.4743958 -3.0887146 -7.173126 -1.9613342c-0.51348877 0.3407898 -1.1285706 1.0857849 -1.99469 2.4448853c-1.8622131 2.8429565 -0.9497986 9.546265 -0.011199951 16.525696c6.6086426 -2.09552 13.300293 -4.149933 17.09378 -2.380371c7.7576904 3.5750122 -2.620819 3.3945312 -2.4015198 10.610748c0.18389893 5.926178 12.135345 6.9729614 16.879852 3.8242493z" fill-rule="evenodd"/><path fill="#ffffff" d="m240.3107 312.73154c-0.23937988 -4.155182 -1.8326263 -8.10968 -4.5269012 -8.520966c-5.8671722 -0.9049072 -8.646347 6.620758 -11.381226 -0.629364c-0.18449402 -0.48406982 -0.2878723 -1.023529 -0.32209778 -1.6177368c-0.19665527 -3.4134827 1.923172 -8.512207 4.344986 -13.945465l0 0c-5.7237244 0.888031 -11.262985 1.4229431 -14.42807 -0.53829956c-1.9112549 -1.1794434 -2.649231 -1.9994507 -2.6900177 -2.707428c-0.114105225 -1.9806519 5.252777 -3.0679932 5.2807617 -8.786072c9.613037E-4 -0.122680664 -0.0020751953 -0.24511719 -0.009109497 -0.3673401c-0.42826843 -7.4338074 -15.146637 -8.898254 -16.277405 -2.803711c-0.15168762 0.7825012 -0.1876831 1.4822388 -0.15150452 2.110138c0.13960266 2.4231567 1.368103 3.8110657 1.4346313 4.9657288c0.0526886 0.91448975 -0.62579346 1.6850586 -3.1612244 2.7064514c-3.4549408 1.4421997 -9.901596 1.7715149 -16.240707 1.109436c0.18360901 2.0020447 0.35180664 3.9457397 0.45596313 5.7536316c0.2522583 4.37854 0.14118958 7.957733 -0.91189575 9.684326c-3.570816 5.7743225 -2.1105804 -2.060089 -8.898682 -2.0112915c-4.5801086 0.03567505 -8.413483 6.3409424 -8.14473 11.0060425c0.13208008 2.292511 1.2531433 4.185547 3.7633057 4.7469482c7.621338 1.657898 7.969879 -7.1398926 10.484421 1.2349548c0.17553711 0.60717773 0.2829132 1.2859497 0.32588196 2.0318604c0.17845154 3.097412 -0.71139526 7.3092346 -1.9326019 11.764221c5.3328857 0.7623596 10.301926 2.3194275 12.983307 4.3888855c1.6676941 1.2738037 2.2979736 2.176117 2.344345 2.981018c0.10827637 1.8795166 -2.9947815 3.2253723 -3.4829102 7.5789185c-0.020599365 0.19989014 -0.02520752 0.39889526 -0.013793945 0.59695435c0.34547424 5.996765 14.97525 11.639526 16.411469 3.8065186c0.18844604 -1.0509949 0.23582458 -1.9712219 0.18969727 -2.7719421c-0.16946411 -2.9414673 -1.5600281 -4.353882 -1.6177979 -5.356842c-0.047836304 -0.8302002 0.8076172 -1.3868713 4.0002136 -2.2939148c3.482132 -0.97024536 8.634354 -1.1826477 13.905121 -0.80148315l0 0c-0.5028839 -2.6643677 -0.9298248 -5.265442 -1.0635986 -7.5874634c-0.16194153 -2.810852 0.10115051 -5.214905 1.1675873 -6.8492737c4.5448456 -7.2003784 5.6378326 1.1760559 12.919113 1.1834106c3.9211273 0.027679443 5.526062 -5.155548 5.243469 -10.060852z" fill-rule="evenodd"/><path stroke="#000000" stroke-width="4.0" stroke-linejoin="round" stroke-linecap="butt" d="m240.3107 312.73154c-0.23937988 -4.155182 -1.8326263 -8.10968 -4.5269012 -8.520966c-5.8671722 -0.9049072 -8.646347 6.620758 -11.381226 -0.629364c-0.18449402 -0.48406982 -0.2878723 -1.023529 -0.32209778 -1.6177368c-0.19665527 -3.4134827 1.923172 -8.512207 4.344986 -13.945465l0 0c-5.7237244 0.888031 -11.262985 1.4229431 -14.42807 -0.53829956c-1.9112549 -1.1794434 -2.649231 -1.9994507 -2.6900177 -2.707428c-0.114105225 -1.9806519 5.252777 -3.0679932 5.2807617 -8.786072c9.613037E-4 -0.122680664 -0.0020751953 -0.24511719 -0.009109497 -0.3673401c-0.42826843 -7.4338074 -15.146637 -8.898254 -16.277405 -2.803711c-0.15168762 0.7825012 -0.1876831 1.4822388 -0.15150452 2.110138c0.13960266 2.4231567 1.368103 3.8110657 1.4346313 4.9657288c0.0526886 0.91448975 -0.62579346 1.6850586 -3.1612244 2.7064514c-3.4549408 1.4421997 -9.901596 1.7715149 -16.240707 1.109436c0.18360901 2.0020447 0.35180664 3.9457397 0.45596313 5.7536316c0.2522583 4.37854 0.14118958 7.957733 -0.91189575 9.684326c-3.570816 5.7743225 -2.1105804 -2.060089 -8.898682 -2.0112915c-4.5801086 0.03567505 -8.413483 6.3409424 -8.14473 11.0060425c0.13208008 2.292511 1.2531433 4.185547 3.7633057 4.7469482c7.621338 1.657898 7.969879 -7.1398926 10.484421 1.2349548c0.17553711 0.60717773 0.2829132 1.2859497 0.32588196 2.0318604c0.17845154 3.097412 -0.71139526 7.3092346 -1.9326019 11.764221c5.3328857 0.7623596 10.301926 2.3194275 12.983307 4.3888855c1.6676941 1.2738037 2.2979736 2.176117 2.344345 2.981018c0.10827637 1.8795166 -2.9947815 3.2253723 -3.4829102 7.5789185c-0.020599365 0.19989014 -0.02520752 0.39889526 -0.013793945 0.59695435c0.34547424 5.996765 14.97525 11.639526 16.411469 3.8065186c0.18844604 -1.0509949 0.23582458 -1.9712219 0.18969727 -2.7719421c-0.16946411 -2.9414673 -1.5600281 -4.353882 -1.6177979 -5.356842c-0.047836304 -0.8302002 0.8076172 -1.3868713 4.0002136 -2.2939148c3.482132 -0.97024536 8.634354 -1.1826477 13.905121 -0.80148315l0 0c-0.5028839 -2.6643677 -0.9298248 -5.265442 -1.0635986 -7.5874634c-0.16194153 -2.810852 0.10115051 -5.214905 1.1675873 -6.8492737c4.5448456 -7.2003784 5.6378326 1.1760559 12.919113 1.1834106c3.9211273 0.027679443 5.526062 -5.155548 5.243469 -10.060852z" fill-rule="evenodd"/><path fill="#ffffff" d="m300.51376 324.63916c0.5614929 -3.4114075 0.63427734 -6.347107 -0.27175903 -8.297394c-3.6831055 -7.8877563 -1.6264648 1.1184082 -9.538879 1.2020874c-4.7020874 0.05596924 -6.5200195 -5.0434265 -5.7953796 -9.4461975c0.48947144 -2.97406 2.1333008 -5.6297607 4.8280945 -6.1787415c6.725708 -1.3656616 5.509247 4.025696 8.800415 -2.7140503c0.8448181 -1.7262268 1.5604248 -4.4448853 2.0896912 -7.6605225c0.4407959 -2.6783447 0.7510681 -5.699005 0.90530396 -8.7838745c-6.914215 -2.0066223 -15.126038 -5.6087036 -20.097412 -3.3980713c-2.3658447 1.0437317 -3.259613 1.7094727 -3.3665466 2.3592834c-0.24475098 1.48703 3.6611633 2.8615417 3.3188171 8.422485c-0.012451172 0.19903564 -0.03677368 0.39608765 -0.06829834 0.5877075c-1.2333374 7.493469 -16.056671 9.549805 -17.142975 2.9921875c-0.19915771 -1.2092896 -0.15951538 -2.2894287 0.0015869141 -3.2683105c0.37979126 -2.3075867 1.4411316 -4.0409546 1.6886292 -5.5446777c0.23376465 -1.4203796 -0.2649536 -2.6362 -2.762329 -3.9285889c-2.724121 -1.4452515 -7.511551 -2.10495 -12.698456 -2.0903015c-0.17697144 1.1987305 -0.37251282 2.411499 -0.57270813 3.627777c-0.29753113 1.8077698 -0.60762024 3.6177368 -0.8976135 5.379669c-1.0447998 6.3480225 -1.8037872 12.045715 -0.56889343 14.614838c2.9926147 6.0842285 1.3821259 -1.6335144 8.101257 -0.9595642c4.181732 0.41455078 6.4339294 6.7020264 5.6325073 11.57132c-0.47784424 2.9032593 -2.0435486 5.3065796 -4.9291687 5.657257c-7.734421 0.97717285 -6.104843 -7.417938 -9.620453 0.1918335c-0.23945618 0.51675415 -0.40679932 1.1138306 -0.5164795 1.7802734c-0.83158875 5.052582 1.7712708 14.097351 3.8532104 22.20929c6.345215 -0.559845 12.659241 -2.1644287 15.880127 -4.2311096c1.8553162 -1.200531 2.5776978 -2.0099792 2.6976624 -2.738922c0.2694397 -1.6369934 -2.523346 -2.8625183 -2.3751526 -7.218994c0.0043640137 -0.17468262 0.02130127 -0.35159302 0.048706055 -0.5181885c0.96939087 -5.8898315 15.362305 -6.9602966 16.506866 0.42834473c0.13638306 0.8994751 0.12084961 1.7097778 1.8310547E-4 2.442871c-0.58203125 3.5364075 -3.6255798 5.315674 -3.8751526 6.8318787c-0.13916016 0.84555054 0.58807373 1.6112671 3.0783386 2.5516968c3.44635 1.3031616 8.810547 -0.28237915 14.32309 -2.2755737c1.2559509 -4.6190796 2.6617126 -9.457336 3.3431702 -13.597717z" fill-rule="evenodd"/><path stroke="#000000" stroke-width="4.0" stroke-linejoin="round" stroke-linecap="butt" d="m300.51376 324.63916c0.5614929 -3.4114075 0.63427734 -6.347107 -0.27175903 -8.297394c-3.6831055 -7.8877563 -1.6264648 1.1184082 -9.538879 1.2020874c-4.7020874 0.05596924 -6.5200195 -5.0434265 -5.7953796 -9.4461975c0.48947144 -2.97406 2.1333008 -5.6297607 4.8280945 -6.1787415c6.725708 -1.3656616 5.509247 4.025696 8.800415 -2.7140503c0.8448181 -1.7262268 1.5604248 -4.4448853 2.0896912 -7.6605225c0.4407959 -2.6783447 0.7510681 -5.699005 0.90530396 -8.7838745c-6.914215 -2.0066223 -15.126038 -5.6087036 -20.097412 -3.3980713c-2.3658447 1.0437317 -3.259613 1.7094727 -3.3665466 2.3592834c-0.24475098 1.48703 3.6611633 2.8615417 3.3188171 8.422485c-0.012451172 0.19903564 -0.03677368 0.39608765 -0.06829834 0.5877075c-1.2333374 7.493469 -16.056671 9.549805 -17.142975 2.9921875c-0.19915771 -1.2092896 -0.15951538 -2.2894287 0.0015869141 -3.2683105c0.37979126 -2.3075867 1.4411316 -4.0409546 1.6886292 -5.5446777c0.23376465 -1.4203796 -0.2649536 -2.6362 -2.762329 -3.9285889c-2.724121 -1.4452515 -7.511551 -2.10495 -12.698456 -2.0903015c-0.17697144 1.1987305 -0.37251282 2.411499 -0.57270813 3.627777c-0.29753113 1.8077698 -0.60762024 3.6177368 -0.8976135 5.379669c-1.0447998 6.3480225 -1.8037872 12.045715 -0.56889343 14.614838c2.9926147 6.0842285 1.3821259 -1.6335144 8.101257 -0.9595642c4.181732 0.41455078 6.4339294 6.7020264 5.6325073 11.57132c-0.47784424 2.9032593 -2.0435486 5.3065796 -4.9291687 5.657257c-7.734421 0.97717285 -6.104843 -7.417938 -9.620453 0.1918335c-0.23945618 0.51675415 -0.40679932 1.1138306 -0.5164795 1.7802734c-0.83158875 5.052582 1.7712708 14.097351 3.8532104 22.20929c6.345215 -0.559845 12.659241 -2.1644287 15.880127 -4.2311096c1.8553162 -1.200531 2.5776978 -2.0099792 2.6976624 -2.738922c0.2694397 -1.6369934 -2.523346 -2.8625183 -2.3751526 -7.218994c0.0043640137 -0.17468262 0.02130127 -0.35159302 0.048706055 -0.5181885c0.96939087 -5.8898315 15.362305 -6.9602966 16.506866 0.42834473c0.13638306 0.8994751 0.12084961 1.7097778 1.8310547E-4 2.442871c-0.58203125 3.5364075 -3.6255798 5.315674 -3.8751526 6.8318787c-0.13916016 0.84555054 0.58807373 1.6112671 3.0783386 2.5516968c3.44635 1.3031616 8.810547 -0.28237915 14.32309 -2.2755737c1.2559509 -4.6190796 2.6617126 -9.457336 3.3431702 -13.597717z" fill-rule="evenodd"/></g></svg>