<svg version="1.1" viewBox="0.0 0.0 557.8582677165355 557.8582677165355" fill="none" stroke="none" stroke-linecap="square" stroke-miterlimit="10" xmlns:xlink="http://www.w3.org/1999/xlink" xmlns="http://www.w3.org/2000/svg"><clipPath id="p.0"><path d="m0 0l557.8583 0l0 557.8583l-557.8583 0l0 -557.8583z" clip-rule="nonzero"/></clipPath><g clip-path="url(#p.0)"><path fill="#000000" fill-opacity="0.0" d="m0 0l557.8583 0l0 557.8583l-557.8583 0z" fill-rule="evenodd"/><path fill="#000000" d="m322.82187 337.67056c-28.134888 9.170258 -60.457275 24.762726 -75.33502 16.810455c-23.444046 -12.431671 4.378769 -17.223175 0.20132446 -41.371826c-3.4325562 -19.840363 -40.989334 -19.266602 -55.86708 -4.388855c-3.2413025 3.2413025 -5.4155884 7.1671143 -5.9088287 11.727051c-2.1138916 18.642517 11.888107 19.316925 8.224045 22.981018c-1.2985382 1.298523 -4.821686 2.969513 -12.099503 5.959137c-13.045731 5.2948 -35.78514 0.31207275 -58.20244 -5.1941223c-7.851593 -23.55478 -15.300537 -46.28412 -9.482307 -57.397125c1.6609116 -3.1506958 3.1003723 -5.254547 4.398903 -6.55307c7.9522552 -7.95224 10.790909 14.374451 28.9301 13.589294c3.0299072 -0.11071777 5.6974335 -1.4897766 7.962311 -3.7546692c13.418167 -13.418182 12.602814 -58.24269 -11.123077 -58.937256c-27.732231 -0.81536865 -19.266602 22.930664 -32.714966 -3.1607666c-6.9355774 -13.458435 -11.01236 -34.245026 -11.727058 -54.32698c30.379616 4.0667267 66.768715 12.532349 83.99189 5.4961243c6.734253 -2.7681885 10.166794 -4.449234 11.5056 -5.78804c4.1875153 -4.1875153 -11.958572 -5.173996 -11.807587 -26.322952c0.040267944 -5.677307 2.0031586 -10.03595 5.143799 -13.17659c12.290756 -12.290756 42.609985 -5.888687 45.93181 12.874603c4.076782 23.64537 -17.02185 18.853882 4.489502 28.950226c12.230362 5.9088287 40.979248 10.59964 68.19809 11.102951c4.1774597 13.357773 6.41214 26.00084 2.546753 35.583817c-2.6171875 6.3819275 -4.721039 10.136597 -6.7543945 12.169952c-6.764435 6.76445 -12.733673 -5.606827 -34.134277 -4.11705c-5.103546 0.39257812 -9.109863 2.3655548 -12.079376 5.3350677c-13.216843 13.216843 -6.150406 46.253906 13.820831 48.589264c24.672089 2.8487244 30.379608 -24.460724 44.029297 -1.8320312c6.5329285 10.800964 8.677002 32.714935 7.861664 55.152374z" fill-rule="evenodd"/><path fill="#ffffff" d="m291.0526 194.58434l52.078766 0l0 -13.236221l26.472412 26.472443l-26.472412 26.472443l0 -13.236221l-52.078766 0z" fill-rule="evenodd"/><path stroke="#000000" stroke-width="4.0" stroke-linejoin="round" stroke-linecap="butt" d="m291.0526 194.58434l52.078766 0l0 -13.236221l26.472412 26.472443l-26.472412 26.472443l0 -13.236221l-52.078766 0z" fill-rule="evenodd"/><path fill="#ffffff" d="m185.49887 229.19225l18.263031 0l0 -18.263031l11.6944275 0l0 18.263031l18.263016 0l0 10.46608l-18.263016 0l0 18.263031l-11.6944275 0l0 -18.263031l-18.263031 0z" fill-rule="evenodd"/><path fill="#ffffff" d="m336.93423 405.48364c-2.5830688 6.3556824 -4.7235413 12.315826 -3.232605 15.261047c1.4111023 2.7439575 2.6459656 3.052002 4.05072 2.49469c1.3184509 -0.5230408 2.7858276 -1.803894 4.69281 -2.5604553c0.957428 -0.37982178 2.022583 -0.6255493 3.2349243 -0.58032227c5.7967834 0.2449646 7.7650146 15.07309 1.7026062 17.47818c-0.38845825 0.15411377 -0.81481934 0.25854492 -1.2741394 0.3027649c-5.744873 0.5840759 -8.096588 -3.8095703 -10.796204 -2.738556c-0.85150146 0.33779907 -1.7330017 1.2180176 -2.7696838 2.966339c-1.8163452 3.079834 -0.72125244 8.278229 0.87597656 13.803619c7.485321 -0.26098633 15.28363 0.6218567 19.020813 2.8527832c6.4534607 3.857605 -1.4228821 2.0913086 -1.228302 8.259399c0.15270996 4.563019 8.970886 6.9174805 14.166107 4.856415c1.8717041 -0.7425537 3.2737427 -2.0621643 3.6282654 -4.053131c1.3013306 -7.102295 -8.505554 -7.507477 -2.5647888 -9.864319c0.36099243 -0.143219 0.7867737 -0.29486084 1.2773132 -0.45498657c4.2353516 -1.3783264 11.326843 0.96240234 18.241455 3.2008057c-1.3876038 -6.393524 -2.5995483 -12.813599 -0.8941345 -16.505005c1.1395569 -2.461975 1.6715393 -3.410553 2.0953064 -3.5786743c0.92996216 -0.368927 1.3310852 3.0345154 6.487549 2.4897766c0.5147705 -0.05328369 1.0053711 -0.17889404 1.4723206 -0.36413574c6.282135 -2.492279 7.9341736 -16.048035 1.3370056 -17.131378c-1.8091125 -0.31311035 -3.2712402 -0.02633667 -4.4954834 0.4593506c-1.6166382 0.6413574 -2.827301 1.6306152 -3.9024658 2.057129c-1.3027344 0.5168152 -2.407013 0.21740723 -3.7768555 -2.491211c-2.1522217 -4.2571106 2.784607 -13.379669 5.773346 -21.379974c-6.6062927 0.24435425 -13.427704 1.320221 -17.543854 2.953186c-0.34921265 0.1385498 -0.67977905 0.2783203 -0.98483276 0.42523193c-7.5545044 3.5663452 1.9621887 0.8820801 1.3901062 8.838013c-0.15374756 2.027771 -1.475769 3.3544617 -3.3631592 4.103241c-5.5405273 2.1980286 -15.9539795 -0.57159424 -16.109253 -5.1982727c-0.25009155 -6.1935425 8.716644 -5.731079 2.7033691 -8.719543c-3.3947144 -1.7112122 -11.470551 0.8845215 -19.214233 2.8179932z" fill-rule="evenodd"/><path stroke="#000000" stroke-width="4.0" stroke-linejoin="round" stroke-linecap="butt" d="m336.93423 405.48364c-2.5830688 6.3556824 -4.7235413 12.315826 -3.232605 15.261047c1.4111023 2.7439575 2.6459656 3.052002 4.05072 2.49469c1.3184509 -0.5230408 2.7858276 -1.803894 4.69281 -2.5604553c0.957428 -0.37982178 2.022583 -0.6255493 3.2349243 -0.58032227c5.7967834 0.2449646 7.7650146 15.07309 1.7026062 17.47818c-0.38845825 0.15411377 -0.81481934 0.25854492 -1.2741394 0.3027649c-5.744873 0.5840759 -8.096588 -3.8095703 -10.796204 -2.738556c-0.85150146 0.33779907 -1.7330017 1.2180176 -2.7696838 2.966339c-1.8163452 3.079834 -0.72125244 8.278229 0.87597656 13.803619c7.485321 -0.26098633 15.28363 0.6218567 19.020813 2.8527832c6.4534607 3.857605 -1.4228821 2.0913086 -1.228302 8.259399c0.15270996 4.563019 8.970886 6.9174805 14.166107 4.856415c1.8717041 -0.7425537 3.2737427 -2.0621643 3.6282654 -4.053131c1.3013306 -7.102295 -8.505554 -7.507477 -2.5647888 -9.864319c0.36099243 -0.143219 0.7867737 -0.29486084 1.2773132 -0.45498657c4.2353516 -1.3783264 11.326843 0.96240234 18.241455 3.2008057c-1.3876038 -6.393524 -2.5995483 -12.813599 -0.8941345 -16.505005c1.1395569 -2.461975 1.6715393 -3.410553 2.0953064 -3.5786743c0.92996216 -0.368927 1.3310852 3.0345154 6.487549 2.4897766c0.5147705 -0.05328369 1.0053711 -0.17889404 1.4723206 -0.36413574c6.282135 -2.492279 7.9341736 -16.048035 1.3370056 -17.131378c-1.8091125 -0.31311035 -3.2712402 -0.02633667 -4.4954834 0.4593506c-1.6166382 0.6413574 -2.827301 1.6306152 -3.9024658 2.057129c-1.3027344 0.5168152 -2.407013 0.21740723 -3.7768555 -2.491211c-2.1522217 -4.2571106 2.784607 -13.379669 5.773346 -21.379974c-6.6062927 0.24435425 -13.427704 1.320221 -17.543854 2.953186c-0.34921265 0.1385498 -0.67977905 0.2783203 -0.98483276 0.42523193c-7.5545044 3.5663452 1.9621887 0.8820801 1.3901062 8.838013c-0.15374756 2.027771 -1.475769 3.3544617 -3.3631592 4.103241c-5.5405273 2.1980286 -15.9539795 -0.57159424 -16.109253 -5.1982727c-0.25009155 -6.1935425 8.716644 -5.731079 2.7033691 -8.719543c-3.3947144 -1.7112122 -11.470551 0.8845215 -19.214233 2.8179932z" fill-rule="evenodd"/><path fill="#ffffff" d="m404.74237 127.94307c-0.6815796 -1.0269852 -1.5614014 -1.7146912 -2.628601 -1.8727493c-5.2246094 -0.75281525 -6.025177 3.674263 -8.086212 0.56869507c-0.31976318 -0.4818344 -0.6727905 -1.1442566 -1.0713501 -2.0348206c-1.0927124 -2.4512634 -0.11694336 -5.976326 1.4457703 -9.936501c-6.5018616 -1.2780991 -12.594757 -3.339264 -15.497681 -5.3643265c-1.6326294 -1.1405334 -2.4673767 -1.8328171 -2.8244934 -2.370926c-0.9779968 -1.4736481 1.6093445 -1.787384 1.2079468 -6.9670258c-0.078308105 -0.96629333 -0.40878296 -1.8412476 -0.9199524 -2.6114883c-3.2000732 -4.821892 -13.558502 -5.516426 -14.214935 1.4696121c-0.23065186 2.3567886 0.3659973 3.951805 1.1245728 5.0948486c0.80526733 1.2133865 1.7939148 1.9200592 2.172058 2.48983c0.48547363 0.7315445 -0.028747559 1.2399826 -3.2096252 2.3123703c-4.4074707 1.4355011 -12.890137 -2.682251 -20.740997 -6.1452713c1.7210388 7.733597 4.124176 15.835236 2.296936 19.099586c-3.2055054 5.8204117 -2.467102 -2.9779282 -8.735962 -3.0276413c-5.1053467 -0.036590576 -8.343414 12.107605 -5.024292 17.108871c0.75390625 1.1360168 1.8476868 1.8995819 3.334198 2.0731964c6.768036 0.7873688 6.104767 -5.8598785 7.755005 -3.3733215c0.30810547 0.46424866 0.6940613 1.2415924 1.2269287 2.4432526c1.750824 3.9649353 2.8130798 11.365677 2.8292847 18.437256c4.570343 1.8912048 8.712494 3.144516 11.502441 2.0630646c3.864685 -1.5211029 3.9675293 -1.9389038 3.3139648 -2.9236755c-0.11904907 -0.17936707 -0.26678467 -0.38023376 -0.41848755 -0.60884094c-0.65356445 -0.9847717 -1.430542 -2.5107727 -0.87927246 -5.3994904c1.2671814 -6.312271 13.132477 -5.021942 16.239197 -0.34072876c0.44580078 0.6717529 0.7112732 1.4125366 0.73968506 2.20932c0.13052368 4.873047 -3.0887146 5.474411 -1.9613342 7.1731415c0.3407898 0.51348877 1.0857849 1.1285553 2.4448853 1.9946747c2.8429565 1.8622131 9.546265 0.9497986 16.525696 0.011199951c-2.09552 -6.6086273 -4.149933 -13.300293 -2.380371 -17.09378c3.5750122 -7.7576904 3.3945312 2.6208344 10.610748 2.4015198c5.926178 -0.18388367 6.9729614 -12.135345 3.8242493 -16.879852z" fill-rule="evenodd"/><path stroke="#000000" stroke-width="4.0" stroke-linejoin="round" stroke-linecap="butt" d="m404.74237 127.94307c-0.6815796 -1.0269852 -1.5614014 -1.7146912 -2.628601 -1.8727493c-5.2246094 -0.75281525 -6.025177 3.674263 -8.086212 0.56869507c-0.31976318 -0.4818344 -0.6727905 -1.1442566 -1.0713501 -2.0348206c-1.0927124 -2.4512634 -0.11694336 -5.976326 1.4457703 -9.936501c-6.5018616 -1.2780991 -12.594757 -3.339264 -15.497681 -5.3643265c-1.6326294 -1.1405334 -2.4673767 -1.8328171 -2.8244934 -2.370926c-0.9779968 -1.4736481 1.6093445 -1.787384 1.2079468 -6.9670258c-0.078308105 -0.96629333 -0.40878296 -1.8412476 -0.9199524 -2.6114883c-3.2000732 -4.821892 -13.558502 -5.516426 -14.214935 1.4696121c-0.23065186 2.3567886 0.3659973 3.951805 1.1245728 5.0948486c0.80526733 1.2133865 1.7939148 1.9200592 2.172058 2.48983c0.48547363 0.7315445 -0.028747559 1.2399826 -3.2096252 2.3123703c-4.4074707 1.4355011 -12.890137 -2.682251 -20.740997 -6.1452713c1.7210388 7.733597 4.124176 15.835236 2.296936 19.099586c-3.2055054 5.8204117 -2.467102 -2.9779282 -8.735962 -3.0276413c-5.1053467 -0.036590576 -8.343414 12.107605 -5.024292 17.108871c0.75390625 1.1360168 1.8476868 1.8995819 3.334198 2.0731964c6.768036 0.7873688 6.104767 -5.8598785 7.755005 -3.3733215c0.30810547 0.46424866 0.6940613 1.2415924 1.2269287 2.4432526c1.750824 3.9649353 2.8130798 11.365677 2.8292847 18.437256c4.570343 1.8912048 8.712494 3.144516 11.502441 2.0630646c3.864685 -1.5211029 3.9675293 -1.9389038 3.3139648 -2.9236755c-0.11904907 -0.17936707 -0.26678467 -0.38023376 -0.41848755 -0.60884094c-0.65356445 -0.9847717 -1.430542 -2.5107727 -0.87927246 -5.3994904c1.2671814 -6.312271 13.132477 -5.021942 16.239197 -0.34072876c0.44580078 0.6717529 0.7112732 1.4125366 0.73968506 2.20932c0.13052368 4.873047 -3.0887146 5.474411 -1.9613342 7.1731415c0.3407898 0.51348877 1.0857849 1.1285553 2.4448853 1.9946747c2.8429565 1.8622131 9.546265 0.9497986 16.525696 0.011199951c-2.09552 -6.6086273 -4.149933 -13.300293 -2.380371 -17.09378c3.5750122 -7.7576904 3.3945312 2.6208344 10.610748 2.4015198c5.926178 -0.18388367 6.9729614 -12.135345 3.8242493 -16.879852z" fill-rule="evenodd"/><path fill="#ffffff" d="m368.73154 317.54758c-4.155182 0.23937988 -8.10968 1.8326111 -8.520966 4.526886c-0.9049072 5.8671875 6.620758 8.646362 -0.629364 11.381226c-0.48406982 0.18450928 -1.023529 0.2878723 -1.6177368 0.32211304c-3.4134827 0.19665527 -8.512207 -1.9231873 -13.945465 -4.345001l0 0c0.888031 5.7237244 1.4229431 11.2630005 -0.53829956 14.42807c-1.1794434 1.9112549 -1.9994507 2.649231 -2.707428 2.690033c-1.9806519 0.114105225 -3.0679932 -5.252777 -8.786072 -5.2807617c-0.122680664 -9.765625E-4 -0.24511719 0.0020751953 -0.3673401 0.009094238c-7.4338074 0.4282837 -8.898254 15.146637 -2.803711 16.277405c0.7825012 0.15170288 1.4822388 0.1876831 2.110138 0.15151978c2.4231567 -0.13961792 3.8110657 -1.368103 4.9657288 -1.4346313c0.91448975 -0.052703857 1.6850586 0.62579346 2.7064514 3.1612244c1.4421997 3.4549255 1.7715149 9.901581 1.109436 16.240692c2.0020447 -0.18359375 3.9457397 -0.35180664 5.7536316 -0.45596313c4.37854 -0.2522583 7.957733 -0.14117432 9.684326 0.91189575c5.7743225 3.5708313 -2.060089 2.1105957 -2.0112915 8.898682c0.03567505 4.5801086 6.3409424 8.413483 11.0060425 8.144745c2.292511 -0.13208008 4.185547 -1.2531433 4.7469482 -3.7633057c1.657898 -7.621338 -7.1398926 -7.969879 1.2349548 -10.484436c0.60717773 -0.17553711 1.2859497 -0.28289795 2.0318604 -0.3258667c3.097412 -0.1784668 7.3092346 0.71139526 11.764221 1.9325867c0.7623596 -5.3328857 2.3194275 -10.30191 4.3888855 -12.983307c1.2738037 -1.6676941 2.176117 -2.2979736 2.981018 -2.3443298c1.8795166 -0.108306885 3.2253723 2.9947815 7.5789185 3.4829102c0.19989014 0.020599365 0.39889526 0.02520752 0.59695435 0.013793945c5.996765 -0.3454895 11.639526 -14.97525 3.8065186 -16.411469c-1.0509949 -0.18844604 -1.9712219 -0.23583984 -2.7719421 -0.18969727c-2.9414673 0.16946411 -4.353882 1.5600281 -5.356842 1.6177979c-0.8302002 0.047821045 -1.3868713 -0.8076172 -2.2939148 -4.0002136c-0.97024536 -3.4821472 -1.1826477 -8.634369 -0.80148315 -13.905121l0 0c-2.6643677 0.50286865 -5.265442 0.9298096 -7.5874634 1.0635986c-2.810852 0.16192627 -5.214905 -0.10116577 -6.8492737 -1.1676025c-7.2003784 -4.5448303 1.1760559 -5.6378174 1.1834106 -12.919098c0.027679443 -3.9211426 -5.155548 -5.526062 -10.060852 -5.243469z" fill-rule="evenodd"/><path stroke="#000000" stroke-width="4.0" stroke-linejoin="round" stroke-linecap="butt" d="m368.73154 317.54758c-4.155182 0.23937988 -8.10968 1.8326111 -8.520966 4.526886c-0.9049072 5.8671875 6.620758 8.646362 -0.629364 11.381226c-0.48406982 0.18450928 -1.023529 0.2878723 -1.6177368 0.32211304c-3.4134827 0.19665527 -8.512207 -1.9231873 -13.945465 -4.345001l0 0c0.888031 5.7237244 1.4229431 11.2630005 -0.53829956 14.42807c-1.1794434 1.9112549 -1.9994507 2.649231 -2.707428 2.690033c-1.9806519 0.114105225 -3.0679932 -5.252777 -8.786072 -5.2807617c-0.122680664 -9.765625E-4 -0.24511719 0.0020751953 -0.3673401 0.009094238c-7.4338074 0.4282837 -8.898254 15.146637 -2.803711 16.277405c0.7825012 0.15170288 1.4822388 0.1876831 2.110138 0.15151978c2.4231567 -0.13961792 3.8110657 -1.368103 4.9657288 -1.4346313c0.91448975 -0.052703857 1.6850586 0.62579346 2.7064514 3.1612244c1.4421997 3.4549255 1.7715149 9.901581 1.109436 16.240692c2.0020447 -0.18359375 3.9457397 -0.35180664 5.7536316 -0.45596313c4.37854 -0.2522583 7.957733 -0.14117432 9.684326 0.91189575c5.7743225 3.5708313 -2.060089 2.1105957 -2.0112915 8.898682c0.03567505 4.5801086 6.3409424 8.413483 11.0060425 8.144745c2.292511 -0.13208008 4.185547 -1.2531433 4.7469482 -3.7633057c1.657898 -7.621338 -7.1398926 -7.969879 1.2349548 -10.484436c0.60717773 -0.17553711 1.2859497 -0.28289795 2.0318604 -0.3258667c3.097412 -0.1784668 7.3092346 0.71139526 11.764221 1.9325867c0.7623596 -5.3328857 2.3194275 -10.30191 4.3888855 -12.983307c1.2738037 -1.6676941 2.176117 -2.2979736 2.981018 -2.3443298c1.8795166 -0.108306885 3.2253723 2.9947815 7.5789185 3.4829102c0.19989014 0.020599365 0.39889526 0.02520752 0.59695435 0.013793945c5.996765 -0.3454895 11.639526 -14.97525 3.8065186 -16.411469c-1.0509949 -0.18844604 -1.9712219 -0.23583984 -2.7719421 -0.18969727c-2.9414673 0.16946411 -4.353882 1.5600281 -5.356842 1.6177979c-0.8302002 0.047821045 -1.3868713 -0.8076172 -2.2939148 -4.0002136c-0.97024536 -3.4821472 -1.1826477 -8.634369 -0.80148315 -13.905121l0 0c-2.6643677 0.50286865 -5.265442 0.9298096 -7.5874634 1.0635986c-2.810852 0.16192627 -5.214905 -0.10116577 -6.8492737 -1.1676025c-7.2003784 -4.5448303 1.1760559 -5.6378174 1.1834106 -12.919098c0.027679443 -3.9211426 -5.155548 -5.526062 -10.060852 -5.243469z" fill-rule="evenodd"/><path fill="#ffffff" d="m380.63916 257.34448c-3.4114075 -0.5614624 -6.347107 -0.63427734 -8.297394 0.27178955c-7.8877563 3.6831055 1.1184082 1.6264648 1.2020874 9.538879c0.05596924 4.702057 -5.0434265 6.5200195 -9.4461975 5.7953796c-2.97406 -0.48950195 -5.6297607 -2.1333313 -6.1787415 -4.8280945c-1.3656616 -6.725708 4.025696 -5.509247 -2.7140503 -8.800415c-1.7262268 -0.8448181 -4.4448853 -1.5604248 -7.6605225 -2.0896912c-2.6783447 -0.44082642 -5.699005 -0.7510681 -8.7838745 -0.9053345c-2.0066223 6.914215 -5.6087036 15.126068 -3.3980713 20.097443c1.0437317 2.3658447 1.7094727 3.259613 2.3592834 3.3665466c1.48703 0.24475098 2.8615417 -3.6611633 8.422485 -3.3188171c0.19903564 0.012451172 0.39608765 0.036743164 0.5877075 0.06829834c7.493469 1.2333069 9.549805 16.05664 2.9921875 17.142975c-1.2092896 0.19915771 -2.2894287 0.15951538 -3.2683105 -0.0015869141c-2.3075867 -0.37982178 -4.0409546 -1.4411621 -5.5446777 -1.6886292c-1.4203796 -0.23379517 -2.6362 0.2649536 -3.9285889 2.762329c-1.4452515 2.724121 -2.10495 7.5115356 -2.0903015 12.698456c1.1987305 0.17697144 2.411499 0.37249756 3.627777 0.5726929c1.8077698 0.2975464 3.6177368 0.6076355 5.379669 0.8976135c6.3480225 1.0447998 12.045715 1.8038025 14.614838 0.5689087c6.0842285 -2.9926147 -1.6335144 -1.3821411 -0.9595642 -8.101257c0.41455078 -4.1817627 6.7020264 -6.43396 11.57132 -5.6325073c2.9032593 0.47781372 5.3065796 2.0435486 5.657257 4.9291687c0.97717285 7.7344055 -7.417938 6.104828 0.1918335 9.620453c0.51675415 0.23944092 1.1138306 0.40679932 1.7802734 0.5164795c5.052582 0.8315735 14.097351 -1.7712708 22.20929 -3.8532104c-0.559845 -6.3452454 -2.1644287 -12.659241 -4.2311096 -15.880127c-1.200531 -1.8553162 -2.0099792 -2.5776978 -2.738922 -2.6976624c-1.6369934 -0.2694397 -2.8625183 2.523346 -7.218994 2.3751526c-0.17468262 -0.0043640137 -0.35159302 -0.02130127 -0.5181885 -0.048706055c-5.8898315 -0.96939087 -6.9602966 -15.362305 0.42834473 -16.506897c0.8994751 -0.13635254 1.7097778 -0.12081909 2.442871 -1.5258789E-4c3.5364075 0.58203125 5.315674 3.6255798 6.8318787 3.875122c0.84555054 0.13919067 1.6112671 -0.5880432 2.5516968 -3.0783386c1.3031616 -3.44635 -0.28237915 -8.810516 -2.2755737 -14.32309c-4.6190796 -1.2559204 -9.457336 -2.6617126 -13.597717 -3.3431702z" fill-rule="evenodd"/><path stroke="#000000" stroke-width="4.0" stroke-linejoin="round" stroke-linecap="butt" d="m380.63916 257.34448c-3.4114075 -0.5614624 -6.347107 -0.63427734 -8.297394 0.27178955c-7.8877563 3.6831055 1.1184082 1.6264648 1.2020874 9.538879c0.05596924 4.702057 -5.0434265 6.5200195 -9.4461975 5.7953796c-2.97406 -0.48950195 -5.6297607 -2.1333313 -6.1787415 -4.8280945c-1.3656616 -6.725708 4.025696 -5.509247 -2.7140503 -8.800415c-1.7262268 -0.8448181 -4.4448853 -1.5604248 -7.6605225 -2.0896912c-2.6783447 -0.44082642 -5.699005 -0.7510681 -8.7838745 -0.9053345c-2.0066223 6.914215 -5.6087036 15.126068 -3.3980713 20.097443c1.0437317 2.3658447 1.7094727 3.259613 2.3592834 3.3665466c1.48703 0.24475098 2.8615417 -3.6611633 8.422485 -3.3188171c0.19903564 0.012451172 0.39608765 0.036743164 0.5877075 0.06829834c7.493469 1.2333069 9.549805 16.05664 2.9921875 17.142975c-1.2092896 0.19915771 -2.2894287 0.15951538 -3.2683105 -0.0015869141c-2.3075867 -0.37982178 -4.0409546 -1.4411621 -5.5446777 -1.6886292c-1.4203796 -0.23379517 -2.6362 0.2649536 -3.9285889 2.762329c-1.4452515 2.724121 -2.10495 7.5115356 -2.0903015 12.698456c1.1987305 0.17697144 2.411499 0.37249756 3.627777 0.5726929c1.8077698 0.2975464 3.6177368 0.6076355 5.379669 0.8976135c6.3480225 1.0447998 12.045715 1.8038025 14.614838 0.5689087c6.0842285 -2.9926147 -1.6335144 -1.3821411 -0.9595642 -8.101257c0.41455078 -4.1817627 6.7020264 -6.43396 11.57132 -5.6325073c2.9032593 0.47781372 5.3065796 2.0435486 5.657257 4.9291687c0.97717285 7.7344055 -7.417938 6.104828 0.1918335 9.620453c0.51675415 0.23944092 1.1138306 0.40679932 1.7802734 0.5164795c5.052582 0.8315735 14.097351 -1.7712708 22.20929 -3.8532104c-0.559845 -6.3452454 -2.1644287 -12.659241 -4.2311096 -15.880127c-1.200531 -1.8553162 -2.0099792 -2.5776978 -2.738922 -2.6976624c-1.6369934 -0.2694397 -2.8625183 2.523346 -7.218994 2.3751526c-0.17468262 -0.0043640137 -0.35159302 -0.02130127 -0.5181885 -0.048706055c-5.8898315 -0.96939087 -6.9602966 -15.362305 0.42834473 -16.506897c0.8994751 -0.13635254 1.7097778 -0.12081909 2.442871 -1.5258789E-4c3.5364075 0.58203125 5.315674 3.6255798 6.8318787 3.875122c0.84555054 0.13919067 1.6112671 -0.5880432 2.5516968 -3.0783386c1.3031616 -3.44635 -0.28237915 -8.810516 -2.2755737 -14.32309c-4.6190796 -1.2559204 -9.457336 -2.6617126 -13.597717 -3.3431702z" fill-rule="evenodd"/></g></svg>