<svg version="1.1" viewBox="0.0 0.0 557.8582677165355 557.8582677165355" fill="none" stroke="none" stroke-linecap="square" stroke-miterlimit="10" xmlns:xlink="http://www.w3.org/1999/xlink" xmlns="http://www.w3.org/2000/svg"><clipPath id="p.0"><path d="m0 0l557.8583 0l0 557.8583l-557.8583 0l0 -557.8583z" clip-rule="nonzero"/></clipPath><g clip-path="url(#p.0)"><path fill="#000000" fill-opacity="0.0" d="m0 0l557.8583 0l0 557.8583l-557.8583 0z" fill-rule="evenodd"/><path fill="#000000" d="m362.82187 394.60846c-28.134888 9.170258 -60.457275 24.762726 -75.33502 16.810455c-23.44403 -12.431671 4.378784 -17.223175 0.20132446 -41.371826c-3.4325562 -19.840363 -40.989334 -19.266602 -55.86708 -4.388855c-3.2413025 3.2413025 -5.4155884 7.1671143 -5.9088287 11.727051c-2.1138916 18.642517 11.888107 19.316925 8.224045 22.981018c-1.2985382 1.298523 -4.821686 2.969513 -12.099503 5.959137c-13.045731 5.2948 -35.78514 0.31207275 -58.20244 -5.1941223c-7.851593 -23.55478 -15.300537 -46.28412 -9.4823 -57.397125c1.6609039 -3.1506958 3.1003723 -5.254547 4.3988953 -6.55307c7.9522552 -7.95224 10.790909 14.374451 28.9301 13.589294c3.0299072 -0.11071777 5.6974335 -1.4897766 7.962311 -3.7546692c13.418167 -13.418152 12.602814 -58.242706 -11.123077 -58.937256c-27.732224 -0.81536865 -19.266602 22.930664 -32.714966 -3.1607666c-6.9355774 -13.458435 -11.01236 -34.245026 -11.727051 -54.326965c30.379608 4.0667114 66.76871 12.532333 83.99188 5.496109c6.734253 -2.7681885 10.166794 -4.449234 11.5056 -5.78804c4.1875153 -4.1875153 -11.958572 -5.173996 -11.807587 -26.322952c0.040267944 -5.677307 2.0031586 -10.03595 5.143799 -13.17659c12.290756 -12.290756 42.60997 -5.888687 45.93181 12.874603c4.076782 23.64537 -17.02185 18.853882 4.489502 28.950226c12.230347 5.9088287 40.979248 10.59964 68.19809 11.102951c4.1774597 13.357773 6.41214 26.00084 2.546753 35.583817c-2.6171875 6.3819275 -4.721039 10.136597 -6.7543945 12.169952c-6.764435 6.7644653 -12.733673 -5.606842 -34.134277 -4.117035c-5.103546 0.39257812 -9.109863 2.3655396 -12.079376 5.3350525c-13.216827 13.216827 -6.150421 46.253906 13.820831 48.589264c24.672089 2.8487244 30.379608 -24.460724 44.029297 -1.8320312c6.5329285 10.800964 8.677002 32.714935 7.861664 55.152374z" fill-rule="evenodd"/><path fill="#ffffff" d="m320.23505 387.8483c-2.0031433 4.928833 -3.663086 9.550934 -2.5068665 11.834961c1.0943298 2.1279602 2.0519714 2.3668213 3.141327 1.9346313c1.0224609 -0.40563965 2.1604004 -1.3989258 3.6392822 -1.9856262c0.7424927 -0.29455566 1.568512 -0.48513794 2.5086975 -0.45007324c4.495392 0.19000244 6.0217285 11.689209 1.320343 13.554352c-0.301239 0.119506836 -0.63186646 0.20050049 -0.9880676 0.23477173c-4.4551697 0.4529724 -6.2789 -2.9542847 -8.372467 -2.1237183c-0.66033936 0.2619629 -1.3439636 0.9445801 -2.1478882 2.3003845c-1.4085999 2.3883972 -0.5593262 6.4197693 0.6793213 10.704712c5.80484 -0.20239258 11.8524475 0.4822693 14.75061 2.2123413c5.004669 2.9915466 -1.1034241 1.6217957 -0.95251465 6.4051514c0.11843872 3.5386353 6.956909 5.364502 10.985809 3.7661438c1.4515076 -0.5758362 2.5387878 -1.5992126 2.8137207 -3.1431885c1.0091858 -5.507843 -6.5960693 -5.822052 -1.9890137 -7.6497803c0.27996826 -0.11105347 0.61013794 -0.22866821 0.99057007 -0.35284424c3.2845154 -1.0689087 8.783966 0.7463379 14.146271 2.4822083c-1.0761108 -4.9581604 -2.0159607 -9.936951 -0.6934204 -12.799622c0.883728 -1.9092712 1.2962646 -2.644867 1.6249084 -2.7752686c0.7211914 -0.2861023 1.0322571 2.3532715 5.0310974 1.9308167c0.39920044 -0.041290283 0.7796631 -0.13873291 1.1417847 -0.28237915c4.8717957 -1.9327393 6.152954 -12.445221 1.0368347 -13.28537c-1.4029541 -0.24282837 -2.5368347 -0.02041626 -3.4862366 0.3562317c-1.2537231 0.4973755 -2.1925964 1.2645264 -3.0263672 1.5953064c-1.0102539 0.40078735 -1.8666382 0.1685791 -2.928955 -1.9319458c-1.6690369 -3.3013916 2.1594849 -10.375946 4.477234 -16.58017c-5.1231995 0.18951416 -10.4131775 1.0238342 -13.605255 2.2901917c-0.270813 0.10745239 -0.52719116 0.21585083 -0.7637329 0.32977295c-5.8585205 2.7657166 1.5216675 0.6840515 1.0780334 6.853882c-0.11923218 1.5725098 -1.1444702 2.6013794 -2.6081238 3.1820374c-4.296692 1.7045898 -12.372314 -0.44326782 -12.492737 -4.03125c-0.19393921 -4.80307 6.7597656 -4.444458 2.096466 -6.7619934c-2.6325989 -1.3270264 -8.895416 0.6859436 -14.900665 2.1853333z" fill-rule="evenodd"/><path stroke="#000000" stroke-width="4.0" stroke-linejoin="round" stroke-linecap="butt" d="m320.23505 387.8483c-2.0031433 4.928833 -3.663086 9.550934 -2.5068665 11.834961c1.0943298 2.1279602 2.0519714 2.3668213 3.141327 1.9346313c1.0224609 -0.40563965 2.1604004 -1.3989258 3.6392822 -1.9856262c0.7424927 -0.29455566 1.568512 -0.48513794 2.5086975 -0.45007324c4.495392 0.19000244 6.0217285 11.689209 1.320343 13.554352c-0.301239 0.119506836 -0.63186646 0.20050049 -0.9880676 0.23477173c-4.4551697 0.4529724 -6.2789 -2.9542847 -8.372467 -2.1237183c-0.66033936 0.2619629 -1.3439636 0.9445801 -2.1478882 2.3003845c-1.4085999 2.3883972 -0.5593262 6.4197693 0.6793213 10.704712c5.80484 -0.20239258 11.8524475 0.4822693 14.75061 2.2123413c5.004669 2.9915466 -1.1034241 1.6217957 -0.95251465 6.4051514c0.11843872 3.5386353 6.956909 5.364502 10.985809 3.7661438c1.4515076 -0.5758362 2.5387878 -1.5992126 2.8137207 -3.1431885c1.0091858 -5.507843 -6.5960693 -5.822052 -1.9890137 -7.6497803c0.27996826 -0.11105347 0.61013794 -0.22866821 0.99057007 -0.35284424c3.2845154 -1.0689087 8.783966 0.7463379 14.146271 2.4822083c-1.0761108 -4.9581604 -2.0159607 -9.936951 -0.6934204 -12.799622c0.883728 -1.9092712 1.2962646 -2.644867 1.6249084 -2.7752686c0.7211914 -0.2861023 1.0322571 2.3532715 5.0310974 1.9308167c0.39920044 -0.041290283 0.7796631 -0.13873291 1.1417847 -0.28237915c4.8717957 -1.9327393 6.152954 -12.445221 1.0368347 -13.28537c-1.4029541 -0.24282837 -2.5368347 -0.02041626 -3.4862366 0.3562317c-1.2537231 0.4973755 -2.1925964 1.2645264 -3.0263672 1.5953064c-1.0102539 0.40078735 -1.8666382 0.1685791 -2.928955 -1.9319458c-1.6690369 -3.3013916 2.1594849 -10.375946 4.477234 -16.58017c-5.1231995 0.18951416 -10.4131775 1.0238342 -13.605255 2.2901917c-0.270813 0.10745239 -0.52719116 0.21585083 -0.7637329 0.32977295c-5.8585205 2.7657166 1.5216675 0.6840515 1.0780334 6.853882c-0.11923218 1.5725098 -1.1444702 2.6013794 -2.6081238 3.1820374c-4.296692 1.7045898 -12.372314 -0.44326782 -12.492737 -4.03125c-0.19393921 -4.80307 6.7597656 -4.444458 2.096466 -6.7619934c-2.6325989 -1.3270264 -8.895416 0.6859436 -14.900665 2.1853333z" fill-rule="evenodd"/><path fill="#ffffff" d="m372.82028 172.6156c-0.52856445 -0.7964325 -1.2108765 -1.3297424 -2.0384827 -1.4523163c-4.051697 -0.58380127 -4.6725464 2.8493805 -6.270874 0.44102478c-0.24798584 -0.3736725 -0.5217285 -0.8873749 -0.83081055 -1.5780029c-0.8474121 -1.9009552 -0.09069824 -4.6346436 1.1211853 -7.705765c-5.0421753 -0.99116516 -9.767242 -2.5895996 -12.018433 -4.160034c-1.2661133 -0.8844757 -1.9134827 -1.421341 -2.1904297 -1.8386536c-0.75842285 -1.142807 1.2480469 -1.3861084 0.9367981 -5.4029236c-0.060760498 -0.74935913 -0.3170166 -1.427887 -0.71343994 -2.0252075c-2.481659 -3.73938 -10.514618 -4.2779846 -11.023682 1.139679c-0.17886353 1.8276978 0.28381348 3.064621 0.87210083 3.951065c0.6244812 0.940979 1.3911743 1.4889984 1.6844177 1.9308472c0.37649536 0.5673218 -0.022277832 0.9616089 -2.4890747 1.7932587c-3.4179688 1.1132202 -9.996277 -2.0800934 -16.084595 -4.765671c1.3346252 5.997406 3.1982727 12.280228 1.78125 14.811737c-2.4858704 4.513733 -1.9132385 -2.3093872 -6.774719 -2.347931c-3.959198 -0.028381348 -6.470337 9.38945 -3.8963623 13.267929c0.58465576 0.8809662 1.4328918 1.473114 2.5856934 1.6077576c5.248596 0.61061096 4.734253 -4.544342 6.013977 -2.6160126c0.23895264 0.36003113 0.53826904 0.9628601 0.95147705 1.8947449c1.3577881 3.0748138 2.1815796 8.814072 2.1941528 14.29808c3.5442505 1.4666443 6.7565002 2.4385834 8.9201355 1.5999146c2.9970398 -1.1796112 3.0767822 -1.5036163 2.5699768 -2.2673035c-0.092315674 -0.13911438 -0.20690918 -0.2948761 -0.32455444 -0.4721527c-0.50683594 -0.7637024 -1.109375 -1.947113 -0.68188477 -4.1873016c0.98269653 -4.895172 10.184235 -3.8945312 12.593506 -0.2642517c0.34573364 0.5209503 0.5516052 1.0954285 0.5736389 1.7133331c0.10122681 3.7790527 -2.3952942 4.245407 -1.5210266 5.5627747c0.26428223 0.39820862 0.842041 0.87519836 1.8960266 1.5468597c2.2046814 1.4441528 7.4031067 0.73657227 12.815674 0.00869751c-1.6250916 -5.125 -3.2182922 -10.314377 -1.8459778 -13.256226c2.7724304 -6.016098 2.6324463 2.0324554 8.228638 1.862381c4.5957336 -0.14260864 5.4075317 -9.410965 2.9656982 -13.090332z" fill-rule="evenodd"/><path stroke="#000000" stroke-width="4.0" stroke-linejoin="round" stroke-linecap="butt" d="m372.82028 172.6156c-0.52856445 -0.7964325 -1.2108765 -1.3297424 -2.0384827 -1.4523163c-4.051697 -0.58380127 -4.6725464 2.8493805 -6.270874 0.44102478c-0.24798584 -0.3736725 -0.5217285 -0.8873749 -0.83081055 -1.5780029c-0.8474121 -1.9009552 -0.09069824 -4.6346436 1.1211853 -7.705765c-5.0421753 -0.99116516 -9.767242 -2.5895996 -12.018433 -4.160034c-1.2661133 -0.8844757 -1.9134827 -1.421341 -2.1904297 -1.8386536c-0.75842285 -1.142807 1.2480469 -1.3861084 0.9367981 -5.4029236c-0.060760498 -0.74935913 -0.3170166 -1.427887 -0.71343994 -2.0252075c-2.481659 -3.73938 -10.514618 -4.2779846 -11.023682 1.139679c-0.17886353 1.8276978 0.28381348 3.064621 0.87210083 3.951065c0.6244812 0.940979 1.3911743 1.4889984 1.6844177 1.9308472c0.37649536 0.5673218 -0.022277832 0.9616089 -2.4890747 1.7932587c-3.4179688 1.1132202 -9.996277 -2.0800934 -16.084595 -4.765671c1.3346252 5.997406 3.1982727 12.280228 1.78125 14.811737c-2.4858704 4.513733 -1.9132385 -2.3093872 -6.774719 -2.347931c-3.959198 -0.028381348 -6.470337 9.38945 -3.8963623 13.267929c0.58465576 0.8809662 1.4328918 1.473114 2.5856934 1.6077576c5.248596 0.61061096 4.734253 -4.544342 6.013977 -2.6160126c0.23895264 0.36003113 0.53826904 0.9628601 0.95147705 1.8947449c1.3577881 3.0748138 2.1815796 8.814072 2.1941528 14.29808c3.5442505 1.4666443 6.7565002 2.4385834 8.9201355 1.5999146c2.9970398 -1.1796112 3.0767822 -1.5036163 2.5699768 -2.2673035c-0.092315674 -0.13911438 -0.20690918 -0.2948761 -0.32455444 -0.4721527c-0.50683594 -0.7637024 -1.109375 -1.947113 -0.68188477 -4.1873016c0.98269653 -4.895172 10.184235 -3.8945312 12.593506 -0.2642517c0.34573364 0.5209503 0.5516052 1.0954285 0.5736389 1.7133331c0.10122681 3.7790527 -2.3952942 4.245407 -1.5210266 5.5627747c0.26428223 0.39820862 0.842041 0.87519836 1.8960266 1.5468597c2.2046814 1.4441528 7.4031067 0.73657227 12.815674 0.00869751c-1.6250916 -5.125 -3.2182922 -10.314377 -1.8459778 -13.256226c2.7724304 -6.016098 2.6324463 2.0324554 8.228638 1.862381c4.5957336 -0.14260864 5.4075317 -9.410965 2.9656982 -13.090332z" fill-rule="evenodd"/><path fill="#ffffff" d="m344.8939 319.6539c-3.222351 0.18563843 -6.289093 1.4211731 -6.608032 3.5105896c-0.7017517 4.5500183 5.1343994 6.705261 -0.48806763 8.826141c-0.37539673 0.14309692 -0.7937622 0.22323608 -1.2545471 0.24978638c-2.6471558 0.15252686 -6.601227 -1.491394 -10.814728 -3.3695374l0 0c0.6886902 4.438751 1.1035156 8.734467 -0.41744995 11.188965c-0.91464233 1.4821777 -1.5505676 2.0545044 -2.0996094 2.0861206c-1.5359802 0.08850098 -2.3792114 -4.073517 -6.8135986 -4.0952454c-0.09512329 -7.324219E-4 -0.190094 0.0016174316 -0.28485107 0.007080078c-5.764923 0.3321228 -6.9006042 11.746216 -2.174286 12.623108c0.60684204 0.11764526 1.1494751 0.14556885 1.6364136 0.11752319c1.8791504 -0.10827637 2.9554749 -1.0609741 3.8509216 -1.1125793c0.709198 -0.04083252 1.3067627 0.48532104 2.0988464 2.451538c1.1184387 2.6793213 1.3738098 7.6786804 0.8603821 12.594666c1.5525818 -0.14239502 3.0599365 -0.27282715 4.4619446 -0.35360718c3.3955383 -0.19561768 6.1712036 -0.10949707 7.510193 0.70718384c4.4779663 2.769165 -1.5975952 1.6367493 -1.5597839 6.90094c0.027679443 3.55188 4.9174194 6.524658 8.535187 6.316223c1.7778625 -0.10241699 3.2458801 -0.97180176 3.6812744 -2.9184265c1.285675 -5.91037 -5.5369873 -6.180664 0.95770264 -8.130676c0.47088623 -0.13613892 0.9972534 -0.21939087 1.5757141 -0.25271606c2.4020386 -0.13839722 5.6683044 0.5516968 9.123169 1.4987183c0.5911865 -4.1356506 1.7986755 -7.9891357 3.4035645 -10.0685425c0.9878235 -1.2933044 1.6875916 -1.782074 2.311798 -1.8180542c1.45755 -0.08395386 2.5012512 2.3224792 5.877411 2.7009888c0.15505981 0.015991211 0.3093567 0.019561768 0.46295166 0.01071167c4.6505127 -0.26791382 9.026459 -11.613312 2.9519653 -12.727081c-0.81503296 -0.14614868 -1.5286865 -0.18289185 -2.1496277 -0.14712524c-2.281128 0.13143921 -3.3764343 1.2098083 -4.154236 1.2546082c-0.64382935 0.037109375 -1.075531 -0.62631226 -1.7789307 -3.1021729c-0.7524414 -2.7003784 -0.9171448 -6.695923 -0.6215515 -10.783417l0 0c-2.0662231 0.38998413 -4.083374 0.72109985 -5.8840637 0.8248291c-2.17984 0.12557983 -4.0441895 -0.07846069 -5.3116455 -0.90548706c-5.583893 -3.5245056 0.9120178 -4.3721313 0.9177246 -10.018768c0.021484375 -3.0408325 -3.998108 -4.2854614 -7.8021545 -4.066284z" fill-rule="evenodd"/><path stroke="#000000" stroke-width="4.0" stroke-linejoin="round" stroke-linecap="butt" d="m344.8939 319.6539c-3.222351 0.18563843 -6.289093 1.4211731 -6.608032 3.5105896c-0.7017517 4.5500183 5.1343994 6.705261 -0.48806763 8.826141c-0.37539673 0.14309692 -0.7937622 0.22323608 -1.2545471 0.24978638c-2.6471558 0.15252686 -6.601227 -1.491394 -10.814728 -3.3695374l0 0c0.6886902 4.438751 1.1035156 8.734467 -0.41744995 11.188965c-0.91464233 1.4821777 -1.5505676 2.0545044 -2.0996094 2.0861206c-1.5359802 0.08850098 -2.3792114 -4.073517 -6.8135986 -4.0952454c-0.09512329 -7.324219E-4 -0.190094 0.0016174316 -0.28485107 0.007080078c-5.764923 0.3321228 -6.9006042 11.746216 -2.174286 12.623108c0.60684204 0.11764526 1.1494751 0.14556885 1.6364136 0.11752319c1.8791504 -0.10827637 2.9554749 -1.0609741 3.8509216 -1.1125793c0.709198 -0.04083252 1.3067627 0.48532104 2.0988464 2.451538c1.1184387 2.6793213 1.3738098 7.6786804 0.8603821 12.594666c1.5525818 -0.14239502 3.0599365 -0.27282715 4.4619446 -0.35360718c3.3955383 -0.19561768 6.1712036 -0.10949707 7.510193 0.70718384c4.4779663 2.769165 -1.5975952 1.6367493 -1.5597839 6.90094c0.027679443 3.55188 4.9174194 6.524658 8.535187 6.316223c1.7778625 -0.10241699 3.2458801 -0.97180176 3.6812744 -2.9184265c1.285675 -5.91037 -5.5369873 -6.180664 0.95770264 -8.130676c0.47088623 -0.13613892 0.9972534 -0.21939087 1.5757141 -0.25271606c2.4020386 -0.13839722 5.6683044 0.5516968 9.123169 1.4987183c0.5911865 -4.1356506 1.7986755 -7.9891357 3.4035645 -10.0685425c0.9878235 -1.2933044 1.6875916 -1.782074 2.311798 -1.8180542c1.45755 -0.08395386 2.5012512 2.3224792 5.877411 2.7009888c0.15505981 0.015991211 0.3093567 0.019561768 0.46295166 0.01071167c4.6505127 -0.26791382 9.026459 -11.613312 2.9519653 -12.727081c-0.81503296 -0.14614868 -1.5286865 -0.18289185 -2.1496277 -0.14712524c-2.281128 0.13143921 -3.3764343 1.2098083 -4.154236 1.2546082c-0.64382935 0.037109375 -1.075531 -0.62631226 -1.7789307 -3.1021729c-0.7524414 -2.7003784 -0.9171448 -6.695923 -0.6215515 -10.783417l0 0c-2.0662231 0.38998413 -4.083374 0.72109985 -5.8840637 0.8248291c-2.17984 0.12557983 -4.0441895 -0.07846069 -5.3116455 -0.90548706c-5.583893 -3.5245056 0.9120178 -4.3721313 0.9177246 -10.018768c0.021484375 -3.0408325 -3.998108 -4.2854614 -7.8021545 -4.066284z" fill-rule="evenodd"/><path fill="#ffffff" d="m354.12823 272.9664c-2.6455383 -0.4354248 -4.92218 -0.49188232 -6.4346313 0.2107544c-6.116974 2.8562622 0.8673401 1.2613525 0.93222046 7.3974c0.043395996 3.6464539 -3.9111633 5.056305 -7.325531 4.4943237c-2.3063965 -0.37957764 -4.3658752 -1.6543884 -4.7915955 -3.7442017c-1.059082 -5.2157593 3.1219177 -4.2724 -2.1047668 -6.824707c-1.3386841 -0.65515137 -3.446991 -1.2101135 -5.940735 -1.6205444c-2.077057 -0.3418579 -4.419586 -0.5824585 -6.8118896 -0.7020874c-1.5561523 5.361969 -4.3495483 11.730255 -2.6352234 15.585571c0.80944824 1.8347168 1.3257141 2.5278015 1.8296509 2.6107483c1.1531982 0.18978882 2.2191162 -2.8392334 6.531616 -2.5737305c0.15435791 0.009643555 0.30718994 0.028503418 0.45578003 0.052947998c5.8111877 0.9564514 7.405884 12.451935 2.3204346 13.294373c-0.9378052 0.15444946 -1.7754517 0.12371826 -2.534546 -0.0012207031c-1.7895508 -0.29455566 -3.133789 -1.1176147 -4.2998962 -1.3095398c-1.101532 -0.18130493 -2.0443726 0.20547485 -3.0466309 2.1421814c-1.1207886 2.1125488 -1.6324158 5.825226 -1.6210327 9.847656c0.92959595 0.13723755 1.8701172 0.2888794 2.813324 0.4441223c1.4019165 0.23074341 2.8055725 0.47122192 4.1719666 0.69610596c4.9228516 0.8102417 9.341431 1.3988647 11.333771 0.44119263c4.7183228 -2.3207703 -1.2667847 -1.0718384 -0.7441406 -6.2825317c0.3215027 -3.2429504 5.1974487 -4.9895325 8.973572 -4.3680115c2.2514648 0.37057495 4.1152344 1.5847778 4.387207 3.8225708c0.7578125 5.998047 -5.7526245 4.734314 0.1487732 7.460663c0.40072632 0.18569946 0.86376953 0.3154602 1.3806152 0.4005432c3.9182434 0.64489746 10.932465 -1.3736267 17.223267 -2.9881897c-0.43414307 -4.9207153 -1.6784973 -9.81723 -3.2812195 -12.315033c-0.93099976 -1.4387817 -1.5587463 -1.9989929 -2.1240234 -2.092041c-1.2695007 -0.20892334 -2.2198792 1.9568787 -5.5983276 1.8419495c-0.13546753 -0.0033874512 -0.27267456 -0.01651001 -0.40185547 -0.03778076c-4.567566 -0.75177 -5.397705 -11.913452 0.33218384 -12.801086c0.6975403 -0.10574341 1.3259277 -0.09371948 1.8944397 -1.2207031E-4c2.7424622 0.45135498 4.1223145 2.8116455 5.298126 3.0051575c0.6557312 0.107940674 1.2495422 -0.45602417 1.9788208 -2.3872375c1.0106201 -2.6726685 -0.21896362 -6.8325806 -1.764679 -11.107574c-3.5820923 -0.9739685 -7.334198 -2.064148 -10.545044 -2.5926208z" fill-rule="evenodd"/><path stroke="#000000" stroke-width="4.0" stroke-linejoin="round" stroke-linecap="butt" d="m354.12823 272.9664c-2.6455383 -0.4354248 -4.92218 -0.49188232 -6.4346313 0.2107544c-6.116974 2.8562622 0.8673401 1.2613525 0.93222046 7.3974c0.043395996 3.6464539 -3.9111633 5.056305 -7.325531 4.4943237c-2.3063965 -0.37957764 -4.3658752 -1.6543884 -4.7915955 -3.7442017c-1.059082 -5.2157593 3.1219177 -4.2724 -2.1047668 -6.824707c-1.3386841 -0.65515137 -3.446991 -1.2101135 -5.940735 -1.6205444c-2.077057 -0.3418579 -4.419586 -0.5824585 -6.8118896 -0.7020874c-1.5561523 5.361969 -4.3495483 11.730255 -2.6352234 15.585571c0.80944824 1.8347168 1.3257141 2.5278015 1.8296509 2.6107483c1.1531982 0.18978882 2.2191162 -2.8392334 6.531616 -2.5737305c0.15435791 0.009643555 0.30718994 0.028503418 0.45578003 0.052947998c5.8111877 0.9564514 7.405884 12.451935 2.3204346 13.294373c-0.9378052 0.15444946 -1.7754517 0.12371826 -2.534546 -0.0012207031c-1.7895508 -0.29455566 -3.133789 -1.1176147 -4.2998962 -1.3095398c-1.101532 -0.18130493 -2.0443726 0.20547485 -3.0466309 2.1421814c-1.1207886 2.1125488 -1.6324158 5.825226 -1.6210327 9.847656c0.92959595 0.13723755 1.8701172 0.2888794 2.813324 0.4441223c1.4019165 0.23074341 2.8055725 0.47122192 4.1719666 0.69610596c4.9228516 0.8102417 9.341431 1.3988647 11.333771 0.44119263c4.7183228 -2.3207703 -1.2667847 -1.0718384 -0.7441406 -6.2825317c0.3215027 -3.2429504 5.1974487 -4.9895325 8.973572 -4.3680115c2.2514648 0.37057495 4.1152344 1.5847778 4.387207 3.8225708c0.7578125 5.998047 -5.7526245 4.734314 0.1487732 7.460663c0.40072632 0.18569946 0.86376953 0.3154602 1.3806152 0.4005432c3.9182434 0.64489746 10.932465 -1.3736267 17.223267 -2.9881897c-0.43414307 -4.9207153 -1.6784973 -9.81723 -3.2812195 -12.315033c-0.93099976 -1.4387817 -1.5587463 -1.9989929 -2.1240234 -2.092041c-1.2695007 -0.20892334 -2.2198792 1.9568787 -5.5983276 1.8419495c-0.13546753 -0.0033874512 -0.27267456 -0.01651001 -0.40185547 -0.03778076c-4.567566 -0.75177 -5.397705 -11.913452 0.33218384 -12.801086c0.6975403 -0.10574341 1.3259277 -0.09371948 1.8944397 -1.2207031E-4c2.7424622 0.45135498 4.1223145 2.8116455 5.298126 3.0051575c0.6557312 0.107940674 1.2495422 -0.45602417 1.9788208 -2.3872375c1.0106201 -2.6726685 -0.21896362 -6.8325806 -1.764679 -11.107574c-3.5820923 -0.9739685 -7.334198 -2.064148 -10.545044 -2.5926208z" fill-rule="evenodd"/><path fill="#ffffff" d="m320.72052 216.05527c-1.6195679 5.9140015 -3.3945923 12.057098 -1.7301636 15.041107c1.3742676 2.4337463 2.2457275 2.5175629 3.2825928 1.7890625c0.72106934 -0.5066223 1.5201416 -1.4045105 2.6227722 -2.1792297c1.0605469 -0.7451477 2.4005127 -1.3772278 4.218994 -1.4367218c5.6920166 -0.20932007 5.0888977 8.850037 1.0204468 11.708572c-0.5158081 0.36239624 -1.085907 0.62371826 -1.7035217 0.7560272c-4.2375183 0.900589 -4.668976 -2.3928223 -5.8216248 -1.5829773c-0.3473816 0.24406433 -0.76348877 0.8651581 -1.3684387 2.0907135c-1.045105 2.1033173 -1.3157349 6.094986 -1.0829773 10.471634c5.4835205 -0.6390686 11.501648 -0.4819641 15.112793 0.66244507c6.523285 2.0761414 0.13348389 1.7083893 0.9326477 7.7637787c0.6374817 4.7342224 9.399384 4.7077026 13.244141 2.0063171c1.0368652 -0.7284851 1.7163391 -1.65448 1.7781372 -2.7304993c0.2937622 -4.5841217 -5.288849 -4.103607 -2.8019714 -5.8509216c0.24737549 -0.1737976 0.57543945 -0.36947632 0.99731445 -0.5962982c3.0017395 -1.5985565 10.609222 -0.09082031 17.251984 0.33511353c-0.80688477 -6.169861 -2.4927979 -12.464615 -4.22641 -15.00943c-1.1972656 -1.7150421 -1.9598999 -1.8211823 -2.712555 -1.2923737c-0.7631531 0.5362091 -1.5138245 1.7210541 -2.695404 2.5512543c-0.76052856 0.5343628 -1.7013855 0.9208374 -2.9411316 0.88694763c-4.4242554 -0.11291504 -5.459503 -9.974136 -1.3436584 -12.865952c0.584198 -0.41047668 1.2702332 -0.67977905 2.069519 -0.76182556c4.366791 -0.4731903 4.762085 1.9948273 5.2857666 1.6268768c0.24475098 -0.1719513 0.51464844 -0.9494171 1.2189941 -2.9099731c1.0609741 -2.976883 1.6496887 -8.363815 1.5796509 -13.639832c-6.496063 1.8222809 -13.937988 5.1328735 -17.21811 3.8332214c-5.0556946 -2.0476532 0.43771362 -4.5770264 -0.30181885 -9.227951c-0.5571594 -3.386856 -6.4448547 -3.6588135 -9.702789 -1.3697662c-1.2000122 0.84313965 -2.0423584 2.0305328 -2.132019 3.536026c-0.26885986 4.7677307 4.9181213 4.882324 2.702301 6.4391785c-0.4000244 0.28105164 -1.0438843 0.6096802 -2.0052185 1.0221558c-3.0541687 1.3221283 -8.388153 0.13520813 -13.530243 -1.0666809z" fill-rule="evenodd"/><path stroke="#000000" stroke-width="4.0" stroke-linejoin="round" stroke-linecap="butt" d="m320.72052 216.05527c-1.6195679 5.9140015 -3.3945923 12.057098 -1.7301636 15.041107c1.3742676 2.4337463 2.2457275 2.5175629 3.2825928 1.7890625c0.72106934 -0.5066223 1.5201416 -1.4045105 2.6227722 -2.1792297c1.0605469 -0.7451477 2.4005127 -1.3772278 4.218994 -1.4367218c5.6920166 -0.20932007 5.0888977 8.850037 1.0204468 11.708572c-0.5158081 0.36239624 -1.085907 0.62371826 -1.7035217 0.7560272c-4.2375183 0.900589 -4.668976 -2.3928223 -5.8216248 -1.5829773c-0.3473816 0.24406433 -0.76348877 0.8651581 -1.3684387 2.0907135c-1.045105 2.1033173 -1.3157349 6.094986 -1.0829773 10.471634c5.4835205 -0.6390686 11.501648 -0.4819641 15.112793 0.66244507c6.523285 2.0761414 0.13348389 1.7083893 0.9326477 7.7637787c0.6374817 4.7342224 9.399384 4.7077026 13.244141 2.0063171c1.0368652 -0.7284851 1.7163391 -1.65448 1.7781372 -2.7304993c0.2937622 -4.5841217 -5.288849 -4.103607 -2.8019714 -5.8509216c0.24737549 -0.1737976 0.57543945 -0.36947632 0.99731445 -0.5962982c3.0017395 -1.5985565 10.609222 -0.09082031 17.251984 0.33511353c-0.80688477 -6.169861 -2.4927979 -12.464615 -4.22641 -15.00943c-1.1972656 -1.7150421 -1.9598999 -1.8211823 -2.712555 -1.2923737c-0.7631531 0.5362091 -1.5138245 1.7210541 -2.695404 2.5512543c-0.76052856 0.5343628 -1.7013855 0.9208374 -2.9411316 0.88694763c-4.4242554 -0.11291504 -5.459503 -9.974136 -1.3436584 -12.865952c0.584198 -0.41047668 1.2702332 -0.67977905 2.069519 -0.76182556c4.366791 -0.4731903 4.762085 1.9948273 5.2857666 1.6268768c0.24475098 -0.1719513 0.51464844 -0.9494171 1.2189941 -2.9099731c1.0609741 -2.976883 1.6496887 -8.363815 1.5796509 -13.639832c-6.496063 1.8222809 -13.937988 5.1328735 -17.21811 3.8332214c-5.0556946 -2.0476532 0.43771362 -4.5770264 -0.30181885 -9.227951c-0.5571594 -3.386856 -6.4448547 -3.6588135 -9.702789 -1.3697662c-1.2000122 0.84313965 -2.0423584 2.0305328 -2.132019 3.536026c-0.26885986 4.7677307 4.9181213 4.882324 2.702301 6.4391785c-0.4000244 0.28105164 -1.0438843 0.6096802 -2.0052185 1.0221558c-3.0541687 1.3221283 -8.388153 0.13520813 -13.530243 -1.0666809z" fill-rule="evenodd"/><path fill="#000000" fill-opacity="0.0" d="m368.0 200.0l52.0 0l0 67.87402l-52.0 0z" fill-rule="evenodd"/><path fill="#00edff" d="m410.54688 220.775q0.796875 0.796875 -0.109375 1.6875l-0.21875 0.234375l0 0.453125q-3.328125 3.5 -8.375 9.546875q2.859375 3.96875 5.15625 6.265625q0.953125 0.9375 0.3125 1.90625q-0.34375 0.859375 -0.828125 1.34375q-0.328125 0.65625 -1.15625 0.65625q-0.125 -0.265625 0.109375 -0.140625q-0.125 -0.0625 0.1875 0.25q-0.59375 1.1875 -1.109375 1.53125q-0.671875 1.015625 -1.90625 0.203125q-0.3125 -0.3125 -0.515625 -0.734375q0.453125 -0.25 0.640625 0.265625q-0.578125 0.5625 -0.921875 0.921875q-1.25 0.9375 -2.21875 -0.046875q-0.84375 -0.828125 -3.6875 -5.109375q-3.1875 4.078125 -4.890625 6.703125q-1.078125 1.625 -2.3125 0.8125q-0.203125 -0.21875 -0.578125 -0.578125q-0.625 -0.9375 -0.203125 -1.796875q0.53125 0.328125 0.53125 0.546875q0 0.453125 -0.015625 0.453125q-0.296875 0.09375 -1.078125 0.484375q-1.625 -1.609375 -1.78125 -1.921875q-0.84375 -0.84375 -0.109375 -1.953125q0.140625 -0.140625 0.0625 -0.328125q-0.34375 -0.515625 -0.640625 -1.671875q2.765625 -3.625 6.609375 -8.03125q-3.5 -5.984375 -4.75 -10.265625q1.21875 -1.421875 2.546875 -3.078125q0.40625 1.578125 0.609375 1.046875q0.265625 0.328125 0.265625 0.15625q0 0.515625 -0.515625 0.453125q0.25 -1.75 1.859375 -2.015625q0.96875 0 1.546875 0.859375q2.328125 3.890625 4.21875 6.484375q4.96875 -5.390625 9.28125 -9.34375l2.453125 2.15625q-0.53125 0.671875 -0.359375 0.671875q-0.328125 0 -0.03125 -0.21875q-0.1875 0.40625 0.71875 -0.21875q1.046875 1.046875 1.203125 1.359375z" fill-rule="nonzero"/><path fill="#000000" fill-opacity="0.0" d="m368.0 259.8213l52.0 0l0 67.87402l-52.0 0z" fill-rule="evenodd"/><path fill="#00edff" d="m410.54688 280.59628q0.796875 0.796875 -0.109375 1.6875l-0.21875 0.234375l0 0.453125q-3.328125 3.5 -8.375 9.546875q2.859375 3.96875 5.15625 6.265625q0.953125 0.9375 0.3125 1.90625q-0.34375 0.859375 -0.828125 1.34375q-0.328125 0.65625 -1.15625 0.65625q-0.125 -0.265625 0.109375 -0.140625q-0.125 -0.0625 0.1875 0.25q-0.59375 1.1875 -1.109375 1.53125q-0.671875 1.015625 -1.90625 0.203125q-0.3125 -0.3125 -0.515625 -0.734375q0.453125 -0.25 0.640625 0.265625q-0.578125 0.5625 -0.921875 0.921875q-1.25 0.9375 -2.21875 -0.046875q-0.84375 -0.828125 -3.6875 -5.109375q-3.1875 4.078125 -4.890625 6.703125q-1.078125 1.625 -2.3125 0.8125q-0.203125 -0.21875 -0.578125 -0.578125q-0.625 -0.9375 -0.203125 -1.796875q0.53125 0.328125 0.53125 0.546875q0 0.453125 -0.015625 0.453125q-0.296875 0.09375 -1.078125 0.484375q-1.625 -1.609375 -1.78125 -1.921875q-0.84375 -0.84375 -0.109375 -1.953125q0.140625 -0.140625 0.0625 -0.328125q-0.34375 -0.515625 -0.640625 -1.671875q2.765625 -3.625 6.609375 -8.03125q-3.5 -5.984375 -4.75 -10.265625q1.21875 -1.421875 2.546875 -3.078125q0.40625 1.578125 0.609375 1.046875q0.265625 0.328125 0.265625 0.15625q0 0.515625 -0.515625 0.453125q0.25 -1.75 1.859375 -2.015625q0.96875 0 1.546875 0.859375q2.328125 3.890625 4.21875 6.484375q4.96875 -5.390625 9.28125 -9.34375l2.453125 2.15625q-0.53125 0.671875 -0.359375 0.671875q-0.328125 0 -0.03125 -0.21875q-0.1875 0.40625 0.71875 -0.21875q1.046875 1.046875 1.203125 1.359375z" fill-rule="nonzero"/><path fill="#000000" fill-opacity="0.0" d="m370.08936 144.0l62.614166 0l0 67.87401l-62.614166 0z" fill-rule="evenodd"/><path fill="#d100ff" d="m383.6206 175.91562q0.203125 -0.8125 0.90625 -2.046875q0.828125 -1.140625 1.515625 -2.015625q1.859375 -1.484375 3.5625 -1.484375q2.859375 0 2.859375 2.65625q0.296875 2.40625 1.0625 5.609375q0.28125 0.953125 0.609375 0.953125q0.15625 0 0.4375 -0.484375q2.109375 -1.9375 4.296875 -4.125q3.40625 -3.25 4.625 -4.78125q1.59375 -1.90625 4.296875 -4.453125q2.71875 -2.390625 4.171875 -3.375q1.53125 -0.953125 2.78125 -0.734375q1.71875 0.28125 1.46875 2.328125q-0.15625 1.140625 -0.015625 2.265625q0.234375 1.34375 -0.203125 1.78125q-3.140625 3.765625 -5.015625 5.484375q-4.546875 5.328125 -6.140625 6.609375q-5.90625 5.75 -10.296875 9.984375q-1.765625 1.59375 -3.453125 1.78125q-2.25 0.1875 -4.21875 -1.609375q-2.28125 -1.9375 -2.46875 -4.640625q-0.15625 -2.578125 -0.453125 -3.765625q-0.484375 -2.3125 -0.328125 -5.9375z" fill-rule="nonzero"/><path fill="#000000" fill-opacity="0.0" d="m370.08936 314.08936l62.614166 0l0 67.87402l-62.614166 0z" fill-rule="evenodd"/><path fill="#d100ff" d="m383.6206 346.00497q0.203125 -0.8125 0.90625 -2.046875q0.828125 -1.140625 1.515625 -2.015625q1.859375 -1.484375 3.5625 -1.484375q2.859375 0 2.859375 2.65625q0.296875 2.40625 1.0625 5.609375q0.28125 0.953125 0.609375 0.953125q0.15625 0 0.4375 -0.484375q2.109375 -1.9375 4.296875 -4.125q3.40625 -3.25 4.625 -4.78125q1.59375 -1.90625 4.296875 -4.453125q2.71875 -2.390625 4.171875 -3.375q1.53125 -0.953125 2.78125 -0.734375q1.71875 0.28125 1.46875 2.328125q-0.15625 1.140625 -0.015625 2.265625q0.234375 1.34375 -0.203125 1.78125q-3.140625 3.765625 -5.015625 5.484375q-4.546875 5.328125 -6.140625 6.609375q-5.90625 5.75 -10.296875 9.984375q-1.765625 1.59375 -3.453125 1.78125q-2.25 0.1875 -4.21875 -1.609375q-2.28125 -1.9375 -2.46875 -4.640625q-0.15625 -2.578125 -0.453125 -3.765625q-0.484375 -2.3125 -0.328125 -5.9375z" fill-rule="nonzero"/><path fill="#000000" fill-opacity="0.0" d="m370.08936 375.31274l62.614166 0l0 67.87402l-62.614166 0z" fill-rule="evenodd"/><path fill="#d100ff" d="m383.6206 407.22836q0.203125 -0.8125 0.90625 -2.046875q0.828125 -1.140625 1.515625 -2.015625q1.859375 -1.484375 3.5625 -1.484375q2.859375 0 2.859375 2.65625q0.296875 2.40625 1.0625 5.609375q0.28125 0.953125 0.609375 0.953125q0.15625 0 0.4375 -0.484375q2.109375 -1.9375 4.296875 -4.125q3.40625 -3.25 4.625 -4.78125q1.59375 -1.90625 4.296875 -4.453125q2.71875 -2.390625 4.171875 -3.375q1.53125 -0.953125 2.78125 -0.734375q1.71875 0.28125 1.46875 2.328125q-0.15625 1.140625 -0.015625 2.265625q0.234375 1.34375 -0.203125 1.78125q-3.140625 3.765625 -5.015625 5.484375q-4.546875 5.328125 -6.140625 6.609375q-5.90625 5.75 -10.296875 9.984375q-1.765625 1.59375 -3.453125 1.78125q-2.25 0.1875 -4.21875 -1.609375q-2.28125 -1.9375 -2.46875 -4.640625q-0.15625 -2.578125 -0.453125 -3.765625q-0.484375 -2.3125 -0.328125 -5.9375z" fill-rule="nonzero"/><path fill="#000000" fill-opacity="0.0" d="m181.67961 232.0l141.13387 0l0 129.29135l-141.13387 0z" fill-rule="evenodd"/><path fill="#00ffff" d="m282.93405 267.6806q1.796875 1.84375 -0.21875 3.859375l-0.515625 0.515625l0 1.03125q-7.546875 7.9375 -18.96875 21.640625q6.5 8.96875 11.703125 14.171875q2.15625 2.15625 0.6875 4.328125q-0.78125 1.9375 -1.890625 3.0625q-0.75 1.484375 -2.609375 1.484375q-0.265625 -0.578125 0.25 -0.328125q-0.21875 -0.140625 0.421875 0.59375q-1.34375 2.671875 -2.5 3.453125q-1.546875 2.328125 -4.3125 0.46875q-0.703125 -0.6875 -1.21875 -1.703125q1.078125 -0.53125 1.46875 0.625q-1.28125 1.296875 -2.078125 2.09375q-2.828125 2.109375 -5.046875 -0.09375q-1.890625 -1.90625 -8.35939 -11.578125q-7.203125 9.21875 -11.0625 15.1875q-2.46875 3.703125 -5.25 1.828125q-0.46875 -0.46875 -1.3125 -1.328125q-1.421875 -2.125 -0.4375 -4.046875q1.203125 0.734375 1.1875 1.265625q0 1.0 -0.0625 1.0q-0.625 0.203125 -2.4375 1.109375q-3.625 -3.65625 -3.984375 -4.359375q-1.9375 -1.921875 -0.28125 -4.421875q0.3125 -0.328125 0.140625 -0.765625q-0.765625 -1.171875 -1.4375 -3.78125q6.25 -8.203125 14.96875 -18.203125q-7.9375 -13.5625 -10.75 -23.265625q2.75 -3.203125 5.71875 -6.96875q0.953125 3.59375 1.390625 2.359375q0.625 0.78125 0.625 0.359375q0.015625 1.171875 -1.15625 1.046875q0.546875 -3.984375 4.1875 -4.59375q2.21875 0 3.515625 1.921875q5.296875 8.84375 9.5625 14.71875q11.250015 -12.1875 21.062515 -21.1875l5.5 4.890625q-1.125 1.53125 -0.765625 1.53125q-0.71875 0 -0.046875 -0.46875q-0.46875 0.90625 1.625 -0.5q2.3125 2.34375 2.6875 3.046875z" fill-rule="nonzero"/></g></svg>