<svg version="1.1" viewBox="0.0 0.0 557.8582677165355 557.8582677165355" fill="none" stroke="none" stroke-linecap="square" stroke-miterlimit="10" xmlns:xlink="http://www.w3.org/1999/xlink" xmlns="http://www.w3.org/2000/svg"><clipPath id="p.0"><path d="m0 0l557.8583 0l0 557.8583l-557.8583 0l0 -557.8583z" clip-rule="nonzero"/></clipPath><g clip-path="url(#p.0)"><path fill="#000000" fill-opacity="0.0" d="m0 0l557.8583 0l0 557.8583l-557.8583 0z" fill-rule="evenodd"/><path fill="#000000" d="m338.82187 382.13962c-28.134888 9.170227 -60.457275 24.762695 -75.33502 16.810455c-23.444046 -12.431702 4.378784 -17.223175 0.20132446 -41.371857c-3.4325562 -19.840363 -40.989334 -19.266602 -55.86708 -4.3888245c-3.2413025 3.241272 -5.4155884 7.1670837 -5.9088287 11.727051c-2.1138916 18.642487 11.888107 19.316925 8.224045 22.980988c-1.2985382 1.298523 -4.821686 2.969513 -12.099503 5.9591675c-13.045731 5.2948 -35.78514 0.31204224 -58.20244 -5.1941223c-7.851593 -23.55478 -15.300537 -46.28412 -9.4823 -57.397156c1.6609039 -3.1506958 3.1003723 -5.2545166 4.3988953 -6.55307c7.9522552 -7.95224 10.790909 14.374451 28.9301 13.589294c3.0299072 -0.11071777 5.6974335 -1.4897766 7.962311 -3.7546692c13.418167 -13.418152 12.602814 -58.242676 -11.123077 -58.937256c-27.732224 -0.81533813 -19.266602 22.930664 -32.714966 -3.1607666c-6.9355774 -13.458435 -11.01236 -34.24501 -11.727058 -54.326965c30.379616 4.0667267 66.768715 12.532349 83.99189 5.496109c6.734253 -2.7681885 10.166794 -4.449234 11.5056 -5.788025c4.1875153 -4.1875153 -11.958572 -5.173996 -11.807587 -26.322968c0.040267944 -5.677292 2.0031586 -10.035934 5.143799 -13.176575c12.290756 -12.290756 42.609985 -5.888687 45.93181 12.874603c4.076782 23.645355 -17.02185 18.853882 4.489502 28.95021c12.230347 5.9088287 40.979248 10.599655 68.19809 11.102966c4.1774597 13.357773 6.41214 26.000854 2.546753 35.5838c-2.6171875 6.3819275 -4.721039 10.136597 -6.7543945 12.169983c-6.764435 6.764435 -12.733673 -5.606842 -34.134277 -4.1170654c-5.103546 0.39257812 -9.109863 2.3655396 -12.079376 5.3350525c-13.216827 13.216858 -6.150421 46.253937 13.820831 48.589264c24.672089 2.8487244 30.379608 -24.460724 44.029297 -1.8320312c6.5329285 10.800964 8.677002 32.714966 7.861664 55.152405z" fill-rule="evenodd"/><path fill="#000000" fill-opacity="0.0" d="m188.86597 219.53018l85.88977 0l0 129.29135l-85.88977 0z" fill-rule="evenodd"/><path fill="#00edff" d="m273.8816 255.2108q1.796875 1.8437653 -0.21875 3.8593903l-0.515625 0.515625l0 1.03125q-7.546875 7.9375 -18.96875 21.640625q6.5 8.96875 11.703125 14.171875q2.15625 2.15625 0.6875 4.328125q-0.78125 1.9375 -1.890625 3.0625q-0.75 1.484375 -2.609375 1.484375q-0.265625 -0.578125 0.25 -0.328125q-0.21875 -0.140625 0.421875 0.59375q-1.34375 2.671875 -2.5 3.453125q-1.546875 2.328125 -4.3125 0.46875q-0.703125 -0.6875 -1.21875 -1.703125q1.078125 -0.53125 1.46875 0.625q-1.28125 1.296875 -2.078125 2.09375q-2.828125 2.109375 -5.046875 -0.09375q-1.890625 -1.90625 -8.359375 -11.578125q-7.203125 9.21875 -11.0625 15.1875q-2.46875 3.703125 -5.25 1.828125q-0.46875 -0.46875 -1.3125 -1.328125q-1.421875 -2.125 -0.4375 -4.046875q1.203125 0.734375 1.1875 1.265625q0 1.0 -0.0625 1.0q-0.625 0.203125 -2.4375 1.109375q-3.625 -3.65625 -3.984375 -4.359375q-1.9375 -1.921875 -0.28125 -4.421875q0.3125 -0.328125 0.140625 -0.765625q-0.765625 -1.171875 -1.4375 -3.78125q6.25 -8.203125 14.96875 -18.203125q-7.9375 -13.5625 -10.75 -23.265625q2.75 -3.2031403 5.71875 -6.9687653q0.953125 3.59375 1.390625 2.359375q0.625 0.78125 0.625 0.359375q0.015625 1.171875 -1.15625 1.046875q0.546875 -3.984375 4.1875 -4.59375q2.21875 0 3.515625 1.921875q5.296875 8.843765 9.5625 14.718765q11.25 -12.187515 21.0625 -21.187515l5.5 4.890625q-1.125 1.53125 -0.765625 1.53125q-0.71875 0 -0.046875 -0.46875q-0.46875 0.90625 1.625 -0.5q2.3125 2.34375 2.6875 3.046875z" fill-rule="nonzero"/><path fill="#ffffff" d="m320.23505 375.37946c-2.0031433 4.928833 -3.663086 9.550934 -2.5068665 11.83493c1.0943298 2.1279602 2.0519714 2.3668213 3.141327 1.9346313c1.0224609 -0.40560913 2.1604004 -1.3989258 3.6392822 -1.9856262c0.7424927 -0.29455566 1.568512 -0.48510742 2.5086975 -0.45004272c4.495392 0.18997192 6.0217285 11.689178 1.320343 13.554321c-0.301239 0.119506836 -0.63186646 0.20050049 -0.9880676 0.23480225c-4.4551697 0.4529419 -6.2789 -2.9543152 -8.372467 -2.1237488c-0.66033936 0.2619629 -1.3439636 0.9445801 -2.1478882 2.3003845c-1.4085999 2.3884277 -0.5593262 6.4197693 0.6793213 10.704712c5.80484 -0.20239258 11.8524475 0.4822693 14.75061 2.2123413c5.004669 2.9915771 -1.1034241 1.6217957 -0.95251465 6.405182c0.11843872 3.5386047 6.956909 5.364502 10.985809 3.7661438c1.4515076 -0.5758362 2.5387878 -1.5992126 2.8137207 -3.143219c1.0091858 -5.5078125 -6.5960693 -5.822052 -1.9890137 -7.6497803c0.27996826 -0.11105347 0.61013794 -0.22866821 0.99057007 -0.35284424c3.2845154 -1.0688782 8.783966 0.7463684 14.146271 2.4822388c-1.0761108 -4.958191 -2.0159607 -9.936951 -0.6934204 -12.799652c0.883728 -1.9092407 1.2962646 -2.644867 1.6249084 -2.775238c0.7211914 -0.2861328 1.0322571 2.353241 5.0310974 1.9308167c0.39920044 -0.0413208 0.7796631 -0.13873291 1.1417847 -0.28240967c4.8717957 -1.9327393 6.152954 -12.445221 1.0368347 -13.28537c-1.4029541 -0.24279785 -2.5368347 -0.02041626 -3.4862366 0.3562317c-1.2537231 0.4973755 -2.1925964 1.2645264 -3.0263672 1.5953064c-1.0102539 0.40078735 -1.8666382 0.1685791 -2.928955 -1.9319458c-1.6690369 -3.3013916 2.1594849 -10.375916 4.477234 -16.58017c-5.1231995 0.18951416 -10.4131775 1.0238342 -13.605255 2.2902222c-0.270813 0.107421875 -0.52719116 0.21582031 -0.7637329 0.32974243c-5.8585205 2.7657166 1.5216675 0.6840515 1.0780334 6.853882c-0.11923218 1.5725403 -1.1444702 2.6013794 -2.6081238 3.1820679c-4.296692 1.7045898 -12.372314 -0.44326782 -12.492737 -4.0312805c-0.19393921 -4.80307 6.7597656 -4.4444275 2.096466 -6.7619934c-2.6325989 -1.3270264 -8.895416 0.6859741 -14.900665 2.1853638z" fill-rule="evenodd"/><path stroke="#000000" stroke-width="4.0" stroke-linejoin="round" stroke-linecap="butt" d="m320.23505 375.37946c-2.0031433 4.928833 -3.663086 9.550934 -2.5068665 11.83493c1.0943298 2.1279602 2.0519714 2.3668213 3.141327 1.9346313c1.0224609 -0.40560913 2.1604004 -1.3989258 3.6392822 -1.9856262c0.7424927 -0.29455566 1.568512 -0.48510742 2.5086975 -0.45004272c4.495392 0.18997192 6.0217285 11.689178 1.320343 13.554321c-0.301239 0.119506836 -0.63186646 0.20050049 -0.9880676 0.23480225c-4.4551697 0.4529419 -6.2789 -2.9543152 -8.372467 -2.1237488c-0.66033936 0.2619629 -1.3439636 0.9445801 -2.1478882 2.3003845c-1.4085999 2.3884277 -0.5593262 6.4197693 0.6793213 10.704712c5.80484 -0.20239258 11.8524475 0.4822693 14.75061 2.2123413c5.004669 2.9915771 -1.1034241 1.6217957 -0.95251465 6.405182c0.11843872 3.5386047 6.956909 5.364502 10.985809 3.7661438c1.4515076 -0.5758362 2.5387878 -1.5992126 2.8137207 -3.143219c1.0091858 -5.5078125 -6.5960693 -5.822052 -1.9890137 -7.6497803c0.27996826 -0.11105347 0.61013794 -0.22866821 0.99057007 -0.35284424c3.2845154 -1.0688782 8.783966 0.7463684 14.146271 2.4822388c-1.0761108 -4.958191 -2.0159607 -9.936951 -0.6934204 -12.799652c0.883728 -1.9092407 1.2962646 -2.644867 1.6249084 -2.775238c0.7211914 -0.2861328 1.0322571 2.353241 5.0310974 1.9308167c0.39920044 -0.0413208 0.7796631 -0.13873291 1.1417847 -0.28240967c4.8717957 -1.9327393 6.152954 -12.445221 1.0368347 -13.28537c-1.4029541 -0.24279785 -2.5368347 -0.02041626 -3.4862366 0.3562317c-1.2537231 0.4973755 -2.1925964 1.2645264 -3.0263672 1.5953064c-1.0102539 0.40078735 -1.8666382 0.1685791 -2.928955 -1.9319458c-1.6690369 -3.3013916 2.1594849 -10.375916 4.477234 -16.58017c-5.1231995 0.18951416 -10.4131775 1.0238342 -13.605255 2.2902222c-0.270813 0.107421875 -0.52719116 0.21582031 -0.7637329 0.32974243c-5.8585205 2.7657166 1.5216675 0.6840515 1.0780334 6.853882c-0.11923218 1.5725403 -1.1444702 2.6013794 -2.6081238 3.1820679c-4.296692 1.7045898 -12.372314 -0.44326782 -12.492737 -4.0312805c-0.19393921 -4.80307 6.7597656 -4.4444275 2.096466 -6.7619934c-2.6325989 -1.3270264 -8.895416 0.6859741 -14.900665 2.1853638z" fill-rule="evenodd"/><path fill="#ffffff" d="m372.82028 160.14673c-0.52856445 -0.79641724 -1.2108765 -1.3297272 -2.0384827 -1.452301c-4.051697 -0.5838165 -4.6725464 2.8493805 -6.270874 0.44100952c-0.24798584 -0.37365723 -0.5217285 -0.8873749 -0.83081055 -1.5780029c-0.8474121 -1.9009552 -0.09069824 -4.6346283 1.1211853 -7.7057495c-5.0421753 -0.99116516 -9.767242 -2.5895996 -12.018433 -4.160034c-1.2661133 -0.88449097 -1.9134827 -1.4213562 -2.1904297 -1.8386536c-0.75842285 -1.1428223 1.2480469 -1.3861237 0.9367981 -5.4029236c-0.060760498 -0.74935913 -0.3170166 -1.4279022 -0.71343994 -2.0252075c-2.481659 -3.73938 -10.514618 -4.278 -11.023682 1.139679c-0.17886353 1.8276825 0.28381348 3.064621 0.87210083 3.9510498c0.6244812 0.940979 1.3911743 1.4890137 1.6844177 1.9308624c0.37649536 0.5673218 -0.022277832 0.9616089 -2.4890747 1.7932434c-3.4179688 1.1132355 -9.996277 -2.0800781 -16.084595 -4.7656555c1.3346252 5.997406 3.1982727 12.280228 1.78125 14.811722c-2.4858704 4.513733 -1.9132385 -2.309372 -6.774719 -2.347931c-3.959198 -0.028366089 -6.470337 9.38945 -3.8963623 13.267929c0.58465576 0.88098145 1.4328918 1.4731293 2.5856934 1.6077728c5.248596 0.6105957 4.734253 -4.544342 6.013977 -2.6160126c0.23895264 0.36003113 0.53826904 0.96284485 0.95147705 1.8947296c1.3577881 3.0748138 2.1815796 8.814087 2.1941528 14.298096c3.5442505 1.466629 6.7565002 2.4385834 8.9201355 1.5999146c2.9970398 -1.1796112 3.0767822 -1.5036163 2.5699768 -2.2673187c-0.092315674 -0.13909912 -0.20690918 -0.29486084 -0.32455444 -0.4721527c-0.50683594 -0.76368713 -1.109375 -1.9470978 -0.68188477 -4.1873016c0.98269653 -4.895172 10.184235 -3.894516 12.593506 -0.26423645c0.34573364 0.5209503 0.5516052 1.0954132 0.5736389 1.7133331c0.10122681 3.7790375 -2.3952942 4.245392 -1.5210266 5.5627747c0.26428223 0.39820862 0.842041 0.8751831 1.8960266 1.5468597c2.2046814 1.4441528 7.4031067 0.73657227 12.815674 0.008682251c-1.6250916 -5.1249847 -3.2182922 -10.314377 -1.8459778 -13.256226c2.7724304 -6.016083 2.6324463 2.0324554 8.228638 1.862381c4.5957336 -0.14260864 5.4075317 -9.41095 2.9656982 -13.090332z" fill-rule="evenodd"/><path stroke="#000000" stroke-width="4.0" stroke-linejoin="round" stroke-linecap="butt" d="m372.82028 160.14673c-0.52856445 -0.79641724 -1.2108765 -1.3297272 -2.0384827 -1.452301c-4.051697 -0.5838165 -4.6725464 2.8493805 -6.270874 0.44100952c-0.24798584 -0.37365723 -0.5217285 -0.8873749 -0.83081055 -1.5780029c-0.8474121 -1.9009552 -0.09069824 -4.6346283 1.1211853 -7.7057495c-5.0421753 -0.99116516 -9.767242 -2.5895996 -12.018433 -4.160034c-1.2661133 -0.88449097 -1.9134827 -1.4213562 -2.1904297 -1.8386536c-0.75842285 -1.1428223 1.2480469 -1.3861237 0.9367981 -5.4029236c-0.060760498 -0.74935913 -0.3170166 -1.4279022 -0.71343994 -2.0252075c-2.481659 -3.73938 -10.514618 -4.278 -11.023682 1.139679c-0.17886353 1.8276825 0.28381348 3.064621 0.87210083 3.9510498c0.6244812 0.940979 1.3911743 1.4890137 1.6844177 1.9308624c0.37649536 0.5673218 -0.022277832 0.9616089 -2.4890747 1.7932434c-3.4179688 1.1132355 -9.996277 -2.0800781 -16.084595 -4.7656555c1.3346252 5.997406 3.1982727 12.280228 1.78125 14.811722c-2.4858704 4.513733 -1.9132385 -2.309372 -6.774719 -2.347931c-3.959198 -0.028366089 -6.470337 9.38945 -3.8963623 13.267929c0.58465576 0.88098145 1.4328918 1.4731293 2.5856934 1.6077728c5.248596 0.6105957 4.734253 -4.544342 6.013977 -2.6160126c0.23895264 0.36003113 0.53826904 0.96284485 0.95147705 1.8947296c1.3577881 3.0748138 2.1815796 8.814087 2.1941528 14.298096c3.5442505 1.466629 6.7565002 2.4385834 8.9201355 1.5999146c2.9970398 -1.1796112 3.0767822 -1.5036163 2.5699768 -2.2673187c-0.092315674 -0.13909912 -0.20690918 -0.29486084 -0.32455444 -0.4721527c-0.50683594 -0.76368713 -1.109375 -1.9470978 -0.68188477 -4.1873016c0.98269653 -4.895172 10.184235 -3.894516 12.593506 -0.26423645c0.34573364 0.5209503 0.5516052 1.0954132 0.5736389 1.7133331c0.10122681 3.7790375 -2.3952942 4.245392 -1.5210266 5.5627747c0.26428223 0.39820862 0.842041 0.8751831 1.8960266 1.5468597c2.2046814 1.4441528 7.4031067 0.73657227 12.815674 0.008682251c-1.6250916 -5.1249847 -3.2182922 -10.314377 -1.8459778 -13.256226c2.7724304 -6.016083 2.6324463 2.0324554 8.228638 1.862381c4.5957336 -0.14260864 5.4075317 -9.41095 2.9656982 -13.090332z" fill-rule="evenodd"/><path fill="#ffffff" d="m344.8939 307.18503c-3.222351 0.18563843 -6.289093 1.4212036 -6.608032 3.51062c-0.7017517 4.549988 5.1343994 6.7052307 -0.48806763 8.826111c-0.37539673 0.14309692 -0.7937622 0.2232666 -1.2545471 0.2498169c-2.6471558 0.15249634 -6.601227 -1.4914246 -10.814728 -3.3695374l0 0c0.6886902 4.438751 1.1035156 8.734436 -0.41744995 11.188965c-0.91464233 1.4821777 -1.5505676 2.0544739 -2.0996094 2.08609c-1.5359802 0.08850098 -2.3792114 -4.073517 -6.8135986 -4.095215c-0.09512329 -7.6293945E-4 -0.190094 0.0016174316 -0.28485107 0.0070495605c-5.764923 0.3321228 -6.9006042 11.746216 -2.174286 12.623138c0.60684204 0.11764526 1.1494751 0.14553833 1.6364136 0.117492676c1.8791504 -0.10824585 2.9554749 -1.0609741 3.8509216 -1.1125488c0.709198 -0.040863037 1.3067627 0.48529053 2.0988464 2.451538c1.1184387 2.6792908 1.3738098 7.6786804 0.8603821 12.594666c1.5525818 -0.14239502 3.0599365 -0.27285767 4.4619446 -0.35360718c3.3955383 -0.19561768 6.1712036 -0.10949707 7.510193 0.70718384c4.4779663 2.769165 -1.5975952 1.6367493 -1.5597839 6.9009094c0.027679443 3.55188 4.9174194 6.524658 8.535187 6.3162537c1.7778625 -0.10244751 3.2458801 -0.9718323 3.6812744 -2.918457c1.285675 -5.9103394 -5.5369873 -6.1806335 0.95770264 -8.130676c0.47088623 -0.1361084 0.9972534 -0.21939087 1.5757141 -0.25271606c2.4020386 -0.1383667 5.6683044 0.5516968 9.123169 1.4987183c0.5911865 -4.13562 1.7986755 -7.9891357 3.4035645 -10.0685425c0.9878235 -1.2933044 1.6875916 -1.782074 2.311798 -1.8180237c1.45755 -0.083984375 2.5012512 2.3224487 5.877411 2.7009888c0.15505981 0.015991211 0.3093567 0.01953125 0.46295166 0.010681152c4.6505127 -0.26791382 9.026459 -11.613312 2.9519653 -12.727081c-0.81503296 -0.14614868 -1.5286865 -0.18289185 -2.1496277 -0.14709473c-2.281128 0.13140869 -3.3764343 1.2097778 -4.154236 1.2546082c-0.64382935 0.037078857 -1.075531 -0.62631226 -1.7789307 -3.1021729c-0.7524414 -2.700409 -0.9171448 -6.6959534 -0.6215515 -10.783447l0 0c-2.0662231 0.38998413 -4.083374 0.72109985 -5.8840637 0.8248291c-2.17984 0.12557983 -4.0441895 -0.078430176 -5.3116455 -0.90545654c-5.583893 -3.5245361 0.9120178 -4.3721313 0.9177246 -10.018768c0.021484375 -3.0408325 -3.998108 -4.2854614 -7.8021545 -4.0663147z" fill-rule="evenodd"/><path stroke="#000000" stroke-width="4.0" stroke-linejoin="round" stroke-linecap="butt" d="m344.8939 307.18503c-3.222351 0.18563843 -6.289093 1.4212036 -6.608032 3.51062c-0.7017517 4.549988 5.1343994 6.7052307 -0.48806763 8.826111c-0.37539673 0.14309692 -0.7937622 0.2232666 -1.2545471 0.2498169c-2.6471558 0.15249634 -6.601227 -1.4914246 -10.814728 -3.3695374l0 0c0.6886902 4.438751 1.1035156 8.734436 -0.41744995 11.188965c-0.91464233 1.4821777 -1.5505676 2.0544739 -2.0996094 2.08609c-1.5359802 0.08850098 -2.3792114 -4.073517 -6.8135986 -4.095215c-0.09512329 -7.6293945E-4 -0.190094 0.0016174316 -0.28485107 0.0070495605c-5.764923 0.3321228 -6.9006042 11.746216 -2.174286 12.623138c0.60684204 0.11764526 1.1494751 0.14553833 1.6364136 0.117492676c1.8791504 -0.10824585 2.9554749 -1.0609741 3.8509216 -1.1125488c0.709198 -0.040863037 1.3067627 0.48529053 2.0988464 2.451538c1.1184387 2.6792908 1.3738098 7.6786804 0.8603821 12.594666c1.5525818 -0.14239502 3.0599365 -0.27285767 4.4619446 -0.35360718c3.3955383 -0.19561768 6.1712036 -0.10949707 7.510193 0.70718384c4.4779663 2.769165 -1.5975952 1.6367493 -1.5597839 6.9009094c0.027679443 3.55188 4.9174194 6.524658 8.535187 6.3162537c1.7778625 -0.10244751 3.2458801 -0.9718323 3.6812744 -2.918457c1.285675 -5.9103394 -5.5369873 -6.1806335 0.95770264 -8.130676c0.47088623 -0.1361084 0.9972534 -0.21939087 1.5757141 -0.25271606c2.4020386 -0.1383667 5.6683044 0.5516968 9.123169 1.4987183c0.5911865 -4.13562 1.7986755 -7.9891357 3.4035645 -10.0685425c0.9878235 -1.2933044 1.6875916 -1.782074 2.311798 -1.8180237c1.45755 -0.083984375 2.5012512 2.3224487 5.877411 2.7009888c0.15505981 0.015991211 0.3093567 0.01953125 0.46295166 0.010681152c4.6505127 -0.26791382 9.026459 -11.613312 2.9519653 -12.727081c-0.81503296 -0.14614868 -1.5286865 -0.18289185 -2.1496277 -0.14709473c-2.281128 0.13140869 -3.3764343 1.2097778 -4.154236 1.2546082c-0.64382935 0.037078857 -1.075531 -0.62631226 -1.7789307 -3.1021729c-0.7524414 -2.700409 -0.9171448 -6.6959534 -0.6215515 -10.783447l0 0c-2.0662231 0.38998413 -4.083374 0.72109985 -5.8840637 0.8248291c-2.17984 0.12557983 -4.0441895 -0.078430176 -5.3116455 -0.90545654c-5.583893 -3.5245361 0.9120178 -4.3721313 0.9177246 -10.018768c0.021484375 -3.0408325 -3.998108 -4.2854614 -7.8021545 -4.0663147z" fill-rule="evenodd"/><path fill="#ffffff" d="m354.12823 260.49756c-2.6455383 -0.43545532 -4.92218 -0.49191284 -6.4346313 0.2107544c-6.116974 2.8562317 0.8673401 1.261322 0.93222046 7.3974c0.043395996 3.6464539 -3.9111633 5.0562744 -7.325531 4.4943237c-2.3063965 -0.37960815 -4.3658752 -1.6543884 -4.7915955 -3.7442017c-1.059082 -5.21579 3.1219177 -4.2724304 -2.1047668 -6.824707c-1.3386841 -0.6551819 -3.446991 -1.210144 -5.940735 -1.620575c-2.077057 -0.3418579 -4.419586 -0.5824585 -6.8118896 -0.7020569c-1.5561523 5.361969 -4.3495483 11.730225 -2.6352234 15.585541c0.80944824 1.8347168 1.3257141 2.527832 1.8296509 2.6107483c1.1531982 0.18981934 2.2191162 -2.8392334 6.531616 -2.5737305c0.15435791 0.009643555 0.30718994 0.028503418 0.45578003 0.052947998c5.8111877 0.9564514 7.405884 12.451965 2.3204346 13.294403c-0.9378052 0.15441895 -1.7754517 0.123687744 -2.534546 -0.0012512207c-1.7895508 -0.29452515 -3.133789 -1.1176147 -4.2998962 -1.3095398c-1.101532 -0.18127441 -2.0443726 0.20550537 -3.0466309 2.142212c-1.1207886 2.1125488 -1.6324158 5.8251953 -1.6210327 9.847626c0.92959595 0.13726807 1.8701172 0.2889099 2.813324 0.44415283c1.4019165 0.23074341 2.8055725 0.4711914 4.1719666 0.69610596c4.9228516 0.8102417 9.341431 1.3988342 11.333771 0.4411621c4.7183228 -2.3207703 -1.2667847 -1.0718384 -0.7441406 -6.282501c0.3215027 -3.2429504 5.1974487 -4.9895325 8.973572 -4.368042c2.2514648 0.37057495 4.1152344 1.5847778 4.387207 3.8226013c0.7578125 5.9980164 -5.7526245 4.7342834 0.1487732 7.4606323c0.40072632 0.18569946 0.86376953 0.31549072 1.3806152 0.4005432c3.9182434 0.64489746 10.932465 -1.3736267 17.223267 -2.9881592c-0.43414307 -4.9207153 -1.6784973 -9.817261 -3.2812195 -12.315033c-0.93099976 -1.4388123 -1.5587463 -1.9990234 -2.1240234 -2.0920715c-1.2695007 -0.20892334 -2.2198792 1.9568787 -5.5983276 1.8419495c-0.13546753 -0.0033874512 -0.27267456 -0.01651001 -0.40185547 -0.03778076c-4.567566 -0.7517395 -5.397705 -11.913452 0.33218384 -12.801086c0.6975403 -0.10574341 1.3259277 -0.093688965 1.8944397 -1.2207031E-4c2.7424622 0.4513855 4.1223145 2.8116455 5.298126 3.0051575c0.6557312 0.107940674 1.2495422 -0.45602417 1.9788208 -2.3872375c1.0106201 -2.672638 -0.21896362 -6.8325806 -1.764679 -11.107544c-3.5820923 -0.973999 -7.334198 -2.0641785 -10.545044 -2.5926208z" fill-rule="evenodd"/><path stroke="#000000" stroke-width="4.0" stroke-linejoin="round" stroke-linecap="butt" d="m354.12823 260.49756c-2.6455383 -0.43545532 -4.92218 -0.49191284 -6.4346313 0.2107544c-6.116974 2.8562317 0.8673401 1.261322 0.93222046 7.3974c0.043395996 3.6464539 -3.9111633 5.0562744 -7.325531 4.4943237c-2.3063965 -0.37960815 -4.3658752 -1.6543884 -4.7915955 -3.7442017c-1.059082 -5.21579 3.1219177 -4.2724304 -2.1047668 -6.824707c-1.3386841 -0.6551819 -3.446991 -1.210144 -5.940735 -1.620575c-2.077057 -0.3418579 -4.419586 -0.5824585 -6.8118896 -0.7020569c-1.5561523 5.361969 -4.3495483 11.730225 -2.6352234 15.585541c0.80944824 1.8347168 1.3257141 2.527832 1.8296509 2.6107483c1.1531982 0.18981934 2.2191162 -2.8392334 6.531616 -2.5737305c0.15435791 0.009643555 0.30718994 0.028503418 0.45578003 0.052947998c5.8111877 0.9564514 7.405884 12.451965 2.3204346 13.294403c-0.9378052 0.15441895 -1.7754517 0.123687744 -2.534546 -0.0012512207c-1.7895508 -0.29452515 -3.133789 -1.1176147 -4.2998962 -1.3095398c-1.101532 -0.18127441 -2.0443726 0.20550537 -3.0466309 2.142212c-1.1207886 2.1125488 -1.6324158 5.8251953 -1.6210327 9.847626c0.92959595 0.13726807 1.8701172 0.2889099 2.813324 0.44415283c1.4019165 0.23074341 2.8055725 0.4711914 4.1719666 0.69610596c4.9228516 0.8102417 9.341431 1.3988342 11.333771 0.4411621c4.7183228 -2.3207703 -1.2667847 -1.0718384 -0.7441406 -6.282501c0.3215027 -3.2429504 5.1974487 -4.9895325 8.973572 -4.368042c2.2514648 0.37057495 4.1152344 1.5847778 4.387207 3.8226013c0.7578125 5.9980164 -5.7526245 4.7342834 0.1487732 7.4606323c0.40072632 0.18569946 0.86376953 0.31549072 1.3806152 0.4005432c3.9182434 0.64489746 10.932465 -1.3736267 17.223267 -2.9881592c-0.43414307 -4.9207153 -1.6784973 -9.817261 -3.2812195 -12.315033c-0.93099976 -1.4388123 -1.5587463 -1.9990234 -2.1240234 -2.0920715c-1.2695007 -0.20892334 -2.2198792 1.9568787 -5.5983276 1.8419495c-0.13546753 -0.0033874512 -0.27267456 -0.01651001 -0.40185547 -0.03778076c-4.567566 -0.7517395 -5.397705 -11.913452 0.33218384 -12.801086c0.6975403 -0.10574341 1.3259277 -0.093688965 1.8944397 -1.2207031E-4c2.7424622 0.4513855 4.1223145 2.8116455 5.298126 3.0051575c0.6557312 0.107940674 1.2495422 -0.45602417 1.9788208 -2.3872375c1.0106201 -2.672638 -0.21896362 -6.8325806 -1.764679 -11.107544c-3.5820923 -0.973999 -7.334198 -2.0641785 -10.545044 -2.5926208z" fill-rule="evenodd"/><path fill="#ffffff" d="m320.72052 203.58641c-1.6195679 5.9140015 -3.3945923 12.057098 -1.7301636 15.041107c1.3742676 2.4337463 2.2457275 2.5175476 3.2825928 1.7890472c0.72106934 -0.5066223 1.5201416 -1.4044952 2.6227722 -2.1792297c1.0605469 -0.74513245 2.4005127 -1.3772278 4.218994 -1.4367065c5.6920166 -0.20933533 5.0888977 8.850021 1.0204468 11.708557c-0.5158081 0.3624115 -1.085907 0.6237335 -1.7035217 0.7560425c-4.2375183 0.90057373 -4.668976 -2.3928375 -5.8216248 -1.5829773c-0.3473816 0.24406433 -0.76348877 0.8651581 -1.3684387 2.0907135c-1.045105 2.103302 -1.3157349 6.094986 -1.0829773 10.471619c5.4835205 -0.6390686 11.501648 -0.48194885 15.112793 0.6624603c6.523285 2.076126 0.13348389 1.708374 0.9326477 7.7637634c0.6374817 4.7342377 9.399384 4.7077026 13.244141 2.0063324c1.0368652 -0.72850037 1.7163391 -1.6544952 1.7781372 -2.7304993c0.2937622 -4.584137 -5.288849 -4.1036224 -2.8019714 -5.8509216c0.24737549 -0.1737976 0.57543945 -0.36949158 0.99731445 -0.5962982c3.0017395 -1.5985565 10.609222 -0.09082031 17.251984 0.33509827c-0.80688477 -6.1698456 -2.4927979 -12.4646 -4.22641 -15.009415c-1.1972656 -1.7150421 -1.9598999 -1.8211823 -2.712555 -1.2923737c-0.7631531 0.5362091 -1.5138245 1.7210541 -2.695404 2.5512543c-0.76052856 0.53434753 -1.7013855 0.92082214 -2.9411316 0.88694763c-4.4242554 -0.1129303 -5.459503 -9.974136 -1.3436584 -12.865952c0.584198 -0.41047668 1.2702332 -0.67977905 2.069519 -0.76182556c4.366791 -0.47320557 4.762085 1.9948273 5.2857666 1.6268768c0.24475098 -0.17196655 0.51464844 -0.9494171 1.2189941 -2.9099731c1.0609741 -2.976883 1.6496887 -8.363815 1.5796509 -13.639832c-6.496063 1.8222656 -13.937988 5.1328735 -17.21811 3.8332062c-5.0556946 -2.0476532 0.43771362 -4.577011 -0.30181885 -9.227936c-0.5571594 -3.386856 -6.4448547 -3.6588135 -9.702789 -1.3697662c-1.2000122 0.84313965 -2.0423584 2.0305176 -2.132019 3.536026c-0.26885986 4.7677307 4.9181213 4.882324 2.702301 6.4391785c-0.4000244 0.28103638 -1.0438843 0.6096802 -2.0052185 1.0221405c-3.0541687 1.3221436 -8.388153 0.13522339 -13.530243 -1.0666656z" fill-rule="evenodd"/><path stroke="#000000" stroke-width="4.0" stroke-linejoin="round" stroke-linecap="butt" d="m320.72052 203.58641c-1.6195679 5.9140015 -3.3945923 12.057098 -1.7301636 15.041107c1.3742676 2.4337463 2.2457275 2.5175476 3.2825928 1.7890472c0.72106934 -0.5066223 1.5201416 -1.4044952 2.6227722 -2.1792297c1.0605469 -0.74513245 2.4005127 -1.3772278 4.218994 -1.4367065c5.6920166 -0.20933533 5.0888977 8.850021 1.0204468 11.708557c-0.5158081 0.3624115 -1.085907 0.6237335 -1.7035217 0.7560425c-4.2375183 0.90057373 -4.668976 -2.3928375 -5.8216248 -1.5829773c-0.3473816 0.24406433 -0.76348877 0.8651581 -1.3684387 2.0907135c-1.045105 2.103302 -1.3157349 6.094986 -1.0829773 10.471619c5.4835205 -0.6390686 11.501648 -0.48194885 15.112793 0.6624603c6.523285 2.076126 0.13348389 1.708374 0.9326477 7.7637634c0.6374817 4.7342377 9.399384 4.7077026 13.244141 2.0063324c1.0368652 -0.72850037 1.7163391 -1.6544952 1.7781372 -2.7304993c0.2937622 -4.584137 -5.288849 -4.1036224 -2.8019714 -5.8509216c0.24737549 -0.1737976 0.57543945 -0.36949158 0.99731445 -0.5962982c3.0017395 -1.5985565 10.609222 -0.09082031 17.251984 0.33509827c-0.80688477 -6.1698456 -2.4927979 -12.4646 -4.22641 -15.009415c-1.1972656 -1.7150421 -1.9598999 -1.8211823 -2.712555 -1.2923737c-0.7631531 0.5362091 -1.5138245 1.7210541 -2.695404 2.5512543c-0.76052856 0.53434753 -1.7013855 0.92082214 -2.9411316 0.88694763c-4.4242554 -0.1129303 -5.459503 -9.974136 -1.3436584 -12.865952c0.584198 -0.41047668 1.2702332 -0.67977905 2.069519 -0.76182556c4.366791 -0.47320557 4.762085 1.9948273 5.2857666 1.6268768c0.24475098 -0.17196655 0.51464844 -0.9494171 1.2189941 -2.9099731c1.0609741 -2.976883 1.6496887 -8.363815 1.5796509 -13.639832c-6.496063 1.8222656 -13.937988 5.1328735 -17.21811 3.8332062c-5.0556946 -2.0476532 0.43771362 -4.577011 -0.30181885 -9.227936c-0.5571594 -3.386856 -6.4448547 -3.6588135 -9.702789 -1.3697662c-1.2000122 0.84313965 -2.0423584 2.0305176 -2.132019 3.536026c-0.26885986 4.7677307 4.9181213 4.882324 2.702301 6.4391785c-0.4000244 0.28103638 -1.0438843 0.6096802 -2.0052185 1.0221405c-3.0541687 1.3221436 -8.388153 0.13522339 -13.530243 -1.0666656z" fill-rule="evenodd"/><path fill="#000000" fill-opacity="0.0" d="m368.0 183.6126l68.031494 0l0 67.87402l-68.031494 0z" fill-rule="evenodd"/><path fill="#00edff" d="m410.54688 204.38759q0.796875 0.796875 -0.109375 1.6875l-0.21875 0.234375l0 0.453125q-3.328125 3.5 -8.375 9.546875q2.859375 3.96875 5.15625 6.265625q0.953125 0.9375 0.3125 1.90625q-0.34375 0.859375 -0.828125 1.34375q-0.328125 0.65625 -1.15625 0.65625q-0.125 -0.265625 0.109375 -0.140625q-0.125 -0.0625 0.1875 0.25q-0.59375 1.1875 -1.109375 1.53125q-0.671875 1.015625 -1.90625 0.203125q-0.3125 -0.3125 -0.515625 -0.734375q0.453125 -0.25 0.640625 0.265625q-0.578125 0.5625 -0.921875 0.921875q-1.25 0.9375 -2.21875 -0.046875q-0.84375 -0.828125 -3.6875 -5.109375q-3.1875 4.078125 -4.890625 6.703125q-1.078125 1.625 -2.3125 0.8125q-0.203125 -0.21875 -0.578125 -0.578125q-0.625 -0.9375 -0.203125 -1.796875q0.53125 0.328125 0.53125 0.546875q0 0.453125 -0.015625 0.453125q-0.296875 0.09375 -1.078125 0.484375q-1.625 -1.609375 -1.78125 -1.921875q-0.84375 -0.84375 -0.109375 -1.953125q0.140625 -0.140625 0.0625 -0.328125q-0.34375 -0.515625 -0.640625 -1.671875q2.765625 -3.625 6.609375 -8.03125q-3.5 -5.984375 -4.75 -10.265625q1.21875 -1.421875 2.546875 -3.078125q0.40625 1.578125 0.609375 1.046875q0.265625 0.328125 0.265625 0.15625q0 0.515625 -0.515625 0.453125q0.25 -1.75 1.859375 -2.015625q0.96875 0 1.546875 0.859375q2.328125 3.890625 4.21875 6.484375q4.96875 -5.390625 9.28125 -9.34375l2.453125 2.15625q-0.53125 0.671875 -0.359375 0.671875q-0.328125 0 -0.03125 -0.21875q-0.1875 0.40625 0.71875 -0.21875q1.046875 1.046875 1.203125 1.359375z" fill-rule="nonzero"/><path fill="#000000" fill-opacity="0.0" d="m368.0 241.96309l68.031494 0l0 67.87401l-68.031494 0z" fill-rule="evenodd"/><path fill="#00edff" d="m410.54688 262.73807q0.796875 0.796875 -0.109375 1.6875l-0.21875 0.234375l0 0.453125q-3.328125 3.5 -8.375 9.546875q2.859375 3.96875 5.15625 6.265625q0.953125 0.9375 0.3125 1.90625q-0.34375 0.859375 -0.828125 1.34375q-0.328125 0.65625 -1.15625 0.65625q-0.125 -0.265625 0.109375 -0.140625q-0.125 -0.0625 0.1875 0.25q-0.59375 1.1875 -1.109375 1.53125q-0.671875 1.015625 -1.90625 0.203125q-0.3125 -0.3125 -0.515625 -0.734375q0.453125 -0.25 0.640625 0.265625q-0.578125 0.5625 -0.921875 0.921875q-1.25 0.9375 -2.21875 -0.046875q-0.84375 -0.828125 -3.6875 -5.109375q-3.1875 4.078125 -4.890625 6.703125q-1.078125 1.625 -2.3125 0.8125q-0.203125 -0.21875 -0.578125 -0.578125q-0.625 -0.9375 -0.203125 -1.796875q0.53125 0.328125 0.53125 0.546875q0 0.453125 -0.015625 0.453125q-0.296875 0.09375 -1.078125 0.484375q-1.625 -1.609375 -1.78125 -1.921875q-0.84375 -0.84375 -0.109375 -1.953125q0.140625 -0.140625 0.0625 -0.328125q-0.34375 -0.515625 -0.640625 -1.671875q2.765625 -3.625 6.609375 -8.03125q-3.5 -5.984375 -4.75 -10.265625q1.21875 -1.421875 2.546875 -3.078125q0.40625 1.578125 0.609375 1.046875q0.265625 0.328125 0.265625 0.15625q0 0.515625 -0.515625 0.453125q0.25 -1.75 1.859375 -2.015625q0.96875 0 1.546875 0.859375q2.328125 3.890625 4.21875 6.484375q4.96875 -5.390625 9.28125 -9.34375l2.453125 2.15625q-0.53125 0.671875 -0.359375 0.671875q-0.328125 0 -0.03125 -0.21875q-0.1875 0.40625 0.71875 -0.21875q1.046875 1.046875 1.203125 1.359375z" fill-rule="nonzero"/><path fill="#000000" fill-opacity="0.0" d="m370.19794 125.262115l68.031494 0l0 67.87401l-68.031494 0z" fill-rule="evenodd"/><path fill="#9900ff" d="m383.7292 157.17773q0.203125 -0.8125 0.90625 -2.046875q0.828125 -1.140625 1.515625 -2.015625q1.859375 -1.484375 3.5625 -1.484375q2.859375 0 2.859375 2.65625q0.296875 2.40625 1.0625 5.609375q0.28125 0.953125 0.609375 0.953125q0.15625 0 0.4375 -0.484375q2.109375 -1.9375 4.296875 -4.125q3.40625 -3.25 4.625 -4.78125q1.59375 -1.90625 4.296875 -4.453125q2.71875 -2.390625 4.171875 -3.375q1.53125 -0.953125 2.78125 -0.734375q1.71875 0.28125 1.46875 2.328125q-0.15625 1.140625 -0.015625 2.265625q0.234375 1.34375 -0.203125 1.78125q-3.140625 3.765625 -5.015625 5.484375q-4.546875 5.328125 -6.140625 6.609375q-5.90625 5.75 -10.296875 9.984375q-1.765625 1.59375 -3.453125 1.78125q-2.25 0.1875 -4.21875 -1.609375q-2.28125 -1.9375 -2.46875 -4.640625q-0.15625 -2.578125 -0.453125 -3.765625q-0.484375 -2.3125 -0.328125 -5.9375z" fill-rule="nonzero"/><path fill="#000000" fill-opacity="0.0" d="m370.19794 300.31357l68.031494 0l0 67.87402l-68.031494 0z" fill-rule="evenodd"/><path fill="#9900ff" d="m383.7292 332.2292q0.203125 -0.8125 0.90625 -2.046875q0.828125 -1.140625 1.515625 -2.015625q1.859375 -1.484375 3.5625 -1.484375q2.859375 0 2.859375 2.65625q0.296875 2.40625 1.0625 5.609375q0.28125 0.953125 0.609375 0.953125q0.15625 0 0.4375 -0.484375q2.109375 -1.9375 4.296875 -4.125q3.40625 -3.25 4.625 -4.78125q1.59375 -1.90625 4.296875 -4.453125q2.71875 -2.390625 4.171875 -3.375q1.53125 -0.953125 2.78125 -0.734375q1.71875 0.28125 1.46875 2.328125q-0.15625 1.140625 -0.015625 2.265625q0.234375 1.34375 -0.203125 1.78125q-3.140625 3.765625 -5.015625 5.484375q-4.546875 5.328125 -6.140625 6.609375q-5.90625 5.75 -10.296875 9.984375q-1.765625 1.59375 -3.453125 1.78125q-2.25 0.1875 -4.21875 -1.609375q-2.28125 -1.9375 -2.46875 -4.640625q-0.15625 -2.578125 -0.453125 -3.765625q-0.484375 -2.3125 -0.328125 -5.9375z" fill-rule="nonzero"/><path fill="#000000" fill-opacity="0.0" d="m370.19794 358.66406l68.031494 0l0 67.87399l-68.031494 0z" fill-rule="evenodd"/><path fill="#9900ff" d="m383.7292 390.57968q0.203125 -0.8125 0.90625 -2.046875q0.828125 -1.140625 1.515625 -2.015625q1.859375 -1.484375 3.5625 -1.484375q2.859375 0 2.859375 2.65625q0.296875 2.40625 1.0625 5.609375q0.28125 0.953125 0.609375 0.953125q0.15625 0 0.4375 -0.484375q2.109375 -1.9375 4.296875 -4.125q3.40625 -3.25 4.625 -4.78125q1.59375 -1.90625 4.296875 -4.453125q2.71875 -2.390625 4.171875 -3.375q1.53125 -0.953125 2.78125 -0.734375q1.71875 0.28125 1.46875 2.328125q-0.15625 1.140625 -0.015625 2.265625q0.234375 1.34375 -0.203125 1.78125q-3.140625 3.765625 -5.015625 5.484375q-4.546875 5.328125 -6.140625 6.609375q-5.90625 5.75 -10.296875 9.984375q-1.765625 1.59375 -3.453125 1.78125q-2.25 0.1875 -4.21875 -1.609375q-2.28125 -1.9375 -2.46875 -4.640625q-0.15625 -2.578125 -0.453125 -3.765625q-0.484375 -2.3125 -0.328125 -5.9375z" fill-rule="nonzero"/></g></svg>