<svg version="1.1" viewBox="0.0 0.0 557.8582677165355 557.8582677165355" fill="none" stroke="none" stroke-linecap="square" stroke-miterlimit="10" xmlns:xlink="http://www.w3.org/1999/xlink" xmlns="http://www.w3.org/2000/svg"><clipPath id="p.0"><path d="m0 0l557.8583 0l0 557.8583l-557.8583 0l0 -557.8583z" clip-rule="nonzero"/></clipPath><g clip-path="url(#p.0)"><path fill="#000000" fill-opacity="0.0" d="m0 0l557.8583 0l0 557.8583l-557.8583 0z" fill-rule="evenodd"/><path fill="#000000" d="m394.82187 367.82794c-28.134888 9.170258 -60.457275 24.762726 -75.33502 16.810455c-23.44403 -12.431671 4.378784 -17.223175 0.20132446 -41.371826c-3.4325562 -19.840393 -40.98932 -19.266602 -55.867096 -4.388855c-3.241272 3.2413025 -5.415558 7.1670837 -5.9088135 11.727051c-2.1138916 18.642517 11.888123 19.316925 8.22403 22.981018c-1.298523 1.298523 -4.821686 2.969513 -12.099487 5.959137c-13.045731 5.2948 -35.78514 0.31207275 -58.20244 -5.1941223c-7.851593 -23.55478 -15.300537 -46.28412 -9.4823 -57.397125c1.6609039 -3.1507263 3.1003723 -5.254547 4.3988953 -6.55307c7.9522552 -7.95224 10.790909 14.374451 28.9301 13.589294c3.0299072 -0.11071777 5.6974335 -1.4897766 7.962311 -3.7546692c13.418167 -13.418182 12.602814 -58.242706 -11.123077 -58.937256c-27.732224 -0.81536865 -19.266602 22.930664 -32.714966 -3.1607666c-6.9355774 -13.458435 -11.01236 -34.245026 -11.727051 -54.32698c30.379608 4.0667267 66.76871 12.532349 83.99188 5.4961243c6.734253 -2.7681885 10.166809 -4.449234 11.505585 -5.78804c4.1875305 -4.1875153 -11.958557 -5.173996 -11.807571 -26.322952c0.040267944 -5.677307 2.0031586 -10.03595 5.1437836 -13.17659c12.2907715 -12.290756 42.609985 -5.888687 45.931824 12.874603c4.076782 23.645355 -17.02185 18.853882 4.489502 28.950226c12.230347 5.9088135 40.979248 10.59964 68.19809 11.102951c4.1774597 13.357773 6.41214 26.00084 2.546753 35.5838c-2.6171875 6.3819427 -4.721039 10.136612 -6.7543945 12.169968c-6.764435 6.7644653 -12.733673 -5.606842 -34.134277 -4.117035c-5.103546 0.39257812 -9.109863 2.3655396 -12.079376 5.3350525c-13.216827 13.216827 -6.150421 46.253906 13.820831 48.589264c24.672089 2.8487244 30.379608 -24.460724 44.029297 -1.8320312c6.5329285 10.800964 8.677002 32.714935 7.861664 55.152374z" fill-rule="evenodd"/><path fill="#ffffff" d="m247.07103 262.7317l0 0c0 -5.73172 4.646469 -10.378174 10.378159 -10.378174l45.133453 0c2.752472 0 5.3921814 1.0934143 7.3384705 3.039688c1.9462891 1.9462738 3.0397034 4.586014 3.0397034 7.3384857l0 41.511383c0 5.7316895 -4.6464844 10.378174 -10.378174 10.378174l-45.133453 0c-5.7316895 0 -10.378159 -4.6464844 -10.378159 -10.378174z" fill-rule="evenodd"/><path fill="#000000" d="m271.99078 277.23l0 0c0 -4.4269714 3.645172 -8.015747 8.141754 -8.015747l0 0c2.1593018 0 4.230194 0.84451294 5.7570496 2.3477478c1.526886 1.5032349 2.384674 3.5420837 2.384674 5.6679993l0 0c0 4.4269714 -3.645172 8.015747 -8.141724 8.015747l0 0c-4.496582 0 -8.141754 -3.5887756 -8.141754 -8.015747z" fill-rule="evenodd"/><path fill="#ffffff" d="m253.48256 235.90414l0 0c-0.33547974 -9.613205 4.5576935 -18.655228 12.788956 -23.632446c8.231232 -4.977234 18.511505 -5.110214 26.868744 -0.3475647c8.357239 4.762665 13.482666 13.675095 13.395935 23.293762l-9.151154 -0.08250427c0.056793213 -6.3013763 -3.3009644 -12.140091 -8.77597 -15.260208c-5.4749756 -3.120102 -12.209778 -3.0329895 -17.602234 0.22769165c-5.392456 3.2606812 -8.5980835 9.184296 -8.378296 15.482101z" fill-rule="evenodd"/><path fill="#ffffff" d="m253.49344 235.15587l9.13385 0l0 30.362198l-9.13385 0z" fill-rule="evenodd"/><path fill="#000000" d="m275.5615 280.5608l9.13385 0l0 20.37796l-9.13385 0z" fill-rule="evenodd"/></g></svg>