<svg version="1.1" viewBox="0.0 0.0 557.8582677165355 557.8582677165355" fill="none" stroke="none" stroke-linecap="square" stroke-miterlimit="10" xmlns:xlink="http://www.w3.org/1999/xlink" xmlns="http://www.w3.org/2000/svg"><clipPath id="p.0"><path d="m0 0l557.8583 0l0 557.8583l-557.8583 0l0 -557.8583z" clip-rule="nonzero"/></clipPath><g clip-path="url(#p.0)"><path fill="#000000" fill-opacity="0.0" d="m0 0l557.8583 0l0 557.8583l-557.8583 0z" fill-rule="evenodd"/><path fill="#000000" d="m394.82187 367.82794c-28.134888 9.170258 -60.457275 24.762726 -75.33502 16.810455c-23.44403 -12.431671 4.378784 -17.223175 0.20132446 -41.371826c-3.4325562 -19.840393 -40.98932 -19.266602 -55.867096 -4.388855c-3.241272 3.2413025 -5.415558 7.1670837 -5.9088135 11.727051c-2.1138916 18.642517 11.888123 19.316925 8.22403 22.981018c-1.298523 1.298523 -4.821686 2.969513 -12.099487 5.959137c-13.045731 5.2948 -35.78514 0.31207275 -58.20244 -5.1941223c-7.851593 -23.55478 -15.300537 -46.28412 -9.4823 -57.397125c1.6609039 -3.1507263 3.1003723 -5.254547 4.3988953 -6.55307c7.9522552 -7.95224 10.790909 14.374451 28.9301 13.589294c3.0299072 -0.11071777 5.6974335 -1.4897766 7.962311 -3.7546692c13.418167 -13.418182 12.602814 -58.242706 -11.123077 -58.937256c-27.732224 -0.81536865 -19.266602 22.930664 -32.714966 -3.1607666c-6.9355774 -13.458435 -11.01236 -34.245026 -11.727051 -54.32698c30.379608 4.0667267 66.76871 12.532349 83.99188 5.4961243c6.734253 -2.7681885 10.166809 -4.449234 11.505585 -5.78804c4.1875305 -4.1875153 -11.958557 -5.173996 -11.807571 -26.322952c0.040267944 -5.677307 2.0031586 -10.03595 5.1437836 -13.17659c12.2907715 -12.290756 42.609985 -5.888687 45.931824 12.874603c4.076782 23.645355 -17.02185 18.853882 4.489502 28.950226c12.230347 5.9088135 40.979248 10.59964 68.19809 11.102951c4.1774597 13.357773 6.41214 26.00084 2.546753 35.5838c-2.6171875 6.3819427 -4.721039 10.136612 -6.7543945 12.169968c-6.764435 6.7644653 -12.733673 -5.606842 -34.134277 -4.117035c-5.103546 0.39257812 -9.109863 2.3655396 -12.079376 5.3350525c-13.216827 13.216827 -6.150421 46.253906 13.820831 48.589264c24.672089 2.8487244 30.379608 -24.460724 44.029297 -1.8320312c6.5329285 10.800964 8.677002 32.714935 7.861664 55.152374z" fill-rule="evenodd"/><path fill="#ffffff" d="m247.07103 258.4234l0 0c0 -5.7327423 4.6473236 -10.380051 10.380051 -10.380051l45.127563 0c2.7529602 0 5.393158 1.0936127 7.339813 3.0402527c1.9466248 1.94664 3.0402527 4.586853 3.0402527 7.339798l0 41.519012c0 5.732727 -4.647339 10.380035 -10.380066 10.380035l-45.127563 0c-5.732727 0 -10.380051 -4.6473083 -10.380051 -10.380035z" fill-rule="evenodd"/><path fill="#000000" d="m271.99078 273.5364l0 0c0 -4.4248962 3.6435852 -8.011993 8.138184 -8.011993l0 0c2.1583862 0 4.228363 0.8441162 5.754547 2.3466492c1.5262146 1.5025635 2.3836365 3.5404358 2.3836365 5.665344l0 0c0 4.4249268 -3.6435852 8.011993 -8.138184 8.011993l0 0c-4.4945984 0 -8.138184 -3.5870667 -8.138184 -8.011993z" fill-rule="evenodd"/><path fill="#ffffff" d="m253.48256 248.21307l0 0c-0.33546448 -9.612778 4.55748 -18.654388 12.788376 -23.631393c8.2308655 -4.977005 18.51065 -5.10997 26.867523 -0.34753418c8.356842 4.762436 13.482056 13.674469 13.395325 23.292694l-9.150726 -0.08250427c0.056793213 -6.3010864 -3.3008118 -12.139542 -8.775574 -15.259506c-5.4747314 -3.1199646 -12.2092285 -3.0328522 -17.60144 0.22767639c-5.392212 3.2605438 -8.597687 9.183884 -8.37793 15.4814z" fill-rule="evenodd"/><path fill="#000000" d="m275.5615 276.87097l9.134949 0l0 20.389587l-9.134949 0z" fill-rule="evenodd"/></g></svg>