<svg version="1.1" viewBox="0.0 0.0 557.8582677165355 557.8582677165355" fill="none" stroke="none" stroke-linecap="square" stroke-miterlimit="10" xmlns:xlink="http://www.w3.org/1999/xlink" xmlns="http://www.w3.org/2000/svg"><clipPath id="p.0"><path d="m0 0l557.8583 0l0 557.8583l-557.8583 0l0 -557.8583z" clip-rule="nonzero"/></clipPath><g clip-path="url(#p.0)"><path fill="#000000" fill-opacity="0.0" d="m0 0l557.8583 0l0 557.8583l-557.8583 0z" fill-rule="evenodd"/><path fill="#000000" d="m339.1664 333.22458c-3.5408936 -16.099457 -6.21521 -31.14795 -1.6921082 -38.14084c4.264618 -6.511261 7.2118835 -7.054901 10.224335 -5.438263c2.8273315 1.5173035 5.7121887 4.9265137 9.801727 7.121155c2.0531921 1.1018372 4.4036255 1.8922119 7.2007446 1.9917297c13.38501 0.40512085 23.457153 -35.764923 10.456451 -42.74176c-0.83306885 -0.44706726 -1.7715759 -0.77841187 -2.808319 -0.9671478c-12.9552 -2.4376068 -19.995209 7.972122 -25.784515 4.86528c-1.8259888 -0.97991943 -3.517517 -3.3006897 -5.239441 -7.7860565c-3.0107117 -7.8996735 1.4493103 -20.509613 7.18338 -33.837357c17.067444 1.9447479 35.281555 1.1273499 44.687927 -3.7159271c16.245178 -8.376251 -2.4789429 -5.39711 0.2795105 -20.551483c2.06073 -11.209305 23.165161 -15.4729 34.306213 -9.494064c4.0138245 2.1540222 6.7342834 5.647339 6.800995 10.611511c0.32174683 17.71495 -22.319305 17.006714 -9.579468 23.843567c0.7741699 0.4154358 1.6936951 0.86294556 2.7585754 1.3425293c9.195801 4.1307526 26.33548 -0.39945984 43.03125 -4.7083893c-5.5787964 15.501907 -10.76474 31.099777 -8.237671 40.48607c1.6903381 6.260559 2.5546265 8.688843 3.4634094 9.176544c1.9942932 1.070221 4.1900024 -7.24057 15.810608 -5.002228c1.160492 0.22070312 2.2384338 0.61538696 3.2398071 1.1527405c13.471924 7.229706 12.178741 40.896515 -3.3559875 42.416534c-4.2660522 0.45629883 -7.511505 -0.5041809 -10.136871 -1.9131165c-3.466858 -1.8604736 -5.872345 -4.506958 -8.1779785 -5.744293c-2.7936707 -1.4992065 -5.4382935 -0.95401 -9.594971 5.4773254c-6.531372 10.108276 1.3700562 33.430237 5.224701 53.649963c-15.057953 -1.7509155 -30.297455 -5.5867004 -39.12445 -10.32373c-0.7489319 -0.4019165 -1.4545898 -0.80358887 -2.09906 -1.2183533c-15.987091 -10.095886 4.8303833 -1.8306885 6.500946 -21.520782c0.40753174 -5.0198364 -2.12677 -8.516663 -6.1742554 -10.688751c-11.881561 -6.3762207 -36.799927 -1.3677979 -38.89041 9.997894c-2.8952637 15.207306 17.840607 15.628357 2.9306946 21.94107c-8.42627 3.6230774 -25.972748 -4.1734314 -43.005768 -10.281372z" fill-rule="evenodd"/><path fill="#ffffff" d="m253.44969 335.20178c-19.987549 6.5147095 -42.949997 17.591888 -53.51944 11.942474c-16.655106 -8.831726 3.1107635 -12.235687 0.14302063 -29.391357c-2.4385529 -14.094971 -29.119598 -13.687378 -39.689056 -3.11792c-2.3026733 2.3026733 -3.8473358 5.0916443 -4.1977386 8.331116c-1.5017395 13.243988 8.445541 13.723114 5.842514 16.326172c-0.9225006 0.92248535 -3.425415 2.1095886 -8.595718 4.23349c-9.267929 3.7615051 -25.422455 0.22167969 -41.34813 -3.6900024c-5.577919 -16.733765 -10.869797 -32.881134 -6.736412 -40.77603c1.1799469 -2.2383423 2.202568 -3.7329407 3.1250687 -4.655426c5.6494293 -5.6494446 7.6660614 10.211884 20.55249 9.654083c2.1525116 -0.0786438 4.047577 -1.0583801 5.6565857 -2.667389c9.532532 -9.532532 8.953278 -41.37674 -7.902054 -41.870148c-19.701508 -0.57925415 -13.687363 16.290375 -23.24134 -2.2454834c-4.927162 -9.561127 -7.823387 -24.328323 -8.331123 -38.594925c21.582268 2.8890686 47.433777 8.9032135 59.66945 3.904541c4.784149 -1.966568 7.222702 -3.1608276 8.173813 -4.111923c2.974884 -2.9748993 -8.495605 -3.675705 -8.388336 -18.700348c0.02859497 -4.033264 1.4230804 -7.129715 3.654251 -9.360886c8.731583 -8.731598 30.27095 -4.183441 32.63083 9.146362c2.8962402 16.798111 -12.092636 13.39415 3.1894379 20.566788c8.688675 4.1977386 29.112457 7.530197 48.44925 7.8877563c2.967743 9.489609 4.555298 18.471497 1.8092499 25.279419c-1.859314 4.533844 -3.3539124 7.201233 -4.7984467 8.645782c-4.805588 4.805603 -9.046249 -3.9832153 -24.24965 -2.9248352c-3.6256561 0.27890015 -6.471817 1.680542 -8.581421 3.7901306c-9.389496 9.389496 -4.3693695 32.85968 9.818573 34.518738c17.527542 2.0238037 21.58226 -17.37735 31.279266 -1.3015137c4.6411133 7.673218 6.164322 23.241364 5.5850677 39.181335z" fill-rule="evenodd"/><path stroke="#000000" stroke-width="4.0" stroke-linejoin="round" stroke-linecap="butt" d="m253.44969 335.20178c-19.987549 6.5147095 -42.949997 17.591888 -53.51944 11.942474c-16.655106 -8.831726 3.1107635 -12.235687 0.14302063 -29.391357c-2.4385529 -14.094971 -29.119598 -13.687378 -39.689056 -3.11792c-2.3026733 2.3026733 -3.8473358 5.0916443 -4.1977386 8.331116c-1.5017395 13.243988 8.445541 13.723114 5.842514 16.326172c-0.9225006 0.92248535 -3.425415 2.1095886 -8.595718 4.23349c-9.267929 3.7615051 -25.422455 0.22167969 -41.34813 -3.6900024c-5.577919 -16.733765 -10.869797 -32.881134 -6.736412 -40.77603c1.1799469 -2.2383423 2.202568 -3.7329407 3.1250687 -4.655426c5.6494293 -5.6494446 7.6660614 10.211884 20.55249 9.654083c2.1525116 -0.0786438 4.047577 -1.0583801 5.6565857 -2.667389c9.532532 -9.532532 8.953278 -41.37674 -7.902054 -41.870148c-19.701508 -0.57925415 -13.687363 16.290375 -23.24134 -2.2454834c-4.927162 -9.561127 -7.823387 -24.328323 -8.331123 -38.594925c21.582268 2.8890686 47.433777 8.9032135 59.66945 3.904541c4.784149 -1.966568 7.222702 -3.1608276 8.173813 -4.111923c2.974884 -2.9748993 -8.495605 -3.675705 -8.388336 -18.700348c0.02859497 -4.033264 1.4230804 -7.129715 3.654251 -9.360886c8.731583 -8.731598 30.27095 -4.183441 32.63083 9.146362c2.8962402 16.798111 -12.092636 13.39415 3.1894379 20.566788c8.688675 4.1977386 29.112457 7.530197 48.44925 7.8877563c2.967743 9.489609 4.555298 18.471497 1.8092499 25.279419c-1.859314 4.533844 -3.3539124 7.201233 -4.7984467 8.645782c-4.805588 4.805603 -9.046249 -3.9832153 -24.24965 -2.9248352c-3.6256561 0.27890015 -6.471817 1.680542 -8.581421 3.7901306c-9.389496 9.389496 -4.3693695 32.85968 9.818573 34.518738c17.527542 2.0238037 21.58226 -17.37735 31.279266 -1.3015137c4.6411133 7.673218 6.164322 23.241364 5.5850677 39.181335z" fill-rule="evenodd"/><path fill="#ffffff" d="m254.55287 261.7089l52.598434 0l0 -13.370087l26.740143 26.740143l-26.740143 26.740173l0 -13.370087l-52.598434 0z" fill-rule="evenodd"/><path stroke="#000000" stroke-width="4.0" stroke-linejoin="round" stroke-linecap="butt" d="m254.55287 261.7089l52.598434 0l0 -13.370087l26.740143 26.740143l-26.740143 26.740173l0 -13.370087l-52.598434 0z" fill-rule="evenodd"/></g></svg>